<svg id="Layer_1" data-name="Layer 1" xmlns="http://www.w3.org/2000/svg" viewBox="0 0 4783.51 2647.48"><defs><style>.cls-1,.cls-6{fill:#ff0a28;}.cls-2{fill:#ff9100;}.cls-3{fill:#ffd500;}.cls-4{fill:#ff71f4;}.cls-5{fill:#b2b2b2;}.cls-10,.cls-11,.cls-12,.cls-13,.cls-14,.cls-15,.cls-16,.cls-17,.cls-5,.cls-6,.cls-7,.cls-8,.cls-9{stroke:#000;}.cls-13,.cls-14,.cls-16,.cls-5,.cls-6,.cls-7,.cls-8,.cls-9{stroke-linecap:round;}.cls-13,.cls-14,.cls-15,.cls-16,.cls-17,.cls-5,.cls-6,.cls-7,.cls-8,.cls-9{stroke-linejoin:round;}.cls-10,.cls-11,.cls-12,.cls-13,.cls-14,.cls-15,.cls-16,.cls-17,.cls-5,.cls-6,.cls-7,.cls-8{stroke-width:6px;}.cls-7{fill:#666;}.cls-10,.cls-17,.cls-8,.cls-9{fill:none;}.cls-9{stroke-width:7px;}.cls-10,.cls-11,.cls-12{stroke-miterlimit:10;}.cls-11{fill:#00feb9;}.cls-12{fill:#ffd400;}.cls-13{fill:#00f39e;}.cls-14{fill:#e6e6e6;}.cls-15,.cls-16{fill:#fff;}.cls-18{font-size:47px;font-family:Regular-Bold, Regular;font-weight:700;}</style></defs><rect class="cls-1" x="144.94" y="70.94" width="1116.14" height="2510.78"/><rect class="cls-2" x="1256.76" y="70.94" width="1116.14" height="2510.78"/><rect class="cls-3" x="2367.57" y="70.94" width="1116.14" height="2510.78"/><rect class="cls-4" x="3480.38" y="70.94" width="1116.14" height="2510.78"/><rect class="cls-5" x="387.57" y="1768.29" width="630" height="442"/><polygon class="cls-5" points="1091.57 2329.11 303.57 2329.11 387.57 2210.29 1017.57 2210.29 1091.57 2329.11"/><rect class="cls-6" x="420.57" y="1798.46" width="565" height="381.66"/><rect class="cls-5" x="303.57" y="2329.11" width="788" height="34.18"/><polygon class="cls-7" points="1004.57 2290.29 399.57 2290.29 437.57 2225.29 968.57 2225.29 1004.57 2290.29"/><line class="cls-8" x1="701.57" y1="2225.29" x2="701.57" y2="2290.29"/><line class="cls-8" x1="869.57" y1="2225.29" x2="884.57" y2="2290.29"/><line class="cls-8" x1="820.57" y1="2225.29" x2="828.57" y2="2290.29"/><line class="cls-8" x1="761.57" y1="2225.29" x2="765.57" y2="2290.29"/><line class="cls-8" x1="918.57" y1="2225.29" x2="943.57" y2="2290.29"/><line class="cls-8" x1="535.57" y1="2225.29" x2="520.57" y2="2290.29"/><line class="cls-8" x1="584.57" y1="2225.29" x2="576.57" y2="2290.29"/><line class="cls-8" x1="643.57" y1="2225.29" x2="639.57" y2="2290.29"/><line class="cls-8" x1="486.57" y1="2225.29" x2="461.57" y2="2290.29"/><line class="cls-8" x1="432.57" y1="2237.29" x2="972.57" y2="2237.29"/><line class="cls-8" x1="422.57" y1="2252.29" x2="982.57" y2="2252.29"/><line class="cls-8" x1="412.57" y1="2269.29" x2="991.57" y2="2269.29"/><polygon class="cls-8" points="892.57 2319.34 513.57 2319.34 518.57 2299.24 887.51 2299.24 892.57 2319.34"/><polyline class="cls-9" points="3594.88 2020.92 3632.43 2058.37 3594.97 2095.92"/><polyline class="cls-9" points="1426.84 956.91 1464.39 994.37 1426.93 1031.92"/><polyline class="cls-9" points="4093.33 1611.32 4055.87 1648.87 4018.32 1611.41"/><line class="cls-9" x1="3630.9" y1="2058.38" x2="1133.41" y2="2058.65"/><path class="cls-8" d="M610.55,2072.47a134.1,134.1,0,0,0,189.75,0"/><circle class="cls-10" cx="622.12" cy="1946.27" r="17.32"/><circle class="cls-10" cx="787.9" cy="1946.27" r="17.32"/><line class="cls-8" x1="786.42" y1="1862.83" x2="722.3" y2="1926.96"/><line class="cls-8" x1="630.81" y1="1862.83" x2="694.94" y2="1926.96"/><path d="M560.41,282.1H543l-7-22.16H511.57l-6.49,22.16H488.14l26.22-81.2h19.25Zm-36.54-63.8h-.23l-8.24,27.84H532Z"/><path d="M585.23,208.79V229h11.49v12.76H585.23v24c0,3.36,2.67,3.83,5,3.83,3.83,0,7-.35,7-.35V282.1s-7.31.69-11.71.69c-7.54,0-15.32-1.27-15.32-11.94V241.73H561.8V229h8.35V208.79Z"/><path d="M626.18,208.79V229h11.48v12.76H626.18v24c0,3.36,2.67,3.83,5,3.83,3.83,0,7-.35,7-.35V282.1s-7.31.69-11.72.69c-7.54,0-15.31-1.27-15.31-11.94V241.73h-8.35V229h8.35V208.79Z"/><path d="M677.57,246.72c0-3.83-3-6.27-8.82-6.27-5.33,0-12.06,2.67-16,5l-5.91-11.37a45.49,45.49,0,0,1,22.73-6.49c12.07,0,23.09,5.57,23.09,19.6V282.1H677.57v-5c-2.79,4.17-8.82,6.38-14.85,6.38-11.25,0-18.56-8-18.56-16.7,0-10.1,7.42-16.36,19.26-16.36h10.44c2.55,0,3.71-1.16,3.71-3.13Zm0,16.35v-3.82c-.93.92-2.55,1.16-4.64,1.16h-5.69c-4.75,0-7.54,2.08-7.54,5.8s2.9,6.26,7.54,6.26C672.7,272.47,677.57,269.69,677.57,263.07Z"/><path d="M716.78,255.53c0,8.36,5.45,14.5,13.34,14.5a12.16,12.16,0,0,0,11.71-8.12L756,266.32c-3.48,10.56-13.92,17.17-26,17.17-15.78,0-28.3-11.72-28.3-28s12.52-27.95,28.3-27.95c12.06,0,22.5,6.73,26,17.28l-14.15,4.29A12.33,12.33,0,0,0,730.12,241C722.23,241,716.78,247.18,716.78,255.53Z"/><path d="M779.88,247.41h3.6L798.09,229H816.3l-20.53,24.36,21.11,28.77H798.79l-15.31-21.93h-3.6V282.1h-15V200.9h15Z"/><path d="M873.14,259.94H833.59a12,12,0,0,0,12.18,10.67c4.4,0,8.58-1.85,10.67-5.45l15.66,1.63c-4.76,11.36-14.73,16.7-26.57,16.7-15.89,0-27.84-11.72-27.84-28s11.72-27.95,27.61-27.95c14.62,0,27.84,9.51,27.84,31.78Zm-39.9-10.09H857a11.52,11.52,0,0,0-11.72-9.74A11.84,11.84,0,0,0,833.24,249.85Z"/><path d="M914.67,243.82h-6.38c-7.66,0-11.14,3.59-11.14,12.87V282.1H882.07V229h14.62v8.47c2.09-5.69,7.19-9.17,13.8-9.17a17,17,0,0,1,4.18.47Z"/><path d="M1585.44,200.9,1601,259h.11l13-58.11h16.47l-19.84,81.2h-18.67l-15.32-58.35-15,58.35H1543.1L1523,200.9h17.4L1553,259h.11l15.54-58.11Z"/><path d="M1686.6,259.94H1647a12,12,0,0,0,12.18,10.67c4.41,0,8.59-1.85,10.67-5.45l15.66,1.63c-4.75,11.36-14.73,16.7-26.56,16.7-15.89,0-27.84-11.72-27.84-28s11.72-27.95,27.61-27.95c14.61,0,27.84,9.51,27.84,31.78Zm-39.91-10.09h23.78a11.51,11.51,0,0,0-11.71-9.74A11.85,11.85,0,0,0,1646.69,249.85Z"/><path d="M1710.61,282.1h-15.08V200.9h15.08v26.21c0,3.48-.23,7.2-.23,8.7,2.55-4.52,8.81-8.23,16.82-8.23,14.61,0,25.75,11.71,25.75,27.95s-11.25,28-25.87,28c-7.54,0-13.8-3.6-16.47-8.12Zm-.35-26.57c0,8.12,5.57,14.62,13.57,14.62s13.57-6.5,13.57-14.62-5.56-14.5-13.57-14.5S1710.26,247.3,1710.26,255.53Z"/><path d="M1829.62,222.47c-5-4.87-11.48-8.35-17.17-8.35-5.33,0-10.2,2.79-10.2,7.66,0,3.71,2.32,6.61,8.81,9.63l6.73,3.13c12.88,6,20.65,12.76,20.65,24.94s-10.33,24-28.19,24c-12.29,0-21.46-4.76-29.11-12.18l8.93-12.06c6,6.14,13.69,9.62,19.83,9.62,7,0,11.25-3.82,11.25-8.81,0-5.57-5-8.7-12.76-12.3l-5.68-2.67c-10.9-5.1-17.75-12.52-17.75-22.73,0-14.27,12.76-22.85,27.15-22.85,9.39,0,19,4.64,26.79,11.36Z"/><path d="M1900.38,259.94h-39.55A12,12,0,0,0,1873,270.61c4.4,0,8.58-1.85,10.67-5.45l15.66,1.63c-4.76,11.36-14.73,16.7-26.57,16.7-15.89,0-27.84-11.72-27.84-28s11.72-27.95,27.61-27.95c14.62,0,27.84,9.51,27.84,31.78Zm-39.9-10.09h23.78a11.52,11.52,0,0,0-11.72-9.74A11.84,11.84,0,0,0,1860.48,249.85Z"/><path d="M1941.91,243.82h-6.38c-7.66,0-11.14,3.59-11.14,12.87V282.1h-15.08V229h14.62v8.47c2.09-5.69,7.19-9.17,13.8-9.17a17,17,0,0,1,4.18.47Z"/><path d="M1973,265.86,1985.06,229H2001L1982,282.1h-18.67L1945.27,229h16.36Z"/><path d="M2058.83,259.94h-39.55a12,12,0,0,0,12.18,10.67c4.41,0,8.58-1.85,10.67-5.45l15.66,1.63c-4.76,11.36-14.73,16.7-26.56,16.7-15.89,0-27.84-11.72-27.84-28s11.71-27.95,27.6-27.95c14.62,0,27.84,9.51,27.84,31.78Zm-39.9-10.09h23.78a11.52,11.52,0,0,0-11.72-9.74A11.84,11.84,0,0,0,2018.93,249.85Z"/><path d="M2100.36,243.82H2094c-7.65,0-11.13,3.59-11.13,12.87V282.1h-15.08V229h14.61v8.47c2.09-5.69,7.19-9.17,13.8-9.17a17,17,0,0,1,4.18.47Z"/><path d="M2552.87,282.1H2525V200.9h27.84c26.57,0,42.11,16.47,42.11,40.6S2579.44,282.1,2552.87,282.1Zm-.58-67.4h-11.13v53.71h11.13c14.85,0,26.22-8.7,26.22-26.91C2578.51,223.52,2567.14,214.7,2552.29,214.7Z"/><path d="M2633.84,246.72c0-3.83-3-6.27-8.81-6.27-5.34,0-12.07,2.67-16,5l-5.92-11.37a45.5,45.5,0,0,1,22.74-6.49c12.06,0,23.08,5.57,23.08,19.6V282.1h-15.08v-5c-2.78,4.17-8.81,6.38-14.85,6.38-11.25,0-18.56-8-18.56-16.7,0-10.1,7.43-16.36,19.26-16.36h10.44c2.55,0,3.71-1.16,3.71-3.13Zm0,16.35v-3.82c-.93.92-2.55,1.16-4.64,1.16h-5.68c-4.76,0-7.54,2.08-7.54,5.8s2.9,6.26,7.54,6.26C2629,272.47,2633.84,269.69,2633.84,263.07Z"/><path d="M2680.36,208.79V229h11.48v12.76h-11.48v24c0,3.36,2.67,3.83,5,3.83,3.82,0,7-.35,7-.35V282.1s-7.31.69-11.72.69c-7.54,0-15.31-1.27-15.31-11.94V241.73h-8.35V229h8.35V208.79Z"/><path d="M2731.75,246.72c0-3.83-3-6.27-8.82-6.27-5.34,0-12.06,2.67-16,5L2701,234.07a45.49,45.49,0,0,1,22.73-6.49c12.07,0,23.09,5.57,23.09,19.6V282.1h-15.08v-5c-2.79,4.17-8.82,6.38-14.85,6.38-11.25,0-18.56-8-18.56-16.7,0-10.1,7.42-16.36,19.25-16.36H2728c2.56,0,3.72-1.16,3.72-3.13Zm0,16.35v-3.82c-.93.92-2.56,1.16-4.64,1.16h-5.69c-4.75,0-7.54,2.08-7.54,5.8s2.9,6.26,7.54,6.26C2726.87,272.47,2731.75,269.69,2731.75,263.07Z"/><path d="M2774.32,282.1h-15.08V200.9h15.08v26.21c0,3.48-.23,7.2-.23,8.7,2.55-4.52,8.81-8.23,16.82-8.23,14.61,0,25.75,11.71,25.75,27.95s-11.25,28-25.87,28c-7.54,0-13.8-3.6-16.47-8.12Zm-.35-26.57c0,8.12,5.57,14.62,13.57,14.62s13.57-6.5,13.57-14.62-5.56-14.5-13.57-14.5S2774,247.3,2774,255.53Z"/><path d="M2855.86,246.72c0-3.83-3-6.27-8.81-6.27-5.34,0-12.06,2.67-16,5l-5.91-11.37a45.49,45.49,0,0,1,22.73-6.49c12.07,0,23.08,5.57,23.08,19.6V282.1h-15.08v-5c-2.78,4.17-8.81,6.38-14.84,6.38-11.25,0-18.56-8-18.56-16.7,0-10.1,7.42-16.36,19.25-16.36h10.44c2.55,0,3.71-1.16,3.71-3.13Zm0,16.35v-3.82c-.92.92-2.55,1.16-4.63,1.16h-5.69c-4.75,0-7.54,2.08-7.54,5.8s2.9,6.26,7.54,6.26C2851,272.47,2855.86,269.69,2855.86,263.07Z"/><path d="M2914.68,245.21a19.34,19.34,0,0,0-13.11-5.45c-4,0-5.34,2-5.34,3.59,0,1.86,1.16,3.14,3.95,4.06l8.81,2.79c10.91,3.59,14.62,9.51,14.62,16.47,0,7.77-6.61,16.82-21.11,16.82-11.72,0-19-4.52-23.44-8.35l8-10.44c3.83,3.59,10.67,6.61,15.66,6.61,3.59,0,5.8-1.86,5.8-3.94,0-2.67-1.74-3.83-6-5.11l-9.05-2.67c-8.59-2.78-12.3-8.58-12.3-15.54,0-8.7,7.89-16.47,20.65-16.47,7,0,15.2,2.09,21.46,7.89Z"/><path d="M2985.32,259.94h-39.56a12,12,0,0,0,12.18,10.67c4.41,0,8.59-1.85,10.68-5.45l15.65,1.63c-4.75,11.36-14.73,16.7-26.56,16.7-15.89,0-27.84-11.72-27.84-28s11.72-27.95,27.61-27.95c14.62,0,27.84,9.51,27.84,31.78Zm-39.9-10.09h23.78a11.53,11.53,0,0,0-11.72-9.74A11.84,11.84,0,0,0,2945.42,249.85Z"/><path d="M3061.18,222.47c-5-4.87-11.48-8.35-17.17-8.35-5.33,0-10.2,2.79-10.2,7.66,0,3.71,2.32,6.61,8.81,9.63l6.73,3.13c12.88,6,20.65,12.76,20.65,24.94s-10.33,24-28.19,24c-12.3,0-21.46-4.76-29.12-12.18l8.94-12.06c6,6.14,13.68,9.62,19.83,9.62,7,0,11.25-3.82,11.25-8.81,0-5.57-5-8.7-12.76-12.3l-5.68-2.67c-10.9-5.1-17.75-12.52-17.75-22.73,0-14.27,12.76-22.85,27.15-22.85,9.39,0,19,4.64,26.79,11.36Z"/><path d="M3131.94,259.94h-39.55a12,12,0,0,0,12.18,10.67c4.4,0,8.58-1.85,10.67-5.45l15.66,1.63c-4.76,11.36-14.73,16.7-26.57,16.7-15.89,0-27.84-11.72-27.84-28s11.72-27.95,27.61-27.95c14.62,0,27.84,9.51,27.84,31.78ZM3092,249.85h23.78a11.52,11.52,0,0,0-11.72-9.74A11.84,11.84,0,0,0,3092,249.85Z"/><path d="M3173.47,243.82h-6.38c-7.66,0-11.14,3.59-11.14,12.87V282.1h-15.08V229h14.62v8.47c2.09-5.69,7.19-9.17,13.8-9.17a17,17,0,0,1,4.18.47Z"/><path d="M3204.55,265.86,3216.62,229h15.89L3213.6,282.1h-18.67L3176.83,229h16.36Z"/><path d="M3290.39,259.94h-39.55A12,12,0,0,0,3263,270.61c4.41,0,8.58-1.85,10.67-5.45l15.66,1.63c-4.76,11.36-14.73,16.7-26.56,16.7-15.9,0-27.84-11.72-27.84-28s11.71-27.95,27.6-27.95c14.62,0,27.84,9.51,27.84,31.78Zm-39.9-10.09h23.78a11.52,11.52,0,0,0-11.72-9.74A11.84,11.84,0,0,0,3250.49,249.85Z"/><path d="M3331.92,243.82h-6.38c-7.66,0-11.14,3.59-11.14,12.87V282.1h-15.08V229h14.62v8.47c2.09-5.69,7.19-9.17,13.8-9.17a17,17,0,0,1,4.18.47Z"/><path d="M3639.61,282.1V200.9h16.13v67.39h34.45V282.1Z"/><path d="M3715.13,282.1h-15.08V241.73h-7.43V229h22.51Zm-8.24-81.2a9.73,9.73,0,0,1,9.75,9.74,9.69,9.69,0,0,1-19.38,0A9.71,9.71,0,0,1,3706.89,200.9Z"/><path d="M3759.44,245.21a19.33,19.33,0,0,0-13.11-5.45c-3.94,0-5.33,2-5.33,3.59,0,1.86,1.16,3.14,3.94,4.06l8.82,2.79c10.9,3.59,14.61,9.51,14.61,16.47,0,7.77-6.61,16.82-21.11,16.82-11.72,0-19-4.52-23.43-8.35l8-10.44c3.83,3.59,10.67,6.61,15.66,6.61,3.6,0,5.8-1.86,5.8-3.94,0-2.67-1.74-3.83-6-5.11l-9.05-2.67c-8.58-2.78-12.29-8.58-12.29-15.54,0-8.7,7.88-16.47,20.64-16.47,7,0,15.2,2.09,21.46,7.89Z"/><path d="M3797,208.79V229h11.49v12.76H3797v24c0,3.36,2.67,3.83,5,3.83,3.83,0,7-.35,7-.35V282.1s-7.31.69-11.71.69c-7.54,0-15.32-1.27-15.32-11.94V241.73h-8.35V229h8.35V208.79Z"/><path d="M3871,259.94h-39.55a12,12,0,0,0,12.17,10.67c4.41,0,8.59-1.85,10.68-5.45l15.66,1.63c-4.76,11.36-14.74,16.7-26.57,16.7-15.89,0-27.84-11.72-27.84-28s11.72-27.95,27.61-27.95c14.62,0,27.84,9.51,27.84,31.78Zm-39.9-10.09h23.78a11.53,11.53,0,0,0-11.72-9.74A11.84,11.84,0,0,0,3831.13,249.85Z"/><path d="M3910.7,227.58c11.48,0,19.72,7.31,19.72,19.72v34.8h-15.08v-31c0-6.73-4.29-9.52-9.05-9.52-4.41,0-8.35,2.44-11.25,6V282.1H3880V229h14.73v2.09c0,1.85-.23,4.17-.23,4.17A20.92,20.92,0,0,1,3910.7,227.58Z"/><path d="M3961,282.1H3946V241.73h-7.42V229H3961Zm-8.23-81.2a9.73,9.73,0,0,1,9.74,9.74,9.69,9.69,0,0,1-19.37,0A9.7,9.7,0,0,1,3952.81,200.9Z"/><path d="M4004.77,227.58c11.49,0,19.72,7.31,19.72,19.72v34.8h-15.07v-31c0-6.73-4.3-9.52-9.05-9.52-4.41,0-8.35,2.44-11.25,6V282.1H3974V229h14.73v2.09c0,1.85-.23,4.17-.23,4.17A20.91,20.91,0,0,1,4004.77,227.58Z"/><path d="M4090.73,229V286c0,8.35-4.18,16.36-17.05,16.36H4050.6V289.64H4070c2.66,0,5.68-.7,5.68-4.76V274.67c-2.55,4.3-8.93,8-16.47,8-14.39,0-25.52-10.91-25.52-27.49s11-27.61,25.4-27.61c8,0,14.15,3.71,16.82,8.23,0-.58-.23-1.62-.23-4.4V229Zm-28.19,40.72c8,0,13.46-5.92,13.46-14.5s-5.45-14.62-13.46-14.62-13.34,5.92-13.34,14.62S4054.65,269.69,4062.54,269.69Z"/><path d="M4170.65,222.47c-5-4.87-11.48-8.35-17.17-8.35-5.33,0-10.2,2.79-10.2,7.66,0,3.71,2.32,6.61,8.81,9.63l6.73,3.13c12.88,6,20.65,12.76,20.65,24.94s-10.33,24-28.19,24c-12.3,0-21.46-4.76-29.11-12.18l8.93-12.06c6,6.14,13.68,9.62,19.83,9.62,7,0,11.25-3.82,11.25-8.81,0-5.57-5-8.7-12.75-12.3l-5.69-2.67c-10.9-5.1-17.75-12.52-17.75-22.73,0-14.27,12.76-22.85,27.15-22.85,9.39,0,19,4.64,26.79,11.36Z"/><path d="M4241.41,259.94h-39.55A12,12,0,0,0,4214,270.61c4.4,0,8.58-1.85,10.67-5.45l15.66,1.63c-4.76,11.36-14.73,16.7-26.57,16.7-15.89,0-27.84-11.72-27.84-28s11.72-27.95,27.61-27.95c14.62,0,27.84,9.51,27.84,31.78Zm-39.9-10.09h23.78a11.52,11.52,0,0,0-11.72-9.74A11.84,11.84,0,0,0,4201.51,249.85Z"/><path d="M4282.94,243.82h-6.38c-7.66,0-11.14,3.59-11.14,12.87V282.1h-15.08V229H4265v8.47c2.09-5.69,7.19-9.17,13.8-9.17a17,17,0,0,1,4.18.47Z"/><path d="M4314,265.86,4326.09,229H4342l-18.91,53.13H4304.4L4286.3,229h16.36Z"/><path d="M4399.86,259.94h-39.55a12,12,0,0,0,12.18,10.67c4.41,0,8.58-1.85,10.67-5.45l15.66,1.63c-4.76,11.36-14.73,16.7-26.56,16.7-15.9,0-27.84-11.72-27.84-28s11.71-27.95,27.6-27.95c14.62,0,27.84,9.51,27.84,31.78ZM4360,249.85h23.78a11.52,11.52,0,0,0-11.72-9.74A11.84,11.84,0,0,0,4360,249.85Z"/><path d="M4441.39,243.82H4435c-7.66,0-11.14,3.59-11.14,12.87V282.1H4408.8V229h14.61v8.47c2.09-5.69,7.19-9.17,13.8-9.17a17,17,0,0,1,4.18.47Z"/><polyline class="cls-9" points="3274.39 994.37 4055.79 994.37 4055.79 1644.04"/><polyline class="cls-9" points="2558.14 956.91 2595.69 994.37 2558.23 1031.92"/><line class="cls-9" x1="2133.43" y1="994.37" x2="2588.87" y2="994.37"/><polyline class="cls-9" points="705.28 1637.35 705.28 994.37 1462.71 994.37"/><path d="M1848.48,2198.9l17.7-30.38h13.35V2199h6.6v8.62h-6.6V2221h-10.12v-13.43h-20.93Zm9,.07h11.93V2179H1869Z"/><path d="M1897.68,2208.87a6.53,6.53,0,1,1-6.52,6.52A6.53,6.53,0,0,1,1897.68,2208.87Z"/><path d="M1952.5,2212.32c7,0,12.3-3.75,14.25-10h11.48c-3.08,12.38-13.88,19.58-25.73,19.58-15.44,0-27.37-11.33-27.37-27.15s11.93-27.15,27.37-27.15c11.85,0,22.65,7.2,25.73,19.57h-11.48c-2-6.22-7.27-10-14.25-10-9.9,0-16.49,7.5-16.49,17.55S1942.6,2212.32,1952.5,2212.32Z"/><path d="M1982.06,2203.84c0-10.49,8.17-18.07,18.37-18.07s18.37,7.58,18.37,18.07-8.17,18.08-18.37,18.08S1982.06,2214.34,1982.06,2203.84Zm9.74,0c0,5.33,3.53,9.38,8.63,9.38s8.55-4,8.55-9.38-3.53-9.37-8.55-9.37S1991.8,2198.44,1991.8,2203.84Z"/><path d="M2034.7,2221H2025v-52.5h9.67Z"/><path d="M2052.78,2221h-9.68v-52.5h9.68Z"/><path d="M2094.85,2206.69h-25.57a8.16,8.16,0,0,0,14.77,3.38l10.13,1c-3.08,7.35-9.53,10.8-17.18,10.8-10.27,0-18-7.58-18-18.08s7.58-18.07,17.85-18.07c9.45,0,18,6.15,18,20.55Zm-25.8-6.52h15.38a7.46,7.46,0,0,0-7.58-6.3A7.66,7.66,0,0,0,2069.05,2200.17Z"/><path d="M2108.2,2203.84c0,5.4,3.53,9.38,8.63,9.38a7.86,7.86,0,0,0,7.57-5.25l9.15,2.85c-2.25,6.82-9,11.1-16.8,11.1-10.2,0-18.3-7.58-18.3-18.08s8.1-18.07,18.3-18.07c7.8,0,14.55,4.35,16.8,11.17l-9.15,2.78a8,8,0,0,0-7.57-5.25C2111.73,2194.47,2108.2,2198.44,2108.2,2203.84Z"/><path d="M2151.63,2173.62v13.05h7.42v8.25h-7.42v15.52c0,2.18,1.72,2.48,3.22,2.48a44.41,44.41,0,0,0,4.5-.23V2221s-4.72.45-7.57.45c-4.88,0-9.9-.83-9.9-7.73v-18.82h-5.4v-8.25h5.4v-13.05Z"/><path d="M2186.05,2197.17a12.48,12.48,0,0,0-8.47-3.52c-2.55,0-3.45,1.27-3.45,2.32,0,1.2.75,2,2.55,2.63l5.7,1.79c7,2.33,9.45,6.15,9.45,10.65,0,5-4.28,10.88-13.65,10.88a22.17,22.17,0,0,1-15.15-5.4l5.17-6.75a17,17,0,0,0,10.13,4.27c2.32,0,3.75-1.2,3.75-2.55,0-1.72-1.13-2.47-3.9-3.3l-5.85-1.72c-5.55-1.8-7.95-5.55-7.95-10,0-5.63,5.1-10.65,13.35-10.65a20.46,20.46,0,0,1,13.87,5.1Z"/><path d="M2238.63,2212.32c7,0,12.3-3.75,14.24-10h11.48c-3.08,12.38-13.87,19.58-25.72,19.58-15.45,0-27.38-11.33-27.38-27.15s11.93-27.15,27.38-27.15c11.85,0,22.64,7.2,25.72,19.57h-11.48c-1.94-6.22-7.27-10-14.24-10-9.9,0-16.5,7.5-16.5,17.55S2228.73,2212.32,2238.63,2212.32Z"/><path d="M2289.4,2198.15c0-2.48-2-4.05-5.7-4.05-3.45,0-7.8,1.72-10.35,3.22l-3.82-7.35a29.37,29.37,0,0,1,14.7-4.2c7.79,0,14.92,3.6,14.92,12.67V2221h-9.75v-3.23c-1.8,2.7-5.7,4.13-9.6,4.13-7.27,0-12-5.18-12-10.8,0-6.53,4.8-10.58,12.45-10.58H2287c1.65,0,2.4-.75,2.4-2Zm0,10.57v-2.48a4.24,4.24,0,0,1-3,.75h-3.67c-3.08,0-4.88,1.35-4.88,3.75s1.88,4.05,4.88,4.05C2286.25,2214.79,2289.4,2213,2289.4,2208.72Z"/><path d="M2316.93,2234.14h-9.75v-47.47h9.75v1.65c0,1.65-.16,2.4-.16,2.78,1.66-2.93,5.71-5.33,10.88-5.33,9.45,0,16.65,7.58,16.65,18.07s-7.28,18.08-16.73,18.08c-4.87,0-8.92-2.33-10.64-5.25Zm-.23-30.3c0,5.25,3.6,9.45,8.77,9.45s8.78-4.2,8.78-9.45-3.6-9.37-8.78-9.37S2316.7,2198.52,2316.7,2203.84Z"/><path d="M2362.9,2173.62v13.05h7.42v8.25h-7.42v15.52c0,2.18,1.72,2.48,3.22,2.48a44.41,44.41,0,0,0,4.5-.23V2221s-4.72.45-7.57.45c-4.88,0-9.9-.83-9.9-7.73v-18.82h-5.4v-8.25h5.4v-13.05Z"/><path d="M2376.55,2208.42v-21.75h9.75v19.95c0,4.72,3.15,6.6,6.6,6.6s6.6-1.88,6.6-6.6v-19.95h9.67v21.75c0,7.2-5.7,13.5-16.27,13.5S2376.55,2215.62,2376.55,2208.42Z"/><path d="M2438.12,2196.27H2434c-4.95,0-7.2,2.33-7.2,8.32V2221h-9.75v-34.35h9.45v5.48a9,9,0,0,1,8.92-5.93,11.29,11.29,0,0,1,2.7.3Z"/><path d="M2476.9,2206.69h-25.58a8.16,8.16,0,0,0,14.78,3.38l10.12,1c-3.07,7.35-9.52,10.8-17.17,10.8-10.28,0-18-7.58-18-18.08s7.57-18.07,17.85-18.07c9.45,0,18,6.15,18,20.55Zm-25.8-6.52h15.37a7.45,7.45,0,0,0-7.57-6.3A7.65,7.65,0,0,0,2451.1,2200.17Z"/><path d="M2508,2216.67c-1.73,2.85-5.78,5.25-10.73,5.25-9.45,0-16.65-7.58-16.65-18.08s7.13-18.07,16.58-18.07c5.25,0,9.22,2.4,10.95,5.33,0-1.13-.15-4-.15-6.53v-16.05h9.75V2221H2508Zm-17.33-12.83c0,5.25,3.6,9.45,8.78,9.45s8.77-4.2,8.77-9.45-3.6-9.37-8.77-9.37S2490.62,2198.52,2490.62,2203.84Z"/><path d="M2542.37,2168.52h10.43V2221h-10.43Z"/><path d="M2582.35,2185.77c7.42,0,12.75,4.73,12.75,12.75V2221h-9.75v-20c0-4.34-2.78-6.14-5.85-6.14a9.54,9.54,0,0,0-7.28,3.89V2221h-9.75v-34.35H2572V2188c0,1.2-.15,2.7-.15,2.7A13.51,13.51,0,0,1,2582.35,2185.77Z"/><path d="M2605.44,2176.92c0-6.75,4.5-9.07,9.75-9.07,2.63,0,7.13.45,7.13.45v8.92s-3-.37-4.05-.37c-1.88,0-3.08.45-3.08,2.85v7h6.6v8.25h-6.6V2221h-9.75v-26.1h-5.39v-8.25h5.39Z"/><path d="M2624.8,2203.84c0-10.49,8.17-18.07,18.37-18.07s18.37,7.58,18.37,18.07-8.17,18.08-18.37,18.08S2624.8,2214.34,2624.8,2203.84Zm9.74,0c0,5.33,3.53,9.38,8.63,9.38s8.55-4,8.55-9.38-3.53-9.37-8.55-9.37S2634.54,2198.44,2634.54,2203.84Z"/><path d="M2688.84,2196.27h-4.12c-4.95,0-7.2,2.33-7.2,8.32V2221h-9.75v-34.35h9.45v5.48a9,9,0,0,1,8.92-5.93,11.29,11.29,0,0,1,2.7.3Z"/><path d="M2739.47,2200.85c0-4.2-2.7-6-5.7-6-2.78,0-5.25,1.57-7.13,3.89V2221h-9.75v-20.17c0-4.13-2.62-6-5.7-6a9.35,9.35,0,0,0-7.12,3.89V2221h-9.75v-34.35h9.52V2188c0,1.2-.15,2.7-.15,2.7a13.31,13.31,0,0,1,10.28-4.95c5.1,0,9.07,2.17,11,6.22a13.81,13.81,0,0,1,11.55-6.22c7.43,0,12.68,4.73,12.68,12.75V2221h-9.75Z"/><path d="M2776.29,2198.15c0-2.48-1.95-4.05-5.7-4.05-3.45,0-7.8,1.72-10.35,3.22l-3.82-7.35a29.37,29.37,0,0,1,14.7-4.2c7.8,0,14.92,3.6,14.92,12.67V2221h-9.75v-3.23c-1.8,2.7-5.7,4.13-9.6,4.13-7.27,0-12-5.18-12-10.8,0-6.53,4.8-10.58,12.45-10.58h6.75c1.65,0,2.4-.75,2.4-2Zm0,10.57v-2.48a4.24,4.24,0,0,1-3,.75h-3.67c-3.08,0-4.88,1.35-4.88,3.75s1.88,4.05,4.88,4.05C2773.14,2214.79,2776.29,2213,2776.29,2208.72Z"/><path d="M2806.37,2173.62v13.05h7.42v8.25h-7.42v15.52c0,2.18,1.72,2.48,3.22,2.48a44.41,44.41,0,0,0,4.5-.23V2221s-4.72.45-7.57.45c-4.88,0-9.9-.83-9.9-7.73v-18.82h-5.4v-8.25h5.4v-13.05Z"/><path d="M2832.32,2221h-9.75v-26.1h-4.8v-8.25h14.55Zm-5.33-52.5a6.29,6.29,0,0,1,6.3,6.3,6.26,6.26,0,0,1-12.52,0A6.27,6.27,0,0,1,2827,2168.52Z"/><path d="M2838.54,2203.84c0-10.49,8.18-18.07,18.38-18.07s18.37,7.58,18.37,18.07-8.17,18.08-18.37,18.08S2838.54,2214.34,2838.54,2203.84Zm9.75,0c0,5.33,3.53,9.38,8.63,9.38s8.55-4,8.55-9.38-3.53-9.37-8.55-9.37S2848.29,2198.44,2848.29,2203.84Z"/><path d="M2901.39,2185.77c7.42,0,12.75,4.73,12.75,12.75V2221h-9.75v-20c0-4.34-2.77-6.14-5.85-6.14a9.5,9.5,0,0,0-7.27,3.89V2221h-9.75v-34.35H2891V2188c0,1.2-.15,2.7-.15,2.7A13.54,13.54,0,0,1,2901.39,2185.77Z"/><circle class="cls-11" cx="1611.86" cy="765.81" r="169.61"/><circle class="cls-10" cx="1611.86" cy="765.81" r="169.61"/><line class="cls-12" x1="1611.32" y1="596.2" x2="1611.86" y2="936.32"/><path class="cls-10" d="M1612.54,596.2s132.52,156.71,1.21,339.09"/><path class="cls-10" d="M1614.16,596.61s114.42,37,112.6,169.2c-1.85,134.28-111,169.48-111,169.48"/><path class="cls-10" d="M1610.06,935.41s-113.54-142.75.45-338.8"/><path class="cls-10" d="M1610.1,935.29S1497,898,1498.81,765.81c1.86-134.28,110.48-169.61,110.48-169.61"/><line class="cls-10" x1="1442.26" y1="765.81" x2="1781.47" y2="765.81"/><path class="cls-10" d="M1515.05,628s34.81,31.17,96.7,31.17c64.86,0,99.24-31.17,99.24-31.17"/><path class="cls-10" d="M1461.88,686.76s54.24,28,149.87,28c105,0,149.63-29.18,149.63-29.18"/><path class="cls-10" d="M1705.91,904.41s-34.81-31.17-96.7-31.17c-64.86,0-97.79,30-97.79,30"/><path class="cls-10" d="M1761.38,846.8s-56.54-29.18-152.17-29.18c-105,0-146,27.52-146,27.52"/><rect class="cls-5" x="1658.55" y="797.37" width="406.91" height="171.64"/><rect class="cls-5" x="1658.55" y="969" width="406.91" height="171.64"/><rect class="cls-5" x="1658.55" y="1140.64" width="406.91" height="171.64"/><circle class="cls-13" cx="1715.89" cy="885.35" r="17.84"/><circle class="cls-13" cx="1769.69" cy="885.35" r="17.84"/><circle class="cls-13" cx="1821.96" cy="885.35" r="17.84"/><line class="cls-8" x1="1861.49" y1="886.48" x2="2040.84" y2="886.48"/><circle class="cls-13" cx="1715.89" cy="1058.92" r="17.84"/><circle class="cls-13" cx="1769.69" cy="1058.92" r="17.84"/><circle class="cls-13" cx="1821.96" cy="1058.92" r="17.84"/><line class="cls-8" x1="1861.49" y1="1060.05" x2="2040.84" y2="1060.05"/><circle class="cls-13" cx="1715.89" cy="1227.66" r="17.84"/><circle class="cls-13" cx="1769.69" cy="1227.66" r="17.84"/><circle class="cls-13" cx="1821.96" cy="1227.66" r="17.84"/><line class="cls-8" x1="1861.49" y1="1228.79" x2="2040.84" y2="1228.79"/><polygon class="cls-14" points="2065.47 797.37 1658.55 797.37 1705.35 717.99 2009.09 717.99 2065.47 797.37"/><path d="M441.65,689h10.42v52.49H441.65Z"/><path d="M481.62,706.22c7.43,0,12.75,4.72,12.75,12.75v22.49h-9.75v-20c0-4.35-2.77-6.15-5.85-6.15a9.48,9.48,0,0,0-7.27,3.9v22.27h-9.75V707.12h9.52v1.35c0,1.2-.15,2.7-.15,2.7A13.51,13.51,0,0,1,481.62,706.22Z"/><path d="M504.42,715.36h-4.8v-8.24h14.55v39.22c0,7.5-6,8.32-10.87,8.32h-5.18v-8.25h3.38c1.95,0,2.92-.45,2.92-2.17ZM508.85,689a6.29,6.29,0,0,1,6.3,6.3,6.27,6.27,0,0,1-12.53,0A6.28,6.28,0,0,1,508.85,689Z"/><path d="M556.25,727.14H530.67a8.16,8.16,0,0,0,14.78,3.38l10.12,1c-3.07,7.35-9.52,10.8-17.17,10.8-10.28,0-18-7.57-18-18.07s7.57-18.07,17.85-18.07c9.45,0,18,6.14,18,20.55Zm-25.8-6.53h15.37a7.45,7.45,0,0,0-7.57-6.3A7.66,7.66,0,0,0,530.45,720.61Z"/><path d="M569.6,724.29c0,5.4,3.52,9.37,8.62,9.37a7.87,7.87,0,0,0,7.58-5.25l9.15,2.86c-2.25,6.82-9,11.09-16.8,11.09-10.2,0-18.3-7.57-18.3-18.07s8.1-18.07,18.3-18.07c7.8,0,14.55,4.35,16.8,11.17l-9.15,2.78a8,8,0,0,0-7.58-5.25C573.12,714.92,569.6,718.89,569.6,724.29Z"/><path d="M613,694.07v13h7.43v8.24H613v15.53c0,2.17,1.73,2.47,3.23,2.47,2.47,0,4.5-.22,4.5-.22v8.32s-4.73.45-7.58.45c-4.87,0-9.9-.82-9.9-7.72V715.36h-5.4v-8.24h5.4v-13Z"/><path d="M647.44,717.61a12.53,12.53,0,0,0-8.47-3.52c-2.55,0-3.45,1.27-3.45,2.33s.75,2,2.55,2.62l5.7,1.8c7.05,2.32,9.45,6.15,9.45,10.65,0,5-4.28,10.87-13.65,10.87a22.14,22.14,0,0,1-15.15-5.4l5.18-6.75a17,17,0,0,0,10.12,4.28c2.33,0,3.75-1.2,3.75-2.55,0-1.73-1.12-2.48-3.9-3.3l-5.85-1.73c-5.55-1.8-8-5.55-8-10,0-5.62,5.1-10.64,13.35-10.64a20.5,20.5,0,0,1,13.88,5.1Z"/><path d="M696.19,730.21l-10.34-25.87v37.12H675.72V689h14.7l11.47,29.77L713.59,689h14v52.49H717.27V704.34l-10,25.87Z"/><path d="M755.67,718.59c0-2.48-1.95-4.05-5.7-4.05-3.45,0-7.8,1.73-10.35,3.23l-3.82-7.35a29.37,29.37,0,0,1,14.7-4.2c7.8,0,14.92,3.6,14.92,12.67v22.57h-9.75v-3.22c-1.8,2.7-5.7,4.12-9.6,4.12-7.27,0-12-5.17-12-10.8,0-6.52,4.8-10.57,12.45-10.57h6.75c1.65,0,2.4-.75,2.4-2Zm0,10.57v-2.47a4.24,4.24,0,0,1-3,.75H749c-3.08,0-4.88,1.35-4.88,3.75s1.88,4,4.88,4C752.52,735.24,755.67,733.44,755.67,729.16Z"/><path d="M783.12,741.46h-9.67V689h9.67Z"/><path d="M803.3,741.46h-9.75v-26.1h-4.8v-8.24H803.3ZM798,689a6.29,6.29,0,0,1,6.3,6.3,6.26,6.26,0,0,1-12.52,0A6.27,6.27,0,0,1,798,689Z"/><path d="M819.27,724.29c0,5.4,3.52,9.37,8.62,9.37a7.87,7.87,0,0,0,7.58-5.25l9.15,2.86c-2.25,6.82-9,11.09-16.8,11.09-10.2,0-18.3-7.57-18.3-18.07s8.1-18.07,18.3-18.07c7.8,0,14.55,4.35,16.8,11.17l-9.15,2.78a8,8,0,0,0-7.58-5.25C822.79,714.92,819.27,718.89,819.27,724.29Z"/><path d="M862.17,741.46h-9.75v-26.1h-4.8v-8.24h14.55ZM856.85,689a6.28,6.28,0,0,1,6.29,6.3,6.26,6.26,0,0,1-12.52,0A6.27,6.27,0,0,1,856.85,689Z"/><path d="M868.39,724.29c0-10.5,8.18-18.07,18.38-18.07s18.37,7.57,18.37,18.07-8.17,18.07-18.37,18.07S868.39,734.79,868.39,724.29Zm9.75,0c0,5.32,3.53,9.37,8.63,9.37s8.55-4,8.55-9.37-3.53-9.37-8.55-9.37S878.14,718.89,878.14,724.29Z"/><path d="M910.84,728.86V707.12h9.75v19.94c0,4.73,3.15,6.6,6.6,6.6s6.6-1.87,6.6-6.6V707.12h9.68v21.74c0,7.2-5.7,13.5-16.28,13.5S910.84,736.06,910.84,728.86Z"/><path d="M971.59,717.61a12.53,12.53,0,0,0-8.47-3.52c-2.55,0-3.45,1.27-3.45,2.33s.75,2,2.55,2.62l5.7,1.8c7.05,2.32,9.45,6.15,9.45,10.65,0,5-4.28,10.87-13.65,10.87a22.12,22.12,0,0,1-15.15-5.4l5.17-6.75a17,17,0,0,0,10.13,4.28c2.32,0,3.75-1.2,3.75-2.55,0-1.73-1.13-2.48-3.9-3.3l-5.85-1.73c-5.55-1.8-8-5.55-8-10,0-5.62,5.1-10.64,13.35-10.64a20.46,20.46,0,0,1,13.87,5.1Z"/><path d="M468.65,792.92c-3.23-3.15-7.43-5.4-11.1-5.4-3.45,0-6.6,1.8-6.6,5,0,2.4,1.5,4.27,5.7,6.22l4.35,2c8.32,3.89,13.35,8.25,13.35,16.12s-6.68,15.52-18.23,15.52c-7.95,0-13.87-3.07-18.82-7.87l5.77-7.8c3.9,4,8.85,6.22,12.83,6.22,4.5,0,7.27-2.47,7.27-5.7,0-3.6-3.22-5.62-8.25-7.94l-3.67-1.73c-7.05-3.3-11.48-8.1-11.48-14.7,0-9.22,8.25-14.77,17.55-14.77,6.08,0,12.3,3,17.33,7.35Z"/><path d="M534.27,805.22A26.62,26.62,0,0,1,523.47,827l1.2,2c1.2,2,2.55,2.77,6.08,2.77a27.26,27.26,0,0,0,3.75-.22v9.15s-4.8.37-7.58.37c-5.7,0-8.55-2.47-11.92-8l-1-1.58a28.64,28.64,0,0,1-7.2.9c-15.22,0-27.45-11.32-27.45-27.14s12.23-27.15,27.45-27.15S534.27,789.39,534.27,805.22ZM508.7,822.69l-4.5-7.5,8.77-5.33,5.18,8.55a17.93,17.93,0,0,0,5.25-13.19c0-10.05-6.68-17.55-16.58-17.55s-16.57,7.5-16.57,17.55,6.67,17.54,16.57,17.54A16.88,16.88,0,0,0,508.7,822.69Z"/><path d="M542.15,831.46V779h10.42v43.57h22.28v8.92Z"/><path d="M618.35,822.76c7,0,12.3-3.74,14.25-10h11.47c-3.07,12.37-13.87,19.57-25.72,19.57C602.9,832.36,591,821,591,805.22s11.93-27.15,27.38-27.15c11.85,0,22.65,7.2,25.72,19.57H632.6c-2-6.22-7.28-10-14.25-10-9.9,0-16.5,7.5-16.5,17.55S608.45,822.76,618.35,822.76Z"/><path d="M647.9,814.29c0-10.5,8.17-18.07,18.37-18.07s18.38,7.57,18.38,18.07-8.18,18.07-18.38,18.07S647.9,824.79,647.9,814.29Zm9.75,0c0,5.32,3.52,9.37,8.62,9.37s8.55-4,8.55-9.37-3.52-9.37-8.55-9.37S657.65,808.89,657.65,814.29Z"/><path d="M736,811.29c0-4.2-2.7-6-5.7-6a9.33,9.33,0,0,0-7.12,3.9v22.27h-9.75V811.29c0-4.12-2.63-6-5.7-6-2.78,0-5.25,1.57-7.13,3.9v22.27h-9.75V797.12h9.53v1.35c0,1.2-.15,2.7-.15,2.7a13.3,13.3,0,0,1,10.27-4.95c5.1,0,9.08,2.17,11,6.22a13.81,13.81,0,0,1,11.55-6.22c7.42,0,12.67,4.72,12.67,12.75v22.49H736Z"/><path d="M798.94,811.29c0-4.2-2.7-6-5.7-6a9.33,9.33,0,0,0-7.12,3.9v22.27h-9.75V811.29c0-4.12-2.62-6-5.7-6a9.33,9.33,0,0,0-7.12,3.9v22.27H753.8V797.12h9.52v1.35c0,1.2-.15,2.7-.15,2.7a13.31,13.31,0,0,1,10.27-4.95c5.1,0,9.08,2.17,11,6.22A13.81,13.81,0,0,1,796,796.22c7.42,0,12.67,4.72,12.67,12.75v22.49h-9.75Z"/><path d="M835.77,808.59c0-2.48-1.95-4.05-5.7-4.05-3.45,0-7.8,1.73-10.35,3.23l-3.83-7.35a29.43,29.43,0,0,1,14.71-4.2c7.79,0,14.92,3.6,14.92,12.67v22.57h-9.75v-3.22c-1.8,2.7-5.7,4.12-9.6,4.12-7.28,0-12-5.17-12-10.8,0-6.52,4.8-10.57,12.45-10.57h6.75c1.65,0,2.4-.75,2.4-2Zm0,10.57v-2.47a4.24,4.24,0,0,1-3,.75H829.1c-3.08,0-4.88,1.35-4.88,3.75s1.88,4,4.88,4C832.62,825.24,835.77,823.44,835.77,819.16Z"/><path d="M873.42,796.22c7.42,0,12.75,4.72,12.75,12.75v22.49h-9.75v-20c0-4.35-2.78-6.15-5.85-6.15a9.52,9.52,0,0,0-7.28,3.9v22.27h-9.75V797.12h9.53v1.35c0,1.2-.15,2.7-.15,2.7A13.48,13.48,0,0,1,873.42,796.22Z"/><path d="M919.47,827.11c-1.73,2.85-5.78,5.25-10.73,5.25-9.45,0-16.65-7.57-16.65-18.07s7.13-18.07,16.58-18.07c5.25,0,9.22,2.4,11,5.32,0-1.12-.15-4-.15-6.52V779h9.75v52.49h-9.75Zm-17.33-12.82c0,5.25,3.6,9.45,8.78,9.45s8.77-4.2,8.77-9.45-3.6-9.37-8.77-9.37S902.14,809,902.14,814.29Z"/><path d="M1571.63,1505h-10.35v-52.5h17.77c12.38,0,18.9,7.72,18.9,17.25s-6.52,17.47-18.9,17.47h-7.42Zm0-43.5v16.8h5.85c5.7,0,9.82-2.7,9.82-8.55s-4.12-8.25-9.82-8.25Z"/><path d="M1624.12,1480.25H1620c-5,0-7.2,2.32-7.2,8.32V1505h-9.75v-34.35h9.45v5.47a9,9,0,0,1,8.92-5.92,10.8,10.8,0,0,1,2.7.3Z"/><path d="M1627.05,1487.82c0-10.5,8.18-18.07,18.37-18.07s18.38,7.57,18.38,18.07-8.18,18.08-18.38,18.08S1627.05,1498.32,1627.05,1487.82Zm9.75,0c0,5.33,3.52,9.38,8.62,9.38s8.55-4,8.55-9.38-3.52-9.37-8.55-9.37S1636.8,1482.42,1636.8,1487.82Z"/><path d="M1677.6,1487.82c0,5.4,3.52,9.38,8.62,9.38a7.89,7.89,0,0,0,7.58-5.25l9.15,2.85c-2.25,6.82-9,11.1-16.8,11.1-10.2,0-18.3-7.58-18.3-18.08s8.1-18.07,18.3-18.07c7.8,0,14.55,4.35,16.8,11.17l-9.15,2.78a8,8,0,0,0-7.58-5.25C1681.12,1478.45,1677.6,1482.42,1677.6,1487.82Z"/><path d="M1742.4,1490.67h-25.58a8.16,8.16,0,0,0,14.78,3.38l10.12,1c-3.07,7.35-9.52,10.8-17.17,10.8-10.28,0-18-7.58-18-18.08s7.57-18.07,17.85-18.07c9.45,0,18,6.15,18,20.55Zm-25.8-6.52H1732a7.45,7.45,0,0,0-7.57-6.3A7.65,7.65,0,0,0,1716.6,1484.15Z"/><path d="M1768.42,1481.15a12.5,12.5,0,0,0-8.47-3.53c-2.55,0-3.45,1.28-3.45,2.33,0,1.2.75,2,2.55,2.62l5.7,1.8c7,2.33,9.45,6.15,9.45,10.65,0,5-4.28,10.88-13.65,10.88a22.17,22.17,0,0,1-15.15-5.4l5.17-6.75a17,17,0,0,0,10.13,4.27c2.32,0,3.75-1.2,3.75-2.55,0-1.72-1.13-2.47-3.9-3.3l-5.85-1.72c-5.55-1.8-8-5.55-8-10,0-5.63,5.1-10.65,13.35-10.65a20.46,20.46,0,0,1,13.87,5.1Z"/><path d="M1800.67,1481.15a12.5,12.5,0,0,0-8.47-3.53c-2.55,0-3.45,1.28-3.45,2.33,0,1.2.75,2,2.55,2.62l5.7,1.8c7,2.33,9.45,6.15,9.45,10.65,0,5-4.28,10.88-13.65,10.88a22.17,22.17,0,0,1-15.15-5.4l5.17-6.75A17,17,0,0,0,1793,1498c2.32,0,3.75-1.2,3.75-2.55,0-1.72-1.13-2.47-3.9-3.3l-5.85-1.72c-5.55-1.8-8-5.55-8-10,0-5.63,5.1-10.65,13.35-10.65a20.46,20.46,0,0,1,13.87,5.1Z"/><path d="M1829,1452.5h10.42V1505H1829Z"/><path d="M1868.92,1469.75c7.43,0,12.75,4.72,12.75,12.75V1505h-9.75v-20c0-4.35-2.78-6.15-5.85-6.15a9.51,9.51,0,0,0-7.27,3.9V1505h-9.75v-34.35h9.52V1472c0,1.2-.15,2.7-.15,2.7A13.5,13.5,0,0,1,1868.92,1469.75Z"/><path d="M1891.72,1478.9h-4.8v-8.25h14.55v39.22c0,7.5-6,8.33-10.87,8.33h-5.18V1510h3.38c2,0,2.92-.45,2.92-2.18Zm4.42-26.4a6.29,6.29,0,0,1,6.3,6.3,6.26,6.26,0,0,1-12.52,0A6.27,6.27,0,0,1,1896.14,1452.5Z"/><path d="M1943.54,1490.67H1918a8.16,8.16,0,0,0,14.77,3.38l10.13,1c-3.08,7.35-9.53,10.8-17.18,10.8-10.27,0-18-7.58-18-18.08s7.58-18.07,17.85-18.07c9.45,0,18,6.15,18,20.55Zm-25.8-6.52h15.38a7.46,7.46,0,0,0-7.58-6.3A7.66,7.66,0,0,0,1917.74,1484.15Z"/><path d="M1956.89,1487.82c0,5.4,3.53,9.38,8.63,9.38a7.86,7.86,0,0,0,7.57-5.25l9.15,2.85c-2.25,6.82-9,11.1-16.8,11.1-10.2,0-18.3-7.58-18.3-18.08s8.1-18.07,18.3-18.07c7.8,0,14.55,4.35,16.8,11.17l-9.15,2.78a8,8,0,0,0-7.57-5.25C1960.42,1478.45,1956.89,1482.42,1956.89,1487.82Z"/><path d="M2000.32,1457.6v13.05h7.42v8.25h-7.42v15.52c0,2.18,1.72,2.48,3.22,2.48a44.41,44.41,0,0,0,4.5-.23V1505s-4.72.45-7.57.45c-4.88,0-9.9-.83-9.9-7.73V1478.9h-5.4v-8.25h5.4V1457.6Z"/><path d="M2048.17,1490.67h-25.58a8.16,8.16,0,0,0,14.78,3.38l10.12,1c-3.07,7.35-9.52,10.8-17.17,10.8-10.28,0-18-7.58-18-18.08s7.57-18.07,17.85-18.07c9.45,0,18,6.15,18,20.55Zm-25.8-6.52h15.37a7.45,7.45,0,0,0-7.57-6.3A7.65,7.65,0,0,0,2022.37,1484.15Z"/><path d="M2079.22,1500.65c-1.73,2.85-5.78,5.25-10.73,5.25-9.45,0-16.65-7.58-16.65-18.08s7.13-18.07,16.58-18.07c5.25,0,9.22,2.4,10.95,5.32,0-1.12-.15-4-.15-6.52v-16H2089V1505h-9.75Zm-17.33-12.83c0,5.25,3.6,9.45,8.78,9.45s8.77-4.2,8.77-9.45-3.6-9.37-8.77-9.37S2061.89,1482.5,2061.89,1487.82Z"/><path d="M1585.57,1586.3c7,0,12.3-3.75,14.25-10h11.48c-3.08,12.38-13.88,19.58-25.73,19.58-15.44,0-27.37-11.33-27.37-27.15s11.93-27.15,27.37-27.15c11.85,0,22.65,7.2,25.73,19.57h-11.48c-2-6.22-7.27-10-14.25-10-9.89,0-16.49,7.5-16.49,17.55S1575.68,1586.3,1585.57,1586.3Z"/><path d="M1615.13,1577.82c0-10.5,8.17-18.07,18.37-18.07s18.37,7.57,18.37,18.07-8.17,18.08-18.37,18.08S1615.13,1588.32,1615.13,1577.82Zm9.74,0c0,5.33,3.53,9.38,8.63,9.38s8.55-4,8.55-9.38-3.53-9.37-8.55-9.37S1624.87,1572.42,1624.87,1577.82Z"/><path d="M1703.25,1574.82c0-4.2-2.7-6-5.7-6-2.78,0-5.25,1.58-7.13,3.9V1595h-9.75v-20.18c0-4.12-2.62-6-5.7-6a9.36,9.36,0,0,0-7.12,3.9V1595h-9.75v-34.35h9.52V1562c0,1.2-.15,2.7-.15,2.7a13.31,13.31,0,0,1,10.28-5c5.1,0,9.07,2.17,11,6.22a13.81,13.81,0,0,1,11.55-6.22c7.43,0,12.68,4.72,12.68,12.75V1595h-9.75Z"/><path d="M1766.17,1574.82c0-4.2-2.7-6-5.7-6a9.36,9.36,0,0,0-7.12,3.9V1595h-9.75v-20.18c0-4.12-2.63-6-5.7-6-2.78,0-5.25,1.58-7.13,3.9V1595H1721v-34.35h9.53V1562c0,1.2-.15,2.7-.15,2.7a13.3,13.3,0,0,1,10.27-5c5.1,0,9.08,2.17,11,6.22a13.81,13.81,0,0,1,11.55-6.22c7.42,0,12.67,4.72,12.67,12.75V1595h-9.75Z"/><path d="M1803,1572.12c0-2.47-2-4-5.7-4-3.45,0-7.8,1.73-10.35,3.23l-3.83-7.35a29.42,29.42,0,0,1,14.7-4.2c7.8,0,14.93,3.6,14.93,12.67V1595H1803v-3.23c-1.8,2.7-5.7,4.13-9.6,4.13-7.28,0-12-5.18-12-10.8,0-6.53,4.8-10.58,12.45-10.58h6.75c1.65,0,2.4-.75,2.4-2Zm0,10.58v-2.48a4.24,4.24,0,0,1-3,.75h-3.68c-3.07,0-4.87,1.35-4.87,3.75s1.87,4,4.87,4C1799.85,1588.77,1803,1587,1803,1582.7Z"/><path d="M1840.65,1559.75c7.42,0,12.75,4.72,12.75,12.75V1595h-9.75v-20c0-4.35-2.78-6.15-5.85-6.15a9.55,9.55,0,0,0-7.28,3.9V1595h-9.75v-34.35h9.53V1562c0,1.2-.15,2.7-.15,2.7A13.48,13.48,0,0,1,1840.65,1559.75Z"/><path d="M1886.7,1590.65c-1.73,2.85-5.78,5.25-10.73,5.25-9.45,0-16.65-7.58-16.65-18.08s7.13-18.07,16.58-18.07c5.25,0,9.22,2.4,10.95,5.32,0-1.12-.15-4-.15-6.52v-16h9.75V1595h-9.75Zm-17.33-12.83c0,5.25,3.6,9.45,8.78,9.45s8.77-4.2,8.77-9.45-3.6-9.37-8.77-9.37S1869.37,1572.5,1869.37,1577.82Z"/><path d="M2704.36,1478.75c0,15.82-12.22,27.15-27.45,27.15s-27.45-11.33-27.45-27.15,12.23-27.15,27.45-27.15S2704.36,1462.92,2704.36,1478.75Zm-10.87,0c0-10-6.68-17.55-16.58-17.55s-16.57,7.5-16.57,17.55,6.67,17.55,16.57,17.55S2693.49,1488.8,2693.49,1478.75Z"/><path d="M2710.06,1492.4v-21.75h9.75v19.95c0,4.72,3.15,6.6,6.6,6.6s6.6-1.88,6.6-6.6v-19.95h9.68v21.75c0,7.2-5.7,13.5-16.28,13.5S2710.06,1499.6,2710.06,1492.4Z"/><path d="M2762.86,1457.6v13.05h7.43v8.25h-7.43v15.52c0,2.18,1.73,2.48,3.23,2.48a44.66,44.66,0,0,0,4.5-.23V1505s-4.73.45-7.58.45c-4.87,0-9.9-.83-9.9-7.73V1478.9h-5.4v-8.25h5.4V1457.6Z"/><path d="M2786.79,1505H2777v-52.5h9.75v17c0,2.25-.15,4.65-.15,5.62,1.65-2.92,5.7-5.32,10.87-5.32,9.45,0,16.65,7.57,16.65,18.07s-7.27,18.08-16.72,18.08c-4.88,0-8.93-2.33-10.65-5.25Zm-.23-17.18c0,5.25,3.6,9.45,8.78,9.45s8.77-4.2,8.77-9.45-3.6-9.37-8.77-9.37S2786.56,1482.5,2786.56,1487.82Z"/><path d="M2818.29,1487.82c0-10.5,8.17-18.07,18.37-18.07s18.37,7.57,18.37,18.07-8.17,18.08-18.37,18.08S2818.29,1498.32,2818.29,1487.82Zm9.75,0c0,5.33,3.52,9.38,8.62,9.38s8.55-4,8.55-9.38-3.53-9.37-8.55-9.37S2828,1482.42,2828,1487.82Z"/><path d="M2860.74,1492.4v-21.75h9.75v19.95c0,4.72,3.15,6.6,6.6,6.6s6.59-1.88,6.59-6.6v-19.95h9.68v21.75c0,7.2-5.7,13.5-16.27,13.5S2860.74,1499.6,2860.74,1492.4Z"/><path d="M2921.11,1469.75c7.42,0,12.75,4.72,12.75,12.75V1505h-9.75v-20c0-4.35-2.78-6.15-5.85-6.15a9.55,9.55,0,0,0-7.28,3.9V1505h-9.75v-34.35h9.53V1472c0,1.2-.15,2.7-.15,2.7A13.48,13.48,0,0,1,2921.11,1469.75Z"/><path d="M2967.16,1500.65c-1.73,2.85-5.78,5.25-10.73,5.25-9.45,0-16.65-7.58-16.65-18.08s7.13-18.07,16.58-18.07c5.25,0,9.22,2.4,10.95,5.32,0-1.12-.15-4-.15-6.52v-16h9.75V1505h-9.75Zm-17.33-12.83c0,5.25,3.6,9.45,8.78,9.45s8.77-4.2,8.77-9.45-3.6-9.37-8.77-9.37S2949.83,1482.5,2949.83,1487.82Z"/><path d="M3019.36,1484.82H3012V1505h-10.43v-52.5h19.73c11.47,0,18.22,6.82,18.22,16,0,5-2,11.25-10,14.4L3043,1505h-12Zm.6-23.32H3012v14.25H3020c5.77,0,9.15-2.7,9.15-7.2S3025.73,1461.5,3020,1461.5Z"/><path d="M3079.58,1490.67H3054a8.16,8.16,0,0,0,14.77,3.38l10.13,1c-3.08,7.35-9.53,10.8-17.18,10.8-10.27,0-18-7.58-18-18.08s7.58-18.07,17.85-18.07c9.45,0,18,6.15,18,20.55Zm-25.8-6.52h15.38a7.46,7.46,0,0,0-7.58-6.3A7.66,7.66,0,0,0,3053.78,1484.15Z"/><path d="M3110.63,1500.65c-1.72,2.92-5.77,5.25-10.72,5.25-9.45,0-16.65-7.58-16.65-18.08s7.12-18.07,16.57-18.07c5.25,0,9.23,2.4,11,5.32,0-.37-.15-1-.15-2.85v-1.57h9.75v47.47h-9.75Zm-17.32-12.83c0,5.25,3.6,9.45,8.77,9.45s8.78-4.2,8.78-9.45-3.6-9.37-8.78-9.37S3093.31,1482.5,3093.31,1487.82Z"/><path d="M3128.26,1492.4v-21.75H3138v19.95c0,4.72,3.15,6.6,6.6,6.6s6.6-1.88,6.6-6.6v-19.95h9.67v21.75c0,7.2-5.7,13.5-16.27,13.5S3128.26,1499.6,3128.26,1492.4Z"/><path d="M3202.43,1490.67h-25.57a8.16,8.16,0,0,0,14.77,3.38l10.13,1c-3.08,7.35-9.53,10.8-17.18,10.8-10.27,0-18-7.58-18-18.08s7.58-18.07,17.85-18.07c9.45,0,18,6.15,18,20.55Zm-25.8-6.52H3192a7.46,7.46,0,0,0-7.58-6.3A7.66,7.66,0,0,0,3176.63,1484.15Z"/><path d="M3228.45,1481.15a12.5,12.5,0,0,0-8.47-3.53c-2.55,0-3.45,1.28-3.45,2.33,0,1.2.75,2,2.55,2.62l5.7,1.8c7,2.33,9.45,6.15,9.45,10.65,0,5-4.28,10.88-13.65,10.88a22.19,22.19,0,0,1-15.15-5.4l5.17-6.75a17.06,17.06,0,0,0,10.13,4.27c2.32,0,3.75-1.2,3.75-2.55,0-1.72-1.13-2.47-3.9-3.3l-5.85-1.72c-5.55-1.8-7.95-5.55-7.95-10,0-5.63,5.1-10.65,13.35-10.65a20.46,20.46,0,0,1,13.87,5.1Z"/><path d="M3252.75,1457.6v13.05h7.43v8.25h-7.43v15.52c0,2.18,1.73,2.48,3.23,2.48a44.66,44.66,0,0,0,4.5-.23V1505s-4.73.45-7.58.45c-4.87,0-9.9-.83-9.9-7.73V1478.9h-5.4v-8.25h5.4V1457.6Z"/><path d="M2580.88,1491.12v-2.32h10.65v2.25c0,3.75,1.65,7.35,6.6,7.35,4.8,0,6.89-3.53,6.89-8.33s-2.84-8.4-8.47-8.4a28.8,28.8,0,0,0-5.47.53v-9.3l12-10.28h-19.73v-9h31.5v10l-13.58,10.87c8.55.23,14.63,7.13,14.63,15.45,0,10-7.05,17.1-17.55,17.1C2587.18,1507,2580.88,1500.35,2580.88,1491.12Z"/><path d="M2629,1494a6.53,6.53,0,1,1-6.52,6.53A6.54,6.54,0,0,1,2629,1494Z"/><path d="M370.54,689h20.1v43.5h10.13v9H369.94v-9h10.13V698h-9.53Z"/><path d="M414.79,729.39a6.53,6.53,0,1,1-6.52,6.53A6.54,6.54,0,0,1,414.79,729.39Z"/><path d="M1481.1,1496s8.85-7.8,15.52-14.1,8-10.05,8-14.33a6.55,6.55,0,0,0-7-6.75c-4,0-7,2.4-7,6.23a13.54,13.54,0,0,0,1.35,5.47l-9.6,1.73a16.55,16.55,0,0,1-2-8.1c0-7.35,6.15-14.55,17.32-14.55,11.47,0,17.55,7.5,17.55,15.45,0,6.22-2,12.22-14.85,23.47l-6.22,5.48H1516v9H1481.1Z"/><path d="M1528.57,1492.85a6.53,6.53,0,1,1-6.52,6.52A6.52,6.52,0,0,1,1528.57,1492.85Z"/><path class="cls-5" d="M2714.06,1265.28c0,24,98.21,43.53,219.37,43.53s219.37-19.49,219.37-43.53v-511H2714.06Z"/><ellipse class="cls-14" cx="2933.43" cy="754.26" rx="219.37" ry="43.53"/><path class="cls-8" d="M3152.8,871.58c0,24-98.21,43.54-219.37,43.54s-219.37-19.5-219.37-43.54"/><path class="cls-8" d="M3095.53,845.66c-40.12,8.72-97.89,14.2-162.1,14.2-28.37,0-55.49-1.07-80.38-3"/><path class="cls-8" d="M3095.53,969.57c-40.12,8.72-97.89,14.2-162.1,14.2-28.37,0-55.49-1.07-80.38-3"/><path class="cls-8" d="M3095.53,1095.15c-40.12,8.72-97.89,14.2-162.1,14.2-28.37,0-55.49-1.07-80.38-3"/><path class="cls-8" d="M3095.53,1227.43c-40.12,8.72-97.89,14.2-162.1,14.2-28.37,0-55.49-1.07-80.38-3"/><path class="cls-8" d="M3152.8,998.49c0,24-98.21,43.53-219.37,43.53s-219.37-19.49-219.37-43.53"/><path class="cls-8" d="M3152.8,1130.21c0,24-98.21,43.53-219.37,43.53s-219.37-19.49-219.37-43.53"/><circle class="cls-13" cx="2788.3" cy="849.99" r="17.84"/><circle class="cls-13" cx="2788.3" cy="968.88" r="17.84"/><circle class="cls-13" cx="2788.3" cy="1095.84" r="17.84"/><circle class="cls-13" cx="2788.3" cy="1219.77" r="17.84"/><path class="cls-15" d="M3994.4,1696.08h-46.47a103.05,103.05,0,0,0-205,0,93.32,93.32,0,0,0,1,186.63H3994.4a93.33,93.33,0,1,0,0-186.65Z"/><line class="cls-16" x1="3742.94" y1="1696.1" x2="3742.94" y2="1726.09"/><rect class="cls-17" x="145.93" y="71.18" width="4451.94" height="2513.65"/><rect class="cls-5" x="3858.25" y="1848.37" width="406.91" height="171.64"/><rect class="cls-5" x="3858.25" y="2020.01" width="406.91" height="171.64"/><rect class="cls-5" x="3858.25" y="2191.65" width="406.91" height="171.64"/><circle class="cls-13" cx="3915.59" cy="1936.36" r="17.84"/><circle class="cls-13" cx="3969.39" cy="1936.36" r="17.84"/><circle class="cls-13" cx="4021.66" cy="1936.36" r="17.84"/><line class="cls-8" x1="4061.19" y1="1937.49" x2="4240.54" y2="1937.49"/><circle class="cls-13" cx="3915.59" cy="2109.93" r="17.84"/><circle class="cls-13" cx="3969.39" cy="2109.93" r="17.84"/><circle class="cls-13" cx="4021.66" cy="2109.93" r="17.84"/><line class="cls-8" x1="4061.19" y1="2111.05" x2="4240.54" y2="2111.05"/><circle class="cls-13" cx="3915.59" cy="2278.67" r="17.84"/><circle class="cls-13" cx="3969.39" cy="2278.67" r="17.84"/><circle class="cls-13" cx="4021.66" cy="2278.67" r="17.84"/><line class="cls-8" x1="4061.19" y1="2279.8" x2="4240.54" y2="2279.8"/><polygon class="cls-14" points="4265.16 1848.37 3858.25 1848.37 3905.04 1768.99 4208.78 1768.99 4265.16 1848.37"/><text class="cls-18" transform="translate(4791.82 -413.76)">article</text><line class="cls-17" x1="144.39" y1="398.28" x2="4596.1" y2="398.28"/></svg>