<svg id="Layer_1" data-name="Layer 1" xmlns="http://www.w3.org/2000/svg" viewBox="0 0 3759.15 2305.47"><defs><style>.cls-1,.cls-5,.cls-6{fill:none;}.cls-1,.cls-10,.cls-11,.cls-12,.cls-13,.cls-14,.cls-2,.cls-3,.cls-4,.cls-5,.cls-6,.cls-7,.cls-8,.cls-9{stroke:#000;}.cls-1,.cls-10,.cls-11,.cls-12,.cls-2,.cls-3,.cls-4,.cls-5,.cls-7,.cls-8,.cls-9{stroke-linecap:round;stroke-linejoin:round;}.cls-1{stroke-width:7px;}.cls-2{fill:#b2b2b2;}.cls-10,.cls-11,.cls-12,.cls-13,.cls-14,.cls-2,.cls-3,.cls-4,.cls-5,.cls-6,.cls-7,.cls-8,.cls-9{stroke-width:6px;}.cls-13,.cls-3{fill:#ff0a28;}.cls-4{fill:#666;}.cls-13,.cls-14,.cls-6{stroke-miterlimit:10;}.cls-14,.cls-7{fill:#00feb9;}.cls-8{fill:#00f39e;}.cls-9{fill:#e6e6e6;}.cls-10{fill:#fff;}.cls-11{fill:#c9c9c9;}.cls-12{fill:#ffd400;}</style></defs><path d="M295.14,1827.44h15.15v48.37h10.28v4.13H295.22v-4.13h10.35v-44.24H295.14Z"/><path d="M334.59,1871.76a4.54,4.54,0,1,1-4.5,4.58A4.55,4.55,0,0,1,334.59,1871.76Z"/><path d="M369.92,1861.41l-6.15,18.53H359l18.07-52.5h5.78l18.14,52.5h-5l-6.3-18.53Zm1.27-4.05h17.1l-8.4-25.35h-.22Z"/><path d="M413.72,1832.92v13.94h8.17v3.83h-8.17v22.42c0,3.08,2.17,3.23,4.72,3.23a22.68,22.68,0,0,0,3.45-.23v3.83a46.32,46.32,0,0,1-5.1.3c-3.45,0-7.65-.9-7.65-7v-22.5h-5.7v-3.83h5.7v-13.94Z"/><path d="M435.32,1832.92v13.94h8.17v3.83h-8.17v22.42c0,3.08,2.17,3.23,4.72,3.23a22.68,22.68,0,0,0,3.45-.23v3.83a46.32,46.32,0,0,1-5.1.3c-3.45,0-7.65-.9-7.65-7v-22.5H425v-3.83h5.7v-13.94Z"/><path d="M470,1857.06c0-5-3.9-7-8.32-7a18,18,0,0,0-10.2,3.6l-2.18-3.44A21.61,21.61,0,0,1,462,1846c7.87,0,12.6,4.42,12.6,11.24v22.73H470v-4.13c-1.87,3.3-6.37,5-10.35,5-7.2,0-12-4.2-12-10.13S452,1861,458.87,1861h7.95c2.32,0,3.22-1.2,3.22-3Zm0,11.1v-4.57c-.82,1-2.55,1.27-4.27,1.27h-6.15c-4.88,0-7.13,2.4-7.13,5.85,0,2.85,2.18,6.23,7.73,6.23C465.24,1876.94,470,1874.16,470,1868.16Z"/><path d="M499.59,1876.86a11.83,11.83,0,0,0,10.88-6.67l3.89,2.25a16.73,16.73,0,0,1-14.77,8.4c-9.52,0-17.1-7.28-17.1-17.4s7.58-17.47,17.1-17.47a16.72,16.72,0,0,1,14.77,8.39l-3.89,2.25a11.91,11.91,0,0,0-10.88-6.6c-7.35,0-12.45,5.85-12.45,13.43S492.24,1876.86,499.59,1876.86Z"/><path d="M526.82,1859.69h4.27l12.75-12.83H550l-15.23,14.78,16,18.3h-6.07l-13.88-16.28h-4v16.28h-4.58v-52.5h4.58Z"/><path d="M557.56,1864.79c.6,6.82,5.18,12,12.08,12a11.38,11.38,0,0,0,10.27-5.7h5.33a17,17,0,0,1-15.6,9.75c-9.53,0-16.8-7.28-16.8-17.4s7.27-17.47,16.72-17.47c8.63,0,16.65,6.07,16.65,18.67v.15Zm.15-3.75h23.4c-.52-6-5-11-11.55-11S558.54,1854.74,557.71,1861Z"/><path d="M610.81,1850.91h-2.25c-5.85,0-10,2.7-10,10.5v18.53H594v-33.08h4.35v5.63c1.88-4.43,6-6.23,10-6.23.75,0,1.57.08,2.47.16Z"/><path d="M647.26,1871.16c0-3.3-2.7-4.72-7.42-6.45L638,1864c-5-1.8-8.4-4.35-8.4-9.15,0-5.47,4.88-8.92,11.33-8.92a16.84,16.84,0,0,1,10.72,3.82l-2.47,3.45a15,15,0,0,0-8.4-3.3c-3.68,0-6.45,1.87-6.45,4.72,0,2.1,1.5,3.75,4.87,5l3.83,1.42c6.37,2.48,9,5.25,9,10.13,0,4.27-3.68,9.6-12.15,9.6a19.74,19.74,0,0,1-11.63-4.13l2.4-3.45a15.79,15.79,0,0,0,9.38,3.53C644.49,1876.79,647.26,1874.24,647.26,1871.16Z"/><path d="M662.56,1864.79c.6,6.82,5.18,12,12.08,12a11.38,11.38,0,0,0,10.27-5.7h5.33a17,17,0,0,1-15.6,9.75c-9.53,0-16.8-7.28-16.8-17.4s7.27-17.47,16.72-17.47c8.63,0,16.65,6.07,16.65,18.67v.15Zm.15-3.75h23.4c-.52-6-5-11-11.55-11S663.54,1854.74,662.71,1861Z"/><path d="M722.79,1858.19c0-5.33-3.45-8.18-8.18-8.18-4,0-7.87,2.18-11,5.85v24.08H699v-33.08h4.5v4.73a15,15,0,0,1,11.85-5.62c7.73,0,12,4.72,12,12v22h-4.57Z"/><path d="M764.71,1853.31v-25.87h4.58v52.5h-4.58v-6.3c-2,4.12-7,7.2-12.6,7.2-9.52,0-16.8-7.28-16.8-17.4S742.51,1846,752,1846C757.66,1846,762.76,1849.19,764.71,1853.31Zm-12.3,23.55c7.35,0,12.53-5.85,12.53-13.42S759.76,1850,752.41,1850,740,1855.86,740,1863.44,745.06,1876.86,752.41,1876.86Z"/><path d="M796,1871.16c0-3.3-2.7-4.72-7.43-6.45l-1.87-.67c-5-1.8-8.4-4.35-8.4-9.15,0-5.47,4.87-8.92,11.32-8.92a16.89,16.89,0,0,1,10.73,3.82l-2.48,3.45a14.91,14.91,0,0,0-8.4-3.3c-3.67,0-6.45,1.87-6.45,4.72,0,2.1,1.5,3.75,4.88,5l3.82,1.42c6.38,2.48,9,5.25,9,10.13,0,4.27-3.67,9.6-12.15,9.6a19.71,19.71,0,0,1-11.62-4.13l2.4-3.45a15.79,15.79,0,0,0,9.37,3.53C793.21,1876.79,796,1874.24,796,1871.16Z"/><path d="M828.46,1879.94h-4.57v-52.5h4.57Z"/><path d="M844.88,1879.94h-4.57v-29.25h-5.25v-3.83h9.82Zm-2.62-49a4,4,0,1,1-4,4A4,4,0,0,1,842.26,1830.89Z"/><path d="M879.31,1858.19c0-5.33-3.45-8.18-8.18-8.18-4,0-7.87,2.18-11,5.85v24.08h-4.58v-33.08H860v4.73a15,15,0,0,1,11.85-5.62c7.73,0,12,4.72,12,12v22h-4.57Z"/><path d="M898.73,1859.69H903l12.75-12.83h6.15l-15.23,14.78,16.05,18.3h-6.07l-13.88-16.28h-4v16.28h-4.57v-52.5h4.57Z"/><path d="M958.66,1876.86a11.81,11.81,0,0,0,10.87-6.67l3.9,2.25a16.73,16.73,0,0,1-14.77,8.4c-9.53,0-17.1-7.28-17.1-17.4s7.57-17.47,17.1-17.47a16.72,16.72,0,0,1,14.77,8.39l-3.9,2.25a11.88,11.88,0,0,0-10.87-6.6c-7.35,0-12.45,5.85-12.45,13.43S951.31,1876.86,958.66,1876.86Z"/><path d="M995.63,1846a17.44,17.44,0,1,1-17.1,17.47C978.53,1853.31,986.18,1846,995.63,1846Zm0,4c-7.35,0-12.45,5.85-12.45,13.43s5.1,13.42,12.45,13.42,12.53-5.85,12.53-13.42S1003.06,1850,995.63,1850Z"/><path d="M1044.83,1858.19c0-5.33-3.45-8.18-8.17-8.18-4,0-7.88,2.18-11,5.85v24.08h-4.57v-33.08h4.5v4.73a15,15,0,0,1,11.85-5.62c7.72,0,12,4.72,12,12v22h-4.58Z"/><path d="M1066.13,1832.92v13.94h8.18v3.83h-8.18v22.42c0,3.08,2.18,3.23,4.73,3.23a22.68,22.68,0,0,0,3.45-.23v3.83a46.32,46.32,0,0,1-5.1.3c-3.45,0-7.65-.9-7.65-7v-22.5h-5.7v-3.83h5.7v-13.94Z"/><path d="M1100.86,1857.06c0-5-3.9-7-8.33-7-4.12,0-7.42,1.73-10.2,3.6l-2.17-3.44a21.61,21.61,0,0,1,12.67-4.2c7.88,0,12.6,4.42,12.6,11.24v22.73h-4.57v-4.13c-1.88,3.3-6.38,5-10.35,5-7.2,0-12-4.2-12-10.13s4.35-9.67,11.17-9.67h8c2.33,0,3.23-1.2,3.23-3Zm0,11.1v-4.57c-.83,1-2.55,1.27-4.28,1.27h-6.15c-4.87,0-7.12,2.4-7.12,5.85,0,2.85,2.17,6.23,7.72,6.23C1096.06,1876.94,1100.86,1874.16,1100.86,1868.16Z"/><path d="M1121.48,1879.94h-4.57v-29.25h-5.25v-3.83h9.82Zm-2.62-49a4,4,0,1,1-4,4A4,4,0,0,1,1118.86,1830.89Z"/><path d="M1155.91,1858.19c0-5.33-3.45-8.18-8.18-8.18-4,0-7.87,2.18-11,5.85v24.08h-4.58v-33.08h4.5v4.73a15,15,0,0,1,11.85-5.62c7.73,0,12,4.72,12,12v22h-4.57Z"/><path d="M1176.53,1879.94H1172v-29.25h-5.25v-3.83h9.82Zm-2.62-49a4,4,0,1,1-4,4A4,4,0,0,1,1173.91,1830.89Z"/><path d="M1211,1858.19c0-5.33-3.45-8.18-8.18-8.18-4,0-7.87,2.18-11,5.85v24.08h-4.58v-33.08h4.5v4.73a15,15,0,0,1,11.85-5.62c7.72,0,12,4.72,12,12v22H1211Z"/><path d="M1257.45,1883.39c0,5.4-2.47,9.67-9.74,9.67h-12.53v-3.82h12c3.15,0,5.7-1,5.7-4.8v-10.8c-2,4.12-7,7.2-12.6,7.2-9.52,0-16.8-7.28-16.8-17.4s7.2-17.47,16.65-17.47c5.7,0,10.8,3.22,12.75,7.34v-6.45h4.57Zm-4.42-20c0-7.58-5.1-13.43-12.45-13.43s-12.52,5.85-12.52,13.43,5.17,13.42,12.52,13.42S1253,1871,1253,1863.44Z"/><path d="M321.54,1949.24v20.7H317v-22c0-5.1-3.15-8-7.88-8-3.9,0-7.42,2.18-10.57,5.85v24.08h-4.58v-33.08h4.5v4.73c2.85-3.45,6.45-5.62,11.25-5.62,5.55,0,9.23,2.47,10.8,6.37,3.6-4.35,7.5-6.37,12.3-6.37,7.8,0,11.77,4.72,11.77,12v22H340v-22c0-5.1-3.15-8-7.8-8-4,0-7.57,2.25-10.8,6C321.47,1947.06,321.54,1948.19,321.54,1949.24Z"/><path d="M374.42,1947.06c0-5-3.9-7-8.33-7-4.12,0-7.42,1.73-10.2,3.6l-2.17-3.44a21.61,21.61,0,0,1,12.67-4.2c7.88,0,12.6,4.42,12.6,11.24v22.73h-4.57v-4.13c-1.88,3.3-6.38,5-10.35,5-7.2,0-12-4.2-12-10.13s4.35-9.67,11.17-9.67h7.95c2.33,0,3.23-1.2,3.23-3Zm0,11.1v-4.57c-.83,1-2.55,1.27-4.28,1.27H364c-4.87,0-7.12,2.4-7.12,5.85,0,2.85,2.17,6.23,7.72,6.23C369.62,1966.94,374.42,1964.16,374.42,1958.16Z"/><path d="M393.84,1969.94h-4.57v-52.5h4.57Z"/><path d="M410.27,1969.94h-4.58v-29.25h-5.25v-3.83h9.83Zm-2.63-49a4,4,0,1,1-4,4A4,4,0,0,1,407.64,1920.89Z"/><path d="M435.61,1966.86a11.83,11.83,0,0,0,10.88-6.67l3.9,2.25a16.76,16.76,0,0,1-14.78,8.4c-9.52,0-17.09-7.28-17.09-17.4s7.57-17.47,17.09-17.47a16.75,16.75,0,0,1,14.78,8.39l-3.9,2.25a11.91,11.91,0,0,0-10.88-6.6c-7.35,0-12.44,5.85-12.44,13.43S428.26,1966.86,435.61,1966.86Z"/><path d="M464,1969.94h-4.58v-29.25h-5.25v-3.83H464Zm-2.63-49a4,4,0,1,1-4,4A4,4,0,0,1,461.41,1920.89Z"/><path d="M489.39,1936a17.44,17.44,0,1,1-17.1,17.47C472.29,1943.31,479.94,1936,489.39,1936Zm0,4c-7.35,0-12.45,5.85-12.45,13.43s5.1,13.42,12.45,13.42,12.52-5.85,12.52-13.42S496.81,1940,489.39,1940Z"/><path d="M514.36,1958.16v-21.3h4.58v20.85c0,6,4.12,9.08,9.6,9.08s9.6-3.08,9.6-9.08v-20.85h4.57v21.3c0,7-5,12.68-14.17,12.68S514.36,1965.14,514.36,1958.16Z"/><path d="M569,1961.16c0-3.3-2.7-4.72-7.42-6.45l-1.88-.67c-5-1.8-8.4-4.35-8.4-9.15,0-5.47,4.88-8.92,11.33-8.92a16.84,16.84,0,0,1,10.72,3.82l-2.47,3.45a15,15,0,0,0-8.4-3.3c-3.68,0-6.45,1.87-6.45,4.72,0,2.1,1.5,3.75,4.87,5l3.83,1.42c6.37,2.48,9,5.25,9,10.13,0,4.27-3.68,9.6-12.15,9.6a19.74,19.74,0,0,1-11.63-4.13l2.4-3.45a15.79,15.79,0,0,0,9.38,3.53C566.19,1966.79,569,1964.24,569,1961.16Z"/><path d="M611.56,1966.86a11.83,11.83,0,0,0,10.88-6.67l3.9,2.25a16.76,16.76,0,0,1-14.78,8.4c-9.52,0-17.1-7.28-17.1-17.4S602,1936,611.56,1936a16.75,16.75,0,0,1,14.78,8.39l-3.9,2.25a11.91,11.91,0,0,0-10.88-6.6c-7.35,0-12.45,5.85-12.45,13.43S604.21,1966.86,611.56,1966.86Z"/><path d="M648.54,1936a17.44,17.44,0,1,1-17.1,17.47C631.44,1943.31,639.09,1936,648.54,1936Zm0,4c-7.35,0-12.45,5.85-12.45,13.43s5.1,13.42,12.45,13.42,12.52-5.85,12.52-13.42S656,1940,648.54,1940Z"/><path d="M701,1943.31v-25.87h4.58v52.5H701v-6.3c-2,4.12-7,7.2-12.6,7.2-9.52,0-16.79-7.28-16.79-17.4s7.2-17.47,16.64-17.47C694,1936,699.08,1939.19,701,1943.31Zm-12.3,23.55c7.35,0,12.53-5.85,12.53-13.42S696.08,1940,688.73,1940s-12.44,5.85-12.44,13.43S681.38,1966.86,688.73,1966.86Z"/><path d="M718.66,1954.79c.6,6.82,5.17,12,12.07,12a11.41,11.41,0,0,0,10.28-5.7h5.32a16.94,16.94,0,0,1-15.6,9.75c-9.52,0-16.8-7.28-16.8-17.4s7.28-17.47,16.73-17.47c8.62,0,16.65,6.07,16.65,18.67v.15Zm.15-3.75h23.4c-.53-6-5-11-11.55-11S719.63,1944.74,718.81,1951Z"/><path d="M1491.58,1876s6.9-7.12,15.89-17.32c6.83-7.73,9.15-12.67,9.15-17.92,0-6-4.12-10.21-10.57-10.21-5.55,0-10.2,3.31-10.2,9.16a13.09,13.09,0,0,0,1.58,6l-4.35,1a16.65,16.65,0,0,1-1.73-7.13c0-7.95,6.75-13,14.85-13,8.7,0,15,5.47,15,14.1,0,5.25-2,11.25-11.63,21.75l-12.29,13.42h25.19v4.13h-30.89Z"/><path d="M1534.4,1871.76a4.54,4.54,0,1,1-4.5,4.58A4.55,4.55,0,0,1,1534.4,1871.76Z"/><path d="M1558,1827.44h5.17l15.9,47.77h.15l16-47.77H1600l-18.08,52.5h-5.77Z"/><path d="M1612.4,1879.94h-4.58v-29.25h-5.25v-3.83h9.83Zm-2.63-49a4,4,0,1,1-4,4A4,4,0,0,1,1609.77,1830.89Z"/><path d="M1637.75,1876.86a11.81,11.81,0,0,0,10.87-6.67l3.9,2.25a16.73,16.73,0,0,1-14.77,8.4c-9.53,0-17.1-7.28-17.1-17.4s7.57-17.47,17.1-17.47a16.72,16.72,0,0,1,14.77,8.39l-3.9,2.25a11.88,11.88,0,0,0-10.87-6.6c-7.35,0-12.45,5.85-12.45,13.43S1630.4,1876.86,1637.75,1876.86Z"/><path d="M1666.85,1832.92v13.94H1675v3.83h-8.17v22.42c0,3.08,2.17,3.23,4.72,3.23a22.68,22.68,0,0,0,3.45-.23v3.83a46.32,46.32,0,0,1-5.1.3c-3.45,0-7.65-.9-7.65-7v-22.5h-5.7v-3.83h5.7v-13.94Z"/><path d="M1687.77,1879.94h-4.57v-29.25H1678v-3.83h9.82Zm-2.62-49a4,4,0,1,1-4,4A4,4,0,0,1,1685.15,1830.89Z"/><path d="M1726,1859.24v20.7h-4.57v-22c0-5.1-3.15-8-7.88-8-3.9,0-7.42,2.18-10.57,5.85v24.08h-4.58v-33.08h4.5v4.73c2.85-3.45,6.45-5.62,11.25-5.62,5.55,0,9.23,2.47,10.8,6.37,3.6-4.35,7.5-6.37,12.3-6.37,7.8,0,11.78,4.72,11.78,12v22h-4.58v-22c0-5.1-3.15-8-7.8-8-4,0-7.57,2.25-10.8,6C1726,1857.06,1726,1858.19,1726,1859.24Z"/><path d="M1789,1846a17.44,17.44,0,1,1-17.1,17.47C1771.92,1853.31,1779.57,1846,1789,1846Zm0,4c-7.35,0-12.45,5.85-12.45,13.43s5.1,13.42,12.45,13.42,12.53-5.85,12.53-13.42S1796.45,1850,1789,1850Z"/><path d="M1819,1873.71v19.35h-4.57v-46.2H1819v6.45c2-4.12,7-7.34,12.75-7.34,9.45,0,16.65,7.34,16.65,17.47s-7.27,17.4-16.8,17.4C1826,1880.84,1821.05,1877.76,1819,1873.71Zm12.3-23.7c-7.35,0-12.52,5.85-12.52,13.43s5.17,13.42,12.52,13.42,12.45-5.85,12.45-13.42S1838.67,1850,1831.32,1850Z"/><path d="M1859.15,1864.79c.6,6.82,5.17,12,12.07,12a11.38,11.38,0,0,0,10.27-5.7h5.33a17,17,0,0,1-15.6,9.75c-9.52,0-16.8-7.28-16.8-17.4s7.28-17.47,16.73-17.47c8.62,0,16.64,6.07,16.64,18.67v.15Zm.15-3.75h23.39c-.52-6-5-11-11.54-11S1860.12,1854.74,1859.3,1861Z"/><path d="M1919.37,1858.19c0-5.33-3.45-8.18-8.18-8.18-4,0-7.87,2.18-11,5.85v24.08h-4.57v-33.08h4.49v4.73a15,15,0,0,1,11.85-5.62c7.73,0,12,4.72,12,12v22h-4.57Z"/><path d="M1950.27,1871.16c0-3.3-2.7-4.72-7.43-6.45L1941,1864c-5-1.8-8.4-4.35-8.4-9.15,0-5.47,4.87-8.92,11.32-8.92a16.89,16.89,0,0,1,10.73,3.82l-2.48,3.45a14.91,14.91,0,0,0-8.4-3.3c-3.67,0-6.44,1.87-6.44,4.72,0,2.1,1.5,3.75,4.87,5l3.82,1.42c6.38,2.48,9,5.25,9,10.13,0,4.27-3.67,9.6-12.15,9.6a19.71,19.71,0,0,1-11.62-4.13l2.4-3.45a15.79,15.79,0,0,0,9.37,3.53C1947.49,1876.79,1950.27,1874.24,1950.27,1871.16Z"/><path d="M1982.74,1879.94h-4.57v-52.5h4.57Z"/><path d="M1999.17,1879.94h-4.58v-29.25h-5.25v-3.83h9.83Zm-2.63-49a4,4,0,1,1-4,4A4,4,0,0,1,1996.54,1830.89Z"/><path d="M2033.59,1858.19c0-5.33-3.45-8.18-8.17-8.18-4,0-7.88,2.18-11,5.85v24.08h-4.57v-33.08h4.5v4.73a15,15,0,0,1,11.85-5.62c7.72,0,12,4.72,12,12v22h-4.58Z"/><path d="M2053,1859.69h4.27l12.75-12.83h6.15L2061,1861.64l16.05,18.3h-6.08l-13.87-16.28H2053v16.28h-4.58v-52.5H2053Z"/><path d="M2503.33,1859.39l18.6-32h7.35v32h8v4h-8v16.58h-4.58v-16.58h-21.37Zm4.5,0h16.87v-28.8h-.3Z"/><path d="M2548,1871.76a4.54,4.54,0,1,1-4.5,4.58A4.55,4.55,0,0,1,2548,1871.76Z"/><path d="M2603.53,1835.24c-2.63-2.25-7.28-4.65-11.63-4.65-5.47,0-10.8,2.92-10.8,8.78,0,3.44,2.25,6.6,7.65,9.37l5.48,2.85c8.17,4.27,12.15,8.77,12.15,15.15,0,7-5.78,14.1-16.35,14.1a22.9,22.9,0,0,1-15.68-6.08l2.63-3.52a18.79,18.79,0,0,0,13.35,5.55c7,0,11.32-4.88,11.32-9.75,0-5.4-3.37-8.18-10.27-11.78l-4.43-2.32c-6.82-3.6-10.5-7.43-10.5-13.43,0-8.17,7.13-13,15.38-13a23.51,23.51,0,0,1,14.25,5.1Z"/><path d="M2617.33,1864.79c.6,6.82,5.17,12,12.07,12a11.38,11.38,0,0,0,10.27-5.7H2645a17,17,0,0,1-15.6,9.75c-9.52,0-16.8-7.28-16.8-17.4s7.28-17.47,16.73-17.47c8.62,0,16.64,6.07,16.64,18.67v.15Zm.15-3.75h23.39c-.52-6-5-11-11.54-11S2618.3,1854.74,2617.48,1861Z"/><path d="M2670.57,1850.91h-2.25c-5.85,0-10.05,2.7-10.05,10.5v18.53h-4.5v-33.08h4.35v5.63c1.88-4.43,6-6.23,10-6.23.75,0,1.57.08,2.47.16Z"/><path d="M2700.35,1846.86h5l-12.53,33.08h-6.15l-12.3-33.08h5.18l10.27,29.33Z"/><path d="M2713.85,1864.79c.6,6.82,5.17,12,12.07,12a11.41,11.41,0,0,0,10.28-5.7h5.32a16.94,16.94,0,0,1-15.6,9.75c-9.52,0-16.8-7.28-16.8-17.4s7.28-17.47,16.73-17.47c8.62,0,16.65,6.07,16.65,18.67v.15Zm.15-3.75h23.4c-.53-6-5-11-11.55-11S2714.82,1854.74,2714,1861Z"/><path d="M2767.1,1850.91h-2.25c-5.85,0-10,2.7-10,10.5v18.53h-4.5v-33.08h4.35v5.63c1.87-4.43,6-6.23,10-6.23.75,0,1.58.08,2.48.16Z"/><path d="M2804.3,1850.91h-2.25c-5.85,0-10.05,2.7-10.05,10.5v18.53h-4.5v-33.08h4.35v5.63c1.87-4.43,6-6.23,10-6.23.75,0,1.58.08,2.48.16Z"/><path d="M2812.7,1864.79c.6,6.82,5.17,12,12.07,12a11.41,11.41,0,0,0,10.28-5.7h5.32a16.94,16.94,0,0,1-15.6,9.75c-9.52,0-16.8-7.28-16.8-17.4s7.28-17.47,16.73-17.47c8.62,0,16.65,6.07,16.65,18.67v.15Zm.15-3.75h23.4c-.53-6-5-11-11.55-11S2813.67,1854.74,2812.85,1861Z"/><path d="M2865.2,1871.16c0-3.3-2.7-4.72-7.43-6.45l-1.87-.67c-5-1.8-8.4-4.35-8.4-9.15,0-5.47,4.87-8.92,11.32-8.92a16.89,16.89,0,0,1,10.73,3.82l-2.48,3.45a14.91,14.91,0,0,0-8.4-3.3c-3.67,0-6.45,1.87-6.45,4.72,0,2.1,1.5,3.75,4.88,5l3.82,1.42c6.38,2.48,9,5.25,9,10.13,0,4.27-3.67,9.6-12.15,9.6a19.71,19.71,0,0,1-11.62-4.13l2.4-3.45a15.79,15.79,0,0,0,9.37,3.53C2862.42,1876.79,2865.2,1874.24,2865.2,1871.16Z"/><path d="M2882.67,1873.71v19.35h-4.57v-46.2h4.57v6.45c1.95-4.12,7-7.34,12.75-7.34,9.45,0,16.65,7.34,16.65,17.47s-7.27,17.4-16.8,17.4C2889.65,1880.84,2884.7,1877.76,2882.67,1873.71ZM2895,1850c-7.35,0-12.52,5.85-12.52,13.43s5.17,13.42,12.52,13.42,12.45-5.85,12.45-13.42S2902.32,1850,2895,1850Z"/><path d="M2935.1,1846a17.44,17.44,0,1,1-17.1,17.47C2918,1853.31,2925.65,1846,2935.1,1846Zm0,4c-7.35,0-12.45,5.85-12.45,13.43s5.1,13.42,12.45,13.42,12.52-5.85,12.52-13.42S2942.52,1850,2935.1,1850Z"/><path d="M2984.3,1858.19c0-5.33-3.45-8.18-8.18-8.18-4,0-7.87,2.18-11,5.85v24.08h-4.58v-33.08h4.5v4.73a15,15,0,0,1,11.85-5.62c7.73,0,12,4.72,12,12v22h-4.57Z"/><path d="M3026.22,1853.31v-25.87h4.58v52.5h-4.58v-6.3c-2,4.12-7,7.2-12.6,7.2-9.52,0-16.8-7.28-16.8-17.4s7.2-17.47,16.65-17.47C3019.17,1846,3024.27,1849.19,3026.22,1853.31Zm-12.3,23.55c7.35,0,12.53-5.85,12.53-13.42s-5.18-13.43-12.53-13.43-12.45,5.85-12.45,13.43S3006.57,1876.86,3013.92,1876.86Z"/><path d="M3057.5,1871.16c0-3.3-2.7-4.72-7.43-6.45l-1.87-.67c-5-1.8-8.4-4.35-8.4-9.15,0-5.47,4.87-8.92,11.32-8.92a16.89,16.89,0,0,1,10.73,3.82l-2.48,3.45a14.91,14.91,0,0,0-8.4-3.3c-3.67,0-6.45,1.87-6.45,4.72,0,2.1,1.5,3.75,4.88,5l3.82,1.42c6.38,2.48,9,5.25,9,10.13,0,4.27-3.67,9.6-12.15,9.6a19.71,19.71,0,0,1-11.62-4.13l2.4-3.45a15.79,15.79,0,0,0,9.37,3.53C3054.72,1876.79,3057.5,1874.24,3057.5,1871.16Z"/><path d="M3124.47,1846.86h5l-9.6,33.08h-6.23l-8.4-28.43-8.47,28.43h-6.23l-9.29-33.08h5.09l7.35,29.33,8.93-29.33h5.4l8.85,29.33Z"/><path d="M3143,1879.94h-4.57v-29.25h-5.25v-3.83H3143Zm-2.62-49a4,4,0,1,1-4,4A4,4,0,0,1,3140.37,1830.89Z"/><path d="M3160.09,1832.92v13.94h8.18v3.83h-8.18v22.42c0,3.08,2.18,3.23,4.73,3.23a22.68,22.68,0,0,0,3.45-.23v3.83a46.32,46.32,0,0,1-5.1.3c-3.45,0-7.65-.9-7.65-7v-22.5h-5.7v-3.83h5.7v-13.94Z"/><path d="M3199,1858.19c0-5.33-3.45-8.18-8.18-8.18-4,0-7.87,2.18-11,5.85v24.08h-4.58v-52.5h4.5v24.15a15,15,0,0,1,11.85-5.62c7.73,0,12,4.72,12,12v22H3199Z"/><path d="M3233.44,1873.71v19.35h-4.57v-46.2h4.57v6.45c1.95-4.12,7-7.34,12.75-7.34,9.45,0,16.65,7.34,16.65,17.47s-7.27,17.4-16.8,17.4C3240.42,1880.84,3235.47,1877.76,3233.44,1873.71Zm12.3-23.7c-7.35,0-12.52,5.85-12.52,13.43s5.17,13.42,12.52,13.42,12.45-5.85,12.45-13.42S3253.09,1850,3245.74,1850Z"/><path d="M3290.74,1857.06c0-5-3.9-7-8.32-7a18,18,0,0,0-10.2,3.6l-2.18-3.44a21.61,21.61,0,0,1,12.68-4.2c7.87,0,12.6,4.42,12.6,11.24v22.73h-4.58v-4.13c-1.87,3.3-6.37,5-10.35,5-7.2,0-12-4.2-12-10.13s4.35-9.67,11.18-9.67h7.95c2.32,0,3.22-1.2,3.22-3Zm0,11.1v-4.57c-.82,1-2.55,1.27-4.27,1.27h-6.15c-4.88,0-7.13,2.4-7.13,5.85,0,2.85,2.18,6.23,7.73,6.23C3285.94,1876.94,3290.74,1874.16,3290.74,1868.16Z"/><path d="M3337.24,1883.39c0,5.4-2.47,9.67-9.75,9.67H3315v-3.82h12c3.15,0,5.7-1,5.7-4.8v-10.8c-2,4.12-7,7.2-12.6,7.2-9.53,0-16.8-7.28-16.8-17.4s7.2-17.47,16.65-17.47c5.7,0,10.8,3.22,12.75,7.34v-6.45h4.57Zm-4.42-20c0-7.58-5.1-13.43-12.45-13.43s-12.53,5.85-12.53,13.43,5.18,13.42,12.53,13.42S3332.82,1871,3332.82,1863.44Z"/><path d="M3350.29,1864.79c.6,6.82,5.18,12,12.08,12a11.38,11.38,0,0,0,10.27-5.7H3378a17,17,0,0,1-15.6,9.75c-9.53,0-16.8-7.28-16.8-17.4s7.27-17.47,16.72-17.47c8.63,0,16.65,6.07,16.65,18.67v.15Zm.15-3.75h23.4c-.52-6-5-11-11.55-11S3351.27,1854.74,3350.44,1861Z"/><path d="M1550.43,2010.8h5.17l15.9,47.78h.15l16-47.78h4.73l-18.08,52.5h-5.77Z"/><path d="M1604.88,2063.3h-4.58v-29.25h-5.25v-3.82h9.83Zm-2.63-49.05a4,4,0,1,1-4,4A4,4,0,0,1,1602.25,2014.25Z"/><path d="M1630.23,2060.23a11.82,11.82,0,0,0,10.87-6.68l3.9,2.25a16.73,16.73,0,0,1-14.77,8.4c-9.53,0-17.1-7.27-17.1-17.4s7.57-17.47,17.1-17.47a16.73,16.73,0,0,1,14.77,8.4l-3.9,2.25a11.87,11.87,0,0,0-10.87-6.6c-7.35,0-12.45,5.85-12.45,13.42S1622.88,2060.23,1630.23,2060.23Z"/><path d="M1686,2063.3h-4.57v-29.25h-5.25v-3.82H1686Zm-2.62-49.05a4,4,0,1,1-4,4A4,4,0,0,1,1683.36,2014.25Z"/><path d="M1724.23,2042.6v20.7h-4.57v-22c0-5.1-3.15-7.95-7.88-7.95-3.9,0-7.42,2.17-10.57,5.85v24.07h-4.58v-33.07h4.5V2035c2.85-3.45,6.45-5.62,11.25-5.62,5.55,0,9.23,2.47,10.8,6.37,3.6-4.35,7.5-6.37,12.3-6.37,7.8,0,11.78,4.72,11.78,12v22h-4.58v-22c0-5.1-3.15-7.95-7.8-7.95-4,0-7.57,2.25-10.8,6C1724.16,2040.43,1724.23,2041.55,1724.23,2042.6Z"/><path d="M1761.28,2009.9a4.61,4.61,0,0,1,4.58,4.65,7.38,7.38,0,0,1-.75,2.85l-4.95,9.08h-4.05l3.45-7.65a4.47,4.47,0,0,1-2.85-4.28A4.61,4.61,0,0,1,1761.28,2009.9Z"/><path d="M1789.78,2054.53c0-3.3-2.7-4.73-7.42-6.45l-1.88-.68c-5-1.8-8.4-4.35-8.4-9.15,0-5.47,4.88-8.92,11.33-8.92a16.84,16.84,0,0,1,10.72,3.82l-2.47,3.45a15,15,0,0,0-8.4-3.3c-3.68,0-6.45,1.88-6.45,4.73,0,2.1,1.5,3.75,4.87,5l3.83,1.43c6.37,2.47,9,5.25,9,10.12,0,4.28-3.68,9.6-12.15,9.6a19.8,19.8,0,0,1-11.63-4.12l2.4-3.45a15.85,15.85,0,0,0,9.38,3.52C1787,2060.15,1789.78,2057.6,1789.78,2054.53Z"/><path d="M1827.76,2057.08v6.22h-4.57v-52.5h4.57v25.88c2-4.13,7-7.35,12.75-7.35,9.45,0,16.65,7.35,16.65,17.47s-7.27,17.4-16.8,17.4C1834.74,2064.2,1829.79,2061.13,1827.76,2057.08Zm12.3-23.7c-7.35,0-12.52,5.85-12.52,13.42s5.17,13.43,12.52,13.43,12.45-5.85,12.45-13.43S1847.41,2033.38,1840.06,2033.38Z"/><path d="M1882.29,2034.28H1880c-5.85,0-10,2.7-10,10.5v18.52h-4.5v-33.07h4.35v5.62c1.87-4.42,6-6.22,10-6.22.75,0,1.58.07,2.48.15Z"/><path d="M1903,2029.33a17.44,17.44,0,1,1-17.1,17.47C1885.89,2036.68,1893.54,2029.33,1903,2029.33Zm0,4.05c-7.35,0-12.45,5.85-12.45,13.42s5.1,13.43,12.45,13.43,12.52-5.85,12.52-13.43S1910.41,2033.38,1903,2033.38Z"/><path d="M1968.24,2030.23h5l-9.6,33.07h-6.23l-8.4-28.42-8.47,28.42h-6.23l-9.3-33.07h5.1l7.35,29.32,8.93-29.32h5.4l8.85,29.32Z"/><path d="M1996.51,2054.53c0-3.3-2.7-4.73-7.42-6.45l-1.88-.68c-5-1.8-8.4-4.35-8.4-9.15,0-5.47,4.88-8.92,11.33-8.92a16.84,16.84,0,0,1,10.72,3.82l-2.47,3.45a15,15,0,0,0-8.4-3.3c-3.68,0-6.45,1.88-6.45,4.73,0,2.1,1.5,3.75,4.87,5l3.83,1.43c6.37,2.47,9,5.25,9,10.12,0,4.28-3.68,9.6-12.15,9.6a19.8,19.8,0,0,1-11.63-4.12l2.4-3.45a15.85,15.85,0,0,0,9.38,3.52C1993.74,2060.15,1996.51,2057.6,1996.51,2054.53Z"/><path d="M2011.81,2048.15c.6,6.83,5.18,12,12.08,12a11.38,11.38,0,0,0,10.27-5.7h5.32a16.93,16.93,0,0,1-15.59,9.75c-9.53,0-16.8-7.27-16.8-17.4s7.27-17.47,16.72-17.47c8.63,0,16.65,6.07,16.65,18.67v.15Zm.15-3.75h23.4c-.53-6-5-11-11.55-11S2012.79,2038.1,2012,2044.4Z"/><path d="M2065.06,2034.28h-2.25c-5.85,0-10,2.7-10,10.5v18.52h-4.5v-33.07h4.35v5.62c1.87-4.42,6-6.22,10-6.22.75,0,1.58.07,2.48.15Z"/><path d="M2101.51,2054.53c0-3.3-2.7-4.73-7.43-6.45l-1.87-.68c-5-1.8-8.4-4.35-8.4-9.15,0-5.47,4.88-8.92,11.33-8.92a16.88,16.88,0,0,1,10.72,3.82l-2.48,3.45a15,15,0,0,0-8.4-3.3c-3.67,0-6.44,1.88-6.44,4.73,0,2.1,1.5,3.75,4.87,5l3.82,1.43c6.38,2.47,9,5.25,9,10.12,0,4.28-3.67,9.6-12.15,9.6a19.79,19.79,0,0,1-11.62-4.12l2.4-3.45a15.84,15.84,0,0,0,9.37,3.52C2098.73,2060.15,2101.51,2057.6,2101.51,2054.53Z"/><path d="M2116.81,2048.15c.6,6.83,5.17,12,12.07,12a11.41,11.41,0,0,0,10.28-5.7h5.32a16.94,16.94,0,0,1-15.6,9.75c-9.52,0-16.8-7.27-16.8-17.4s7.28-17.47,16.73-17.47c8.62,0,16.65,6.07,16.65,18.67v.15Zm.15-3.75h23.4c-.53-6-5-11-11.55-11S2117.78,2038.1,2117,2044.4Z"/><path d="M2177,2041.55c0-5.32-3.45-8.17-8.17-8.17-4,0-7.88,2.17-11,5.85v24.07h-4.57v-33.07h4.5V2035a15,15,0,0,1,11.85-5.62c7.72,0,12,4.72,12,12v22H2177Z"/><path d="M2219,2036.68V2010.8h4.57v52.5H2219V2057c-2,4.13-7,7.2-12.6,7.2-9.53,0-16.8-7.27-16.8-17.4s7.2-17.47,16.65-17.47C2211.91,2029.33,2217,2032.55,2219,2036.68Zm-12.3,23.55c7.35,0,12.52-5.85,12.52-13.43s-5.17-13.42-12.52-13.42-12.45,5.85-12.45,13.42S2199.31,2060.23,2206.66,2060.23Z"/><path d="M2250.23,2054.53c0-3.3-2.7-4.73-7.42-6.45l-1.88-.68c-5-1.8-8.4-4.35-8.4-9.15,0-5.47,4.88-8.92,11.33-8.92a16.84,16.84,0,0,1,10.72,3.82l-2.47,3.45a15,15,0,0,0-8.4-3.3c-3.68,0-6.45,1.88-6.45,4.73,0,2.1,1.5,3.75,4.87,5l3.83,1.43c6.37,2.47,9,5.25,9,10.12,0,4.28-3.68,9.6-12.15,9.6a19.8,19.8,0,0,1-11.63-4.12l2.4-3.45a15.85,15.85,0,0,0,9.38,3.52C2247.46,2060.15,2250.23,2057.6,2250.23,2054.53Z"/><path d="M1570.68,2124.28h-2.25c-5.85,0-10,2.7-10,10.5v18.52h-4.5v-33.07h4.35v5.62c1.87-4.42,6-6.22,10-6.22.75,0,1.58.07,2.48.15Z"/><path d="M1579.08,2138.15c.6,6.83,5.17,12,12.07,12a11.41,11.41,0,0,0,10.28-5.7h5.32a16.94,16.94,0,0,1-15.6,9.75c-9.52,0-16.8-7.27-16.8-17.4s7.28-17.47,16.73-17.47c8.62,0,16.65,6.07,16.65,18.67v.15Zm.15-3.75h23.4c-.53-6-5-11-11.55-11S1580.05,2128.1,1579.23,2134.4Z"/><path d="M1613.2,2136.8c0-10.12,7.2-17.47,16.65-17.47,5.7,0,10.8,3.22,12.75,7.35v-6.45h4.58v46.2h-4.58v-19.35c-2,4.05-7,7.12-12.6,7.12C1620.48,2154.2,1613.2,2146.93,1613.2,2136.8Zm17.1,13.43c7.35,0,12.53-5.85,12.53-13.43s-5.18-13.42-12.53-13.42-12.45,5.85-12.45,13.42S1623,2150.23,1630.3,2150.23Z"/><path d="M1657.38,2141.53v-21.3H1662v20.85c0,6,4.13,9.07,9.6,9.07s9.6-3.07,9.6-9.07v-20.85h4.58v21.3c0,7-5,12.67-14.18,12.67S1657.38,2148.5,1657.38,2141.53Z"/><path d="M1698.33,2138.15c.6,6.83,5.17,12,12.07,12a11.41,11.41,0,0,0,10.28-5.7H1726a16.94,16.94,0,0,1-15.6,9.75c-9.52,0-16.8-7.27-16.8-17.4s7.28-17.47,16.73-17.47c8.62,0,16.65,6.07,16.65,18.67v.15Zm.15-3.75h23.4c-.53-6-5-11-11.55-11S1699.3,2128.1,1698.48,2134.4Z"/><path d="M1750.83,2144.53c0-3.3-2.7-4.73-7.43-6.45l-1.87-.68c-5-1.8-8.4-4.35-8.4-9.15,0-5.47,4.87-8.92,11.32-8.92a16.89,16.89,0,0,1,10.73,3.82l-2.48,3.45a15,15,0,0,0-8.4-3.3c-3.67,0-6.45,1.88-6.45,4.73,0,2.1,1.5,3.75,4.88,5l3.82,1.43c6.38,2.47,9,5.25,9,10.12,0,4.28-3.67,9.6-12.15,9.6a19.77,19.77,0,0,1-11.62-4.12l2.4-3.45a15.84,15.84,0,0,0,9.37,3.52C1748.05,2150.15,1750.83,2147.6,1750.83,2144.53Z"/><path d="M1770.18,2106.28v13.95h8.17v3.82h-8.17v22.43c0,3.07,2.17,3.22,4.72,3.22a23.68,23.68,0,0,0,3.45-.22v3.82a46.32,46.32,0,0,1-5.1.3c-3.45,0-7.65-.9-7.65-7v-22.5h-5.7v-3.82h5.7v-13.95Z"/><path d="M1805.65,2106.28v13.95h8.17v3.82h-8.17v22.43c0,3.07,2.17,3.22,4.72,3.22a23.68,23.68,0,0,0,3.45-.22v3.82a46.32,46.32,0,0,1-5.1.3c-3.45,0-7.65-.9-7.65-7v-22.5h-5.69v-3.82h5.69v-13.95Z"/><path d="M1661.09,2017.12v14h8.18v3.82h-8.18v22.42c0,3.08,2.18,3.23,4.73,3.23a22.68,22.68,0,0,0,3.45-.23v3.83a46.32,46.32,0,0,1-5.1.3c-3.45,0-7.65-.9-7.65-7.05v-22.5h-5.7v-3.82h5.7v-14Z"/><path d="M1835.2,2119.33a17.44,17.44,0,1,1-17.1,17.47C1818.1,2126.68,1825.75,2119.33,1835.2,2119.33Zm0,4.05c-7.35,0-12.45,5.85-12.45,13.42s5.1,13.43,12.45,13.43,12.52-5.85,12.52-13.43S1842.62,2123.38,1835.2,2123.38Z"/><path d="M1891.67,2144.53c0-3.3-2.7-4.73-7.42-6.45l-1.88-.68c-5-1.8-8.4-4.35-8.4-9.15,0-5.47,4.88-8.92,11.33-8.92a16.84,16.84,0,0,1,10.72,3.82l-2.47,3.45a15,15,0,0,0-8.4-3.3c-3.68,0-6.45,1.88-6.45,4.73,0,2.1,1.5,3.75,4.87,5l3.83,1.43c6.37,2.47,9,5.25,9,10.12,0,4.28-3.68,9.6-12.15,9.6a19.8,19.8,0,0,1-11.63-4.12l2.4-3.45a15.85,15.85,0,0,0,9.38,3.52C1888.9,2150.15,1891.67,2147.6,1891.67,2144.53Z"/><path d="M1907,2138.15c.6,6.83,5.18,12,12.08,12a11.38,11.38,0,0,0,10.27-5.7h5.33a17,17,0,0,1-15.6,9.75c-9.53,0-16.8-7.27-16.8-17.4s7.27-17.47,16.72-17.47c8.63,0,16.65,6.07,16.65,18.67v.15Zm.15-3.75h23.4c-.52-6-5-11-11.55-11S1908,2128.1,1907.12,2134.4Z"/><path d="M1960.22,2124.28H1958c-5.85,0-10,2.7-10,10.5v18.52h-4.5v-33.07h4.35v5.62c1.88-4.42,6-6.22,10-6.22.75,0,1.57.07,2.47.15Z"/><path d="M1990,2120.23h5l-12.53,33.07h-6.15l-12.3-33.07h5.18l10.27,29.32Z"/><path d="M2003.5,2138.15c.6,6.83,5.17,12,12.07,12a11.41,11.41,0,0,0,10.28-5.7h5.32a16.94,16.94,0,0,1-15.6,9.75c-9.52,0-16.8-7.27-16.8-17.4s7.28-17.47,16.73-17.47c8.62,0,16.65,6.07,16.65,18.67v.15Zm.15-3.75h23.4c-.53-6-5-11-11.55-11S2004.47,2128.1,2003.65,2134.4Z"/><path d="M2056.75,2124.28h-2.25c-5.85,0-10,2.7-10,10.5v18.52H2040v-33.07h4.35v5.62c1.87-4.42,6-6.22,10-6.22.75,0,1.58.07,2.48.15Z"/><path d="M1516,2047.63c0-8.18-4.87-11.7-12-11.7a32.17,32.17,0,0,0-4,.22v-3.37l15.45-17.85h-22.5v-4.13H1520v4.65l-14.54,16.73c8.7,0,15.29,5.92,15.29,15.45,0,11.4-7,16.57-15,16.57-7.65,0-14.4-4.87-14.4-14.1v-3.3h4.5l.07,2.85c.15,7.13,4.28,10.58,9.75,10.58C1511.9,2060.23,1516,2056.18,1516,2047.63Z"/><path d="M1533.8,2055.13a4.54,4.54,0,1,1-4.5,4.57A4.54,4.54,0,0,1,1533.8,2055.13Z"/><path d="M2520.94,2033.9c-4,0-6.37,1.28-8.1,2.93h-4.12v-26h26.17v4.13h-22v17.17h.23a15.16,15.16,0,0,1,8.32-2.4c9.9,0,15.07,7,15.07,16.88-.07,11.4-7.19,17.62-15.22,17.62-7.65,0-14.4-4.87-14.4-14.1v-3.3h4.5l.08,2.85c.15,7.13,4.35,10.58,9.75,10.58,6.22,0,10.49-4.95,10.57-13.5C2531.74,2039.08,2528.29,2033.9,2520.94,2033.9Z"/><path d="M2549.07,2055.13a4.54,4.54,0,1,1-4.5,4.57A4.54,4.54,0,0,1,2549.07,2055.13Z"/><path d="M2564.91,2010.8h5.18l15.9,47.78h.15l16.05-47.78h4.72l-18.07,52.5h-5.78Z"/><path d="M2619.36,2063.3h-4.57v-29.25h-5.25v-3.82h9.82Zm-2.62-49.05a4,4,0,1,1-4,4A4,4,0,0,1,2616.74,2014.25Z"/><path d="M2644.71,2060.23a11.84,11.84,0,0,0,10.88-6.68l3.9,2.25a16.76,16.76,0,0,1-14.78,8.4c-9.52,0-17.1-7.27-17.1-17.4s7.58-17.47,17.1-17.47a16.76,16.76,0,0,1,14.78,8.4l-3.9,2.25a11.89,11.89,0,0,0-10.88-6.6c-7.35,0-12.45,5.85-12.45,13.42S2637.36,2060.23,2644.71,2060.23Z"/><path d="M2673.81,2016.28v14H2682v3.82h-8.18v22.43c0,3.07,2.18,3.22,4.73,3.22a23.68,23.68,0,0,0,3.45-.22v3.82a46.32,46.32,0,0,1-5.1.3c-3.45,0-7.65-.9-7.65-7v-22.5h-5.7v-3.82h5.7v-14Z"/><path d="M2694.74,2063.3h-4.58v-29.25h-5.25v-3.82h9.83Zm-2.63-49.05a4,4,0,1,1-4,4A4,4,0,0,1,2692.11,2014.25Z"/><path d="M2733,2042.6v20.7h-4.58v-22c0-5.1-3.15-7.95-7.87-7.95-3.9,0-7.43,2.17-10.58,5.85v24.07h-4.57v-33.07h4.5V2035c2.85-3.45,6.45-5.62,11.25-5.62,5.55,0,9.22,2.47,10.8,6.37,3.6-4.35,7.49-6.37,12.29-6.37,7.8,0,11.78,4.72,11.78,12v22h-4.58v-22c0-5.1-3.15-7.95-7.79-7.95-4,0-7.58,2.25-10.8,6C2732.91,2040.43,2733,2041.55,2733,2042.6Z"/><path d="M2770,2009.9a4.61,4.61,0,0,1,4.57,4.65,7.21,7.21,0,0,1-.75,2.85l-5,9.08h-4l3.45-7.65a4.47,4.47,0,0,1-2.85-4.28A4.61,4.61,0,0,1,2770,2009.9Z"/><path d="M2798.54,2054.53c0-3.3-2.7-4.73-7.43-6.45l-1.87-.68c-5-1.8-8.4-4.35-8.4-9.15,0-5.47,4.87-8.92,11.32-8.92a16.89,16.89,0,0,1,10.73,3.82l-2.48,3.45a15,15,0,0,0-8.4-3.3c-3.67,0-6.45,1.88-6.45,4.73,0,2.1,1.5,3.75,4.88,5l3.82,1.43c6.38,2.47,9,5.25,9,10.12,0,4.28-3.67,9.6-12.15,9.6a19.77,19.77,0,0,1-11.62-4.12l2.4-3.45a15.84,15.84,0,0,0,9.37,3.52C2795.76,2060.15,2798.54,2057.6,2798.54,2054.53Z"/><path d="M2831,2057.08v6.22h-4.57v-52.5H2831v25.88c1.95-4.13,7-7.35,12.75-7.35,9.45,0,16.65,7.35,16.65,17.47s-7.28,17.4-16.8,17.4C2838,2064.2,2833,2061.13,2831,2057.08Zm12.3-23.7c-7.35,0-12.52,5.85-12.52,13.42s5.17,13.43,12.52,13.43,12.45-5.85,12.45-13.43S2850.66,2033.38,2843.31,2033.38Z"/><path d="M2885.53,2034.28h-2.25c-5.85,0-10.05,2.7-10.05,10.5v18.52h-4.5v-33.07h4.35v5.62c1.88-4.42,6-6.22,10-6.22.75,0,1.57.07,2.47.15Z"/><path d="M2906.23,2029.33a17.44,17.44,0,0,1,0,34.87c-9.45,0-17.09-7.27-17.09-17.4S2896.78,2029.33,2906.23,2029.33Zm0,4.05c-7.35,0-12.44,5.85-12.44,13.42s5.09,13.43,12.44,13.43,12.53-5.85,12.53-13.43S2913.66,2033.38,2906.23,2033.38Z"/><path d="M2999.72,2054.53c0-3.3-2.7-4.73-7.43-6.45l-1.87-.68c-5-1.8-8.4-4.35-8.4-9.15,0-5.47,4.87-8.92,11.32-8.92a16.89,16.89,0,0,1,10.73,3.82l-2.48,3.45a15,15,0,0,0-8.4-3.3c-3.67,0-6.45,1.88-6.45,4.73,0,2.1,1.5,3.75,4.88,5l3.82,1.43c6.38,2.47,9,5.25,9,10.12,0,4.28-3.67,9.6-12.15,9.6a19.77,19.77,0,0,1-11.62-4.12l2.4-3.45a15.84,15.84,0,0,0,9.37,3.52C2996.94,2060.15,2999.72,2057.6,2999.72,2054.53Z"/><path d="M2970.42,2030.23h4.95l-9.6,33.07h-6.23l-8.4-28.42-8.47,28.42h-6.22l-9.3-33.07h5.1l7.34,29.32,8.93-29.32h5.4l8.85,29.32Z"/><path d="M3013.53,2048.15c.6,6.83,5.17,12,12.07,12a11.41,11.41,0,0,0,10.28-5.7h5.32a16.94,16.94,0,0,1-15.6,9.75c-9.52,0-16.79-7.27-16.79-17.4s7.27-17.47,16.72-17.47c8.62,0,16.65,6.07,16.65,18.67v.15Zm.15-3.75h23.4c-.53-6-5-11-11.55-11S3014.5,2038.1,3013.68,2044.4Z"/><path d="M3066.78,2034.28h-2.25c-5.85,0-10.05,2.7-10.05,10.5v18.52H3050v-33.07h4.35v5.62c1.87-4.42,6-6.22,10-6.22.75,0,1.58.07,2.48.15Z"/><path d="M3093.43,2063.3h-4.57v-52.5h4.57Z"/><path d="M3118.78,2029.33a17.44,17.44,0,1,1-17.1,17.47C3101.68,2036.68,3109.33,2029.33,3118.78,2029.33Zm0,4.05c-7.35,0-12.45,5.85-12.45,13.42s5.1,13.43,12.45,13.43,12.53-5.85,12.53-13.43S3126.21,2033.38,3118.78,2033.38Z"/><path d="M3163.78,2040.43c0-5-3.9-7-8.32-7a17.91,17.91,0,0,0-10.2,3.6l-2.18-3.45a21.61,21.61,0,0,1,12.68-4.2c7.87,0,12.59,4.42,12.59,11.25v22.72h-4.57v-4.12c-1.87,3.3-6.37,5-10.35,5-7.2,0-12-4.2-12-10.12,0-6.08,4.35-9.68,11.18-9.68h7.95c2.32,0,3.22-1.2,3.22-3Zm0,11.1V2047c-.83,1-2.55,1.28-4.27,1.28h-6.15c-4.88,0-7.13,2.4-7.13,5.85,0,2.85,2.18,6.22,7.73,6.22C3159,2060.3,3163.78,2057.53,3163.78,2051.53Z"/><path d="M3205.7,2036.68V2010.8h4.58v52.5h-4.58V2057c-2,4.13-7,7.2-12.6,7.2-9.52,0-16.79-7.27-16.79-17.4s7.2-17.47,16.64-17.47C3198.65,2029.33,3203.75,2032.55,3205.7,2036.68Zm-12.29,23.55c7.34,0,12.52-5.85,12.52-13.43s-5.18-13.42-12.52-13.42-12.45,5.85-12.45,13.42S3186.06,2060.23,3193.41,2060.23Z"/><path d="M3237,2054.53c0-3.3-2.7-4.73-7.42-6.45l-1.88-.68c-5-1.8-8.4-4.35-8.4-9.15,0-5.47,4.88-8.92,11.32-8.92a16.89,16.89,0,0,1,10.73,3.82l-2.48,3.45a15,15,0,0,0-8.4-3.3c-3.67,0-6.44,1.88-6.44,4.73,0,2.1,1.5,3.75,4.87,5l3.82,1.43c6.38,2.47,9,5.25,9,10.12,0,4.28-3.67,9.6-12.14,9.6a19.8,19.8,0,0,1-11.63-4.12l2.4-3.45a15.84,15.84,0,0,0,9.37,3.52C3234.2,2060.15,3237,2057.6,3237,2054.53Z"/><path d="M3286,2030.23h5l-12.52,33.07h-6.15l-12.3-33.07h5.17l10.28,29.32Z"/><path d="M3297.8,2051.53v-21.3h4.58v20.85c0,6,4.12,9.07,9.6,9.07s9.6-3.07,9.6-9.07v-20.85h4.57v21.3c0,7-5,12.67-14.17,12.67S3297.8,2058.5,3297.8,2051.53Z"/><path d="M3340.93,2063.3h-4.58v-52.5h4.58Z"/><path d="M3375.35,2041.55c0-5.32-3.45-8.17-8.17-8.17-4,0-7.88,2.17-11,5.85v24.07h-4.57v-33.07h4.5V2035a15,15,0,0,1,11.85-5.62c7.72,0,12,4.72,12,12v22h-4.58Z"/><path d="M3392.6,2048.15c.6,6.83,5.18,12,12.08,12a11.38,11.38,0,0,0,10.27-5.7h5.33a17,17,0,0,1-15.6,9.75c-9.53,0-16.8-7.27-16.8-17.4s7.27-17.47,16.72-17.47c8.63,0,16.65,6.07,16.65,18.67v.15Zm.15-3.75h23.4c-.52-6-5-11-11.55-11S3393.58,2038.1,3392.75,2044.4Z"/><path d="M3445.85,2034.28h-2.25c-5.85,0-10,2.7-10,10.5v18.52h-4.5v-33.07h4.35v5.62c1.88-4.42,6-6.22,10-6.22.75,0,1.57.07,2.47.15Z"/><path d="M3472.33,2040.43c0-5-3.9-7-8.33-7a18,18,0,0,0-10.2,3.6l-2.17-3.45a21.61,21.61,0,0,1,12.67-4.2c7.88,0,12.6,4.42,12.6,11.25v22.72h-4.57v-4.12c-1.88,3.3-6.38,5-10.35,5-7.2,0-12-4.2-12-10.12,0-6.08,4.35-9.68,11.17-9.68h7.95c2.33,0,3.23-1.2,3.23-3Zm0,11.1V2047c-.83,1-2.55,1.28-4.28,1.28h-6.15c-4.87,0-7.12,2.4-7.12,5.85,0,2.85,2.17,6.22,7.72,6.22C3467.53,2060.3,3472.33,2057.53,3472.33,2051.53Z"/><path d="M3491.75,2057.08v6.22h-4.57v-52.5h4.57v25.88c1.95-4.13,7.05-7.35,12.75-7.35,9.45,0,16.65,7.35,16.65,17.47s-7.27,17.4-16.8,17.4C3498.73,2064.2,3493.78,2061.13,3491.75,2057.08Zm12.3-23.7c-7.35,0-12.52,5.85-12.52,13.42s5.17,13.43,12.52,13.43,12.45-5.85,12.45-13.43S3511.4,2033.38,3504.05,2033.38Z"/><path d="M3534.05,2063.3h-4.57v-52.5h4.57Z"/><path d="M3547.1,2048.15c.6,6.83,5.18,12,12.08,12a11.38,11.38,0,0,0,10.27-5.7h5.32a16.93,16.93,0,0,1-15.59,9.75c-9.53,0-16.8-7.27-16.8-17.4s7.27-17.47,16.72-17.47c8.63,0,16.65,6.07,16.65,18.67v.15Zm.15-3.75h23.4c-.53-6-5-11-11.55-11S3548.08,2038.1,3547.25,2044.4Z"/><path d="M2569.94,2132.83v4c0,7.5,3.75,13.43,12.75,13.43,8.85,0,12.75-5.93,12.75-13.43v-36h4.65v35.78c0,9.9-5.48,17.62-17.48,17.62s-17.32-7.65-17.32-17.55v-3.82Z"/><path d="M2630.46,2130.43c0-5-3.9-7-8.32-7a17.91,17.91,0,0,0-10.2,3.6l-2.18-3.45a21.61,21.61,0,0,1,12.68-4.2c7.87,0,12.6,4.42,12.6,11.25v22.72h-4.58v-4.12c-1.87,3.3-6.37,5-10.35,5-7.2,0-12-4.2-12-10.12,0-6.08,4.35-9.68,11.18-9.68h7.95c2.32,0,3.22-1.2,3.22-3Zm0,11.1V2137c-.82,1-2.55,1.28-4.27,1.28H2620c-4.88,0-7.13,2.4-7.13,5.85,0,2.85,2.18,6.22,7.73,6.22C2625.66,2150.3,2630.46,2147.53,2630.46,2141.53Z"/><path d="M2667.51,2120.23h4.95l-12.52,33.07h-6.15l-12.3-33.07h5.17l10.28,29.32Z"/><path d="M2698.49,2130.43c0-5-3.9-7-8.33-7A17.9,17.9,0,0,0,2680,2127l-2.18-3.45a21.61,21.61,0,0,1,12.67-4.2c7.88,0,12.6,4.42,12.6,11.25v22.72h-4.57v-4.12c-1.88,3.3-6.38,5-10.35,5-7.2,0-12-4.2-12-10.12,0-6.08,4.35-9.68,11.17-9.68h8c2.33,0,3.23-1.2,3.23-3Zm0,11.1V2137c-.83,1-2.55,1.28-4.28,1.28h-6.15c-4.87,0-7.12,2.4-7.12,5.85,0,2.85,2.17,6.22,7.72,6.22C2693.69,2150.3,2698.49,2147.53,2698.49,2141.53Z"/><path d="M2729.39,2144.53c0-3.3-2.7-4.73-7.43-6.45l-1.87-.68c-5-1.8-8.4-4.35-8.4-9.15,0-5.47,4.87-8.92,11.32-8.92a16.89,16.89,0,0,1,10.73,3.82l-2.48,3.45a15,15,0,0,0-8.4-3.3c-3.67,0-6.45,1.88-6.45,4.73,0,2.1,1.5,3.75,4.88,5l3.82,1.43c6.38,2.47,9,5.25,9,10.12,0,4.28-3.67,9.6-12.15,9.6a19.77,19.77,0,0,1-11.62-4.12l2.4-3.45a15.84,15.84,0,0,0,9.37,3.52C2726.61,2150.15,2729.39,2147.6,2729.39,2144.53Z"/><path d="M2757,2150.23a11.82,11.82,0,0,0,10.87-6.68l3.9,2.25a16.73,16.73,0,0,1-14.77,8.4c-9.53,0-17.1-7.27-17.1-17.4s7.57-17.47,17.1-17.47a16.73,16.73,0,0,1,14.77,8.4l-3.9,2.25a11.87,11.87,0,0,0-10.87-6.6c-7.35,0-12.45,5.85-12.45,13.42S2749.64,2150.23,2757,2150.23Z"/><path d="M2796.44,2124.28h-2.25c-5.85,0-10.05,2.7-10.05,10.5v18.52h-4.5v-33.07H2784v5.62c1.87-4.42,6-6.22,10-6.22.75,0,1.58.07,2.48.15Z"/><path d="M2809.11,2153.3h-4.57v-29.25h-5.25v-3.82h9.82Zm-2.62-49.05a4,4,0,1,1-4,4A4,4,0,0,1,2806.49,2104.25Z"/><path d="M2824.34,2147.08v19.35h-4.58v-46.2h4.58v6.45c1.95-4.13,7-7.35,12.75-7.35,9.45,0,16.65,7.35,16.65,17.47s-7.28,17.4-16.8,17.4C2831.31,2154.2,2826.36,2151.13,2824.34,2147.08Zm12.3-23.7c-7.35,0-12.53,5.85-12.53,13.42s5.18,13.43,12.53,13.43,12.45-5.85,12.45-13.43S2844,2123.38,2836.64,2123.38Z"/><path d="M2868.51,2106.28v13.95h8.18v3.82h-8.18v22.43c0,3.07,2.18,3.22,4.73,3.22a23.68,23.68,0,0,0,3.45-.22v3.82a46.32,46.32,0,0,1-5.1.3c-3.45,0-7.65-.9-7.65-7v-22.5h-5.7v-3.82h5.7v-13.95Z"/><path d="M2918.24,2130.43c0-5-3.9-7-8.33-7a18,18,0,0,0-10.2,3.6l-2.17-3.45a21.61,21.61,0,0,1,12.67-4.2c7.88,0,12.6,4.42,12.6,11.25v22.72h-4.57v-4.12c-1.88,3.3-6.38,5-10.35,5-7.2,0-12-4.2-12-10.12,0-6.08,4.35-9.68,11.17-9.68h8c2.33,0,3.23-1.2,3.23-3Zm0,11.1V2137c-.83,1-2.55,1.28-4.28,1.28h-6.15c-4.87,0-7.12,2.4-7.12,5.85,0,2.85,2.17,6.22,7.72,6.22C2913.44,2150.3,2918.24,2147.53,2918.24,2141.53Z"/><path d="M2956.86,2131.55c0-5.32-3.45-8.17-8.17-8.17-4,0-7.88,2.17-11,5.85v24.07h-4.57v-33.07h4.5V2125a15,15,0,0,1,11.84-5.62c7.73,0,12,4.72,12,12v22h-4.57Z"/><path d="M2998.78,2126.68V2100.8h4.58v52.5h-4.58V2147c-2,4.13-7,7.2-12.59,7.2-9.53,0-16.8-7.27-16.8-17.4s7.2-17.47,16.65-17.47C2991.74,2119.33,2996.83,2122.55,2998.78,2126.68Zm-12.29,23.55c7.34,0,12.52-5.85,12.52-13.43s-5.18-13.42-12.52-13.42-12.45,5.85-12.45,13.42S2979.14,2150.23,2986.49,2150.23Z"/><path d="M3031.41,2138.15c.6,6.83,5.18,12,12.07,12a11.41,11.41,0,0,0,10.28-5.7h5.32a16.94,16.94,0,0,1-15.6,9.75c-9.52,0-16.79-7.27-16.79-17.4s7.27-17.47,16.72-17.47c8.62,0,16.65,6.07,16.65,18.67v.15Zm.15-3.75H3055c-.53-6-5-11-11.55-11S3032.39,2128.1,3031.56,2134.4Z"/><path d="M3075.81,2137l-12.6-16.72h5.48l9.74,13.42,10-13.42h5.17L3081,2136.8l12.6,16.5H3088l-9.67-13.2-9.67,13.2h-5.48Z"/><path d="M3101.54,2138.15c.6,6.83,5.17,12,12.07,12a11.38,11.38,0,0,0,10.27-5.7h5.33a17,17,0,0,1-15.6,9.75c-9.53,0-16.8-7.27-16.8-17.4s7.27-17.47,16.72-17.47c8.63,0,16.65,6.07,16.65,18.67v.15Zm.14-3.75h23.4c-.52-6-5-11-11.55-11S3102.51,2128.1,3101.68,2134.4Z"/><path d="M3152.68,2150.23a11.84,11.84,0,0,0,10.88-6.68l3.9,2.25a16.76,16.76,0,0,1-14.78,8.4c-9.52,0-17.1-7.27-17.1-17.4s7.58-17.47,17.1-17.47a16.76,16.76,0,0,1,14.78,8.4l-3.9,2.25a11.89,11.89,0,0,0-10.88-6.6c-7.35,0-12.45,5.85-12.45,13.42S3145.33,2150.23,3152.68,2150.23Z"/><path d="M3174.88,2141.53v-21.3h4.58v20.85c0,6,4.12,9.07,9.6,9.07s9.6-3.07,9.6-9.07v-20.85h4.57v21.3c0,7-4.95,12.67-14.17,12.67S3174.88,2148.5,3174.88,2141.53Z"/><path d="M3219.88,2106.28v13.95h8.18v3.82h-8.18v22.43c0,3.07,2.18,3.22,4.73,3.22a23.68,23.68,0,0,0,3.45-.22v3.82a46.32,46.32,0,0,1-5.1.3c-3.45,0-7.65-.9-7.65-7v-22.5h-5.7v-3.82h5.7v-13.95Z"/><path d="M3237.13,2138.15c.6,6.83,5.18,12,12.08,12a11.38,11.38,0,0,0,10.27-5.7h5.33a17,17,0,0,1-15.6,9.75c-9.53,0-16.8-7.27-16.8-17.4s7.27-17.47,16.72-17.47c8.63,0,16.65,6.07,16.65,18.67v.15Zm.15-3.75h23.4c-.52-6-5-11-11.55-11S3238.11,2128.1,3237.28,2134.4Z"/><path d="M3289.63,2144.53c0-3.3-2.7-4.73-7.42-6.45l-1.88-.68c-5-1.8-8.4-4.35-8.4-9.15,0-5.47,4.88-8.92,11.33-8.92a16.84,16.84,0,0,1,10.72,3.82l-2.47,3.45a15,15,0,0,0-8.4-3.3c-3.68,0-6.45,1.88-6.45,4.73,0,2.1,1.5,3.75,4.87,5l3.83,1.43c6.37,2.47,9,5.25,9,10.12,0,4.28-3.68,9.6-12.15,9.6a19.8,19.8,0,0,1-11.63-4.12l2.4-3.45a15.85,15.85,0,0,0,9.38,3.52C3286.86,2150.15,3289.63,2147.6,3289.63,2144.53Z"/><path d="M3322.86,2106.28v13.95H3331v3.82h-8.17v22.43c0,3.07,2.17,3.22,4.72,3.22a23.68,23.68,0,0,0,3.45-.22v3.82a46.32,46.32,0,0,1-5.1.3c-3.45,0-7.65-.9-7.65-7v-22.5h-5.7v-3.82h5.7v-13.95Z"/><path d="M3361.78,2131.55c0-5.32-3.45-8.17-8.18-8.17-4,0-7.87,2.17-11,5.85v24.07H3338v-52.5h4.5V2125a15,15,0,0,1,11.84-5.62c7.73,0,12,4.72,12,12v22h-4.57Z"/><path d="M3379,2138.15c.6,6.83,5.18,12,12.07,12a11.41,11.41,0,0,0,10.28-5.7h5.32a16.94,16.94,0,0,1-15.6,9.75c-9.52,0-16.79-7.27-16.79-17.4s7.27-17.47,16.72-17.47c8.62,0,16.65,6.07,16.65,18.67v.15Zm.15-3.75h23.4c-.53-6-5-11-11.55-11S3380,2128.1,3379.18,2134.4Z"/><path d="M2587.94,2220.43c0-5-3.9-7-8.33-7a18,18,0,0,0-10.2,3.6l-2.17-3.45a21.61,21.61,0,0,1,12.67-4.2c7.88,0,12.6,4.42,12.6,11.25v22.72h-4.57v-4.12c-1.88,3.3-6.38,5-10.35,5-7.2,0-12-4.2-12-10.12,0-6.08,4.35-9.68,11.17-9.68h7.95c2.33,0,3.23-1.2,3.23-3Zm0,11.1V2227c-.83,1-2.55,1.28-4.28,1.28h-6.15c-4.87,0-7.12,2.4-7.12,5.85,0,2.85,2.17,6.22,7.72,6.22C2583.14,2240.3,2587.94,2237.53,2587.94,2231.53Z"/><path d="M2609.24,2196.28v13.95h8.17v3.82h-8.17v22.43c0,3.07,2.17,3.22,4.72,3.22a23.68,23.68,0,0,0,3.45-.22v3.82a46.32,46.32,0,0,1-5.1.3c-3.45,0-7.65-.9-7.65-7v-22.5H2599v-3.82h5.7v-13.95Z"/><path d="M2630.84,2196.28v13.95H2639v3.82h-8.17v22.43c0,3.07,2.17,3.22,4.72,3.22a23.68,23.68,0,0,0,3.45-.22v3.82a46.32,46.32,0,0,1-5.1.3c-3.45,0-7.65-.9-7.65-7v-22.5h-5.7v-3.82h5.7v-13.95Z"/><path d="M2665.56,2220.43c0-5-3.9-7-8.32-7a17.91,17.91,0,0,0-10.2,3.6l-2.18-3.45a21.61,21.61,0,0,1,12.68-4.2c7.87,0,12.6,4.42,12.6,11.25v22.72h-4.58v-4.12c-1.87,3.3-6.37,5-10.35,5-7.2,0-12-4.2-12-10.12,0-6.08,4.35-9.68,11.18-9.68h8c2.32,0,3.22-1.2,3.22-3Zm0,11.1V2227c-.82,1-2.55,1.28-4.27,1.28h-6.15c-4.88,0-7.13,2.4-7.13,5.85,0,2.85,2.18,6.22,7.73,6.22C2660.76,2240.3,2665.56,2237.53,2665.56,2231.53Z"/><path d="M2695.11,2240.23a11.84,11.84,0,0,0,10.88-6.68l3.9,2.25a16.76,16.76,0,0,1-14.78,8.4c-9.52,0-17.1-7.27-17.1-17.4s7.58-17.47,17.1-17.47a16.76,16.76,0,0,1,14.78,8.4L2706,2220a11.89,11.89,0,0,0-10.88-6.6c-7.35,0-12.45,5.85-12.45,13.42S2687.76,2240.23,2695.11,2240.23Z"/><path d="M2722.34,2223.05h4.27l12.75-12.82h6.15L2730.29,2225l16.05,18.3h-6.08L2726.39,2227h-4v16.27h-4.58v-52.5h4.58Z"/><path d="M2753.09,2228.15c.6,6.83,5.17,12,12.07,12a11.41,11.41,0,0,0,10.28-5.7h5.32a16.94,16.94,0,0,1-15.6,9.75c-9.52,0-16.8-7.27-16.8-17.4s7.28-17.47,16.73-17.47c8.62,0,16.65,6.07,16.65,18.67v.15Zm.15-3.75h23.4c-.53-6-5-11-11.55-11S2754.06,2218.1,2753.24,2224.4Z"/><path d="M2806.34,2214.28h-2.25c-5.85,0-10.05,2.7-10.05,10.5v18.52h-4.5v-33.07h4.35v5.62c1.87-4.42,6-6.22,10-6.22.75,0,1.57.07,2.48.15Z"/><path d="M2817.66,2189.9a4.61,4.61,0,0,1,4.58,4.65,7.38,7.38,0,0,1-.75,2.85l-4.95,9.08h-4.05l3.45-7.65a4.47,4.47,0,0,1-2.85-4.28A4.61,4.61,0,0,1,2817.66,2189.9Z"/><path d="M2846.16,2234.53c0-3.3-2.7-4.73-7.43-6.45l-1.87-.68c-5-1.8-8.4-4.35-8.4-9.15,0-5.47,4.87-8.92,11.32-8.92a16.89,16.89,0,0,1,10.73,3.82l-2.48,3.45a15,15,0,0,0-8.4-3.3c-3.67,0-6.45,1.88-6.45,4.73,0,2.1,1.5,3.75,4.88,5l3.82,1.43c6.38,2.47,9,5.25,9,10.12,0,4.28-3.67,9.6-12.15,9.6a19.77,19.77,0,0,1-11.62-4.12l2.4-3.45a15.84,15.84,0,0,0,9.37,3.52C2843.38,2240.15,2846.16,2237.6,2846.16,2234.53Z"/><path d="M2878.63,2237.08v19.35h-4.57v-46.2h4.57v6.45c1.95-4.13,7-7.35,12.75-7.35,9.45,0,16.65,7.35,16.65,17.47s-7.27,17.4-16.8,17.4C2885.61,2244.2,2880.66,2241.13,2878.63,2237.08Zm12.3-23.7c-7.35,0-12.52,5.85-12.52,13.42s5.17,13.43,12.52,13.43,12.45-5.85,12.45-13.43S2898.28,2213.38,2890.93,2213.38Z"/><path d="M2935.93,2220.43c0-5-3.9-7-8.32-7a17.91,17.91,0,0,0-10.2,3.6l-2.18-3.45a21.61,21.61,0,0,1,12.68-4.2c7.87,0,12.6,4.42,12.6,11.25v22.72h-4.58v-4.12c-1.87,3.3-6.37,5-10.35,5-7.2,0-12-4.2-12-10.12,0-6.08,4.35-9.68,11.18-9.68h7.95c2.32,0,3.22-1.2,3.22-3Zm0,11.1V2227c-.82,1-2.55,1.28-4.27,1.28h-6.15c-4.88,0-7.13,2.4-7.13,5.85,0,2.85,2.18,6.22,7.73,6.22C2931.13,2240.3,2935.93,2237.53,2935.93,2231.53Z"/><path d="M2960.83,2243.3h-1.65l-12.3-33.07h5.1l10.35,29.4,10.65-29.4h4.88l-14.78,38.92c-1.8,4.73-3.82,7.28-9.45,7.28h-3.82v-3.83h3.75c3.3,0,4.42-1.72,5.7-5.1Z"/><path d="M2989.71,2243.3h-4.58v-52.5h4.58Z"/><path d="M3015.06,2209.33a17.44,17.44,0,1,1-17.1,17.47C2998,2216.68,3005.61,2209.33,3015.06,2209.33Zm0,4.05c-7.35,0-12.45,5.85-12.45,13.42s5.1,13.43,12.45,13.43,12.52-5.85,12.52-13.43S3022.48,2213.38,3015.06,2213.38Z"/><path d="M3060.06,2220.43c0-5-3.9-7-8.33-7a18,18,0,0,0-10.2,3.6l-2.17-3.45a21.61,21.61,0,0,1,12.67-4.2c7.88,0,12.6,4.42,12.6,11.25v22.72h-4.57v-4.12c-1.88,3.3-6.38,5-10.35,5-7.2,0-12-4.2-12-10.12,0-6.08,4.35-9.68,11.17-9.68h7.95c2.33,0,3.23-1.2,3.23-3Zm0,11.1V2227c-.83,1-2.55,1.28-4.28,1.28h-6.15c-4.87,0-7.12,2.4-7.12,5.85,0,2.85,2.17,6.22,7.72,6.22C3055.26,2240.3,3060.06,2237.53,3060.06,2231.53Z"/><path d="M3102,2216.68V2190.8h4.58v52.5H3102V2237c-2,4.13-7,7.2-12.6,7.2-9.52,0-16.8-7.27-16.8-17.4s7.2-17.47,16.65-17.47C3094.93,2209.33,3100,2212.55,3102,2216.68Zm-12.3,23.55c7.35,0,12.53-5.85,12.53-13.43s-5.18-13.42-12.53-13.42-12.45,5.85-12.45,13.42S3082.33,2240.23,3089.68,2240.23Z"/><path d="M1477.19,168.89h-27.84V87.69h27.84c26.56,0,42.11,16.47,42.11,40.6S1503.75,168.89,1477.19,168.89Zm-.58-67.39h-11.14v53.7h11.14c14.85,0,26.21-8.7,26.21-26.91C1502.82,110.31,1491.46,101.5,1476.61,101.5Z"/><path d="M1611.86,128.29c0,24.48-18.9,42-42.45,42s-42.46-17.51-42.46-42,18.91-42,42.46-42S1611.86,103.82,1611.86,128.29Zm-16.82,0c0-15.54-10.32-27.14-25.63-27.14s-25.64,11.6-25.64,27.14,10.33,27.15,25.64,27.15S1595,143.84,1595,128.29Z"/><path d="M1655.71,151.49l-16-40v57.42H1624V87.69h22.74l17.75,46.05,18.09-46.05h21.69v81.2h-16V111.47l-15.55,40Z"/><path d="M1715.1,131.42h24.36v12.76H1715.1Z"/><path d="M1814.05,125.28v.23c9.4,3.83,15.08,10.67,15.08,20.07,0,13-9.63,23.31-26.8,23.31h-28.88V87.69h26.22c16.7,0,25,10.33,25,20.77A17.92,17.92,0,0,1,1814.05,125.28Zm-24.47-23.9v18.1h8.23c5.8,0,10.56-2.9,10.56-9.17s-5-8.93-10.56-8.93Zm0,53.94h8.35c9.74,0,14.38-4.52,14.38-11.14,0-6.84-5.68-10.32-13.57-10.32h-9.16Z"/><path d="M1868.57,133.51c0-3.83-3-6.26-8.82-6.26-5.33,0-12.06,2.67-16,5l-5.92-11.37a45.45,45.45,0,0,1,22.74-6.5c12.06,0,23.08,5.57,23.08,19.61v34.91h-15.08v-5c-2.78,4.18-8.82,6.38-14.85,6.38-11.25,0-18.56-8-18.56-16.7,0-10.09,7.43-16.36,19.26-16.36h10.44c2.55,0,3.71-1.16,3.71-3.13Zm0,16.36V146c-.93.93-2.55,1.16-4.64,1.16h-5.68c-4.76,0-7.54,2.09-7.54,5.8s2.9,6.26,7.54,6.26C1863.7,159.26,1868.57,156.48,1868.57,149.87Z"/><path d="M1927.38,132a19.37,19.37,0,0,0-13.11-5.45c-3.94,0-5.33,2-5.33,3.6,0,1.85,1.16,3.13,3.94,4.06l8.82,2.78c10.9,3.6,14.61,9.51,14.61,16.47,0,7.78-6.61,16.82-21.11,16.82-11.71,0-19-4.52-23.43-8.35l8-10.44c3.83,3.6,10.68,6.61,15.66,6.61,3.6,0,5.8-1.85,5.8-3.94,0-2.67-1.74-3.83-6-5.1l-9-2.67c-8.58-2.79-12.29-8.59-12.29-15.55,0-8.7,7.89-16.47,20.65-16.47,7,0,15.19,2.09,21.46,7.89Z"/><path d="M1998,146.74h-39.55a12,12,0,0,0,12.18,10.67c4.41,0,8.58-1.86,10.67-5.45l15.66,1.62c-4.76,11.37-14.73,16.7-26.56,16.7-15.89,0-27.84-11.71-27.84-27.95s11.71-28,27.6-28c14.62,0,27.84,9.51,27.84,31.79Zm-39.9-10.1h23.78a11.53,11.53,0,0,0-11.72-9.74A11.84,11.84,0,0,0,1958.12,136.64Z"/><path d="M2046.05,162.16c-2.67,4.41-8.94,8.12-16.59,8.12-14.62,0-25.75-11.71-25.75-27.95s11-28,25.63-28c8.12,0,14.27,3.71,16.94,8.24,0-1.74-.23-6.15-.23-10.09V87.69h15.08v81.2h-15.08Zm-26.8-19.83c0,8.12,5.57,14.61,13.57,14.61s13.57-6.49,13.57-14.61-5.56-14.5-13.57-14.5S2019.25,134.09,2019.25,142.33Z"/><path d="M2136.76,128.52l26.79,40.37h-18.9l-18-28.77-17.4,28.77h-18.56l26.44-41.06-25.28-40.14h18.79l16.93,28.42,16.94-28.42h18.33Z"/><path d="M2213.78,109.27c-5-4.87-11.48-8.35-17.17-8.35-5.33,0-10.2,2.78-10.2,7.65,0,3.71,2.32,6.61,8.81,9.63l6.73,3.13c12.88,6,20.65,12.76,20.65,24.94s-10.33,24-28.19,24c-12.3,0-21.46-4.75-29.11-12.18l8.93-12.06c6,6.15,13.68,9.63,19.83,9.63,7,0,11.25-3.83,11.25-8.82,0-5.57-5-8.7-12.76-12.29l-5.68-2.67c-10.9-5.11-17.75-12.53-17.75-22.74,0-14.26,12.76-22.85,27.15-22.85,9.39,0,19,4.64,26.79,11.37Z"/><path d="M2276.88,109.27c-5-4.87-11.48-8.35-17.16-8.35-5.34,0-10.21,2.78-10.21,7.65,0,3.71,2.32,6.61,8.82,9.63l6.72,3.13c12.88,6,20.65,12.76,20.65,24.94s-10.32,24-28.19,24c-12.29,0-21.46-4.75-29.11-12.18l8.93-12.06c6,6.15,13.69,9.63,19.84,9.63,7,0,11.25-3.83,11.25-8.82,0-5.57-5-8.7-12.76-12.29l-5.69-2.67c-10.9-5.11-17.74-12.53-17.74-22.74,0-14.26,12.76-22.85,27.14-22.85,9.39,0,19,4.64,26.79,11.37Z"/><path d="M682.92,1550.23H671.67l-4.5-14.32H651.35l-4.2,14.32H636.2l16.95-52.49H665.6ZM659.3,1509h-.15l-5.33,18h10.73Z"/><path d="M699,1502.84v13.05h7.43v8.25H699v15.52c0,2.17,1.73,2.48,3.23,2.48a44.66,44.66,0,0,0,4.5-.23v8.32s-4.73.45-7.58.45c-4.87,0-9.9-.82-9.9-7.72v-18.82h-5.4v-8.25h5.4v-13.05Z"/><path d="M725.45,1502.84v13.05h7.42v8.25h-7.42v15.52c0,2.17,1.72,2.48,3.22,2.48a44.41,44.41,0,0,0,4.5-.23v8.32s-4.72.45-7.57.45c-4.88,0-9.9-.82-9.9-7.72v-18.82h-5.4v-8.25h5.4v-13.05Z"/><path d="M758.67,1527.36c0-2.47-1.95-4-5.7-4-3.45,0-7.8,1.73-10.35,3.23l-3.82-7.35a29.37,29.37,0,0,1,14.7-4.2c7.8,0,14.92,3.6,14.92,12.67v22.57h-9.75V1547c-1.8,2.7-5.7,4.12-9.6,4.12-7.27,0-12-5.17-12-10.8,0-6.52,4.8-10.57,12.45-10.57h6.75c1.65,0,2.4-.75,2.4-2Zm0,10.57v-2.47a4.24,4.24,0,0,1-3,.75H752c-3.08,0-4.88,1.35-4.88,3.75s1.88,4,4.88,4C755.52,1544,758.67,1542.21,758.67,1537.93Z"/><path d="M784,1533.06c0,5.4,3.53,9.37,8.63,9.37a7.85,7.85,0,0,0,7.57-5.25l9.15,2.85c-2.25,6.83-9,11.1-16.8,11.1-10.2,0-18.3-7.57-18.3-18.07s8.1-18.07,18.3-18.07c7.8,0,14.55,4.35,16.8,11.17l-9.15,2.78a8,8,0,0,0-7.57-5.25C787.55,1523.69,784,1527.66,784,1533.06Z"/><path d="M824.82,1527.81h2.33l9.45-11.92h11.77l-13.27,15.75,13.65,18.59h-11.7l-9.9-14.17h-2.33v14.17h-9.67v-52.49h9.67Z"/><path d="M885.12,1535.91H859.55a8.15,8.15,0,0,0,14.77,3.37l10.12,1c-3.07,7.35-9.52,10.8-17.17,10.8-10.27,0-18-7.57-18-18.07s7.58-18.07,17.85-18.07c9.45,0,18,6.15,18,20.54Zm-25.8-6.52h15.37a7.44,7.44,0,0,0-7.57-6.3A7.66,7.66,0,0,0,859.32,1529.39Z"/><path d="M912,1525.49h-4.13c-5,0-7.2,2.32-7.2,8.32v16.42H890.9v-34.34h9.44v5.47a9.05,9.05,0,0,1,8.93-5.92,10.8,10.8,0,0,1,2.7.3Z"/><path d="M1779.17,1497.74h11.55l11.92,38.92h.08l12.52-38.92h10.88l-17.78,52.49H1797Z"/><path d="M1841.87,1550.23h-9.75v-26.09h-4.8v-8.25h14.55Zm-5.32-52.49a6.28,6.28,0,0,1,6.29,6.3,6.26,6.26,0,0,1-12.52,0A6.28,6.28,0,0,1,1836.55,1497.74Z"/><path d="M1857.84,1533.06c0,5.4,3.53,9.37,8.63,9.37a7.85,7.85,0,0,0,7.57-5.25l9.15,2.85c-2.25,6.83-9,11.1-16.8,11.1-10.2,0-18.29-7.57-18.29-18.07s8.09-18.07,18.29-18.07c7.8,0,14.55,4.35,16.8,11.17l-9.15,2.78a8,8,0,0,0-7.57-5.25C1861.37,1523.69,1857.84,1527.66,1857.84,1533.06Z"/><path d="M1901.27,1502.84v13.05h7.42v8.25h-7.42v15.52c0,2.17,1.72,2.48,3.22,2.48a44.41,44.41,0,0,0,4.5-.23v8.32s-4.72.45-7.57.45c-4.88,0-9.9-.82-9.9-7.72v-18.82h-5.4v-8.25h5.4v-13.05Z"/><path d="M1927.22,1550.23h-9.75v-26.09h-4.8v-8.25h14.55Zm-5.33-52.49a6.29,6.29,0,0,1,6.3,6.3,6.26,6.26,0,0,1-12.52,0A6.27,6.27,0,0,1,1921.89,1497.74Z"/><path d="M1980.77,1530.06c0-4.2-2.7-6-5.7-6-2.78,0-5.25,1.58-7.13,3.9v22.27h-9.75v-20.17c0-4.12-2.62-6-5.7-6a9.36,9.36,0,0,0-7.12,3.9v22.27h-9.75v-34.34h9.52v1.35c0,1.2-.15,2.7-.15,2.7a13.31,13.31,0,0,1,10.28-5c5.1,0,9.07,2.17,11,6.22a13.81,13.81,0,0,1,11.55-6.22c7.43,0,12.68,4.72,12.68,12.75v22.49h-9.75Z"/><path d="M2762.1,1497.74l10.05,37.57h.08l8.4-37.57h10.65l-12.83,52.49h-12.07l-9.9-37.72-9.68,37.72h-12.07l-13-52.49H2733l8.1,37.57h.08l10.05-37.57Z"/><path d="M2827.5,1535.91h-25.57a8.16,8.16,0,0,0,14.77,3.38l10.13,1c-3.08,7.34-9.53,10.79-17.18,10.79-10.27,0-18-7.57-18-18.07s7.58-18.07,17.85-18.07c9.45,0,18,6.15,18,20.55Zm-25.8-6.52h15.38a7.46,7.46,0,0,0-7.58-6.3A7.66,7.66,0,0,0,2801.7,1529.39Z"/><path d="M2843,1550.23h-9.75v-52.49H2843v17c0,2.25-.15,4.65-.15,5.62,1.65-2.92,5.7-5.32,10.87-5.32,9.45,0,16.65,7.57,16.65,18.07s-7.27,18.07-16.72,18.07c-4.88,0-8.93-2.32-10.65-5.24Zm-.23-17.17c0,5.25,3.6,9.45,8.78,9.45s8.77-4.2,8.77-9.45-3.6-9.37-8.77-9.37S2842.8,1527.74,2842.8,1533.06Z"/><path d="M2920,1511.69c-3.23-3.15-7.43-5.4-11.1-5.4-3.45,0-6.6,1.8-6.6,5,0,2.4,1.5,4.27,5.7,6.22l4.35,2c8.32,3.9,13.35,8.25,13.35,16.12s-6.68,15.52-18.23,15.52c-7.95,0-13.87-3.07-18.82-7.87l5.77-7.8c3.9,4,8.85,6.22,12.83,6.22,4.5,0,7.27-2.47,7.27-5.69,0-3.6-3.22-5.63-8.25-8l-3.67-1.73c-7-3.3-11.48-8.1-11.48-14.7,0-9.22,8.25-14.77,17.55-14.77,6.08,0,12.3,3,17.33,7.35Z"/><path d="M2965.73,1535.91h-25.58a8.16,8.16,0,0,0,14.78,3.38l10.12,1c-3.07,7.34-9.52,10.79-17.17,10.79-10.28,0-18-7.57-18-18.07s7.57-18.07,17.85-18.07c9.45,0,18,6.15,18,20.55Zm-25.8-6.52h15.37a7.45,7.45,0,0,0-7.57-6.3A7.65,7.65,0,0,0,2939.93,1529.39Z"/><path d="M2992.57,1525.49h-4.12c-4.95,0-7.2,2.32-7.2,8.32v16.42h-9.75v-34.34H2981v5.47a9,9,0,0,1,8.92-5.92,10.8,10.8,0,0,1,2.7.3Z"/><path d="M3012.67,1539.74l7.8-23.85h10.28l-12.23,34.34h-12.07l-11.7-34.34h10.57Z"/><path d="M3068.17,1535.91H3042.6a8.16,8.16,0,0,0,14.77,3.38l10.13,1c-3.08,7.34-9.53,10.79-17.18,10.79-10.27,0-18-7.57-18-18.07s7.58-18.07,17.85-18.07c9.45,0,18,6.15,18,20.55Zm-25.8-6.52h15.38a7.46,7.46,0,0,0-7.58-6.3A7.66,7.66,0,0,0,3042.37,1529.39Z"/><path d="M3095,1525.49h-4.12c-5,0-7.2,2.32-7.2,8.32v16.42H3074v-34.34h9.45v5.47a9,9,0,0,1,8.92-5.92,10.8,10.8,0,0,1,2.7.3Z"/><line class="cls-1" x1="3723.92" y1="1678.56" x2="26.81" y2="1678.56"/><polyline class="cls-1" points="1414.48 1007.51 1452.03 1044.96 1414.57 1082.51"/><line class="cls-1" x1="1450.5" y1="1044.97" x2="1185.53" y2="1045.24"/><polyline class="cls-1" points="2545.29 1007.51 2582.84 1044.96 2545.38 1082.51"/><polyline class="cls-1" points="2342.78 1082.51 2305.23 1045.05 2342.69 1007.51"/><line class="cls-1" x1="2581.31" y1="1044.97" x2="2316.34" y2="1045.24"/><rect class="cls-2" x="463.86" y="752.88" width="630" height="442"/><polygon class="cls-2" points="1167.86 1313.7 379.86 1313.7 463.86 1194.88 1093.86 1194.88 1167.86 1313.7"/><rect class="cls-3" x="496.86" y="783.05" width="565" height="381.66"/><rect class="cls-2" x="379.86" y="1313.7" width="788" height="34.18"/><polygon class="cls-4" points="1080.86 1274.88 475.86 1274.88 513.86 1209.88 1044.86 1209.88 1080.86 1274.88"/><line class="cls-5" x1="777.86" y1="1209.88" x2="777.86" y2="1274.88"/><line class="cls-5" x1="945.86" y1="1209.88" x2="960.86" y2="1274.88"/><line class="cls-5" x1="896.86" y1="1209.88" x2="904.86" y2="1274.88"/><line class="cls-5" x1="837.86" y1="1209.88" x2="841.86" y2="1274.88"/><line class="cls-5" x1="994.86" y1="1209.88" x2="1019.86" y2="1274.88"/><line class="cls-5" x1="611.86" y1="1209.88" x2="596.86" y2="1274.88"/><line class="cls-5" x1="660.86" y1="1209.88" x2="652.86" y2="1274.88"/><line class="cls-5" x1="719.86" y1="1209.88" x2="715.86" y2="1274.88"/><line class="cls-5" x1="562.86" y1="1209.88" x2="537.86" y2="1274.88"/><line class="cls-5" x1="508.86" y1="1221.88" x2="1048.86" y2="1221.88"/><line class="cls-5" x1="498.86" y1="1236.88" x2="1058.86" y2="1236.88"/><line class="cls-5" x1="488.86" y1="1253.88" x2="1067.86" y2="1253.88"/><polygon class="cls-5" points="968.86 1303.94 589.86 1303.94 594.86 1283.83 963.79 1283.83 968.86 1303.94"/><path class="cls-5" d="M686.84,1057.07a134.09,134.09,0,0,0,189.74,0"/><circle class="cls-6" cx="698.4" cy="930.87" r="17.32"/><circle class="cls-6" cx="864.19" cy="930.87" r="17.32"/><line class="cls-5" x1="862.71" y1="847.43" x2="798.58" y2="911.56"/><line class="cls-5" x1="707.1" y1="847.43" x2="771.23" y2="911.56"/><rect class="cls-2" x="1572.38" y="752.53" width="630" height="442"/><polygon class="cls-2" points="2276.38 1313.35 1488.38 1313.35 1572.38 1194.53 2202.38 1194.53 2276.38 1313.35"/><rect class="cls-7" x="1605.38" y="782.7" width="565" height="381.66"/><rect class="cls-2" x="1488.38" y="1313.35" width="788" height="34.18"/><polygon class="cls-4" points="2189.38 1274.53 1584.38 1274.53 1622.38 1209.53 2153.38 1209.53 2189.38 1274.53"/><line class="cls-5" x1="1886.38" y1="1209.53" x2="1886.38" y2="1274.53"/><line class="cls-5" x1="2054.38" y1="1209.53" x2="2069.38" y2="1274.53"/><line class="cls-5" x1="2005.38" y1="1209.53" x2="2013.38" y2="1274.53"/><line class="cls-5" x1="1946.38" y1="1209.53" x2="1950.38" y2="1274.53"/><line class="cls-5" x1="2103.38" y1="1209.53" x2="2128.38" y2="1274.53"/><line class="cls-5" x1="1720.38" y1="1209.53" x2="1705.38" y2="1274.53"/><line class="cls-5" x1="1769.38" y1="1209.53" x2="1761.38" y2="1274.53"/><line class="cls-5" x1="1828.38" y1="1209.53" x2="1824.38" y2="1274.53"/><line class="cls-5" x1="1671.38" y1="1209.53" x2="1646.38" y2="1274.53"/><line class="cls-5" x1="1617.38" y1="1221.53" x2="2157.38" y2="1221.53"/><line class="cls-5" x1="1607.38" y1="1236.53" x2="2167.38" y2="1236.53"/><line class="cls-5" x1="1597.38" y1="1253.53" x2="2176.38" y2="1253.53"/><polygon class="cls-5" points="2077.38 1303.58 1698.38 1303.58 1703.38 1283.47 2072.31 1283.47 2077.38 1303.58"/><path class="cls-5" d="M1792,1036a142.13,142.13,0,0,0,201.1,0"/><circle class="cls-6" cx="1804.24" cy="902.2" r="18.36"/><circle class="cls-6" cx="1979.94" cy="902.2" r="18.36"/><rect class="cls-2" x="2681.93" y="828.61" width="410.71" height="173.24"/><rect class="cls-2" x="2681.93" y="1001.85" width="410.71" height="173.24"/><rect class="cls-2" x="2681.93" y="1175.09" width="410.71" height="173.24"/><circle class="cls-8" cx="2739.81" cy="917.42" r="18.01"/><circle class="cls-8" cx="2794.11" cy="917.42" r="18.01"/><circle class="cls-8" cx="2846.86" cy="917.42" r="18.01"/><line class="cls-5" x1="2886.77" y1="918.56" x2="3067.79" y2="918.56"/><circle class="cls-8" cx="2739.81" cy="1092.61" r="18.01"/><circle class="cls-8" cx="2794.11" cy="1092.61" r="18.01"/><circle class="cls-8" cx="2846.86" cy="1092.61" r="18.01"/><line class="cls-5" x1="2886.77" y1="1093.74" x2="3067.79" y2="1093.74"/><circle class="cls-8" cx="2739.81" cy="1262.93" r="18.01"/><circle class="cls-8" cx="2794.11" cy="1262.93" r="18.01"/><circle class="cls-8" cx="2846.86" cy="1262.93" r="18.01"/><line class="cls-5" x1="2886.77" y1="1264.06" x2="3067.79" y2="1264.06"/><polygon class="cls-9" points="3092.64 828.61 2681.93 828.61 2729.16 748.49 3035.74 748.49 3092.64 828.61"/><path class="cls-1" d="M2882.19,691.14c-233.38-177.9-794-175.22-1003-15"/><polyline class="cls-1" points="1941.37 687.06 1875.45 680.72 1881.79 614.79"/><rect class="cls-10" x="2304.77" y="445.45" width="265.67" height="232.77"/><rect class="cls-11" x="2304.7" y="444" width="265.73" height="31.14"/><ellipse class="cls-12" cx="2343.55" cy="459.02" rx="6.87" ry="7.02"/><ellipse class="cls-7" cx="2364.23" cy="459.02" rx="6.87" ry="7.02"/><ellipse class="cls-13" cx="2322.51" cy="459.02" rx="6.87" ry="7.02"/><path class="cls-14" d="M2487.25,536.81h19.54a2.95,2.95,0,1,0,0-5.89h-21"/><path class="cls-14" d="M2490.4,529.76V510.22a2.95,2.95,0,1,0-5.89,0v21"/><ellipse class="cls-14" cx="2478.75" cy="537.08" rx="17.3" ry="17.71" transform="translate(346.24 1910.05) rotate(-45)"/><path class="cls-14" d="M2473.65,583.4a3.81,3.81,0,0,1,3.29-1.06l28,4.48,17.8-17.79a3.79,3.79,0,0,1,5.36,5.36L2509,593.56a3.81,3.81,0,0,1-3.29,1.06l-29.94-4.79a3.8,3.8,0,0,1-3.15-4.35A3.85,3.85,0,0,1,2473.65,583.4Z"/><path class="cls-14" d="M2459.58,593.28l0,0a3.8,3.8,0,0,1,5.37.07l21.26,21.86a3.8,3.8,0,0,1,0,5.33l-34.14,34.13a3.79,3.79,0,0,1-5.36-5.36l31.49-31.49-18.65-19.18A3.8,3.8,0,0,1,2459.58,593.28Z"/><path class="cls-14" d="M2397.3,649a3.79,3.79,0,0,1,3.79-1c7.74,2.36,16.26,2.08,25.32-.84a57,57,0,0,0,10.25-4.47l4.5-26.43a3.79,3.79,0,0,1,7.48,1.27l-4.79,28.15a3.82,3.82,0,0,1-1.65,2.53,59.6,59.6,0,0,1-13.23,6.09c-10.49,3.43-20.9,3.76-30.09,1a3.79,3.79,0,0,1-1.58-6.31Z"/><path class="cls-14" d="M2431.41,541.16a3.8,3.8,0,0,0,1.06-3.29l-4.48-28,17.79-17.79a3.79,3.79,0,1,0-5.36-5.37l-19.17,19.17a3.8,3.8,0,0,0-1.06,3.28l4.79,29.94a3.8,3.8,0,0,0,6.43,2.09Z"/><path class="cls-14" d="M2421.53,555.23l0,0a3.79,3.79,0,0,0-.08-5.36l-21.86-21.26a3.8,3.8,0,0,0-5.33,0l-34.13,34.14a3.79,3.79,0,0,0,5.36,5.36L2397,536.61l19.18,18.66A3.81,3.81,0,0,0,2421.53,555.23Z"/><path class="cls-14" d="M2365.83,617.52a3.8,3.8,0,0,0,1-3.79c-2.36-7.75-2.07-16.27.84-25.33a57.64,57.64,0,0,1,4.47-10.25l26.43-4.5a3.79,3.79,0,0,0-1.27-7.48L2369.1,571a3.85,3.85,0,0,0-2.53,1.65,59.88,59.88,0,0,0-6.09,13.23c-3.43,10.49-3.76,20.9-1,30.09a3.79,3.79,0,0,0,4.73,2.53A3.88,3.88,0,0,0,2365.83,617.52Z"/><path class="cls-14" d="M2387.57,573.44a38.94,38.94,0,0,0,55.07,55.07L2482.13,589c15.21-15.2,17.69-42.34,2.48-57.55s-42.34-12.72-57.55,2.48Z"/><line class="cls-14" x1="2484.72" y1="586.08" x2="2429.33" y2="530.69"/><line class="cls-14" x1="2388.3" y1="628.61" x2="2457.81" y2="559.1"/></svg>