<svg id="Layer_1" data-name="Layer 1" xmlns="http://www.w3.org/2000/svg" xmlns:xlink="http://www.w3.org/1999/xlink" viewBox="0 0 4752.07 2751"><defs><style>.cls-1,.cls-12,.cls-13,.cls-7,.cls-8{fill:none;}.cls-2,.cls-20{fill:#fff;}.cls-10,.cls-11,.cls-12,.cls-17,.cls-18,.cls-19,.cls-2,.cls-20,.cls-21,.cls-23,.cls-24,.cls-25,.cls-26,.cls-3,.cls-4,.cls-5,.cls-6,.cls-7,.cls-8,.cls-9{stroke:#000;}.cls-10,.cls-11,.cls-13,.cls-18,.cls-2,.cls-25,.cls-26,.cls-3,.cls-4,.cls-5,.cls-7,.cls-8,.cls-9{stroke-linecap:round;}.cls-10,.cls-11,.cls-13,.cls-18,.cls-2,.cls-23,.cls-25,.cls-26,.cls-3,.cls-4,.cls-5,.cls-7,.cls-8,.cls-9{stroke-linejoin:round;}.cls-10,.cls-11,.cls-12,.cls-13,.cls-17,.cls-18,.cls-19,.cls-2,.cls-20,.cls-21,.cls-3,.cls-4,.cls-5,.cls-6,.cls-8,.cls-9{stroke-width:6px;}.cls-3{fill:#c9c9c9;}.cls-4{fill:#ffd400;}.cls-17,.cls-5{fill:#00feb9;}.cls-10,.cls-6{fill:#ff0a28;}.cls-12,.cls-17,.cls-19,.cls-20,.cls-21,.cls-24,.cls-6{stroke-miterlimit:10;}.cls-7{stroke-width:7px;}.cls-9{fill:#b2b2b2;}.cls-11{fill:#666;}.cls-13{stroke:#005aff;}.cls-14{fill:#005aff;}.cls-15{clip-path:url(#clip-path);}.cls-16{fill:#141c3b;}.cls-18{fill:#7100ed;}.cls-19{fill:#ff7eee;}.cls-21{fill:#ff71f5;}.cls-22{clip-path:url(#clip-path-2);}.cls-23,.cls-24,.cls-25{stroke-width:4px;}.cls-26{stroke-width:3px;}.cls-27{clip-path:url(#clip-path-3);}</style><clipPath id="clip-path"><rect class="cls-1" x="3906.57" y="1374.11" width="600.23" height="126.23"/></clipPath><clipPath id="clip-path-2"><circle class="cls-1" cx="3355.1" cy="1317.05" r="72.27"/></clipPath><clipPath id="clip-path-3"><circle class="cls-1" cx="1473.81" cy="687.35" r="99.73"/></clipPath></defs><path d="M124.4,2313.7h15.15v48.37h10.27v4.13H124.48v-4.13h10.35v-44.24H124.4Z"/><path d="M163.85,2358a4.54,4.54,0,1,1-4.5,4.58A4.55,4.55,0,0,1,163.85,2358Z"/><path d="M1238.27,2362.22s6.9-7.12,15.9-17.32c6.83-7.73,9.15-12.67,9.15-17.92,0-6-4.12-10.2-10.57-10.2-5.55,0-10.2,3.3-10.2,9.15a13,13,0,0,0,1.57,6l-4.35,1.05a16.64,16.64,0,0,1-1.72-7.13c0-7.95,6.75-13,14.85-13,8.7,0,15,5.48,15,14.1,0,5.25-2,11.25-11.63,21.75l-12.3,13.42h25.2v4.13h-30.9Z"/><path d="M1281.1,2358a4.54,4.54,0,1,1-4.5,4.58A4.55,4.55,0,0,1,1281.1,2358Z"/><path d="M2996.41,2350.52c0-8.17-4.87-11.69-12-11.69a32.17,32.17,0,0,0-4,.22v-3.37l15.45-17.85h-22.5v-4.13h27.08v4.65l-14.55,16.73c8.7,0,15.3,5.92,15.3,15.44,0,11.4-7,16.58-15,16.58-7.65,0-14.4-4.88-14.4-14.1v-3.3h4.5l.07,2.85c.15,7.12,4.28,10.57,9.75,10.57C2992.29,2363.12,2996.41,2359.07,2996.41,2350.52Z"/><path d="M3014.19,2358a4.54,4.54,0,1,1-4.5,4.58A4.55,4.55,0,0,1,3014.19,2358Z"/><rect class="cls-2" x="1321.25" y="1233.25" width="729.62" height="595.71"/><rect class="cls-3" x="1321.07" y="1228.46" width="729.79" height="103"/><ellipse class="cls-4" cx="1446.95" cy="1278.16" rx="22.71" ry="23.23"/><ellipse class="cls-5" cx="1510.12" cy="1278.16" rx="22.71" ry="23.23"/><ellipse class="cls-6" cx="1379.96" cy="1278.16" rx="22.71" ry="23.23"/><path d="M192.84,2348.39l-6.15,18.53h-4.8l18.07-52.5h5.78l18.15,52.5h-5l-6.3-18.53Zm1.27-4h17.1l-8.4-25.34h-.22Z"/><path d="M236.64,2319.9v13.95h8.18v3.82h-8.18v22.42c0,3.08,2.18,3.23,4.73,3.23a22.68,22.68,0,0,0,3.45-.23v3.83a46.32,46.32,0,0,1-5.1.3c-3.45,0-7.65-.9-7.65-7v-22.5h-5.7v-3.82h5.7V2319.9Z"/><path d="M258.24,2319.9v13.95h8.17v3.82h-8.17v22.42c0,3.08,2.18,3.23,4.72,3.23a22.68,22.68,0,0,0,3.45-.23v3.83a46,46,0,0,1-5.09.3c-3.45,0-7.65-.9-7.65-7v-22.5H248v-3.82h5.7V2319.9Z"/><path d="M293,2344c0-5-3.9-7.05-8.32-7.05a18,18,0,0,0-10.2,3.6l-2.17-3.44a21.58,21.58,0,0,1,12.67-4.2c7.87,0,12.6,4.42,12.6,11.24v22.73H293v-4.13c-1.87,3.3-6.37,5-10.35,5-7.19,0-12-4.2-12-10.13S275,2348,281.79,2348h7.95c2.32,0,3.22-1.2,3.22-3Zm0,11.1v-4.57c-.82,1-2.55,1.27-4.27,1.27h-6.15c-4.88,0-7.12,2.4-7.12,5.85,0,2.85,2.17,6.23,7.72,6.23C288.16,2363.92,293,2361.14,293,2355.14Z"/><path d="M322.51,2363.84a11.83,11.83,0,0,0,10.88-6.67l3.9,2.25a16.76,16.76,0,0,1-14.78,8.4c-9.52,0-17.09-7.28-17.09-17.4S313,2333,322.51,2333a16.75,16.75,0,0,1,14.78,8.39l-3.9,2.25a11.91,11.91,0,0,0-10.88-6.6c-7.35,0-12.45,5.85-12.45,13.43S315.16,2363.84,322.51,2363.84Z"/><path d="M349.74,2346.67H354l12.75-12.82h6.15l-15.22,14.77,16.05,18.3h-6.08l-13.87-16.28h-4.05v16.28h-4.58v-52.5h4.58Z"/><path d="M380.49,2351.77c.6,6.82,5.17,12,12.07,12a11.41,11.41,0,0,0,10.28-5.7h5.32a16.94,16.94,0,0,1-15.6,9.75c-9.52,0-16.8-7.28-16.8-17.4S383,2333,392.49,2333c8.62,0,16.65,6.07,16.65,18.67v.15Zm.15-3.75H404c-.53-6-5-11-11.55-11S381.46,2341.72,380.64,2348Z"/><path d="M433.74,2337.89h-2.25c-5.85,0-10.05,2.7-10.05,10.5v18.53h-4.5v-33.07h4.35v5.62c1.87-4.42,6-6.22,10-6.22.75,0,1.58.07,2.48.15Z"/><path d="M470.19,2358.14c0-3.3-2.7-4.72-7.43-6.45l-1.87-.67c-5-1.8-8.4-4.35-8.4-9.15,0-5.47,4.87-8.92,11.32-8.92a16.89,16.89,0,0,1,10.73,3.82l-2.48,3.45a15,15,0,0,0-8.4-3.3c-3.67,0-6.45,1.88-6.45,4.72,0,2.1,1.5,3.75,4.88,5l3.82,1.42c6.38,2.48,9,5.25,9,10.13,0,4.27-3.67,9.6-12.15,9.6a19.71,19.71,0,0,1-11.62-4.13l2.4-3.45a15.79,15.79,0,0,0,9.37,3.53C467.41,2363.77,470.19,2361.22,470.19,2358.14Z"/><path d="M485.49,2351.77c.6,6.82,5.17,12,12.07,12a11.41,11.41,0,0,0,10.28-5.7h5.32a16.94,16.94,0,0,1-15.6,9.75c-9.52,0-16.8-7.28-16.8-17.4S488,2333,497.49,2333c8.62,0,16.65,6.07,16.65,18.67v.15Zm.15-3.75H509c-.53-6-5-11-11.55-11S486.46,2341.72,485.64,2348Z"/><path d="M545.71,2345.17c0-5.33-3.45-8.18-8.17-8.18-4,0-7.88,2.18-11,5.85v24.08h-4.57v-33.07h4.5v4.72a15,15,0,0,1,11.85-5.62c7.72,0,12,4.72,12,12v22h-4.58Z"/><path d="M587.64,2340.29v-25.87h4.57v52.5h-4.57v-6.3c-2,4.12-7,7.2-12.6,7.2-9.53,0-16.8-7.28-16.8-17.4s7.2-17.47,16.65-17.47C580.59,2333,585.69,2336.17,587.64,2340.29Zm-12.3,23.55c7.35,0,12.52-5.85,12.52-13.42S582.69,2337,575.34,2337s-12.45,5.85-12.45,13.43S568,2363.84,575.34,2363.84Z"/><path d="M618.91,2358.14c0-3.3-2.7-4.72-7.42-6.45l-1.88-.67c-5-1.8-8.4-4.35-8.4-9.15,0-5.47,4.88-8.92,11.33-8.92a16.84,16.84,0,0,1,10.72,3.82l-2.47,3.45a15,15,0,0,0-8.4-3.3c-3.68,0-6.45,1.88-6.45,4.72,0,2.1,1.5,3.75,4.87,5l3.83,1.42c6.37,2.48,9,5.25,9,10.13,0,4.27-3.68,9.6-12.15,9.6a19.74,19.74,0,0,1-11.63-4.13l2.4-3.45a15.79,15.79,0,0,0,9.38,3.53C616.14,2363.77,618.91,2361.22,618.91,2358.14Z"/><path d="M662.86,2358.14c0-3.3-2.7-4.72-7.43-6.45l-1.87-.67c-5-1.8-8.4-4.35-8.4-9.15,0-5.47,4.87-8.92,11.32-8.92a16.89,16.89,0,0,1,10.73,3.82l-2.48,3.45a15,15,0,0,0-8.4-3.3c-3.67,0-6.45,1.88-6.45,4.72,0,2.1,1.5,3.75,4.88,5l3.82,1.42c6.38,2.48,9,5.25,9,10.13,0,4.27-3.67,9.6-12.15,9.6a19.71,19.71,0,0,1-11.62-4.13l2.4-3.45a15.79,15.79,0,0,0,9.37,3.53C660.08,2363.77,662.86,2361.22,662.86,2358.14Z"/><path d="M690.46,2363.84a11.81,11.81,0,0,0,10.87-6.67l3.9,2.25a16.73,16.73,0,0,1-14.77,8.4c-9.53,0-17.1-7.28-17.1-17.4s7.57-17.47,17.1-17.47a16.72,16.72,0,0,1,14.77,8.39l-3.9,2.25a11.88,11.88,0,0,0-10.87-6.6c-7.35,0-12.45,5.85-12.45,13.43S683.11,2363.84,690.46,2363.84Z"/><path d="M729.91,2337.89h-2.25c-5.85,0-10,2.7-10,10.5v18.53h-4.5v-33.07h4.35v5.62c1.87-4.42,6-6.22,10-6.22.75,0,1.58.07,2.48.15Z"/><path d="M742.58,2366.92H738v-29.25h-5.25v-3.82h9.82ZM740,2317.87a4,4,0,1,1-4,4A4,4,0,0,1,740,2317.87Z"/><path d="M757.81,2360.69V2380h-4.58v-46.19h4.58v6.44c2-4.12,7.05-7.34,12.75-7.34,9.45,0,16.65,7.34,16.65,17.47s-7.28,17.4-16.8,17.4C764.78,2367.82,759.83,2364.74,757.81,2360.69Zm12.3-23.7c-7.35,0-12.53,5.85-12.53,13.43s5.18,13.42,12.53,13.42,12.45-5.85,12.45-13.42S777.46,2337,770.11,2337Z"/><path d="M802,2319.9v13.95h8.18v3.82H802v22.42c0,3.08,2.18,3.23,4.73,3.23a22.68,22.68,0,0,0,3.45-.23v3.83a46.32,46.32,0,0,1-5.1.3c-3.45,0-7.65-.9-7.65-7v-22.5h-5.7v-3.82h5.7V2319.9Z"/><path d="M813.31,2344.19H829V2348H813.31Z"/><path d="M841.66,2366.92h-4.58v-29.25h-5.25v-3.82h9.83ZM839,2317.87a4,4,0,1,1-4,4A4,4,0,0,1,839,2317.87Z"/><path d="M876.08,2345.17c0-5.33-3.45-8.18-8.18-8.18-4,0-7.87,2.18-11,5.85v24.08h-4.57v-33.07h4.5v4.72a15,15,0,0,1,11.84-5.62c7.73,0,12,4.72,12,12v22h-4.57Z"/><path d="M892.13,2337.67h-5.25v-3.82h9.83v39.59c0,5.4-3.68,6.6-7.5,6.6h-3.83v-3.82h3c2.25,0,3.75-.6,3.75-3.15Zm2-19.8a4,4,0,1,1-4,4A4,4,0,0,1,894.08,2317.87Z"/><path d="M909.76,2351.77c.6,6.82,5.17,12,12.07,12a11.38,11.38,0,0,0,10.27-5.7h5.33a17,17,0,0,1-15.6,9.75c-9.52,0-16.8-7.28-16.8-17.4s7.28-17.47,16.72-17.47c8.63,0,16.65,6.07,16.65,18.67v.15Zm.15-3.75H933.3c-.52-6-5-11-11.55-11S910.73,2341.72,909.91,2348Z"/><path d="M960.9,2363.84a11.83,11.83,0,0,0,10.88-6.67l3.9,2.25a16.76,16.76,0,0,1-14.78,8.4c-9.52,0-17.1-7.28-17.1-17.4s7.58-17.47,17.1-17.47a16.75,16.75,0,0,1,14.78,8.39l-3.9,2.25a11.91,11.91,0,0,0-10.88-6.6c-7.35,0-12.45,5.85-12.45,13.43S953.55,2363.84,960.9,2363.84Z"/><path d="M990,2319.9v13.95h8.18v3.82H990v22.42c0,3.08,2.18,3.23,4.73,3.23a22.68,22.68,0,0,0,3.45-.23v3.83a46.32,46.32,0,0,1-5.1.3c-3.45,0-7.65-.9-7.65-7v-22.5h-5.7v-3.82h5.7V2319.9Z"/><path d="M1007.25,2351.77c.6,6.82,5.18,12,12.08,12a11.38,11.38,0,0,0,10.27-5.7h5.33a17,17,0,0,1-15.6,9.75c-9.53,0-16.8-7.28-16.8-17.4s7.27-17.47,16.72-17.47c8.63,0,16.65,6.07,16.65,18.67v.15Zm.15-3.75h23.4c-.52-6-5-11-11.55-11S1008.23,2341.72,1007.4,2348Z"/><path d="M1070.78,2340.29v-25.87h4.57v52.5h-4.57v-6.3c-2,4.12-7,7.2-12.6,7.2-9.53,0-16.8-7.28-16.8-17.4s7.2-17.47,16.65-17.47C1063.73,2333,1068.83,2336.17,1070.78,2340.29Zm-12.3,23.55c7.35,0,12.52-5.85,12.52-13.42s-5.17-13.43-12.52-13.43-12.45,5.85-12.45,13.43S1051.13,2363.84,1058.48,2363.84Z"/><path d="M186.44,2457.09h-4.58v-52.5h4.58Z"/><path d="M202.86,2457.09h-4.57v-29.25H193V2424h9.82ZM200.24,2408a4,4,0,1,1-4,4A4,4,0,0,1,200.24,2408Z"/><path d="M237.28,2435.34c0-5.33-3.45-8.18-8.17-8.18-4,0-7.87,2.18-11,5.85v24.08h-4.58V2424H218v4.73a15,15,0,0,1,11.85-5.63c7.72,0,12,4.73,12,12v22h-4.58Z"/><path d="M256.71,2436.84H261L273.73,2424h6.15l-15.22,14.78,16,18.3h-6.08l-13.87-16.28h-4.05v16.28h-4.57v-52.5h4.57Z"/><path d="M315.42,2409.9v13.95h8.17v3.82h-8.17v22.42c0,3.08,2.17,3.23,4.72,3.23a22.68,22.68,0,0,0,3.45-.23v3.83a46.32,46.32,0,0,1-5.1.3c-3.45,0-7.65-.9-7.65-7v-22.5h-5.7v-3.82h5.7V2409.9Z"/><path d="M345,2423a17.44,17.44,0,1,1-17.1,17.47C327.87,2430.29,335.52,2423,345,2423Zm0,4c-7.35,0-12.45,5.85-12.45,13.43s5.1,13.42,12.45,13.42,12.52-5.85,12.52-13.42S352.39,2427,345,2427Z"/><path d="M406.47,2423.85h4.94l-12.52,33.07h-6.15l-12.3-33.07h5.18l10.27,29.32Z"/><path d="M424.54,2456.92H420v-29.25h-5.25v-3.82h9.82Zm-2.62-49.05a4,4,0,1,1-4,4A4,4,0,0,1,421.92,2407.87Z"/><path d="M449.89,2453.84a11.81,11.81,0,0,0,10.87-6.67l3.9,2.25a16.73,16.73,0,0,1-14.77,8.4c-9.53,0-17.1-7.28-17.1-17.4s7.57-17.47,17.1-17.47a16.72,16.72,0,0,1,14.77,8.39l-3.9,2.25a11.88,11.88,0,0,0-10.87-6.6c-7.35,0-12.45,5.85-12.45,13.43S442.54,2453.84,449.89,2453.84Z"/><path d="M479,2409.9v13.95h8.17v3.82H479v22.42c0,3.08,2.17,3.23,4.72,3.23a22.68,22.68,0,0,0,3.45-.23v3.83a46.32,46.32,0,0,1-5.1.3c-3.45,0-7.65-.9-7.65-7v-22.5h-5.7v-3.82h5.7V2409.9Z"/><path d="M499.91,2456.92h-4.57v-29.25h-5.25v-3.82h9.82Zm-2.62-49.05a4,4,0,1,1-4,4A4,4,0,0,1,497.29,2407.87Z"/><path d="M538.16,2436.22v20.7h-4.57v-22c0-5.1-3.15-8-7.88-8-3.9,0-7.42,2.18-10.57,5.85v24.08h-4.58v-33.07h4.5v4.72c2.85-3.45,6.45-5.62,11.25-5.62,5.55,0,9.23,2.47,10.8,6.37,3.6-4.35,7.5-6.37,12.3-6.37,7.8,0,11.78,4.72,11.78,12v22h-4.58v-22c0-5.1-3.15-8-7.8-8-4,0-7.57,2.25-10.8,6C538.09,2434,538.16,2435.17,538.16,2436.22Z"/><path d="M597.41,2404.42H602v1.13c-7.65,8.4-12.83,18.75-12.83,30.37s5.18,23,12.83,31.35v1.12h-4.58c-7.72-9.45-13-19.95-13-32.47S589.69,2414,597.41,2404.42Z"/><path d="M608.81,2441.77c.6,6.82,5.18,12,12.08,12a11.38,11.38,0,0,0,10.27-5.7h5.33a17,17,0,0,1-15.6,9.75c-9.53,0-16.8-7.28-16.8-17.4s7.27-17.47,16.72-17.47c8.63,0,16.65,6.07,16.65,18.67v.15ZM609,2438h23.4c-.52-6-5-11-11.55-11S609.79,2431.72,609,2438Z"/><path d="M649.09,2448.74a4.54,4.54,0,1,1-4.5,4.58A4.55,4.55,0,0,1,649.09,2448.74Z"/><path d="M695.29,2460.37c0,5.4-2.48,9.67-9.75,9.67H673v-3.82h12c3.15,0,5.7-1,5.7-4.8v-10.8c-2,4.12-7,7.2-12.6,7.2-9.52,0-16.8-7.28-16.8-17.4S668.51,2423,678,2423c5.7,0,10.8,3.22,12.75,7.34v-6.44h4.58Zm-4.43-19.95c0-7.58-5.1-13.43-12.45-13.43s-12.52,5.85-12.52,13.43,5.17,13.42,12.52,13.42S690.86,2448,690.86,2440.42Z"/><path d="M709.76,2448.74a4.54,4.54,0,1,1-4.5,4.58A4.55,4.55,0,0,1,709.76,2448.74Z"/><path d="M741.71,2441.77c.6,6.82,5.18,12,12.08,12a11.38,11.38,0,0,0,10.27-5.7h5.33a17,17,0,0,1-15.6,9.75c-9.53,0-16.8-7.28-16.8-17.4s7.27-17.47,16.72-17.47c8.63,0,16.65,6.07,16.65,18.67v.15Zm.15-3.75h23.4c-.52-6-5-11-11.55-11S742.69,2431.72,741.86,2438Z"/><path d="M805.76,2436.22v20.7h-4.58v-22c0-5.1-3.15-8-7.87-8-3.9,0-7.42,2.18-10.57,5.85v24.08h-4.58v-33.07h4.5v4.72c2.85-3.45,6.45-5.62,11.25-5.62,5.55,0,9.22,2.47,10.8,6.37,3.6-4.35,7.5-6.37,12.3-6.37,7.8,0,11.77,4.72,11.77,12v22h-4.57v-22c0-5.1-3.15-8-7.8-8-4,0-7.58,2.25-10.8,6C805.68,2434,805.76,2435.17,805.76,2436.22Z"/><path d="M858.63,2434c0-5-3.9-7.05-8.32-7.05-4.13,0-7.42,1.73-10.2,3.6l-2.17-3.44a21.58,21.58,0,0,1,12.67-4.2c7.87,0,12.6,4.42,12.6,11.24v22.73h-4.58v-4.13c-1.87,3.3-6.37,5-10.35,5-7.19,0-12-4.2-12-10.13s4.35-9.67,11.17-9.67h7.95c2.32,0,3.22-1.2,3.22-3Zm0,11.1v-4.57c-.82,1-2.55,1.27-4.27,1.27h-6.15c-4.87,0-7.12,2.4-7.12,5.85,0,2.85,2.17,6.23,7.72,6.23C853.83,2453.92,858.63,2451.14,858.63,2445.14Z"/><path d="M879.26,2456.92h-4.57v-29.25h-5.25v-3.82h9.82Zm-2.62-49.05a4,4,0,1,1-4,4A4,4,0,0,1,876.64,2407.87Z"/><path d="M894.48,2456.92h-4.57v-52.5h4.57Z"/><path d="M936.18,2448.14c0-3.3-2.7-4.72-7.42-6.45l-1.88-.67c-5-1.8-8.4-4.35-8.4-9.15,0-5.47,4.88-8.92,11.33-8.92a16.84,16.84,0,0,1,10.72,3.82l-2.47,3.45a15,15,0,0,0-8.4-3.3c-3.68,0-6.45,1.88-6.45,4.72,0,2.1,1.5,3.75,4.87,5l3.83,1.42c6.37,2.48,9,5.25,9,10.13,0,4.27-3.68,9.6-12.15,9.6a19.74,19.74,0,0,1-11.63-4.13l2.4-3.45a15.79,15.79,0,0,0,9.38,3.53C933.41,2453.77,936.18,2451.22,936.18,2448.14Z"/><path d="M963.78,2453.84a11.83,11.83,0,0,0,10.88-6.67l3.9,2.25a16.76,16.76,0,0,1-14.78,8.4c-9.52,0-17.1-7.28-17.1-17.4s7.58-17.47,17.1-17.47a16.75,16.75,0,0,1,14.78,8.39l-3.9,2.25a11.91,11.91,0,0,0-10.88-6.6c-7.35,0-12.45,5.85-12.45,13.43S956.43,2453.84,963.78,2453.84Z"/><path d="M1006,2434c0-5-3.9-7.05-8.33-7.05-4.12,0-7.42,1.73-10.2,3.6l-2.17-3.44A21.61,21.61,0,0,1,998,2423c7.88,0,12.6,4.42,12.6,11.24v22.73H1006v-4.13c-1.88,3.3-6.38,5-10.35,5-7.2,0-12-4.2-12-10.13S988,2438,994.83,2438h7.95c2.33,0,3.23-1.2,3.23-3Zm0,11.1v-4.57c-.83,1-2.55,1.27-4.28,1.27h-6.15c-4.87,0-7.12,2.4-7.12,5.85,0,2.85,2.17,6.23,7.72,6.23C1001.21,2453.92,1006,2451.14,1006,2445.14Z"/><path d="M1048.46,2436.22v20.7h-4.58v-22c0-5.1-3.15-8-7.87-8-3.9,0-7.43,2.18-10.58,5.85v24.08h-4.57v-33.07h4.5v4.72c2.85-3.45,6.45-5.62,11.25-5.62,5.55,0,9.22,2.47,10.8,6.37,3.6-4.35,7.5-6.37,12.29-6.37,7.8,0,11.78,4.72,11.78,12v22h-4.58v-22c0-5.1-3.15-8-7.8-8-4,0-7.57,2.25-10.79,6C1048.38,2434,1048.46,2435.17,1048.46,2436.22Z"/><path d="M1081.08,2468.39h-4.57v-1.12c7.65-8.33,12.9-19.73,12.9-31.35s-5.25-22-12.9-30.37v-1.13h4.57c7.73,9.53,13,18.9,13,31.5S1088.81,2458.94,1081.08,2468.39Z"/><path d="M1303.55,2314.42h5.18l15.9,47.77h.15l16-47.77h4.72l-18.07,52.5h-5.78Z"/><path d="M1358,2366.92h-4.57v-29.25h-5.25v-3.82H1358Zm-2.62-49.05a4,4,0,1,1-4,4A4,4,0,0,1,1355.38,2317.87Z"/><path d="M1383.35,2363.84a11.83,11.83,0,0,0,10.88-6.67l3.9,2.25a16.76,16.76,0,0,1-14.78,8.4c-9.52,0-17.1-7.28-17.1-17.4s7.58-17.47,17.1-17.47a16.75,16.75,0,0,1,14.78,8.39l-3.9,2.25a11.91,11.91,0,0,0-10.88-6.6c-7.35,0-12.45,5.85-12.45,13.43S1376,2363.84,1383.35,2363.84Z"/><path d="M1412.45,2319.9v13.95h8.18v3.82h-8.18v22.42c0,3.08,2.18,3.23,4.73,3.23a22.68,22.68,0,0,0,3.45-.23v3.83a46.32,46.32,0,0,1-5.1.3c-3.45,0-7.65-.9-7.65-7v-22.5h-5.7v-3.82h5.7V2319.9Z"/><path d="M1433.38,2366.92h-4.58v-29.25h-5.25v-3.82h9.83Zm-2.63-49.05a4,4,0,1,1-4,4A4,4,0,0,1,1430.75,2317.87Z"/><path d="M1471.62,2346.22v20.7h-4.57v-22c0-5.1-3.15-8-7.88-8-3.9,0-7.42,2.18-10.57,5.85v24.08H1444v-33.07h4.5v4.72c2.85-3.45,6.45-5.62,11.25-5.62,5.55,0,9.23,2.47,10.8,6.37,3.6-4.35,7.5-6.37,12.3-6.37,7.8,0,11.78,4.72,11.78,12v22h-4.58v-22c0-5.1-3.15-8-7.8-8-4,0-7.57,2.25-10.8,6C1471.55,2344,1471.62,2345.17,1471.62,2346.22Z"/><path d="M1534.62,2363.84a11.83,11.83,0,0,0,10.88-6.67l3.9,2.25a16.76,16.76,0,0,1-14.78,8.4c-9.52,0-17.1-7.28-17.1-17.4s7.58-17.47,17.1-17.47a16.75,16.75,0,0,1,14.78,8.39l-3.9,2.25a11.91,11.91,0,0,0-10.88-6.6c-7.35,0-12.45,5.85-12.45,13.43S1527.27,2363.84,1534.62,2363.84Z"/><path d="M1561.85,2366.92h-4.58v-52.5h4.58Z"/><path d="M1578.27,2366.92h-4.57v-29.25h-5.25v-3.82h9.82Zm-2.62-49.05a4,4,0,1,1-4,4A4,4,0,0,1,1575.65,2317.87Z"/><path d="M1603.62,2363.84a11.83,11.83,0,0,0,10.88-6.67l3.9,2.25a16.76,16.76,0,0,1-14.78,8.4c-9.52,0-17.1-7.28-17.1-17.4s7.58-17.47,17.1-17.47a16.75,16.75,0,0,1,14.78,8.39l-3.9,2.25a11.91,11.91,0,0,0-10.88-6.6c-7.35,0-12.45,5.85-12.45,13.43S1596.27,2363.84,1603.62,2363.84Z"/><path d="M1630.85,2346.67h4.27l12.75-12.82H1654l-15.22,14.77,16,18.3h-6.08l-13.87-16.28h-4.05v16.28h-4.58v-52.5h4.58Z"/><path d="M1677.12,2358.14c0-3.3-2.7-4.72-7.43-6.45l-1.87-.67c-5-1.8-8.4-4.35-8.4-9.15,0-5.47,4.88-8.92,11.32-8.92a16.89,16.89,0,0,1,10.73,3.82l-2.48,3.45a15,15,0,0,0-8.4-3.3c-3.67,0-6.44,1.88-6.44,4.72,0,2.1,1.5,3.75,4.87,5l3.82,1.42c6.38,2.48,9,5.25,9,10.13,0,4.27-3.67,9.6-12.15,9.6a19.71,19.71,0,0,1-11.62-4.13l2.4-3.45a15.79,15.79,0,0,0,9.38,3.53C1674.34,2363.77,1677.12,2361.22,1677.12,2358.14Z"/><path d="M1719.72,2333a17.44,17.44,0,1,1-17.1,17.47C1702.62,2340.29,1710.27,2333,1719.72,2333Zm0,4c-7.35,0-12.45,5.85-12.45,13.43s5.1,13.42,12.45,13.42,12.52-5.85,12.52-13.42S1727.14,2337,1719.72,2337Z"/><path d="M1768.92,2345.17c0-5.33-3.45-8.18-8.18-8.18-4,0-7.87,2.18-11,5.85v24.08h-4.58v-33.07h4.5v4.72a15,15,0,0,1,11.85-5.62c7.73,0,12,4.72,12,12v22h-4.57Z"/><path d="M1803.34,2366.92h-4.57v-52.5h4.57Z"/><path d="M1819.77,2366.92h-4.58v-29.25h-5.25v-3.82h9.83Zm-2.63-49.05a4,4,0,1,1-4,4A4,4,0,0,1,1817.14,2317.87Z"/><path d="M1854.19,2345.17c0-5.33-3.45-8.18-8.17-8.18-4,0-7.88,2.18-11,5.85v24.08h-4.57v-33.07h4.5v4.72a15,15,0,0,1,11.85-5.62c7.72,0,12,4.72,12,12v22h-4.58Z"/><path d="M1873.62,2346.67h4.27l12.75-12.82h6.15l-15.22,14.77,16,18.3h-6.08l-13.87-16.28h-4.05v16.28H1869v-52.5h4.58Z"/><path d="M1938.41,2344c0-5-3.9-7.05-8.32-7.05-4.12,0-7.42,1.73-10.2,3.6l-2.17-3.44a21.61,21.61,0,0,1,12.67-4.2c7.87,0,12.6,4.42,12.6,11.24v22.73h-4.58v-4.13c-1.87,3.3-6.37,5-10.34,5-7.2,0-12-4.2-12-10.13s4.35-9.67,11.17-9.67h8c2.32,0,3.22-1.2,3.22-3Zm0,11.1v-4.57c-.82,1-2.55,1.27-4.27,1.27H1928c-4.87,0-7.12,2.4-7.12,5.85,0,2.85,2.17,6.23,7.72,6.23C1933.62,2363.92,1938.41,2361.14,1938.41,2355.14Z"/><path d="M1977,2345.17c0-5.33-3.45-8.18-8.18-8.18-4,0-7.87,2.18-11,5.85v24.08h-4.57v-33.07h4.5v4.72a15,15,0,0,1,11.84-5.62c7.73,0,12,4.72,12,12v22H1977Z"/><path d="M2019,2340.29v-25.87h4.58v52.5H2019v-6.3c-2,4.12-7,7.2-12.6,7.2-9.52,0-16.79-7.28-16.79-17.4s7.2-17.47,16.64-17.47C2011.91,2333,2017,2336.17,2019,2340.29Zm-12.3,23.55c7.35,0,12.53-5.85,12.53-13.42S2014,2337,2006.66,2337s-12.44,5.85-12.44,13.43S1999.32,2363.84,2006.66,2363.84Z"/><path d="M2066,2337.89h-2.25c-5.85,0-10,2.7-10,10.5v18.53h-4.5v-33.07h4.35v5.62c1.87-4.42,6-6.22,10-6.22.75,0,1.58.07,2.48.15Z"/><path d="M2074.39,2351.77c.6,6.82,5.17,12,12.07,12a11.41,11.41,0,0,0,10.28-5.7h5.32a16.94,16.94,0,0,1-15.6,9.75c-9.52,0-16.79-7.28-16.79-17.4s7.27-17.47,16.72-17.47c8.62,0,16.65,6.07,16.65,18.67v.15Zm.15-3.75h23.4c-.53-6-5-11-11.55-11S2075.36,2341.72,2074.54,2348Z"/><path d="M2108.51,2350.42c0-10.13,7.2-17.47,16.65-17.47,5.7,0,10.8,3.22,12.75,7.34v-6.44h4.58V2380h-4.58v-19.35c-2,4-7,7.13-12.6,7.13C2115.79,2367.82,2108.51,2360.54,2108.51,2350.42Zm17.1,13.42c7.35,0,12.53-5.85,12.53-13.42S2133,2337,2125.61,2337s-12.45,5.85-12.45,13.43S2118.26,2363.84,2125.61,2363.84Z"/><path d="M2152.69,2355.14v-21.29h4.57v20.84c0,6,4.13,9.08,9.6,9.08s9.6-3.08,9.6-9.08v-20.84H2181v21.29c0,7-4.95,12.68-14.18,12.68S2152.69,2362.12,2152.69,2355.14Z"/><path d="M2193.64,2351.77c.6,6.82,5.17,12,12.07,12a11.41,11.41,0,0,0,10.28-5.7h5.32a16.94,16.94,0,0,1-15.6,9.75c-9.52,0-16.8-7.28-16.8-17.4s7.28-17.47,16.73-17.47c8.62,0,16.65,6.07,16.65,18.67v.15Zm.15-3.75h23.4c-.53-6-5-11-11.55-11S2194.61,2341.72,2193.79,2348Z"/><path d="M2246.14,2358.14c0-3.3-2.7-4.72-7.43-6.45l-1.87-.67c-5-1.8-8.4-4.35-8.4-9.15,0-5.47,4.87-8.92,11.32-8.92a16.89,16.89,0,0,1,10.73,3.82l-2.48,3.45a15,15,0,0,0-8.4-3.3c-3.67,0-6.45,1.88-6.45,4.72,0,2.1,1.5,3.75,4.88,5l3.82,1.42c6.38,2.48,9,5.25,9,10.13,0,4.27-3.67,9.6-12.15,9.6a19.71,19.71,0,0,1-11.62-4.13l2.4-3.45a15.79,15.79,0,0,0,9.37,3.53C2243.36,2363.77,2246.14,2361.22,2246.14,2358.14Z"/><path d="M2265.49,2319.9v13.95h8.17v3.82h-8.17v22.42c0,3.08,2.17,3.23,4.72,3.23a22.68,22.68,0,0,0,3.45-.23v3.83a46.32,46.32,0,0,1-5.1.3c-3.45,0-7.65-.9-7.65-7v-22.5h-5.7v-3.82h5.7V2319.9Z"/><path d="M2296.69,2358.14c0-3.3-2.7-4.72-7.43-6.45l-1.87-.67c-5-1.8-8.4-4.35-8.4-9.15,0-5.47,4.87-8.92,11.32-8.92a16.89,16.89,0,0,1,10.73,3.82l-2.48,3.45a15,15,0,0,0-8.4-3.3c-3.67,0-6.45,1.88-6.45,4.72,0,2.1,1.5,3.75,4.88,5l3.82,1.42c6.38,2.48,9,5.25,9,10.13,0,4.27-3.67,9.6-12.15,9.6a19.71,19.71,0,0,1-11.62-4.13l2.4-3.45a15.79,15.79,0,0,0,9.37,3.53C2293.91,2363.77,2296.69,2361.22,2296.69,2358.14Z"/><path d="M1311.58,2456.92H1307v-52.5h4.58Z"/><path d="M1324.63,2441.77c.6,6.82,5.17,12,12.07,12a11.41,11.41,0,0,0,10.28-5.7h5.32a16.94,16.94,0,0,1-15.6,9.75c-9.52,0-16.8-7.28-16.8-17.4s7.28-17.47,16.73-17.47c8.62,0,16.65,6.07,16.65,18.67v.15Zm.15-3.75h23.4c-.53-6-5-11-11.55-11S1325.6,2431.72,1324.78,2438Z"/><path d="M1392.72,2460.37c0,5.4-2.47,9.67-9.74,9.67h-12.53v-3.82h12c3.15,0,5.7-1,5.7-4.8v-10.8c-2,4.12-7,7.2-12.6,7.2-9.52,0-16.8-7.28-16.8-17.4S1366,2423,1375.4,2423c5.7,0,10.8,3.22,12.75,7.34v-6.44h4.57Zm-4.42-19.95c0-7.58-5.1-13.43-12.45-13.43s-12.52,5.85-12.52,13.43,5.17,13.42,12.52,13.42S1388.3,2448,1388.3,2440.42Z"/><path d="M1409.15,2456.92h-4.57v-29.25h-5.25v-3.82h9.82Zm-2.62-49.05a4,4,0,1,1-4,4A4,4,0,0,1,1406.53,2407.87Z"/><path d="M1426.25,2409.9v13.95h8.17v3.82h-8.17v22.42c0,3.08,2.17,3.23,4.72,3.23a22.68,22.68,0,0,0,3.45-.23v3.83a46.32,46.32,0,0,1-5.1.3c-3.44,0-7.64-.9-7.64-7v-22.5H1416v-3.82h5.7V2409.9Z"/><path d="M1447.17,2456.92h-4.57v-29.25h-5.25v-3.82h9.82Zm-2.62-49.05a4,4,0,1,1-4,4A4,4,0,0,1,1444.55,2407.87Z"/><path d="M1485.42,2436.22v20.7h-4.57v-22c0-5.1-3.15-8-7.88-8-3.9,0-7.42,2.18-10.57,5.85v24.08h-4.58v-33.07h4.5v4.72c2.85-3.45,6.45-5.62,11.25-5.62,5.55,0,9.23,2.47,10.8,6.37,3.6-4.35,7.5-6.37,12.3-6.37,7.8,0,11.78,4.72,11.78,12v22h-4.58v-22c0-5.1-3.15-8-7.8-8-4,0-7.57,2.25-10.8,6C1485.35,2434,1485.42,2435.17,1485.42,2436.22Z"/><path d="M1538.3,2434c0-5-3.9-7.05-8.33-7.05-4.12,0-7.42,1.73-10.2,3.6l-2.17-3.44a21.61,21.61,0,0,1,12.67-4.2c7.88,0,12.6,4.42,12.6,11.24v22.73h-4.57v-4.13c-1.88,3.3-6.38,5-10.35,5-7.2,0-12-4.2-12-10.13s4.35-9.67,11.17-9.67h8c2.33,0,3.23-1.2,3.23-3Zm0,11.1v-4.57c-.83,1-2.55,1.27-4.28,1.27h-6.15c-4.87,0-7.12,2.4-7.12,5.85,0,2.85,2.17,6.23,7.72,6.23C1533.5,2453.92,1538.3,2451.14,1538.3,2445.14Z"/><path d="M1559.6,2409.9v13.95h8.17v3.82h-8.17v22.42c0,3.08,2.17,3.23,4.72,3.23a22.68,22.68,0,0,0,3.45-.23v3.83a46.32,46.32,0,0,1-5.1.3c-3.45,0-7.65-.9-7.65-7v-22.5h-5.7v-3.82h5.7V2409.9Z"/><path d="M1576.85,2441.77c.6,6.82,5.17,12,12.07,12a11.41,11.41,0,0,0,10.28-5.7h5.32a16.94,16.94,0,0,1-15.6,9.75c-9.52,0-16.8-7.28-16.8-17.4s7.28-17.47,16.73-17.47c8.62,0,16.65,6.07,16.65,18.67v.15Zm.15-3.75h23.4c-.53-6-5-11-11.55-11S1577.82,2431.72,1577,2438Z"/><path d="M1667.37,2423.85h5l-9.6,33.07h-6.22l-8.4-28.43-8.48,28.43h-6.22l-9.3-33.07h5.1l7.35,29.32,8.92-29.32h5.4l8.85,29.32Z"/><path d="M1681.77,2441.77c.6,6.82,5.18,12,12.08,12a11.38,11.38,0,0,0,10.27-5.7h5.33a17,17,0,0,1-15.6,9.75c-9.53,0-16.8-7.28-16.8-17.4s7.27-17.47,16.72-17.47c8.63,0,16.65,6.07,16.65,18.67v.15Zm.15-3.75h23.4c-.52-6-5-11-11.55-11S1682.75,2431.72,1681.92,2438Z"/><path d="M1722.8,2450.69v6.23h-4.58v-52.5h4.58v25.87c2-4.12,7-7.34,12.75-7.34,9.45,0,16.65,7.34,16.65,17.47s-7.28,17.4-16.8,17.4C1729.77,2457.82,1724.82,2454.74,1722.8,2450.69Zm12.3-23.7c-7.35,0-12.53,5.85-12.53,13.43s5.18,13.42,12.53,13.42,12.45-5.85,12.45-13.42S1742.45,2427,1735.1,2427Z"/><path d="M1776.57,2448.14c0-3.3-2.7-4.72-7.42-6.45l-1.88-.67c-5-1.8-8.4-4.35-8.4-9.15,0-5.47,4.88-8.92,11.33-8.92a16.84,16.84,0,0,1,10.72,3.82l-2.47,3.45a15,15,0,0,0-8.4-3.3c-3.68,0-6.45,1.88-6.45,4.72,0,2.1,1.5,3.75,4.87,5l3.83,1.42c6.37,2.48,9,5.25,9,10.13,0,4.27-3.68,9.6-12.15,9.6a19.74,19.74,0,0,1-11.63-4.13l2.4-3.45a15.79,15.79,0,0,0,9.38,3.53C1773.8,2453.77,1776.57,2451.22,1776.57,2448.14Z"/><path d="M1795.25,2456.92h-4.58v-29.25h-5.25v-3.82h9.83Zm-2.63-49.05a4,4,0,1,1-4,4A4,4,0,0,1,1792.62,2407.87Z"/><path d="M1812.35,2409.9v13.95h8.17v3.82h-8.17v22.42c0,3.08,2.17,3.23,4.72,3.23a22.68,22.68,0,0,0,3.45-.23v3.83a46.32,46.32,0,0,1-5.1.3c-3.45,0-7.65-.9-7.65-7v-22.5h-5.7v-3.82h5.7V2409.9Z"/><path d="M1829.6,2441.77c.59,6.82,5.17,12,12.07,12a11.38,11.38,0,0,0,10.27-5.7h5.33a17,17,0,0,1-15.6,9.75c-9.53,0-16.8-7.28-16.8-17.4s7.27-17.47,16.72-17.47c8.63,0,16.65,6.07,16.65,18.67v.15Zm.14-3.75h23.4c-.52-6-5-11-11.55-11S1830.57,2431.72,1829.74,2438Z"/><path d="M3040.36,2314.42h5.17l15.9,47.77h.15l16.05-47.77h4.73l-18.08,52.5h-5.77Z"/><path d="M3094.81,2366.92h-4.58v-29.25H3085v-3.82h9.83Zm-2.63-49.05a4,4,0,1,1-4,4A4,4,0,0,1,3092.18,2317.87Z"/><path d="M3120.16,2363.84a11.81,11.81,0,0,0,10.87-6.67l3.9,2.25a16.73,16.73,0,0,1-14.77,8.4c-9.53,0-17.1-7.28-17.1-17.4s7.57-17.47,17.1-17.47a16.72,16.72,0,0,1,14.77,8.39l-3.9,2.25a11.88,11.88,0,0,0-10.87-6.6c-7.35,0-12.45,5.85-12.45,13.43S3112.81,2363.84,3120.16,2363.84Z"/><path d="M3149.26,2319.9v13.95h8.17v3.82h-8.17v22.42c0,3.08,2.17,3.23,4.72,3.23a22.68,22.68,0,0,0,3.45-.23v3.83a46.32,46.32,0,0,1-5.1.3c-3.45,0-7.65-.9-7.65-7v-22.5H3139v-3.82h5.7V2319.9Z"/><path d="M3170.18,2366.92h-4.57v-29.25h-5.25v-3.82h9.82Zm-2.62-49.05a4,4,0,1,1-4,4A4,4,0,0,1,3167.56,2317.87Z"/><path d="M3208.43,2346.22v20.7h-4.58v-22c0-5.1-3.15-8-7.87-8-3.9,0-7.43,2.18-10.58,5.85v24.08h-4.57v-33.07h4.5v4.72c2.85-3.45,6.45-5.62,11.25-5.62,5.55,0,9.22,2.47,10.8,6.37,3.6-4.35,7.5-6.37,12.3-6.37,7.8,0,11.77,4.72,11.77,12v22h-4.57v-22c0-5.1-3.15-8-7.8-8-4,0-7.58,2.25-10.8,6C3208.35,2344,3208.43,2345.17,3208.43,2346.22Z"/><path d="M3245.48,2313.52a4.61,4.61,0,0,1,4.58,4.65,7.38,7.38,0,0,1-.75,2.85l-4.95,9.08h-4.05l3.45-7.65a4.47,4.47,0,0,1-2.85-4.28A4.61,4.61,0,0,1,3245.48,2313.52Z"/><path d="M3274,2358.14c0-3.3-2.7-4.72-7.43-6.45l-1.87-.67c-5-1.8-8.4-4.35-8.4-9.15,0-5.47,4.87-8.92,11.32-8.92a16.89,16.89,0,0,1,10.73,3.82l-2.48,3.45a15,15,0,0,0-8.4-3.3c-3.67,0-6.45,1.88-6.45,4.72,0,2.1,1.5,3.75,4.88,5l3.82,1.42c6.38,2.48,9,5.25,9,10.13,0,4.27-3.67,9.6-12.15,9.6a19.71,19.71,0,0,1-11.62-4.13l2.4-3.45a15.79,15.79,0,0,0,9.37,3.53C3271.2,2363.77,3274,2361.22,3274,2358.14Z"/><path d="M3306.45,2360.69v6.23h-4.57v-52.5h4.57v25.87c2-4.12,7.05-7.34,12.75-7.34,9.45,0,16.65,7.34,16.65,17.47s-7.27,17.4-16.8,17.4C3313.43,2367.82,3308.48,2364.74,3306.45,2360.69Zm12.3-23.7c-7.35,0-12.52,5.85-12.52,13.43s5.17,13.42,12.52,13.42,12.45-5.85,12.45-13.42S3326.1,2337,3318.75,2337Z"/><path d="M3361,2337.89h-2.25c-5.85,0-10.05,2.7-10.05,10.5v18.53h-4.5v-33.07h4.35v5.62c1.87-4.42,6-6.22,10-6.22.75,0,1.58.07,2.48.15Z"/><path d="M3381.68,2333a17.44,17.44,0,1,1-17.1,17.47C3364.58,2340.29,3372.23,2333,3381.68,2333Zm0,4c-7.35,0-12.45,5.85-12.45,13.43s5.1,13.42,12.45,13.42,12.52-5.85,12.52-13.42S3389.1,2337,3381.68,2337Z"/><path d="M3446.93,2333.85h5l-9.6,33.07h-6.23l-8.4-28.43-8.47,28.43H3413l-9.3-33.07h5.1l7.35,29.32,8.93-29.32h5.4l8.85,29.32Z"/><path d="M3475.2,2358.14c0-3.3-2.7-4.72-7.42-6.45l-1.88-.67c-5-1.8-8.4-4.35-8.4-9.15,0-5.47,4.88-8.92,11.33-8.92a16.84,16.84,0,0,1,10.72,3.82l-2.47,3.45a15,15,0,0,0-8.4-3.3c-3.68,0-6.45,1.88-6.45,4.72,0,2.1,1.5,3.75,4.87,5l3.83,1.42c6.37,2.48,9,5.25,9,10.13,0,4.27-3.68,9.6-12.15,9.6a19.74,19.74,0,0,1-11.63-4.13l2.4-3.45a15.79,15.79,0,0,0,9.38,3.53C3472.43,2363.77,3475.2,2361.22,3475.2,2358.14Z"/><path d="M3490.5,2351.77c.6,6.82,5.18,12,12.08,12a11.38,11.38,0,0,0,10.27-5.7h5.33a17,17,0,0,1-15.6,9.75c-9.53,0-16.8-7.28-16.8-17.4s7.27-17.47,16.72-17.47c8.63,0,16.65,6.07,16.65,18.67v.15Zm.15-3.75h23.4c-.52-6-5-11-11.55-11S3491.48,2341.72,3490.65,2348Z"/><path d="M3543.75,2337.89h-2.25c-5.85,0-10.05,2.7-10.05,10.5v18.53H3527v-33.07h4.35v5.62c1.88-4.42,6-6.22,10-6.22.75,0,1.57.07,2.47.15Z"/><path d="M3568.73,2366.92h-4.58v-52.5h4.58Z"/><path d="M3594.08,2333a17.44,17.44,0,1,1-17.1,17.47C3577,2340.29,3584.63,2333,3594.08,2333Zm0,4c-7.35,0-12.45,5.85-12.45,13.43s5.1,13.42,12.45,13.42,12.52-5.85,12.52-13.42S3601.5,2337,3594.08,2337Z"/><path d="M3639.07,2344c0-5-3.9-7.05-8.32-7.05-4.12,0-7.42,1.73-10.2,3.6l-2.17-3.44a21.61,21.61,0,0,1,12.67-4.2c7.87,0,12.6,4.42,12.6,11.24v22.73h-4.58v-4.13c-1.87,3.3-6.37,5-10.34,5-7.2,0-12-4.2-12-10.13s4.35-9.67,11.17-9.67h7.95c2.32,0,3.22-1.2,3.22-3Zm0,11.1v-4.57c-.82,1-2.55,1.27-4.27,1.27h-6.15c-4.87,0-7.12,2.4-7.12,5.85,0,2.85,2.17,6.23,7.72,6.23C3634.27,2363.92,3639.07,2361.14,3639.07,2355.14Z"/><path d="M3681,2340.29v-25.87h4.57v52.5H3681v-6.3c-2,4.12-7,7.2-12.6,7.2-9.52,0-16.8-7.28-16.8-17.4s7.2-17.47,16.65-17.47C3674,2333,3679.05,2336.17,3681,2340.29Zm-12.3,23.55c7.35,0,12.52-5.85,12.52-13.42s-5.17-13.43-12.52-13.43-12.45,5.85-12.45,13.43S3661.35,2363.84,3668.7,2363.84Z"/><path d="M3712.27,2358.14c0-3.3-2.7-4.72-7.42-6.45L3703,2351c-5-1.8-8.39-4.35-8.39-9.15,0-5.47,4.87-8.92,11.32-8.92a16.84,16.84,0,0,1,10.72,3.82l-2.47,3.45a15,15,0,0,0-8.4-3.3c-3.67,0-6.45,1.88-6.45,4.72,0,2.1,1.5,3.75,4.87,5l3.83,1.42c6.37,2.48,9,5.25,9,10.13,0,4.27-3.68,9.6-12.15,9.6a19.71,19.71,0,0,1-11.62-4.13l2.4-3.45a15.77,15.77,0,0,0,9.37,3.53C3709.5,2363.77,3712.27,2361.22,3712.27,2358.14Z"/><path d="M3744.75,2366.92h-4.58v-52.5h4.58Z"/><path d="M3757.8,2351.77c.6,6.82,5.17,12,12.07,12a11.41,11.41,0,0,0,10.28-5.7h5.32a16.94,16.94,0,0,1-15.6,9.75c-9.52,0-16.8-7.28-16.8-17.4s7.28-17.47,16.73-17.47c8.62,0,16.65,6.07,16.65,18.67v.15Zm.15-3.75h23.4c-.53-6-5-11-11.55-11S3758.77,2341.72,3758,2348Z"/><path d="M3825.9,2370.37c0,5.4-2.48,9.67-9.75,9.67h-12.53v-3.82h12c3.15,0,5.7-1,5.7-4.8v-10.8c-2,4.12-7,7.2-12.6,7.2-9.52,0-16.8-7.28-16.8-17.4s7.2-17.47,16.65-17.47c5.7,0,10.8,3.22,12.75,7.34v-6.44h4.58Zm-4.43-19.95c0-7.58-5.1-13.43-12.45-13.43s-12.52,5.85-12.52,13.43,5.17,13.42,12.52,13.42S3821.47,2358,3821.47,2350.42Z"/><path d="M3842.32,2366.92h-4.57v-29.25h-5.25v-3.82h9.82Zm-2.62-49.05a4,4,0,1,1-4,4A4,4,0,0,1,3839.7,2317.87Z"/><path d="M3859.42,2319.9v13.95h8.18v3.82h-8.18v22.42c0,3.08,2.18,3.23,4.73,3.23a22.68,22.68,0,0,0,3.45-.23v3.83a46.32,46.32,0,0,1-5.1.3c-3.45,0-7.65-.9-7.65-7v-22.5h-5.7v-3.82h5.7V2319.9Z"/><path d="M3880.35,2366.92h-4.58v-29.25h-5.25v-3.82h9.83Zm-2.63-49.05a4,4,0,1,1-4,4A4,4,0,0,1,3877.72,2317.87Z"/><path d="M3918.59,2346.22v20.7H3914v-22c0-5.1-3.15-8-7.87-8-3.9,0-7.43,2.18-10.58,5.85v24.08H3891v-33.07h4.5v4.72c2.85-3.45,6.45-5.62,11.25-5.62,5.54,0,9.22,2.47,10.79,6.37,3.6-4.35,7.5-6.37,12.3-6.37,7.8,0,11.78,4.72,11.78,12v22H3937v-22c0-5.1-3.15-8-7.8-8-4,0-7.57,2.25-10.8,6C3918.52,2344,3918.59,2345.17,3918.59,2346.22Z"/><path d="M3971.47,2344c0-5-3.9-7.05-8.33-7.05a18,18,0,0,0-10.19,3.6l-2.18-3.44a21.61,21.61,0,0,1,12.67-4.2c7.88,0,12.6,4.42,12.6,11.24v22.73h-4.57v-4.13c-1.88,3.3-6.38,5-10.35,5-7.2,0-12-4.2-12-10.13s4.35-9.67,11.17-9.67h7.95c2.33,0,3.23-1.2,3.23-3Zm0,11.1v-4.57c-.83,1-2.55,1.27-4.28,1.27H3961c-4.87,0-7.12,2.4-7.12,5.85,0,2.85,2.18,6.23,7.73,6.23C3966.67,2363.92,3971.47,2361.14,3971.47,2355.14Z"/><path d="M3992.77,2319.9v13.95h8.17v3.82h-8.17v22.42c0,3.08,2.18,3.23,4.73,3.23a22.61,22.61,0,0,0,3.44-.23v3.83a46.32,46.32,0,0,1-5.1.3c-3.44,0-7.64-.9-7.64-7v-22.5h-5.7v-3.82h5.7V2319.9Z"/><path d="M4010,2351.77c.6,6.82,5.17,12,12.07,12a11.41,11.41,0,0,0,10.28-5.7h5.32a16.94,16.94,0,0,1-15.6,9.75c-9.52,0-16.8-7.28-16.8-17.4S4012.57,2333,4022,2333c8.62,0,16.65,6.07,16.65,18.67v.15Zm.15-3.75h23.4c-.53-6-5-11-11.55-11S4011,2341.72,4010.17,2348Z"/><path d="M4077.52,2358.14c0-3.3-2.7-4.72-7.43-6.45l-1.87-.67c-5-1.8-8.4-4.35-8.4-9.15,0-5.47,4.87-8.92,11.32-8.92a16.89,16.89,0,0,1,10.73,3.82l-2.48,3.45a15,15,0,0,0-8.4-3.3c-3.67,0-6.45,1.88-6.45,4.72,0,2.1,1.5,3.75,4.88,5l3.82,1.42c6.38,2.48,9,5.25,9,10.13,0,4.27-3.67,9.6-12.15,9.6a19.71,19.71,0,0,1-11.62-4.13l2.4-3.45a15.79,15.79,0,0,0,9.37,3.53C4074.74,2363.77,4077.52,2361.22,4077.52,2358.14Z"/><path d="M4096.19,2366.92h-4.57v-29.25h-5.25v-3.82h9.82Zm-2.62-49.05a4,4,0,1,1-4,4A4,4,0,0,1,4093.57,2317.87Z"/><path d="M4113.29,2319.9v13.95h8.18v3.82h-8.18v22.42c0,3.08,2.18,3.23,4.73,3.23a22.68,22.68,0,0,0,3.45-.23v3.83a46.32,46.32,0,0,1-5.1.3c-3.45,0-7.65-.9-7.65-7v-22.5H4103v-3.82h5.7V2319.9Z"/><path d="M4130.54,2351.77c.6,6.82,5.18,12,12.08,12a11.38,11.38,0,0,0,10.27-5.7h5.33a17,17,0,0,1-15.6,9.75c-9.53,0-16.8-7.28-16.8-17.4s7.27-17.47,16.72-17.47c8.63,0,16.65,6.07,16.65,18.67v.15Zm.15-3.75h23.4c-.52-6-5-11-11.55-11S4131.52,2341.72,4130.69,2348Z"/><path d="M4170.82,2358.82a4.47,4.47,0,0,1,4.5,4.5,6.77,6.77,0,0,1-.75,2.85l-4.88,9h-4l3.45-7.58a4.57,4.57,0,0,1,1.65-8.77Z"/><path d="M3048.38,2450.69v6.23h-4.57v-52.5h4.57v25.87c1.95-4.12,7-7.34,12.75-7.34,9.45,0,16.65,7.34,16.65,17.47s-7.27,17.4-16.8,17.4C3055.36,2457.82,3050.41,2454.74,3048.38,2450.69Zm12.3-23.7c-7.35,0-12.52,5.85-12.52,13.43s5.17,13.42,12.52,13.42,12.45-5.85,12.45-13.42S3068,2427,3060.68,2427Z"/><path d="M3085.66,2445.14v-21.29h4.57v20.84c0,6,4.13,9.08,9.6,9.08s9.6-3.08,9.6-9.08v-20.84H3114v21.29c0,7-5,12.68-14.18,12.68S3085.66,2452.12,3085.66,2445.14Z"/><path d="M3130.66,2409.9v13.95h8.17v3.82h-8.17v22.42c0,3.08,2.17,3.23,4.72,3.23a22.68,22.68,0,0,0,3.45-.23v3.83a46.32,46.32,0,0,1-5.1.3c-3.45,0-7.65-.9-7.65-7v-22.5h-5.7v-3.82h5.7V2409.9Z"/><path d="M3180.38,2434c0-5-3.9-7.05-8.32-7.05a18,18,0,0,0-10.2,3.6l-2.18-3.44a21.61,21.61,0,0,1,12.68-4.2c7.87,0,12.6,4.42,12.6,11.24v22.73h-4.58v-4.13c-1.87,3.3-6.37,5-10.35,5-7.2,0-12-4.2-12-10.13s4.35-9.67,11.18-9.67h7.95c2.32,0,3.22-1.2,3.22-3Zm0,11.1v-4.57c-.82,1-2.55,1.27-4.27,1.27H3170c-4.88,0-7.13,2.4-7.13,5.85,0,2.85,2.18,6.23,7.73,6.23C3175.58,2453.92,3180.38,2451.14,3180.38,2445.14Z"/><path d="M3199.81,2456.92h-4.58v-52.5h4.58Z"/><path d="M3226.5,2448.14c0-3.3-2.7-4.72-7.42-6.45l-1.87-.67c-5-1.8-8.4-4.35-8.4-9.15,0-5.47,4.87-8.92,11.32-8.92a16.84,16.84,0,0,1,10.72,3.82l-2.47,3.45a15,15,0,0,0-8.4-3.3c-3.67,0-6.45,1.88-6.45,4.72,0,2.1,1.5,3.75,4.87,5l3.83,1.42c6.37,2.48,9,5.25,9,10.13,0,4.27-3.68,9.6-12.15,9.6a19.71,19.71,0,0,1-11.62-4.13l2.4-3.45a15.79,15.79,0,0,0,9.37,3.53C3223.73,2453.77,3226.5,2451.22,3226.5,2448.14Z"/><path d="M3254.1,2423a17.44,17.44,0,1,1-17.1,17.47C3237,2430.29,3244.65,2423,3254.1,2423Zm0,4c-7.35,0-12.45,5.85-12.45,13.43s5.1,13.42,12.45,13.42,12.53-5.85,12.53-13.42S3261.53,2427,3254.1,2427Z"/><path d="M3296.93,2441.77c.6,6.82,5.17,12,12.07,12a11.41,11.41,0,0,0,10.28-5.7h5.32a16.94,16.94,0,0,1-15.6,9.75c-9.52,0-16.8-7.28-16.8-17.4s7.28-17.47,16.73-17.47c8.62,0,16.65,6.07,16.65,18.67v.15Zm.15-3.75h23.4c-.53-6-5-11-11.55-11S3297.9,2431.72,3297.08,2438Z"/><path d="M3341.33,2440.57l-12.6-16.72h5.47l9.75,13.42,10-13.42h5.17l-12.6,16.57,12.6,16.5h-5.55l-9.67-13.2-9.68,13.2h-5.47Z"/><path d="M3367.05,2441.77c.6,6.82,5.18,12,12.08,12a11.38,11.38,0,0,0,10.27-5.7h5.33a17,17,0,0,1-15.6,9.75c-9.53,0-16.8-7.28-16.8-17.4s7.27-17.47,16.72-17.47c8.63,0,16.65,6.07,16.65,18.67v.15Zm.15-3.75h23.4c-.52-6-5-11-11.55-11S3368,2431.72,3367.2,2438Z"/><path d="M3418.2,2453.84a11.83,11.83,0,0,0,10.88-6.67l3.9,2.25a16.76,16.76,0,0,1-14.78,8.4c-9.52,0-17.1-7.28-17.1-17.4s7.58-17.47,17.1-17.47a16.75,16.75,0,0,1,14.78,8.39l-3.9,2.25a11.91,11.91,0,0,0-10.88-6.6c-7.35,0-12.45,5.85-12.45,13.43S3410.85,2453.84,3418.2,2453.84Z"/><path d="M3440.4,2445.14v-21.29H3445v20.84c0,6,4.12,9.08,9.6,9.08s9.6-3.08,9.6-9.08v-20.84h4.57v21.29c0,7-4.95,12.68-14.17,12.68S3440.4,2452.12,3440.4,2445.14Z"/><path d="M3485.4,2409.9v13.95h8.18v3.82h-8.18v22.42c0,3.08,2.18,3.23,4.73,3.23a22.68,22.68,0,0,0,3.45-.23v3.83a46.32,46.32,0,0,1-5.1.3c-3.45,0-7.65-.9-7.65-7v-22.5h-5.7v-3.82h5.7V2409.9Z"/><path d="M3502.65,2441.77c.6,6.82,5.18,12,12.08,12a11.4,11.4,0,0,0,10.27-5.7h5.32a16.93,16.93,0,0,1-15.59,9.75c-9.53,0-16.8-7.28-16.8-17.4s7.27-17.47,16.72-17.47c8.62,0,16.65,6.07,16.65,18.67v.15Zm.15-3.75h23.4c-.53-6-5-11-11.55-11S3503.63,2431.72,3502.8,2438Z"/><path d="M3555.15,2448.14c0-3.3-2.7-4.72-7.43-6.45l-1.87-.67c-5-1.8-8.4-4.35-8.4-9.15,0-5.47,4.87-8.92,11.32-8.92a16.89,16.89,0,0,1,10.73,3.82l-2.48,3.45a15,15,0,0,0-8.4-3.3c-3.67,0-6.45,1.88-6.45,4.72,0,2.1,1.5,3.75,4.88,5l3.82,1.42c6.38,2.48,9,5.25,9,10.13,0,4.27-3.67,9.6-12.15,9.6a19.71,19.71,0,0,1-11.62-4.13l2.4-3.45a15.79,15.79,0,0,0,9.37,3.53C3552.37,2453.77,3555.15,2451.22,3555.15,2448.14Z"/><path d="M3610.65,2436.22v20.7h-4.58v-22c0-5.1-3.15-8-7.87-8-3.9,0-7.43,2.18-10.58,5.85v24.08h-4.57v-33.07h4.5v4.72c2.85-3.45,6.45-5.62,11.25-5.62,5.55,0,9.22,2.47,10.8,6.37,3.6-4.35,7.5-6.37,12.3-6.37,7.8,0,11.77,4.72,11.77,12v22h-4.57v-22c0-5.1-3.15-8-7.8-8-4,0-7.58,2.25-10.8,6C3610.57,2434,3610.65,2435.17,3610.65,2436.22Z"/><path d="M3663.52,2434c0-5-3.9-7.05-8.32-7.05a18,18,0,0,0-10.2,3.6l-2.18-3.44a21.61,21.61,0,0,1,12.68-4.2c7.87,0,12.6,4.42,12.6,11.24v22.73h-4.58v-4.13c-1.87,3.3-6.37,5-10.35,5-7.2,0-12-4.2-12-10.13s4.35-9.67,11.18-9.67h8c2.32,0,3.22-1.2,3.22-3Zm0,11.1v-4.57c-.82,1-2.55,1.27-4.27,1.27h-6.15c-4.88,0-7.13,2.4-7.13,5.85,0,2.85,2.18,6.23,7.73,6.23C3658.72,2453.92,3663.52,2451.14,3663.52,2445.14Z"/><path d="M3683,2456.92h-4.58v-52.5H3683Z"/><path d="M3699.37,2456.92h-4.57v-29.25h-5.25v-3.82h9.82Zm-2.62-49.05a4,4,0,1,1-4,4A4,4,0,0,1,3696.75,2407.87Z"/><path d="M3724.72,2453.84a11.83,11.83,0,0,0,10.88-6.67l3.9,2.25a16.76,16.76,0,0,1-14.78,8.4c-9.52,0-17.1-7.28-17.1-17.4s7.58-17.47,17.1-17.47a16.75,16.75,0,0,1,14.78,8.39l-3.9,2.25a11.91,11.91,0,0,0-10.88-6.6c-7.35,0-12.45,5.85-12.45,13.43S3717.37,2453.84,3724.72,2453.84Z"/><path d="M3753.15,2456.92h-4.58v-29.25h-5.25v-3.82h9.83Zm-2.63-49.05a4,4,0,1,1-4,4A4,4,0,0,1,3750.52,2407.87Z"/><path d="M3778.5,2423a17.44,17.44,0,1,1-17.1,17.47C3761.4,2430.29,3769,2423,3778.5,2423Zm0,4c-7.35,0-12.45,5.85-12.45,13.43s5.1,13.42,12.45,13.42S3791,2448,3791,2440.42,3785.92,2427,3778.5,2427Z"/><path d="M3803.47,2445.14v-21.29H3808v20.84c0,6,4.13,9.08,9.6,9.08s9.6-3.08,9.6-9.08v-20.84h4.58v21.29c0,7-5,12.68-14.18,12.68S3803.47,2452.12,3803.47,2445.14Z"/><path d="M3858.07,2448.14c0-3.3-2.7-4.72-7.43-6.45l-1.87-.67c-5-1.8-8.4-4.35-8.4-9.15,0-5.47,4.87-8.92,11.32-8.92a16.89,16.89,0,0,1,10.73,3.82l-2.48,3.45a15,15,0,0,0-8.4-3.3c-3.67,0-6.45,1.88-6.45,4.72,0,2.1,1.5,3.75,4.88,5l3.82,1.42c6.38,2.48,9,5.25,9,10.13,0,4.27-3.67,9.6-12.15,9.6a19.71,19.71,0,0,1-11.62-4.13l2.4-3.45a15.79,15.79,0,0,0,9.37,3.53C3855.29,2453.77,3858.07,2451.22,3858.07,2448.14Z"/><path d="M3902,2448.14c0-3.3-2.7-4.72-7.43-6.45l-1.87-.67c-5-1.8-8.4-4.35-8.4-9.15,0-5.47,4.87-8.92,11.32-8.92a16.89,16.89,0,0,1,10.73,3.82l-2.48,3.45a15,15,0,0,0-8.4-3.3c-3.67,0-6.45,1.88-6.45,4.72,0,2.1,1.5,3.75,4.88,5l3.82,1.42c6.38,2.48,9,5.25,9,10.13,0,4.27-3.67,9.6-12.15,9.6a19.71,19.71,0,0,1-11.62-4.13l2.4-3.45a15.79,15.79,0,0,0,9.37,3.53C3899.24,2453.77,3902,2451.22,3902,2448.14Z"/><path d="M3929.62,2453.84a11.81,11.81,0,0,0,10.87-6.67l3.9,2.25a16.73,16.73,0,0,1-14.77,8.4c-9.53,0-17.1-7.28-17.1-17.4s7.57-17.47,17.1-17.47a16.72,16.72,0,0,1,14.77,8.39l-3.9,2.25a11.88,11.88,0,0,0-10.87-6.6c-7.35,0-12.45,5.85-12.45,13.43S3922.27,2453.84,3929.62,2453.84Z"/><path d="M3969.06,2427.89h-2.24c-5.85,0-10.05,2.7-10.05,10.5v18.53h-4.5v-33.07h4.35v5.62c1.87-4.42,6-6.22,10-6.22.75,0,1.58.07,2.47.15Z"/><path d="M3981.74,2456.92h-4.57v-29.25h-5.25v-3.82h9.82Zm-2.62-49.05a4,4,0,1,1-4,4A4,4,0,0,1,3979.12,2407.87Z"/><path d="M3997,2450.69V2470h-4.57v-46.19H3997v6.44c1.95-4.12,7.05-7.34,12.75-7.34,9.45,0,16.65,7.34,16.65,17.47s-7.27,17.4-16.8,17.4C4003.94,2457.82,3999,2454.74,3997,2450.69Zm12.3-23.7c-7.35,0-12.52,5.85-12.52,13.43s5.17,13.42,12.52,13.42,12.45-5.85,12.45-13.42S4016.61,2427,4009.26,2427Z"/><path d="M4041.14,2409.9v13.95h8.17v3.82h-8.17v22.42c0,3.08,2.17,3.23,4.72,3.23a22.68,22.68,0,0,0,3.45-.23v3.83a46.32,46.32,0,0,1-5.1.3c-3.45,0-7.65-.9-7.65-7v-22.5h-5.7v-3.82h5.7V2409.9Z"/><path d="M1190.57,974.37l18.6-32h7.35v32h8v4h-8v16.58h-4.58V978.34h-21.37Zm4.5,0h16.87v-28.8h-.3Z"/><path d="M1235.19,986.74a4.54,4.54,0,1,1-4.5,4.58A4.55,4.55,0,0,1,1235.19,986.74Z"/><path d="M1307.56,941.83h7v52.5h-4.65v-47l-17.17,37h-4.87l-17.18-37v47h-4.42v-52.5h7l17.25,37.2Z"/><path d="M1345.44,971.45c0-5-3.9-7.05-8.33-7.05-4.12,0-7.42,1.73-10.2,3.6l-2.17-3.45a21.68,21.68,0,0,1,12.67-4.2c7.88,0,12.6,4.43,12.6,11.25v22.73h-4.57V990.2c-1.88,3.3-6.38,5-10.35,5-7.2,0-12-4.2-12-10.13s4.35-9.67,11.17-9.67h8c2.33,0,3.23-1.2,3.23-3Zm0,11.1V978c-.83,1-2.55,1.27-4.28,1.27H1335c-4.87,0-7.12,2.4-7.12,5.85,0,2.85,2.17,6.23,7.72,6.23C1340.64,991.33,1345.44,988.55,1345.44,982.55Z"/><path d="M1364.86,994.33h-4.57v-52.5h4.57Z"/><path d="M1381.28,994.33h-4.57V965.08h-5.25v-3.83h9.82Zm-2.62-49.05a4,4,0,1,1-4,4A4,4,0,0,1,1378.66,945.28Z"/><path d="M1406.63,991.25a11.83,11.83,0,0,0,10.88-6.67l3.9,2.25a16.76,16.76,0,0,1-14.78,8.4c-9.52,0-17.1-7.28-17.1-17.4s7.58-17.48,17.1-17.48a16.76,16.76,0,0,1,14.78,8.4l-3.9,2.25a11.91,11.91,0,0,0-10.88-6.6c-7.35,0-12.45,5.85-12.45,13.43S1399.28,991.25,1406.63,991.25Z"/><path d="M1435.06,994.33h-4.58V965.08h-5.25v-3.83h9.83Zm-2.63-49.05a4,4,0,1,1-4,4A4,4,0,0,1,1432.43,945.28Z"/><path d="M1460.41,960.35a17.44,17.44,0,1,1-17.1,17.48C1443.31,967.7,1451,960.35,1460.41,960.35Zm0,4c-7.35,0-12.45,5.85-12.45,13.43s5.1,13.42,12.45,13.42,12.52-5.85,12.52-13.42S1467.83,964.4,1460.41,964.4Z"/><path d="M1485.38,982.55v-21.3H1490V982.1c0,6,4.12,9.08,9.6,9.08s9.6-3.08,9.6-9.08V961.25h4.57v21.3c0,7-5,12.68-14.17,12.68S1485.38,989.53,1485.38,982.55Z"/><path d="M1540,985.55c0-3.3-2.7-4.72-7.42-6.45l-1.88-.67c-5-1.8-8.4-4.35-8.4-9.15,0-5.48,4.88-8.93,11.33-8.93a16.85,16.85,0,0,1,10.72,3.83l-2.47,3.45a15,15,0,0,0-8.4-3.3c-3.68,0-6.45,1.87-6.45,4.72,0,2.1,1.5,3.75,4.87,5l3.83,1.42c6.37,2.48,9,5.25,9,10.13,0,4.27-3.68,9.6-12.15,9.6a19.74,19.74,0,0,1-11.63-4.13l2.4-3.45a15.79,15.79,0,0,0,9.38,3.53C1537.21,991.18,1540,988.63,1540,985.55Z"/><path d="M1583.93,985.55c0-3.3-2.7-4.72-7.42-6.45l-1.88-.67c-5-1.8-8.4-4.35-8.4-9.15,0-5.48,4.88-8.93,11.33-8.93a16.85,16.85,0,0,1,10.72,3.83l-2.48,3.45a14.9,14.9,0,0,0-8.39-3.3c-3.68,0-6.45,1.87-6.45,4.72,0,2.1,1.5,3.75,4.87,5l3.83,1.42c6.37,2.48,9,5.25,9,10.13,0,4.27-3.68,9.6-12.15,9.6a19.74,19.74,0,0,1-11.63-4.13l2.4-3.45a15.79,15.79,0,0,0,9.38,3.53C1581.16,991.18,1583.93,988.63,1583.93,985.55Z"/><path d="M1611.53,991.25a11.81,11.81,0,0,0,10.87-6.67l3.9,2.25a16.73,16.73,0,0,1-14.77,8.4c-9.53,0-17.1-7.28-17.1-17.4s7.57-17.48,17.1-17.48a16.73,16.73,0,0,1,14.77,8.4l-3.9,2.25a11.88,11.88,0,0,0-10.87-6.6c-7.35,0-12.45,5.85-12.45,13.43S1604.18,991.25,1611.53,991.25Z"/><path d="M1651,965.3h-2.25c-5.85,0-10,2.7-10,10.5v18.53h-4.5V961.25h4.35v5.63c1.87-4.43,6-6.23,10-6.23.75,0,1.58.08,2.48.15Z"/><path d="M1663.65,994.33h-4.57V965.08h-5.25v-3.83h9.82ZM1661,945.28a4,4,0,1,1-4,4A4,4,0,0,1,1661,945.28Z"/><path d="M1678.88,988.1v19.35h-4.58v-46.2h4.58v6.45c1.95-4.12,7-7.35,12.75-7.35,9.45,0,16.65,7.35,16.65,17.48s-7.28,17.4-16.8,17.4C1685.85,995.23,1680.9,992.15,1678.88,988.1Zm12.3-23.7c-7.35,0-12.53,5.85-12.53,13.43s5.18,13.42,12.53,13.42,12.45-5.85,12.45-13.42S1698.53,964.4,1691.18,964.4Z"/><path d="M1723.05,947.3v14h8.18v3.83h-8.18V987.5c0,3.08,2.18,3.23,4.73,3.23a22.68,22.68,0,0,0,3.45-.23v3.83a46.32,46.32,0,0,1-5.1.3c-3.45,0-7.65-.9-7.65-7v-22.5h-5.7v-3.83h5.7v-14Z"/><path d="M1769.25,985.55c0-3.3-2.7-4.72-7.42-6.45l-1.88-.67c-5-1.8-8.4-4.35-8.4-9.15,0-5.48,4.88-8.93,11.33-8.93a16.85,16.85,0,0,1,10.72,3.83l-2.47,3.45a15,15,0,0,0-8.4-3.3c-3.68,0-6.45,1.87-6.45,4.72,0,2.1,1.5,3.75,4.87,5l3.83,1.42c6.37,2.48,9,5.25,9,10.13,0,4.27-3.68,9.6-12.15,9.6a19.74,19.74,0,0,1-11.63-4.13l2.4-3.45a15.79,15.79,0,0,0,9.38,3.53C1766.48,991.18,1769.25,988.63,1769.25,985.55Z"/><path d="M1784.55,979.18c.6,6.82,5.18,12,12.08,12a11.39,11.39,0,0,0,10.27-5.7h5.32a16.93,16.93,0,0,1-15.59,9.75c-9.53,0-16.8-7.28-16.8-17.4s7.27-17.48,16.72-17.48c8.63,0,16.65,6.08,16.65,18.68v.15Zm.15-3.75h23.4c-.52-6-5-11-11.55-11S1785.53,969.13,1784.7,975.43Z"/><path d="M1844.77,972.58c0-5.33-3.45-8.18-8.17-8.18-4,0-7.88,2.18-11,5.85v24.08H1821V961.25h4.5V966a15,15,0,0,1,11.85-5.63c7.72,0,12,4.73,12,12v22h-4.58Z"/><path d="M1886.7,967.7V941.83h4.57v52.5h-4.57V988c-2,4.12-7,7.2-12.6,7.2-9.52,0-16.8-7.28-16.8-17.4s7.2-17.48,16.65-17.48C1879.65,960.35,1884.75,963.58,1886.7,967.7Zm-12.3,23.55c7.35,0,12.52-5.85,12.52-13.42s-5.17-13.43-12.52-13.43S1862,970.25,1862,977.83,1867.05,991.25,1874.4,991.25Z"/><path d="M1918,985.55c0-3.3-2.7-4.72-7.42-6.45l-1.88-.67c-5-1.8-8.4-4.35-8.4-9.15,0-5.48,4.88-8.93,11.33-8.93a16.85,16.85,0,0,1,10.72,3.83l-2.47,3.45a15,15,0,0,0-8.4-3.3c-3.68,0-6.45,1.87-6.45,4.72,0,2.1,1.5,3.75,4.87,5l3.83,1.42c6.37,2.48,9,5.25,9,10.13,0,4.27-3.68,9.6-12.15,9.6a19.71,19.71,0,0,1-11.62-4.13l2.4-3.45a15.74,15.74,0,0,0,9.37,3.53C1915.2,991.18,1918,988.63,1918,985.55Z"/><path d="M1967,961.25h5l-12.53,33.08h-6.15l-12.3-33.08h5.18l10.27,29.33Z"/><path d="M1985,994.33h-4.57V965.08h-5.25v-3.83H1985Zm-2.62-49.05a4,4,0,1,1-4,4A4,4,0,0,1,1982.4,945.28Z"/><path d="M2010.37,991.25a11.83,11.83,0,0,0,10.88-6.67l3.9,2.25a16.76,16.76,0,0,1-14.78,8.4c-9.52,0-17.1-7.28-17.1-17.4s7.58-17.48,17.1-17.48a16.76,16.76,0,0,1,14.78,8.4l-3.9,2.25a11.91,11.91,0,0,0-10.88-6.6c-7.35,0-12.45,5.85-12.45,13.43S2003,991.25,2010.37,991.25Z"/><path d="M2039.47,947.3v14h8.18v3.83h-8.18V987.5c0,3.08,2.18,3.23,4.73,3.23a22.68,22.68,0,0,0,3.45-.23v3.83a46.32,46.32,0,0,1-5.1.3c-3.45,0-7.65-.9-7.65-7v-22.5h-5.7v-3.83h5.7v-14Z"/><path d="M2060.4,994.33h-4.58V965.08h-5.25v-3.83h9.83Zm-2.63-49.05a4,4,0,1,1-4,4A4,4,0,0,1,2057.77,945.28Z"/><path d="M2098.65,973.63v20.7h-4.58v-22c0-5.1-3.15-8-7.87-8-3.9,0-7.43,2.18-10.58,5.85v24.08h-4.57V961.25h4.5V966c2.85-3.45,6.45-5.63,11.25-5.63,5.55,0,9.22,2.48,10.8,6.38,3.6-4.35,7.5-6.38,12.29-6.38,7.8,0,11.78,4.73,11.78,12v22h-4.57v-22c0-5.1-3.15-8-7.8-8-4,0-7.58,2.25-10.8,6C2098.57,971.45,2098.65,972.58,2098.65,973.63Z"/><path d="M2135.7,940.93a4.61,4.61,0,0,1,4.57,4.65,7.21,7.21,0,0,1-.75,2.85l-4.95,9.07h-4.05l3.45-7.65a4.47,4.47,0,0,1-2.85-4.27A4.61,4.61,0,0,1,2135.7,940.93Z"/><path d="M2164.2,985.55c0-3.3-2.7-4.72-7.43-6.45l-1.87-.67c-5-1.8-8.4-4.35-8.4-9.15,0-5.48,4.87-8.93,11.32-8.93a16.9,16.9,0,0,1,10.73,3.83l-2.48,3.45a14.91,14.91,0,0,0-8.4-3.3c-3.67,0-6.45,1.87-6.45,4.72,0,2.1,1.5,3.75,4.88,5l3.82,1.42c6.38,2.48,9,5.25,9,10.13,0,4.27-3.67,9.6-12.15,9.6a19.71,19.71,0,0,1-11.62-4.13l2.4-3.45a15.79,15.79,0,0,0,9.37,3.53C2161.42,991.18,2164.2,988.63,2164.2,985.55Z"/><path d="M1268.87,1077.61V1097h-4.57v-46.2h4.57v6.45c2-4.13,7.05-7.35,12.75-7.35,9.45,0,16.65,7.35,16.65,17.47s-7.27,17.4-16.8,17.4C1275.85,1084.73,1270.9,1081.66,1268.87,1077.61Zm12.3-23.7c-7.35,0-12.52,5.85-12.52,13.42s5.17,13.43,12.52,13.43,12.45-5.85,12.45-13.43S1288.52,1053.91,1281.17,1053.91Z"/><path d="M1323.4,1054.81h-2.25c-5.85,0-10.05,2.7-10.05,10.5v18.52h-4.5v-33.07H1311v5.62c1.87-4.42,6-6.22,10-6.22.75,0,1.58.07,2.48.15Z"/><path d="M1336.07,1083.83h-4.57v-29.25h-5.25v-3.82h9.82Zm-2.62-49a4,4,0,1,1-4,4A4,4,0,0,1,1333.45,1034.78Z"/><path d="M1369.6,1050.76h5L1362,1083.83h-6.15l-12.3-33.07h5.18l10.27,29.32Z"/><path d="M1400.57,1061c0-5-3.9-7-8.32-7a17.91,17.91,0,0,0-10.2,3.6l-2.18-3.45a21.61,21.61,0,0,1,12.68-4.2c7.87,0,12.6,4.42,12.6,11.25v22.72h-4.58v-4.12c-1.87,3.3-6.37,5-10.35,5-7.2,0-12-4.2-12-10.12,0-6.08,4.35-9.68,11.18-9.68h7.95c2.32,0,3.22-1.2,3.22-3Zm0,11.1v-4.58c-.82,1-2.55,1.28-4.27,1.28h-6.15c-4.88,0-7.13,2.4-7.13,5.85,0,2.85,2.18,6.22,7.73,6.22C1395.77,1080.83,1400.57,1078.06,1400.57,1072.06Z"/><path d="M1421.87,1036.81v14h8.18v3.82h-8.18V1077c0,3.07,2.18,3.22,4.73,3.22a23.68,23.68,0,0,0,3.45-.22v3.82a46.32,46.32,0,0,1-5.1.3c-3.45,0-7.65-.9-7.65-7.05v-22.5h-5.7v-3.82h5.7v-14Z"/><path d="M1439.12,1068.68c.6,6.83,5.18,12,12.08,12a11.38,11.38,0,0,0,10.27-5.7h5.33a17,17,0,0,1-15.6,9.75c-9.53,0-16.8-7.27-16.8-17.4s7.27-17.47,16.72-17.47c8.63,0,16.65,6.07,16.65,18.67v.15Zm.15-3.75h23.4c-.52-6-5-11-11.55-11S1440.1,1058.63,1439.27,1064.93Z"/><path d="M1517.11,1057.7v-25.87h4.57v52.5h-4.57V1078c-2,4.12-7,7.2-12.6,7.2-9.53,0-16.8-7.28-16.8-17.4s7.2-17.48,16.65-17.48C1510.06,1050.35,1515.16,1053.58,1517.11,1057.7Zm-12.3,23.55c7.35,0,12.52-5.85,12.52-13.42s-5.17-13.43-12.52-13.43-12.45,5.85-12.45,13.43S1497.46,1081.25,1504.81,1081.25Z"/><path d="M1551.91,1061.45c0-5-3.9-7-8.33-7-4.12,0-7.42,1.73-10.2,3.6l-2.17-3.45a21.68,21.68,0,0,1,12.67-4.2c7.88,0,12.6,4.43,12.6,11.25v22.73h-4.57v-4.13c-1.88,3.3-6.38,5-10.35,5-7.2,0-12-4.2-12-10.13s4.35-9.67,11.17-9.67h8c2.33,0,3.23-1.2,3.23-3Zm0,11.1V1068c-.83,1-2.55,1.27-4.28,1.27h-6.15c-4.87,0-7.12,2.4-7.12,5.85,0,2.85,2.17,6.23,7.72,6.23C1547.11,1081.33,1551.91,1078.55,1551.91,1072.55Z"/><path d="M1573.21,1037.3v14h8.17v3.83h-8.17v22.42c0,3.08,2.17,3.23,4.72,3.23a22.68,22.68,0,0,0,3.45-.23v3.83a46.32,46.32,0,0,1-5.1.3c-3.45,0-7.65-.9-7.65-7.05v-22.5h-5.7v-3.83h5.7v-14Z"/><path d="M1607.93,1061.45c0-5-3.9-7-8.32-7a18,18,0,0,0-10.2,3.6l-2.18-3.45a21.68,21.68,0,0,1,12.68-4.2c7.87,0,12.6,4.43,12.6,11.25v22.73h-4.58v-4.13c-1.87,3.3-6.37,5-10.35,5-7.2,0-12-4.2-12-10.13s4.35-9.67,11.18-9.67h8c2.32,0,3.22-1.2,3.22-3Zm0,11.1V1068c-.82,1-2.55,1.27-4.27,1.27h-6.15c-4.88,0-7.13,2.4-7.13,5.85,0,2.85,2.18,6.23,7.73,6.23C1603.13,1081.33,1607.93,1078.55,1607.93,1072.55Z"/><path d="M1643.11,1037.3v14h8.17v3.83h-8.17v22.42c0,3.08,2.17,3.23,4.72,3.23a22.68,22.68,0,0,0,3.45-.23v3.83a46.32,46.32,0,0,1-5.1.3c-3.45,0-7.65-.9-7.65-7.05v-22.5h-5.7v-3.83h5.7v-14Z"/><path d="M1672.66,1050.35a17.44,17.44,0,1,1-17.1,17.48C1655.56,1057.7,1663.21,1050.35,1672.66,1050.35Zm0,4.05c-7.35,0-12.45,5.85-12.45,13.43s5.1,13.42,12.45,13.42,12.52-5.85,12.52-13.42S1680.08,1054.4,1672.66,1054.4Z"/><path d="M1732.66,1061.45c0-5-3.9-7-8.33-7-4.12,0-7.42,1.73-10.2,3.6l-2.17-3.45a21.68,21.68,0,0,1,12.67-4.2c7.88,0,12.6,4.43,12.6,11.25v22.73h-4.57v-4.13c-1.88,3.3-6.38,5-10.35,5-7.2,0-12-4.2-12-10.13s4.35-9.67,11.17-9.67h8c2.33,0,3.23-1.2,3.23-3Zm0,11.1V1068c-.83,1-2.55,1.27-4.28,1.27h-6.15c-4.87,0-7.12,2.4-7.12,5.85,0,2.85,2.17,6.23,7.72,6.23C1727.86,1081.33,1732.66,1078.55,1732.66,1072.55Z"/><path d="M1754,1037.3v14h8.17v3.83H1754v22.42c0,3.08,2.17,3.23,4.72,3.23a22.68,22.68,0,0,0,3.45-.23v3.83a46.32,46.32,0,0,1-5.1.3c-3.45,0-7.65-.9-7.65-7.05v-22.5h-5.7v-3.83h5.7v-14Z"/><path d="M1775.56,1037.3v14h8.17v3.83h-8.17v22.42c0,3.08,2.17,3.23,4.72,3.23a22.68,22.68,0,0,0,3.45-.23v3.83a46.32,46.32,0,0,1-5.1.3c-3.45,0-7.65-.9-7.65-7.05v-22.5h-5.7v-3.83h5.7v-14Z"/><path d="M1810.28,1061.45c0-5-3.9-7-8.32-7a18,18,0,0,0-10.2,3.6l-2.18-3.45a21.68,21.68,0,0,1,12.68-4.2c7.87,0,12.6,4.43,12.6,11.25v22.73h-4.58v-4.13c-1.87,3.3-6.37,5-10.35,5-7.2,0-12-4.2-12-10.13s4.35-9.67,11.18-9.67h8c2.32,0,3.22-1.2,3.22-3Zm0,11.1V1068c-.82,1-2.55,1.27-4.27,1.27h-6.15c-4.88,0-7.13,2.4-7.13,5.85,0,2.85,2.18,6.23,7.73,6.23C1805.48,1081.33,1810.28,1078.55,1810.28,1072.55Z"/><path d="M1839.83,1081.25a11.83,11.83,0,0,0,10.88-6.67l3.9,2.25a16.76,16.76,0,0,1-14.78,8.4c-9.52,0-17.1-7.28-17.1-17.4s7.58-17.48,17.1-17.48a16.76,16.76,0,0,1,14.78,8.4l-3.9,2.25a11.91,11.91,0,0,0-10.88-6.6c-7.35,0-12.45,5.85-12.45,13.43S1832.48,1081.25,1839.83,1081.25Z"/><path d="M1867.06,1064.08h4.27l12.75-12.83h6.15L1875,1066l16,18.3H1885l-13.87-16.28h-4v16.28h-4.58v-52.5h4.58Z"/><path d="M1897.8,1069.18c.61,6.82,5.18,12,12.08,12a11.38,11.38,0,0,0,10.27-5.7h5.33a17,17,0,0,1-15.6,9.75c-9.53,0-16.8-7.28-16.8-17.4s7.27-17.48,16.72-17.48c8.63,0,16.65,6.08,16.65,18.68v.15Zm.15-3.75h23.4c-.52-6-5-11-11.55-11S1898.78,1059.13,1898,1065.43Z"/><path d="M1951.05,1055.3h-2.25c-5.85,0-10,2.7-10,10.5v18.53h-4.5v-33.08h4.35v5.63c1.88-4.43,6-6.23,10-6.23.75,0,1.57.08,2.47.15Z"/><path d="M2056.93,237.37h-11.37v31.2h-16.12V187.38h30.5c17.75,0,28.19,10.55,28.19,24.7,0,7.66-3.13,17.4-15.43,22.27l20.77,34.22h-18.56Zm.92-36.07h-12.29v22h12.29c8.94,0,14.16-4.17,14.16-11.13C2072,205,2066.79,201.3,2057.85,201.3Z"/><path d="M2150.07,246.42h-39.55a12,12,0,0,0,12.18,10.67c4.41,0,8.58-1.86,10.67-5.45l15.66,1.62c-4.76,11.37-14.73,16.71-26.56,16.71-15.89,0-27.84-11.72-27.84-28s11.71-28,27.61-28c14.61,0,27.83,9.52,27.83,31.79Zm-39.9-10.09H2134a11.53,11.53,0,0,0-11.71-9.75A11.85,11.85,0,0,0,2110.17,236.33Z"/><path d="M2162.6,200.37c0-10.44,7-14,15.08-14,4.06,0,11,.7,11,.7v13.8s-4.64-.58-6.26-.58c-2.9,0-4.76.7-4.76,4.41v10.79h10.21v12.76h-10.21v40.36H2162.6V228.21h-8.35V215.45h8.35Z"/><path d="M2211.32,268.57h-15V187.38h15Z"/><path d="M2276.4,246.42h-39.56A12,12,0,0,0,2249,257.09c4.41,0,8.58-1.86,10.67-5.45l15.66,1.62c-4.75,11.37-14.73,16.71-26.56,16.71-15.89,0-27.84-11.72-27.84-28s11.71-28,27.61-28c14.61,0,27.84,9.52,27.84,31.79Zm-39.91-10.09h23.78a11.52,11.52,0,0,0-11.71-9.75A11.85,11.85,0,0,0,2236.49,236.33Z"/><path d="M2297,242c0,8.35,5.45,14.5,13.34,14.5a12.17,12.17,0,0,0,11.72-8.12l14.15,4.41c-3.48,10.55-13.92,17.17-26,17.17-15.78,0-28.31-11.72-28.31-28s12.53-28,28.31-28c12.06,0,22.5,6.73,26,17.29l-14.15,4.29a12.33,12.33,0,0,0-11.72-8.12C2302.49,227.51,2297,233.66,2297,242Z"/><path d="M2364.21,195.26v20.19h11.48v12.76h-11.48v24c0,3.36,2.66,3.83,5,3.83,3.83,0,7-.35,7-.35v12.87s-7.3.7-11.71.7c-7.54,0-15.31-1.28-15.31-11.95V228.21h-8.36V215.45h8.36V195.26Z"/><path d="M2438.21,246.42h-39.55a12,12,0,0,0,12.18,10.67c4.4,0,8.58-1.86,10.67-5.45l15.66,1.62c-4.76,11.37-14.73,16.71-26.57,16.71-15.89,0-27.83-11.72-27.83-28s11.71-28,27.6-28c14.62,0,27.84,9.52,27.84,31.79Zm-39.9-10.09h23.78a11.53,11.53,0,0,0-11.72-9.75A11.84,11.84,0,0,0,2398.31,236.33Z"/><path d="M2486.23,261.85c-2.66,4.4-8.93,8.12-16.58,8.12-14.62,0-25.75-11.72-25.75-28s11-28,25.63-28c8.12,0,14.27,3.72,16.94,8.24,0-1.74-.24-6.15-.24-10.09V187.38h15.08v81.19h-15.08ZM2459.44,242c0,8.12,5.57,14.62,13.57,14.62s13.57-6.5,13.57-14.62-5.56-14.5-13.57-14.5S2459.44,233.77,2459.44,242Z"/><path d="M2577,228.21l26.79,40.36h-18.91l-18-28.76-17.4,28.76H2530.9l26.44-41.06-25.29-40.13h18.8l16.93,28.41,16.94-28.41h18.33Z"/><path d="M2654,209c-5-4.87-11.48-8.35-17.17-8.35-5.33,0-10.21,2.78-10.21,7.66,0,3.71,2.32,6.61,8.82,9.62l6.73,3.13c12.87,6,20.65,12.76,20.65,24.94s-10.33,24-28.19,24c-12.3,0-21.46-4.76-29.12-12.18l8.93-12.07c6,6.15,13.69,9.63,19.84,9.63,7,0,11.25-3.83,11.25-8.82,0-5.56-5-8.7-12.76-12.29l-5.68-2.67c-10.91-5.1-17.75-12.53-17.75-22.73,0-14.27,12.76-22.86,27.14-22.86,9.4,0,19,4.64,26.8,11.37Z"/><path d="M2717.07,209c-5-4.87-11.48-8.35-17.16-8.35-5.34,0-10.21,2.78-10.21,7.66,0,3.71,2.32,6.61,8.81,9.62l6.73,3.13c12.88,6,20.65,12.76,20.65,24.94s-10.33,24-28.19,24c-12.29,0-21.46-4.76-29.11-12.18l8.93-12.07c6,6.15,13.69,9.63,19.83,9.63,7,0,11.25-3.83,11.25-8.82,0-5.56-5-8.7-12.75-12.29l-5.69-2.67c-10.9-5.1-17.75-12.53-17.75-22.73,0-14.27,12.76-22.86,27.15-22.86,9.39,0,19,4.64,26.79,11.37Z"/><polyline class="cls-7" points="1205.98 1483.95 1243.53 1521.4 1206.07 1558.95"/><line class="cls-7" x1="1242" y1="1521.41" x2="977.03" y2="1521.68"/><polyline class="cls-8" points="1831.38 1254.82 1857.19 1279.47 1831.44 1304.18"/><line class="cls-8" x1="1856.14" y1="1279.47" x2="1799.43" y2="1279.65"/><polyline class="cls-8" points="1742.36 1304.18 1716.54 1279.53 1742.3 1254.82"/><line class="cls-8" x1="1717.6" y1="1279.53" x2="1774.31" y2="1279.35"/><polyline class="cls-7" points="2374.79 1483.95 2412.34 1521.4 2374.88 1558.95"/><line class="cls-7" x1="2410.8" y1="1521.41" x2="2145.83" y2="1521.68"/><polyline class="cls-7" points="3678.32 1483.95 3715.87 1521.4 3678.41 1558.95"/><line class="cls-7" x1="3714.34" y1="1521.41" x2="3272.85" y2="1521.68"/><path d="M474.42,2020H463.17l-4.5-14.32H442.85l-4.2,14.32H427.7l16.95-52.5H457.1Zm-23.62-41.25h-.15l-5.33,18h10.73Z"/><path d="M490.47,1972.59v13.05h7.43v8.25h-7.43v15.53c0,2.17,1.73,2.47,3.23,2.47,2.47,0,4.5-.22,4.5-.22V2020s-4.73.45-7.58.45c-4.87,0-9.9-.82-9.9-7.72v-18.83h-5.4v-8.25h5.4v-13.05Z"/><path d="M517,1972.59v13.05h7.42v8.25H517v15.53c0,2.17,1.72,2.47,3.22,2.47,2.48,0,4.5-.22,4.5-.22V2020s-4.72.45-7.57.45c-4.88,0-9.9-.82-9.9-7.72v-18.83h-5.4v-8.25h5.4v-13.05Z"/><path d="M550.17,1997.12c0-2.48-1.95-4-5.7-4-3.45,0-7.8,1.72-10.35,3.22l-3.82-7.35a29.37,29.37,0,0,1,14.7-4.2c7.8,0,14.92,3.6,14.92,12.68V2020h-9.75v-3.22c-1.8,2.7-5.7,4.12-9.6,4.12-7.27,0-12-5.17-12-10.8,0-6.52,4.8-10.57,12.45-10.57h6.75c1.65,0,2.4-.75,2.4-2Zm0,10.57v-2.47a4.24,4.24,0,0,1-3,.75H543.5c-3.08,0-4.88,1.35-4.88,3.75s1.88,4,4.88,4C547,2013.77,550.17,2012,550.17,2007.69Z"/><path d="M575.52,2002.82c0,5.4,3.53,9.37,8.63,9.37a7.85,7.85,0,0,0,7.57-5.25l9.15,2.85c-2.25,6.83-9,11.1-16.8,11.1-10.2,0-18.3-7.57-18.3-18.07s8.1-18.08,18.3-18.08c7.8,0,14.55,4.35,16.8,11.18l-9.15,2.77a8,8,0,0,0-7.57-5.25C579.05,1993.44,575.52,1997.42,575.52,2002.82Z"/><path d="M616.32,1997.57h2.33l9.44-11.93h11.78l-13.28,15.75,13.65,18.6h-11.7l-9.89-14.17h-2.33V2020h-9.67v-52.5h9.67Z"/><path d="M676.62,2005.67H651a8.16,8.16,0,0,0,14.78,3.37l10.12,1c-3.07,7.35-9.52,10.8-17.17,10.8-10.27,0-18-7.57-18-18.07s7.57-18.08,17.85-18.08c9.45,0,18,6.15,18,20.55Zm-25.8-6.53h15.37a7.45,7.45,0,0,0-7.57-6.3A7.66,7.66,0,0,0,650.82,1999.14Z"/><path d="M703.47,1995.24h-4.13c-5,0-7.2,2.33-7.2,8.33V2020h-9.75v-34.35h9.45v5.48a9,9,0,0,1,8.93-5.93,11.29,11.29,0,0,1,2.7.3Z"/><path d="M1407.79,1981.44c-3.22-3.15-7.42-5.4-11.1-5.4-3.45,0-6.6,1.8-6.6,5,0,2.4,1.5,4.28,5.7,6.23l4.35,2c8.33,3.9,13.35,8.25,13.35,16.13s-6.67,15.52-18.22,15.52a25.88,25.88,0,0,1-18.83-7.87l5.78-7.8c3.9,4,8.85,6.22,12.82,6.22,4.5,0,7.28-2.47,7.28-5.7,0-3.6-3.23-5.62-8.25-8l-3.68-1.72c-7.05-3.3-11.47-8.1-11.47-14.7,0-9.23,8.25-14.78,17.55-14.78,6.07,0,12.3,3,17.32,7.35Z"/><path d="M1427.44,2002.82c0,5.4,3.53,9.37,8.63,9.37a7.85,7.85,0,0,0,7.57-5.25l9.15,2.85c-2.25,6.83-9,11.1-16.8,11.1-10.2,0-18.3-7.57-18.3-18.07s8.1-18.08,18.3-18.08c7.8,0,14.55,4.35,16.8,11.18l-9.15,2.77a8,8,0,0,0-7.57-5.25C1431,1993.44,1427.44,1997.42,1427.44,2002.82Z"/><path d="M1479.64,1995.24h-4.12c-5,0-7.2,2.33-7.2,8.33V2020h-9.75v-34.35H1468v5.48a9,9,0,0,1,8.92-5.93,11.29,11.29,0,0,1,2.7.3Z"/><path d="M1496.89,2020h-9.75v-26.1h-4.8v-8.25h14.55Zm-5.32-52.5a6.29,6.29,0,0,1,6.3,6.3,6.27,6.27,0,0,1-12.53,0A6.28,6.28,0,0,1,1491.57,1967.49Z"/><path d="M1515,2033.12h-9.75v-47.48H1515v1.65c0,1.65-.15,2.4-.15,2.78,1.65-2.93,5.7-5.33,10.88-5.33,9.44,0,16.64,7.58,16.64,18.08s-7.27,18.07-16.72,18.07c-4.87,0-8.92-2.32-10.65-5.25Zm-.22-30.3c0,5.25,3.6,9.45,8.77,9.45s8.77-4.2,8.77-9.45-3.6-9.38-8.77-9.38S1514.82,1997.49,1514.82,2002.82Z"/><path d="M1561,1972.59v13.05h7.43v8.25H1561v15.53c0,2.17,1.73,2.47,3.23,2.47,2.47,0,4.5-.22,4.5-.22V2020s-4.73.45-7.57.45c-4.88,0-9.9-.82-9.9-7.72v-18.83h-5.4v-8.25h5.4v-13.05Z"/><path d="M1572.49,1995.77h15.75V2004h-15.75Z"/><path d="M1595.22,1967.49h10.42V2020h-10.42Z"/><path d="M1635.19,1984.74c7.42,0,12.75,4.73,12.75,12.75V2020h-9.75v-20c0-4.35-2.78-6.15-5.85-6.15a9.52,9.52,0,0,0-7.28,3.9V2020h-9.75v-34.35h9.53V1987c0,1.2-.15,2.7-.15,2.7A13.51,13.51,0,0,1,1635.19,1984.74Z"/><path d="M1658,1993.89h-4.8v-8.25h14.55v39.23c0,7.5-6,8.32-10.88,8.32h-5.17v-8.25h3.37c2,0,2.93-.45,2.93-2.17Zm4.42-26.4a6.29,6.29,0,0,1,6.3,6.3,6.26,6.26,0,0,1-12.52,0A6.27,6.27,0,0,1,1662.41,1967.49Z"/><path d="M1709.81,2005.67h-25.57A8.15,8.15,0,0,0,1699,2009l10.13,1c-3.08,7.35-9.53,10.8-17.18,10.8-10.27,0-18-7.57-18-18.07s7.58-18.08,17.85-18.08c9.45,0,18,6.15,18,20.55Zm-25.8-6.53h15.38a7.46,7.46,0,0,0-7.58-6.3A7.67,7.67,0,0,0,1684,1999.14Z"/><path d="M1723.16,2002.82c0,5.4,3.53,9.37,8.63,9.37a7.85,7.85,0,0,0,7.57-5.25l9.15,2.85c-2.25,6.83-9,11.1-16.8,11.1-10.2,0-18.3-7.57-18.3-18.07s8.1-18.08,18.3-18.08c7.8,0,14.55,4.35,16.8,11.18l-9.15,2.77a8,8,0,0,0-7.57-5.25C1726.69,1993.44,1723.16,1997.42,1723.16,2002.82Z"/><path d="M1766.59,1972.59v13.05H1774v8.25h-7.42v15.53c0,2.17,1.72,2.47,3.22,2.47,2.48,0,4.5-.22,4.5-.22V2020s-4.72.45-7.57.45c-4.88,0-9.9-.82-9.9-7.72v-18.83h-5.4v-8.25h5.4v-13.05Z"/><path d="M1814.44,2005.67h-25.58a8.16,8.16,0,0,0,14.78,3.37l10.12,1c-3.07,7.35-9.52,10.8-17.17,10.8-10.28,0-18-7.57-18-18.07s7.57-18.08,17.85-18.08c9.45,0,18,6.15,18,20.55Zm-25.8-6.53H1804a7.45,7.45,0,0,0-7.57-6.3A7.66,7.66,0,0,0,1788.64,1999.14Z"/><path d="M1845.48,2015.64c-1.72,2.85-5.77,5.25-10.72,5.25-9.45,0-16.65-7.57-16.65-18.07s7.13-18.08,16.58-18.08c5.25,0,9.22,2.4,10.94,5.33,0-1.13-.15-4-.15-6.53v-16h9.75V2020h-9.75Zm-17.32-12.82c0,5.25,3.6,9.45,8.78,9.45s8.77-4.2,8.77-9.45-3.6-9.38-8.77-9.38S1828.16,1997.49,1828.16,2002.82Z"/><path d="M1879.91,2020v-52.5h10.42v43.58h22.28V2020Z"/><path d="M1928.73,2020H1919v-26.1h-4.8v-8.25h14.54Zm-5.32-52.5a6.29,6.29,0,0,1,6.3,6.3,6.26,6.26,0,0,1-12.52,0A6.27,6.27,0,0,1,1923.41,1967.49Z"/><path d="M1957,1984.74c7.42,0,12.75,4.73,12.75,12.75V2020H1960v-20c0-4.35-2.78-6.15-5.85-6.15a9.52,9.52,0,0,0-7.28,3.9V2020h-9.74v-34.35h9.52V1987c0,1.2-.15,2.7-.15,2.7A13.51,13.51,0,0,1,1957,1984.74Z"/><path d="M1987.46,1997.57h2.32l9.45-11.93H2011l-13.28,15.75,13.65,18.6h-11.7l-9.9-14.17h-2.32V2020h-9.68v-52.5h9.68Z"/><path d="M2724.57,1967.49h11.55l11.93,38.93h.07l12.53-38.93h10.87l-17.77,52.5h-11.33Z"/><path d="M2787.27,2020h-9.75v-26.1h-4.8v-8.25h14.55Zm-5.32-52.5a6.29,6.29,0,0,1,6.3,6.3,6.27,6.27,0,0,1-12.53,0A6.28,6.28,0,0,1,2782,1967.49Z"/><path d="M2803.25,2002.82c0,5.4,3.52,9.37,8.62,9.37a7.87,7.87,0,0,0,7.58-5.25l9.15,2.85c-2.25,6.83-9,11.1-16.8,11.1-10.2,0-18.3-7.57-18.3-18.07s8.1-18.08,18.3-18.08c7.8,0,14.55,4.35,16.8,11.18l-9.15,2.77a8,8,0,0,0-7.58-5.25C2806.77,1993.44,2803.25,1997.42,2803.25,2002.82Z"/><path d="M2846.67,1972.59v13.05h7.43v8.25h-7.43v15.53c0,2.17,1.73,2.47,3.23,2.47,2.47,0,4.5-.22,4.5-.22V2020s-4.73.45-7.58.45c-4.87,0-9.9-.82-9.9-7.72v-18.83h-5.4v-8.25h5.4v-13.05Z"/><path d="M2872.62,2020h-9.75v-26.1h-4.8v-8.25h14.55Zm-5.32-52.5a6.29,6.29,0,0,1,6.3,6.3,6.27,6.27,0,0,1-12.53,0A6.28,6.28,0,0,1,2867.3,1967.49Z"/><path d="M2926.17,1999.82c0-4.2-2.7-6-5.7-6-2.78,0-5.25,1.57-7.13,3.9V2020h-9.75v-20.17c0-4.13-2.62-6-5.69-6-2.78,0-5.25,1.57-7.13,3.9V2020H2881v-34.35h9.53V1987c0,1.2-.15,2.7-.15,2.7a13.28,13.28,0,0,1,10.27-5c5.1,0,9.07,2.18,11,6.23a13.79,13.79,0,0,1,11.55-6.23c7.43,0,12.68,4.73,12.68,12.75V2020h-9.75Z"/><path d="M3888.43,2020v-52.5h10.43v43.58h22.27V2020Z"/><path d="M3959.91,2005.67h-25.58a8.16,8.16,0,0,0,14.78,3.37l10.12,1c-3.07,7.35-9.52,10.8-17.17,10.8-10.28,0-18-7.57-18-18.07s7.57-18.08,17.85-18.08c9.45,0,18,6.15,18,20.55Zm-25.8-6.53h15.37a7.45,7.45,0,0,0-7.57-6.3A7.66,7.66,0,0,0,3934.11,1999.14Z"/><path d="M4000.48,1985.64v36.9c0,5.4-2.7,10.58-11,10.58h-14.93v-8.25h12.53c1.72,0,3.67-.45,3.67-3.08v-6.6c-1.65,2.78-5.77,5.18-10.65,5.18-9.3,0-16.5-7-16.5-17.78s7.13-17.85,16.43-17.85c5.17,0,9.15,2.4,10.87,5.33,0-.38-.15-1-.15-2.85v-1.58ZM3982.26,2012c5.17,0,8.7-3.83,8.7-9.38s-3.53-9.45-8.7-9.45-8.63,3.83-8.63,9.45S3977.16,2012,3982.26,2012Z"/><path d="M4020.66,2020h-9.75v-26.1h-4.8v-8.25h14.55Zm-5.33-52.5a6.29,6.29,0,0,1,6.3,6.3,6.26,6.26,0,0,1-12.52,0A6.27,6.27,0,0,1,4015.33,1967.49Z"/><path d="M4041.36,1972.59v13.05h7.42v8.25h-7.42v15.53c0,2.17,1.72,2.47,3.22,2.47,2.47,0,4.5-.22,4.5-.22V2020s-4.72.45-7.57.45c-4.88,0-9.9-.82-9.9-7.72v-18.83h-5.4v-8.25h5.4v-13.05Z"/><path d="M4067.3,2020h-9.74v-26.1h-4.8v-8.25h14.54Zm-5.32-52.5a6.29,6.29,0,0,1,6.3,6.3,6.26,6.26,0,0,1-12.52,0A6.27,6.27,0,0,1,4062,1967.49Z"/><path d="M4120.85,1999.82c0-4.2-2.7-6-5.7-6a9.33,9.33,0,0,0-7.12,3.9V2020h-9.75v-20.17c0-4.13-2.63-6-5.7-6-2.78,0-5.25,1.57-7.13,3.9V2020h-9.75v-34.35h9.53V1987c0,1.2-.15,2.7-.15,2.7a13.3,13.3,0,0,1,10.27-5c5.1,0,9.08,2.18,11,6.23a13.79,13.79,0,0,1,11.55-6.23c7.42,0,12.67,4.73,12.67,12.75V2020h-9.75Z"/><path d="M4157.68,1997.12c0-2.48-2-4-5.7-4-3.45,0-7.8,1.72-10.35,3.22l-3.83-7.35a29.42,29.42,0,0,1,14.7-4.2c7.8,0,14.93,3.6,14.93,12.68V2020h-9.75v-3.22c-1.8,2.7-5.7,4.12-9.6,4.12-7.28,0-12-5.17-12-10.8,0-6.52,4.8-10.57,12.45-10.57h6.75c1.65,0,2.4-.75,2.4-2Zm0,10.57v-2.47a4.24,4.24,0,0,1-3,.75H4151c-3.07,0-4.87,1.35-4.87,3.75s1.87,4,4.87,4C4154.53,2013.77,4157.68,2012,4157.68,2007.69Z"/><path d="M4187.75,1972.59v13.05h7.43v8.25h-7.43v15.53c0,2.17,1.73,2.47,3.23,2.47,2.47,0,4.5-.22,4.5-.22V2020s-4.73.45-7.58.45c-4.87,0-9.9-.82-9.9-7.72v-18.83h-5.4v-8.25h5.4v-13.05Z"/><path d="M4235.6,2005.67H4210a8.15,8.15,0,0,0,14.77,3.37l10.13,1c-3.08,7.35-9.53,10.8-17.18,10.8-10.27,0-18-7.57-18-18.07s7.58-18.08,17.85-18.08c9.45,0,18,6.15,18,20.55Zm-25.8-6.53h15.38a7.46,7.46,0,0,0-7.58-6.3A7.67,7.67,0,0,0,4209.8,1999.14Z"/><path d="M4291.93,1967.49l10,37.58h.07l8.4-37.58h10.65l-12.82,52.5H4296.2l-9.9-37.72-9.67,37.72h-12.08l-13-52.5h11.25l8.1,37.58h.07l10.05-37.58Z"/><path d="M4357.33,2005.67h-25.58a8.16,8.16,0,0,0,14.78,3.37l10.12,1c-3.07,7.35-9.52,10.8-17.17,10.8-10.28,0-18-7.57-18-18.07s7.57-18.08,17.85-18.08c9.45,0,18,6.15,18,20.55Zm-25.8-6.53h15.37a7.45,7.45,0,0,0-7.57-6.3A7.66,7.66,0,0,0,4331.53,1999.14Z"/><path d="M4372.85,2020h-9.75v-52.5h9.75v17c0,2.25-.15,4.65-.15,5.63,1.65-2.93,5.7-5.33,10.88-5.33,9.45,0,16.65,7.58,16.65,18.08s-7.28,18.07-16.73,18.07c-4.87,0-8.92-2.32-10.65-5.25Zm-.22-17.17c0,5.25,3.6,9.45,8.77,9.45s8.78-4.2,8.78-9.45-3.6-9.38-8.78-9.38S4372.63,1997.49,4372.63,2002.82Z"/><path d="M4426.78,1996.14a12.52,12.52,0,0,0-8.48-3.52c-2.55,0-3.45,1.27-3.45,2.32,0,1.2.75,2,2.55,2.63l5.7,1.8c7,2.32,9.45,6.15,9.45,10.65,0,5-4.27,10.87-13.65,10.87a22.14,22.14,0,0,1-15.15-5.4l5.18-6.75a17,17,0,0,0,10.12,4.28c2.33,0,3.75-1.2,3.75-2.55,0-1.73-1.12-2.48-3.9-3.3l-5.85-1.73c-5.55-1.8-7.95-5.55-7.95-10,0-5.62,5.1-10.65,13.35-10.65a20.49,20.49,0,0,1,13.88,5.1Z"/><path d="M4450.55,2020h-9.75v-26.1H4436v-8.25h14.55Zm-5.32-52.5a6.29,6.29,0,0,1,6.3,6.3,6.27,6.27,0,0,1-12.53,0A6.28,6.28,0,0,1,4445.23,1967.49Z"/><path d="M4471.25,1972.59v13.05h7.43v8.25h-7.43v15.53c0,2.17,1.73,2.47,3.23,2.47,2.47,0,4.5-.22,4.5-.22V2020s-4.73.45-7.58.45c-4.87,0-9.9-.82-9.9-7.72v-18.83h-5.4v-8.25h5.4v-13.05Z"/><path d="M4519.1,2005.67h-25.57a8.15,8.15,0,0,0,14.77,3.37l10.13,1c-3.08,7.35-9.53,10.8-17.18,10.8-10.27,0-18-7.57-18-18.07s7.58-18.08,17.85-18.08c9.45,0,18,6.15,18,20.55Zm-25.8-6.53h15.38a7.46,7.46,0,0,0-7.58-6.3A7.67,7.67,0,0,0,4493.3,1999.14Z"/><line class="cls-7" x1="4673.62" y1="2149.32" x2="48.77" y2="2149.32"/><rect class="cls-2" x="3835.28" y="1233.25" width="729.62" height="595.71"/><rect class="cls-3" x="3835.11" y="1228.46" width="729.79" height="103"/><ellipse class="cls-4" cx="3960.99" cy="1278.16" rx="22.71" ry="23.23"/><ellipse class="cls-5" cx="4024.15" cy="1278.16" rx="22.71" ry="23.23"/><ellipse class="cls-6" cx="3894" cy="1278.16" rx="22.71" ry="23.23"/><rect class="cls-9" x="255.36" y="1229.32" width="630" height="442"/><polygon class="cls-9" points="959.36 1790.14 171.36 1790.14 255.36 1671.33 885.36 1671.33 959.36 1790.14"/><rect class="cls-10" x="288.36" y="1259.49" width="565" height="381.66"/><rect class="cls-9" x="171.36" y="1790.14" width="788" height="34.18"/><polygon class="cls-11" points="872.36 1751.33 267.36 1751.33 305.36 1686.33 836.36 1686.33 872.36 1751.33"/><line class="cls-8" x1="569.36" y1="1686.32" x2="569.36" y2="1751.32"/><line class="cls-8" x1="737.36" y1="1686.32" x2="752.36" y2="1751.32"/><line class="cls-8" x1="688.36" y1="1686.32" x2="696.36" y2="1751.32"/><line class="cls-8" x1="629.36" y1="1686.32" x2="633.36" y2="1751.32"/><line class="cls-8" x1="786.36" y1="1686.32" x2="811.36" y2="1751.32"/><line class="cls-8" x1="403.36" y1="1686.32" x2="388.36" y2="1751.32"/><line class="cls-8" x1="452.36" y1="1686.32" x2="444.36" y2="1751.32"/><line class="cls-8" x1="511.36" y1="1686.32" x2="507.36" y2="1751.32"/><line class="cls-8" x1="354.36" y1="1686.32" x2="329.36" y2="1751.32"/><line class="cls-8" x1="300.36" y1="1698.32" x2="840.36" y2="1698.32"/><line class="cls-8" x1="290.36" y1="1713.32" x2="850.36" y2="1713.32"/><line class="cls-8" x1="280.36" y1="1730.32" x2="859.36" y2="1730.32"/><polygon class="cls-8" points="760.36 1780.38 381.36 1780.38 386.36 1760.27 755.29 1760.27 760.36 1780.38"/><path class="cls-8" d="M478.34,1533.51a134.09,134.09,0,0,0,189.74,0"/><circle class="cls-12" cx="489.9" cy="1407.31" r="17.32"/><circle class="cls-12" cx="655.69" cy="1407.31" r="17.32"/><line class="cls-8" x1="654.21" y1="1323.87" x2="590.08" y2="1388"/><line class="cls-8" x1="498.6" y1="1323.87" x2="562.73" y2="1388"/><rect class="cls-9" x="2522.37" y="1229.32" width="630" height="442"/><polygon class="cls-9" points="3226.38 1790.14 2438.38 1790.14 2522.38 1671.33 3152.38 1671.33 3226.38 1790.14"/><rect class="cls-5" x="2555.37" y="1259.49" width="565" height="381.66"/><rect class="cls-9" x="2438.37" y="1790.14" width="788" height="34.18"/><polygon class="cls-11" points="3139.38 1751.33 2534.38 1751.33 2572.38 1686.33 3103.38 1686.33 3139.38 1751.33"/><line class="cls-8" x1="2836.37" y1="1686.32" x2="2836.37" y2="1751.32"/><line class="cls-8" x1="3004.37" y1="1686.32" x2="3019.37" y2="1751.32"/><line class="cls-8" x1="2955.37" y1="1686.32" x2="2963.37" y2="1751.32"/><line class="cls-8" x1="2896.37" y1="1686.32" x2="2900.37" y2="1751.32"/><line class="cls-8" x1="3053.37" y1="1686.32" x2="3078.37" y2="1751.32"/><line class="cls-8" x1="2670.37" y1="1686.32" x2="2655.37" y2="1751.32"/><line class="cls-8" x1="2719.37" y1="1686.32" x2="2711.37" y2="1751.32"/><line class="cls-8" x1="2778.37" y1="1686.32" x2="2774.37" y2="1751.32"/><line class="cls-8" x1="2621.37" y1="1686.32" x2="2596.37" y2="1751.32"/><line class="cls-8" x1="2567.37" y1="1698.32" x2="3107.37" y2="1698.32"/><line class="cls-8" x1="2557.37" y1="1713.32" x2="3117.37" y2="1713.32"/><line class="cls-8" x1="2547.37" y1="1730.32" x2="3126.37" y2="1730.32"/><polygon class="cls-8" points="3027.38 1780.38 2648.38 1780.38 2653.38 1760.27 3022.31 1760.27 3027.38 1780.38"/><path class="cls-8" d="M2742,1512.74a142.1,142.1,0,0,0,201.09,0"/><circle class="cls-12" cx="2754.23" cy="1379" r="18.36"/><circle class="cls-12" cx="2929.94" cy="1379" r="18.36"/><path class="cls-5" d="M2098.91,1615.37l23.93-5.06a3.73,3.73,0,0,0,2.86-4.42,3.68,3.68,0,0,0-4.36-2.9l-25.78,5.44"/><path class="cls-5" d="M2099.43,1611.64l-.72-24.8a3.69,3.69,0,1,0-7.37.23l.78,26.7"/><ellipse class="cls-5" cx="2089.24" cy="1622.82" rx="21.81" ry="22.29" transform="translate(-556.2 1633.02) rotate(-38.06)"/><path class="cls-5" d="M2094.81,1681.7a4.75,4.75,0,0,1,3.75-2.18l35.48-1.67,17.25-26.72a4.72,4.72,0,0,1,6.57-1.39,4.86,4.86,0,0,1,1.37,6.67l-18.58,28.77a4.74,4.74,0,0,1-3.75,2.17l-37.9,1.79a4.77,4.77,0,0,1-5-4.58A4.83,4.83,0,0,1,2094.81,1681.7Z"/><path class="cls-5" d="M2080.1,1697.61l0,0a4.7,4.7,0,0,1,6.59-1.3l31.61,21.66a4.87,4.87,0,0,1,1.32,6.63l-33.11,51.25a4.7,4.7,0,0,1-6.57,1.39,4.86,4.86,0,0,1-1.36-6.67l30.53-47.27-27.73-19A4.86,4.86,0,0,1,2080.1,1697.61Z"/><path class="cls-5" d="M2018,1782.93a4.7,4.7,0,0,1,4.4-2.15c10.09.92,20.45-1.64,30.79-7.61a70.41,70.41,0,0,0,11.42-8.2l-1.23-34a4.74,4.74,0,1,1,9.48-.36l1.31,36.22a4.84,4.84,0,0,1-1.37,3.56,73.91,73.91,0,0,1-14.65,11c-12,7-24.63,10.07-36.61,9a4.8,4.8,0,0,1-4.3-5.23A4.86,4.86,0,0,1,2018,1782.93Z"/><path class="cls-5" d="M2032.3,1640.13a4.85,4.85,0,0,0,.47-4.35l-12.64-33.67,17.25-26.72a4.85,4.85,0,0,0-1.36-6.66,4.7,4.7,0,0,0-6.57,1.38l-18.59,28.77a4.88,4.88,0,0,0-.46,4.36l13.5,36a4.71,4.71,0,0,0,8.4.93Z"/><path class="cls-5" d="M2023.79,1660.17l0-.05a4.87,4.87,0,0,0-1.46-6.65l-32.19-20.76a4.71,4.71,0,0,0-6.52,1.42l-33.1,51.25a4.85,4.85,0,0,0,1.37,6.67,4.72,4.72,0,0,0,6.57-1.39l30.53-47.28,28.24,18.22A4.71,4.71,0,0,0,2023.79,1660.17Z"/><path class="cls-5" d="M1971.46,1752a4.89,4.89,0,0,0,.2-5c-4.87-9-6.69-19.67-5.43-31.68a71.92,71.92,0,0,1,2.86-13.89l31.22-12.43a4.85,4.85,0,0,0,2.69-6.24,4.72,4.72,0,0,0-6.15-2.73l-33.25,13.24a4.78,4.78,0,0,0-2.68,2.7,76.54,76.54,0,0,0-4.09,18c-1.52,13.93.73,26.94,6.5,37.64a4.71,4.71,0,0,0,6.44,1.92A4.76,4.76,0,0,0,1971.46,1752Z"/><path class="cls-5" d="M1986.85,1691.59a49.85,49.85,0,0,0,14,68.42,48.28,48.28,0,0,0,67.44-14.24l38.29-59.28c14.75-22.83,10.87-57.19-11.63-72.15s-55.11-4.86-69.85,18Z"/><line class="cls-12" x1="2109.05" y1="1682.16" x2="2027.08" y2="1627.66"/><line class="cls-5" x1="2001.81" y1="1759.94" x2="2069.21" y2="1655.59"/><path class="cls-7" d="M2838.29,950.23C2322.23,556.85,1082.5,562.78,620.42,917"/><polyline class="cls-7" points="671.62 924.34 618.86 918.91 624.29 866.15"/><polyline class="cls-8" points="1938.95 1410.09 1959.42 1434.21 1989.82 1415.92"/><polyline class="cls-8" points="1930.98 1418.86 1947.51 1446.34 1922.52 1468.65"/><polyline class="cls-8" points="1924.13 1423.98 1926.44 1452.05 1897.95 1471.85"/><polyline class="cls-8" points="1933.98 1401.82 1922.27 1372.44 1952.66 1354.16"/><polyline class="cls-8" points="1922.5 1404.76 1905.97 1377.28 1874.55 1388.89"/><polyline class="cls-8" points="1914.77 1408.41 1891.05 1393.21 1860.21 1409.11"/><path class="cls-5" d="M1870.45,1424.47a18.73,18.73,0,1,0,19.31,32.1l11.67-7a18.73,18.73,0,0,0-19.31-32.1Z"/><path class="cls-5" d="M1912.45,1404.84a13.9,13.9,0,1,0,14.33,23.83l15.81-9.51a13.9,13.9,0,0,0-14.33-23.83Z"/><path class="cls-5" d="M1951.61,1378.85a5.83,5.83,0,0,0-6.15,3.06c-2.28,4.53-1.57,11.56,2.27,17.94s9.69,10.28,14.75,10.4a5.79,5.79,0,0,0,5.6-4l1.59-4.9a16.7,16.7,0,0,0-13.16-21.64Z"/><line class="cls-13" x1="1386.68" y1="1544.37" x2="1862.22" y2="1544.37"/><line class="cls-8" x1="1386.68" y1="1393.96" x2="1766.78" y2="1393.96"/><line class="cls-8" x1="1386.68" y1="1449.77" x2="1766.78" y2="1449.77"/><line class="cls-8" x1="1386.68" y1="1599.07" x2="1855.52" y2="1599.07"/><line class="cls-8" x1="1386.68" y1="1651.93" x2="1855.52" y2="1651.93"/><line class="cls-8" x1="1386.68" y1="1707.35" x2="1855.52" y2="1707.35"/><line class="cls-8" x1="1386.68" y1="1764.21" x2="1855.52" y2="1764.21"/><path class="cls-14" d="M1409.26,1520.08l3.29-14h6.3l-5.6,21.52H1406l-3.76-13.44-3.86,13.44h-7.19l-5.26-21.52h6.58l2.87,13.81,4-13.81h6Z"/><path class="cls-14" d="M1443.9,1520.08l3.29-14h6.3l-5.6,21.52h-7.23l-3.76-13.44L1433,1527.6h-7.19l-5.26-21.52h6.58l2.86,13.81,4-13.81h6Z"/><path class="cls-14" d="M1478.54,1520.08l3.29-14h6.29l-5.59,21.52h-7.24l-3.76-13.44-3.85,13.44h-7.19l-5.26-21.52h6.58l2.86,13.81,4-13.81h6Z"/><path class="cls-14" d="M1494.28,1520a4.09,4.09,0,1,1-4.09,4.09A4.09,4.09,0,0,1,1494.28,1520Z"/><path class="cls-14" d="M1508,1516.84c0,3.38,2.21,5.87,5.4,5.87a4.93,4.93,0,0,0,4.75-3.29l5.73,1.79c-1.4,4.27-5.63,7-10.52,7a11.33,11.33,0,1,1,0-22.65c4.89,0,9.12,2.73,10.52,7l-5.73,1.74a5,5,0,0,0-4.75-3.29C1510.17,1511,1508,1513.45,1508,1516.84Z"/><path class="cls-14" d="M1526.1,1516.84a11.52,11.52,0,1,1,11.52,11.32A11.2,11.2,0,0,1,1526.1,1516.84Zm6.11,0c0,3.33,2.21,5.87,5.41,5.87s5.35-2.54,5.35-5.87-2.2-5.88-5.35-5.88S1532.21,1513.45,1532.21,1516.84Z"/><path class="cls-14" d="M1568.87,1524.87a7.87,7.87,0,0,1-6.72,3.29c-5.92,0-10.43-4.74-10.43-11.32s4.46-11.33,10.38-11.33c3.29,0,5.78,1.51,6.86,3.34,0-.71-.09-2.49-.09-4.09V1494.7H1575v32.9h-6.11Zm-10.86-8c0,3.29,2.26,5.92,5.5,5.92s5.5-2.63,5.5-5.92-2.25-5.88-5.5-5.88S1558,1513.5,1558,1516.84Z"/><path class="cls-14" d="M1601.35,1518.62h-16a5.11,5.11,0,0,0,9.26,2.12l6.34.66c-1.92,4.6-6,6.76-10.76,6.76a11.33,11.33,0,0,1-.09-22.65c5.92,0,11.28,3.86,11.28,12.88Zm-16.17-4.09h9.63a4.65,4.65,0,0,0-4.74-3.94A4.79,4.79,0,0,0,1585.18,1514.53Z"/><path class="cls-14" d="M1609.71,1516.84c0,3.38,2.21,5.87,5.41,5.87a4.92,4.92,0,0,0,4.74-3.29l5.74,1.79c-1.41,4.27-5.64,7-10.53,7a11.33,11.33,0,1,1,0-22.65c4.89,0,9.12,2.73,10.53,7l-5.74,1.74a5,5,0,0,0-4.74-3.29C1611.92,1511,1609.71,1513.45,1609.71,1516.84Z"/><path class="cls-14" d="M1641.16,1513.27c0-1.56-1.23-2.54-3.58-2.54a14.62,14.62,0,0,0-6.48,2l-2.4-4.61a18.45,18.45,0,0,1,9.21-2.63c4.89,0,9.36,2.26,9.36,7.94v14.15h-6.11v-2c-1.13,1.69-3.58,2.58-6,2.58-4.56,0-7.52-3.24-7.52-6.76,0-4.09,3-6.63,7.8-6.63h4.23c1,0,1.51-.47,1.51-1.27Zm0,6.62v-1.55a2.65,2.65,0,0,1-1.88.47H1637c-1.92,0-3,.85-3,2.35s1.17,2.54,3,2.54C1639.18,1523.7,1641.16,1522.57,1641.16,1519.89Z"/><path class="cls-14" d="M1668.13,1524.87a7.87,7.87,0,0,1-6.72,3.29c-5.92,0-10.43-4.74-10.43-11.32s4.46-11.33,10.39-11.33c3.29,0,5.78,1.51,6.86,3.34,0-.71-.1-2.49-.1-4.09V1494.7h6.11v32.9h-6.11Zm-10.85-8c0,3.29,2.25,5.92,5.5,5.92s5.49-2.63,5.49-5.92-2.25-5.88-5.49-5.88S1657.28,1513.5,1657.28,1516.84Z"/><path class="cls-14" d="M1700.61,1518.62h-16a5.11,5.11,0,0,0,9.26,2.12l6.35.66c-1.93,4.6-6,6.76-10.77,6.76a11.33,11.33,0,0,1-.09-22.65c5.92,0,11.28,3.86,11.28,12.88Zm-16.17-4.09h9.64a4.66,4.66,0,0,0-4.75-3.94A4.8,4.8,0,0,0,1684.44,1514.53Z"/><path class="cls-14" d="M1732.52,1515a3.4,3.4,0,0,0-3.57-3.76,5.86,5.86,0,0,0-4.47,2.44v14h-6.1V1515a3.41,3.41,0,0,0-3.58-3.76,5.83,5.83,0,0,0-4.46,2.44v14h-6.11v-21.52h6v.84c0,.75-.1,1.69-.1,1.69a8.36,8.36,0,0,1,6.44-3.1c3.2,0,5.69,1.36,6.91,3.9a8.65,8.65,0,0,1,7.24-3.9c4.65,0,7.94,3,7.94,8v14.1h-6.11Z"/><path class="cls-14" d="M1750.15,1527.6h-1.55l-7.38-21.52H1748l4.56,15.32,4.61-15.32h6.62l-8.6,24.9c-1.08,3.15-2.77,4.84-6.72,4.84h-4.23v-5.12h3a2.25,2.25,0,0,0,2.4-1.69Z"/><path class="cls-14" d="M1769.18,1520a4.09,4.09,0,1,1-4.09,4.09A4.09,4.09,0,0,1,1769.18,1520Z"/><path class="cls-14" d="M1782.86,1516.84c0,3.38,2.21,5.87,5.4,5.87a4.93,4.93,0,0,0,4.75-3.29l5.73,1.79c-1.41,4.27-5.64,7-10.52,7a11.33,11.33,0,1,1,0-22.65c4.88,0,9.11,2.73,10.52,7l-5.73,1.74a5,5,0,0,0-4.75-3.29C1785.07,1511,1782.86,1513.45,1782.86,1516.84Z"/><path class="cls-14" d="M1801,1516.84a11.52,11.52,0,1,1,11.52,11.32A11.2,11.2,0,0,1,1801,1516.84Zm6.11,0c0,3.33,2.21,5.87,5.41,5.87s5.35-2.54,5.35-5.87-2.21-5.88-5.35-5.88S1807.11,1513.45,1807.11,1516.84Z"/><path class="cls-14" d="M1856.22,1515a3.4,3.4,0,0,0-3.57-3.76,5.83,5.83,0,0,0-4.46,2.44v14h-6.11V1515a3.41,3.41,0,0,0-3.57-3.76,5.86,5.86,0,0,0-4.47,2.44v14h-6.11v-21.52h6v.84c0,.75-.09,1.69-.09,1.69a8.32,8.32,0,0,1,6.43-3.1c3.2,0,5.69,1.36,6.91,3.9a8.65,8.65,0,0,1,7.24-3.9c4.65,0,7.94,3,7.94,8v14.1h-6.11Z"/><rect class="cls-3" x="1606.38" y="1254.48" width="70.93" height="48.71"/><polyline class="cls-8" points="1607.33 1255.07 1642.31 1281.86 1677.31 1254.48"/><g class="cls-15"><path class="cls-16" d="M3930.91,1461.11c-1.08-3.28-1.61-7.42-1.61-13s.53-9.71,1.61-13c3-9.38,11-14.51,21.51-14.51,7.78,0,13.94,3.16,18,8.19a1.06,1.06,0,0,1-.11,1.52l-6.81,6a1,1,0,0,1-1.51-.21c-2.6-2.95-5.3-4.59-9.62-4.59-4.65,0-8.21,2.29-9.73,6.88-.86,2.62-1.08,5.68-1.08,9.71s.22,7.21,1.08,9.83c1.52,4.47,5.08,6.76,9.73,6.76,4.32,0,7-1.64,9.62-4.58a1,1,0,0,1,1.51-.11l6.81,6c.54.44.43,1,.11,1.53a22.86,22.86,0,0,1-18,8.07c-10.48,0-18.49-5.13-21.51-14.51"/><path class="cls-16" d="M4167.05,1461.11c-1.09-3.28-1.62-7.42-1.62-13s.53-9.71,1.62-13c3-9.38,11-14.51,21.5-14.51,7.78,0,13.95,3.16,18.05,8.19a1.05,1.05,0,0,1-.11,1.52l-6.81,6a1,1,0,0,1-1.51-.21c-2.59-2.95-5.3-4.59-9.62-4.59-4.64,0-8.21,2.29-9.72,6.88-.87,2.62-1.08,5.68-1.08,9.71s.21,7.21,1.08,9.83c1.51,4.47,5.08,6.76,9.72,6.76,4.32,0,7-1.64,9.62-4.58a1,1,0,0,1,1.51-.11l6.81,6c.55.44.43,1,.11,1.53a22.84,22.84,0,0,1-18.05,8.07c-10.48,0-18.48-5.13-21.5-14.51"/><path class="cls-16" d="M4440,1474.43a1,1,0,0,1-1.08-1.1V1443c0-6.76-3.35-11.46-9.84-11.46-6.26,0-9.93,4.7-9.93,11.46v30.34a1,1,0,0,1-1.08,1.1h-9.95a1,1,0,0,1-1.08-1.1V1443c0-6.76-3.35-11.46-9.83-11.46-6.27,0-9.95,4.7-9.95,11.46v30.34a1,1,0,0,1-1.08,1.1h-9.94a1,1,0,0,1-1.08-1.1v-50.42a1,1,0,0,1,1.08-1.09h9.94a1,1,0,0,1,1.08,1.09v3.82h.11c2.28-3.28,6.81-6.11,13.73-6.11,6.16,0,11.13,2.51,14.26,7h.11c4-4.36,9.19-7,16.65-7,12.1,0,18.91,8.29,18.91,19.54v33.17a1,1,0,0,1-1.09,1.1Z"/><path class="cls-16" d="M4466,1494.07a1,1,0,0,1-1.08-1.09v-8.73a1,1,0,0,1,1.08-1.1H4468c4.1,0,6.16-1.85,7.78-6.22l1.52-4.47-19-49.55c-.22-.66.22-1.09.87-1.09h10.7a1.36,1.36,0,0,1,1.29,1.09l11.78,34.38h.21l11.25-34.38a1.36,1.36,0,0,1,1.29-1.09h10.26c.66,0,1.09.43.87,1.09l-19.88,54.79c-4.54,12.44-8.86,16.37-17.51,16.37Z"/><path class="cls-16" d="M4011.63,1457.84c.87-2.73,1.09-5.24,1.09-9.72s-.22-6.86-1.09-9.7a9.63,9.63,0,0,0-9.72-6.88,9.77,9.77,0,0,0-9.83,6.88c-.86,2.84-1.08,5.24-1.08,9.7s.22,7,1.08,9.72a9.75,9.75,0,0,0,9.83,6.87,9.61,9.61,0,0,0,9.72-6.87m-31.21,3.27a49.56,49.56,0,0,1,0-26c2.91-9.17,10.9-14.52,21.49-14.52s18.47,5.35,21.39,14.52a49.56,49.56,0,0,1,0,26c-2.92,9.17-10.91,14.51-21.39,14.51s-18.58-5.34-21.49-14.51"/><path class="cls-16" d="M4235.56,1420.62c-8.54,0-14.27,2.07-18.48,5.13a1,1,0,0,0-.22,1.41l4,7.21a1,1,0,0,0,1.52.22c2.48-2,6-3.61,11.88-3.61,8.52,0,11.41,2.59,11.56,8.26v17.51c0,6-4.1,8.94-11.56,8.94-5.84,0-9-2.18-9-6.54,0-4.92,3.46-7.1,11.24-7.1h2.37A1,1,0,0,0,4240,1451v-7a1,1,0,0,0-1.08-1.09h-4.31c-12.86,0-20.86,5.25-20.86,16.7,0,11,8,16,17.51,16,7.34,0,12.21-2.5,14.69-6.11h.11v3.82a1,1,0,0,0,1.08,1.1h9.08a1,1,0,0,0,1.08-1.1V1439c0-12.88-5.84-18.34-21.72-18.34"/><path class="cls-16" d="M4106.45,1442.88a.44.44,0,0,0-.47.47v8.23a.44.44,0,0,0,.47.47h26.76a1.06,1.06,0,0,0,1.19-1.08c0-8.52-.54-12.13-1.73-15.84-2.92-9-10.7-14.51-21.4-14.51-10.37,0-18.37,5.34-21.29,14.51a42.66,42.66,0,0,0-1.73,13,40.83,40.83,0,0,0,1.85,12.88c2.91,9.17,10.69,14.62,21.71,14.62,9.62,0,17-3.71,21.4-8.95a1,1,0,0,0-.11-1.52l-6.37-5.68c-.55-.43-1.08-.32-1.63.22-2.59,2.84-6.37,5-12.21,5s-9.94-2.84-11.66-8a13.24,13.24,0,0,1-.62-2.29,40.78,40.78,0,0,1-.63-7.56,46.17,46.17,0,0,1,.69-7.34s0-.06,0-.09v-.08h0a12.47,12.47,0,0,1,.43-1.65c1.4-4.26,5.29-6.77,10.26-6.77s8.75,2.51,10.16,6.77a13.61,13.61,0,0,1,.64,4.48.57.57,0,0,1-.64.65h-15.09Z"/><path class="cls-16" d="M4078.21,1400.21h-9.93a1,1,0,0,0-1.08,1.08V1451h-.06a24.85,24.85,0,0,1-1,6.84c-1.4,4.35-4.75,6.75-9.71,6.75s-8.2-2.4-9.61-6.75c-.75-2.4-1.07-5-1.07-9.81s.32-7.41,1.07-9.8c1.38-4.28,4.62-6.69,9.32-6.78h4.23a.44.44,0,0,0,.35-.45l.05-10a.44.44,0,0,0-.4-.46H4053c-8.7.09-15.06,4.34-17.73,12.63-1.3,4-1.83,7.75-1.83,14.83s.53,10.79,1.83,14.82c2.7,8.39,9.17,12.64,18,12.64,7,0,11.33-2.61,13.81-6.21h.11v3.92a1,1,0,0,0,1.08,1.09h9.93a1,1,0,0,0,1.08-1.09v-71.93a1,1,0,0,0-1.08-1.08"/><path class="cls-16" d="M4338.42,1442.88a.45.45,0,0,0-.47.47v8.23a.45.45,0,0,0,.47.47h26.76a1.06,1.06,0,0,0,1.19-1.08c0-8.52-.54-12.13-1.72-15.84-2.93-9-10.71-14.51-21.4-14.51-10.38,0-18.37,5.34-21.3,14.51a42.66,42.66,0,0,0-1.73,13,40.83,40.83,0,0,0,1.85,12.88c2.91,9.17,10.69,14.62,21.72,14.62,9.61,0,17-3.71,21.39-8.95a1,1,0,0,0-.11-1.52l-6.37-5.68c-.54-.43-1.08-.32-1.62.22-2.59,2.84-6.38,5-12.21,5s-9.94-2.84-11.67-8a13.24,13.24,0,0,1-.62-2.29,40.88,40.88,0,0,1-.62-7.56,45.1,45.1,0,0,1,.68-7.34s0-.06,0-.09v-.08h0a11.07,11.07,0,0,1,.42-1.65c1.4-4.26,5.29-6.77,10.27-6.77s8.75,2.51,10.15,6.77a13.59,13.59,0,0,1,.65,4.48.58.58,0,0,1-.65.65h-15.09Z"/><path class="cls-16" d="M4310.69,1400.21h-9.94a1,1,0,0,0-1.08,1.09v49.8h-.05a25.19,25.19,0,0,1-1,6.84c-1.4,4.37-4.76,6.77-9.72,6.77s-8.22-2.4-9.63-6.77c-.75-2.4-1.07-5-1.07-9.82s.32-7.42,1.07-9.82c1.39-4.27,4.63-6.67,9.33-6.76h4.24a1,1,0,0,0,1.09-1.09v-8.74a1,1,0,0,0-1.09-1.09h-7.37c-8.71.09-15.09,4.34-17.76,12.66-1.3,4-1.83,7.75-1.83,14.84s.53,10.81,1.83,14.84c2.7,8.41,9.19,12.66,18,12.66,7,0,11.35-2.61,13.83-6.22h.11v3.93a1,1,0,0,0,1.08,1.09h9.94a1,1,0,0,0,1.09-1.09v-72a1,1,0,0,0-1.09-1.09"/><path class="cls-16" d="M4166.23,1489.31v9.94a1,1,0,0,0,1.09,1.09h36.85a1,1,0,0,0,1.09-1.09v-9.94a1,1,0,0,0-1.09-1.08h-36.85a1,1,0,0,0-1.09,1.08"/><path class="cls-16" d="M3919.75,1488.22a.82.82,0,0,1-.22,0h0l-.17,0h0a1,1,0,0,1-.63-1V1387.3a1,1,0,0,1,.62-1l0,0,.21,0,.23,0H4144l.22,0,.06,0,.15,0,0,0a1,1,0,0,1,.61,1v99.85a1,1,0,0,1-.61,1h0l-.15,0h-.07a.78.78,0,0,1-.22,0Zm237.13-113.76,0,0,0,0a1.1,1.1,0,0,0-.78-.29h-248.4l-.23,0-.06,0-.15,0h0a1,1,0,0,0-.62,1h0v124h0a1,1,0,0,0,.4.86l0,0h0a1.13,1.13,0,0,0,.62.17h248.4a1,1,0,0,0,.85-.38,1.08,1.08,0,0,0,.24-.7h0v-124h0a1.1,1.1,0,0,0-.26-.73"/></g><polygon class="cls-17" points="4127.91 1775.77 3908.82 1775.77 4127.91 1551.11 4127.91 1775.77"/><circle class="cls-18" cx="4024.11" cy="1659.45" r="79.51"/><rect class="cls-19" x="3905.65" y="1593.63" width="98.58" height="24.05"/><rect class="cls-19" x="3905.65" y="1634.87" width="98.58" height="24.05"/><rect class="cls-19" x="3905.65" y="1550.26" width="98.58" height="24.05"/><rect class="cls-3" x="4204.94" y="1550.51" width="303.07" height="51.85"/><rect class="cls-3" x="4204.94" y="1642.31" width="303.07" height="51.85"/><rect class="cls-18" x="4204.94" y="1729.73" width="178.27" height="51.85"/><polyline class="cls-8" points="1600.46 1756.25 1603.02 1730.02 1574.45 1722.44"/><polyline class="cls-8" points="1610.33 1755.94 1617.18 1730.11 1645.03 1732.12"/><polyline class="cls-8" points="1617.37 1757.07 1632.82 1739.4 1661.18 1744.97"/><polyline class="cls-8" points="1598.4 1764.02 1587.62 1788.07 1559.05 1780.49"/><polyline class="cls-8" points="1606.82 1769.19 1599.96 1795.01 1625.14 1807.08"/><polyline class="cls-8" points="1613.49 1771.69 1618.15 1794.7 1645.54 1803.93"/><path class="cls-5" d="M1648.8,1788.89a15.6,15.6,0,1,0,8-30.16l-11-2.91a15.6,15.6,0,0,0-8,30.16Z"/><path class="cls-5" d="M1612.69,1775.15a11.58,11.58,0,0,0,6-22.39l-14.86-3.94a11.58,11.58,0,1,0-5.94,22.39Z"/><path class="cls-5" d="M1574.44,1766.8a4.83,4.83,0,0,0,5.39,1.9c4-1.26,7.82-5.76,9.42-11.76s.53-11.75-2.33-14.85a4.84,4.84,0,0,0-5.67-1l-3.86,1.89a13.91,13.91,0,0,0-5.31,20.43Z"/><rect class="cls-20" x="3264.39" y="1227.27" width="465" height="180.95"/><circle class="cls-21" cx="3355.1" cy="1317.05" r="72.27"/><g class="cls-22"><polygon class="cls-23" points="3373.13 1365.93 3338.91 1365.35 3340.14 1352.01 3341.39 1341 3370.09 1340.61 3371.83 1352.11 3373.13 1365.93"/><path class="cls-24" d="M3380.45,1426.22h-45.27v-69s10.88,3.76,21.55,3.76a88.2,88.2,0,0,0,23.72-3.76Z"/><path class="cls-24" d="M3380.45,1428.53h-45.27v-65.64s10.88,4.08,21.55,4.08a82,82,0,0,0,23.72-4.08Z"/><path class="cls-23" d="M3381.66,1299.53a7.91,7.91,0,0,1,8.22-.87c3.24,1.56,3.62,5.08,2.06,9,0,0,3.59,11.25-5.34,11.24-8.55,0-6.86-5.21-6.86-5.21"/><path class="cls-25" d="M3383.29,1315.07s-.32-2.28,1.56-2.52a2.3,2.3,0,0,1,2.42,1.91s3-.29,2.2-4.66"/><path class="cls-25" d="M3383.78,1301.93s6.65-2.11,5.54,4.48"/><line class="cls-25" x1="3386.69" y1="1305.29" x2="3384.28" y2="1310.53"/><path class="cls-23" d="M3330.86,1298.5a7.9,7.9,0,0,0-8.18-1.18c-3.3,1.44-3.81,4.94-2.4,8.94,0,0-4,11.1,4.91,11.43,8.55.32,7.06-5,7.06-5"/><path class="cls-25" d="M3328.64,1314s.41-2.27-1.45-2.58a2.3,2.3,0,0,0-2.5,1.81s-3-.39-2-4.73"/><path class="cls-25" d="M3328.65,1300.82s-6.57-2.36-5.7,4.27"/><line class="cls-25" x1="3325.61" y1="1304.06" x2="3327.83" y2="1309.39"/><path class="cls-23" d="M3385.36,1298.58c-1.16-1.61-.47-3.75.64-9,.79-3.81,1.16-6.57-.43-11.44-2.21-6.77-11.65-15.68-28.17-15.89-19.49-.25-29.08,12.55-30.14,18.48-.71,4-.21,5.14.06,8.64.22,3,1.29,7.14.17,8.42-2.54,2.94-2.92,6.57-3,9.65-.26,8.38,4.92,15.12,4.92,15.12l.88,10s.07,11.9,10.95,14.36c.93,1.74,3.5,4,10.58,4.14l7.4.14c7.25.13,9.86-2.14,10.79-3.86,10.39-2.18,11.12-14.14,11.12-14.14l1.06-9.67a26.7,26.7,0,0,0,5.44-13.71C3387.85,1306.38,3388,1302.23,3385.36,1298.58Z"/><path class="cls-25" d="M3353.93,1308.59s-10.17,10-6.46,15.47c1.59,2.37,5.49,0,5.49,0a4.53,4.53,0,0,0,5.92.11s2.64,1.57,4.69-.33"/><path class="cls-25" d="M3345.92,1333.3a14.17,14.17,0,0,0,20.06.37"/><path class="cls-23" d="M3327.49,1297.74c1.12-1.28.05-5.47-.17-8.42-.27-3.5-.77-4.66-.06-8.64,1.06-5.93,10.65-18.73,30.14-18.48,16.52.21,26,9.12,28.17,15.89,1.59,4.87,1.22,7.63.43,11.44l-1.17,6.46s-11-6.46-10.91-16.84l-33.84.21s-.53,7.24-2.86,11.12C3335.07,1294.06,3327.49,1297.74,3327.49,1297.74Z"/><path class="cls-25" d="M3377.92,1307.7a8.65,8.65,0,1,0-17.3,0"/><circle class="cls-26" cx="3369.02" cy="1306.8" r="2.31"/><path class="cls-25" d="M3351.08,1307.7a8.65,8.65,0,1,0-17.29,0"/><circle class="cls-26" cx="3342.18" cy="1306.8" r="2.31"/><path class="cls-25" d="M3334.82,1293.56a22.79,22.79,0,0,1,7.52-1.06,29.11,29.11,0,0,1,7.52,1.06"/><path class="cls-25" d="M3361.4,1293.56a22.86,22.86,0,0,1,7.52-1.06,29,29,0,0,1,7.52,1.06"/><path class="cls-23" d="M3331.56,1352.23c-23.3,0-32,6.51-35.09,15.54-4,11.51-7.33,22.93-7.33,22.93l-9.44,36.1,156.62-.87-10.14-37.1s-4.73-14.32-6.88-19.17c-3.59-8.08-7.39-17.43-30.69-17.43h-16.8l-2.51,73.8h-22.17l-7-73.81Z"/><polyline class="cls-23" points="3378.72 1352.01 3389.35 1371.14 3381.04 1385.25 3389.55 1398.2 3376.41 1425.83"/><polyline class="cls-23" points="3334.08 1352.01 3323.46 1371.14 3331.76 1385.25 3323.26 1398.2 3336.4 1425.83"/></g><circle class="cls-12" cx="3355.1" cy="1317.05" r="72.27"/><rect class="cls-12" x="3468.39" y="1255.2" width="235" height="49"/><rect class="cls-12" x="3468.39" y="1330.2" width="235" height="49"/><circle cx="3494.39" cy="1280.2" r="8"/><circle cx="3520.39" cy="1280.2" r="8"/><circle cx="3544.39" cy="1280.2" r="8"/><circle cx="3569.39" cy="1280.2" r="8"/><circle cx="3595.39" cy="1280.2" r="8"/><circle cx="3494.39" cy="1354.2" r="8"/><circle cx="3520.39" cy="1354.2" r="8"/><circle cx="3544.39" cy="1354.2" r="8"/><circle cx="3569.39" cy="1354.2" r="8"/><circle cx="3595.39" cy="1354.2" r="8"/><circle cx="3619.39" cy="1354.2" r="8"/><rect class="cls-20" x="1348.63" y="563.46" width="641.69" height="249.71"/><circle class="cls-21" cx="1473.81" cy="687.35" r="99.73"/><g class="cls-27"><polygon class="cls-23" points="1498.68 754.8 1451.46 754 1453.15 735.6 1454.89 720.4 1494.49 719.87 1496.89 735.73 1498.68 754.8"/><path class="cls-24" d="M1508.79,838h-62.47V742.8s15,5.18,29.73,5.18c16.64,0,32.74-5.18,32.74-5.18Z"/><path class="cls-24" d="M1508.79,841.19h-62.47V750.62s15,5.63,29.73,5.63c16.64,0,32.74-5.63,32.74-5.63Z"/><path class="cls-23" d="M1510.46,663.18A10.91,10.91,0,0,1,1521.8,662c4.47,2.16,5,7,2.84,12.46,0,0,5,15.51-7.36,15.51-11.81,0-9.47-7.19-9.47-7.19"/><path class="cls-25" d="M1512.71,684.63s-.44-3.15,2.14-3.48c1.37-.17,2.79.67,3.35,2.62,0,0,4.19-.38,3-6.41"/><path class="cls-25" d="M1513.39,666.49s9.17-2.91,7.63,6.19"/><line class="cls-25" x1="1517.4" y1="671.12" x2="1514.08" y2="678.36"/><path class="cls-23" d="M1440.35,661.75a10.92,10.92,0,0,0-11.28-1.63c-4.56,2-5.26,6.83-3.31,12.34,0,0-5.54,15.32,6.77,15.78,11.8.44,9.74-6.83,9.74-6.83"/><path class="cls-25" d="M1437.3,683.1s.56-3.13-2-3.55c-1.36-.23-2.81.56-3.45,2.49,0,0-4.17-.54-2.79-6.52"/><path class="cls-25" d="M1437.3,665s-9.06-3.25-7.86,5.9"/><line class="cls-25" x1="1433.11" y1="669.43" x2="1436.17" y2="676.79"/><path class="cls-23" d="M1515.56,661.87c-1.6-2.23-.64-5.18.88-12.5,1.1-5.26,1.61-9.06-.58-15.78-3-9.35-16.08-21.64-38.88-21.93-26.9-.34-40.13,17.32-41.59,25.51-1,5.49-.29,7.09.07,11.91.31,4.08,1.78,9.86.25,11.63-3.51,4-4,9.07-4.16,13.32-.35,11.55,6.79,20.86,6.79,20.86l1.22,13.83s.1,16.41,15.11,19.81c1.28,2.4,4.83,5.53,14.6,5.71l10.21.19c10,.19,13.6-2.95,14.89-5.32,14.34-3,15.35-19.51,15.35-19.51l1.45-13.34s6.78-8.18,7.51-18.93C1519,672.62,1519.19,666.9,1515.56,661.87Z"/><path class="cls-25" d="M1472.19,675.68s-14,13.73-8.92,21.34c2.2,3.27,7.58,0,7.58,0s4,3.62,8.17.15c0,0,3.65,2.17,6.47-.46"/><path class="cls-25" d="M1461.13,709.77a19.57,19.57,0,0,0,27.69.52"/><path class="cls-23" d="M1435.71,660.71c1.53-1.77.06-7.55-.25-11.63-.36-4.82-1-6.42-.07-11.91,1.46-8.19,14.69-25.85,41.59-25.51,22.8.29,35.83,12.58,38.88,21.93,2.19,6.72,1.68,10.52.58,15.78l-1.61,8.92s-15.2-8.92-15-23.24l-46.7.29s-.73,10-3.95,15.35C1446.17,655.63,1435.71,660.71,1435.71,660.71Z"/><path class="cls-25" d="M1505.29,674.45a11.94,11.94,0,0,0-23.87,0"/><circle class="cls-26" cx="1493.01" cy="673.21" r="3.19"/><path class="cls-25" d="M1468.26,674.45a11.94,11.94,0,0,0-23.87,0"/><circle class="cls-26" cx="1455.98" cy="673.21" r="3.19"/><path class="cls-25" d="M1445.81,654.94a31.54,31.54,0,0,1,10.38-1.46,40.15,40.15,0,0,1,10.38,1.46"/><path class="cls-25" d="M1482.5,654.94a31.54,31.54,0,0,1,10.38-1.46,40.25,40.25,0,0,1,10.38,1.46"/><path class="cls-23" d="M1441.32,735.91c-32.16,0-44.12,9-48.43,21.43-5.5,15.89-10.11,31.65-10.11,31.65l-13,49.82,216.13-1.2-14-51.21s-6.53-19.75-9.5-26.44c-5-11.16-10.2-24.05-42.35-24.05h-23.19l-3.47,101.83H1462.8l-9.67-101.86Z"/><polyline class="cls-23" points="1506.4 735.6 1521.07 762 1509.61 781.47 1521.34 799.34 1503.2 837.47"/><polyline class="cls-23" points="1444.8 735.6 1430.14 762 1441.6 781.47 1429.87 799.34 1448 837.47"/></g><circle class="cls-12" cx="1473.81" cy="687.35" r="99.73"/><rect class="cls-12" x="1630.14" y="602" width="324.29" height="67.62"/><rect class="cls-12" x="1630.14" y="705.5" width="324.29" height="67.62"/><circle cx="1666.02" cy="636.5" r="11.04"/><circle cx="1701.9" cy="636.5" r="11.04"/><circle cx="1735.02" cy="636.5" r="11.04"/><circle cx="1769.52" cy="636.5" r="11.04"/><circle cx="1805.4" cy="636.5" r="11.04"/><circle cx="1666.02" cy="738.62" r="11.04"/><circle cx="1701.9" cy="738.62" r="11.04"/><circle cx="1735.02" cy="738.62" r="11.04"/><circle cx="1769.52" cy="738.62" r="11.04"/><circle cx="1805.4" cy="738.62" r="11.04"/><circle cx="1838.52" cy="738.62" r="11.04"/></svg>