<svg id="Layer_1" data-name="Layer 1" xmlns="http://www.w3.org/2000/svg" xmlns:xlink="http://www.w3.org/1999/xlink" viewBox="0 0 4871.1 1781.58"><defs><style>.cls-1,.cls-13,.cls-14,.cls-7{fill:none;}.cls-2{fill:#fff;}.cls-10,.cls-11,.cls-12,.cls-13,.cls-14,.cls-15,.cls-16,.cls-17,.cls-18,.cls-2,.cls-20,.cls-21,.cls-22,.cls-23,.cls-3,.cls-4,.cls-5,.cls-6,.cls-7,.cls-8,.cls-9{stroke:#000;}.cls-10,.cls-11,.cls-12,.cls-13,.cls-15,.cls-16,.cls-2,.cls-22,.cls-23,.cls-3,.cls-4,.cls-5,.cls-7,.cls-8,.cls-9{stroke-linecap:round;}.cls-10,.cls-11,.cls-12,.cls-13,.cls-15,.cls-16,.cls-2,.cls-20,.cls-22,.cls-23,.cls-3,.cls-4,.cls-5,.cls-7,.cls-8,.cls-9{stroke-linejoin:round;}.cls-10,.cls-11,.cls-12,.cls-13,.cls-14,.cls-15,.cls-16,.cls-17,.cls-18,.cls-2,.cls-3,.cls-4,.cls-5,.cls-6,.cls-8,.cls-9{stroke-width:6px;}.cls-3{fill:#c9c9c9;}.cls-4{fill:#ffd400;}.cls-17,.cls-5{fill:#00feb9;}.cls-6{fill:#ff0a28;}.cls-14,.cls-17,.cls-18,.cls-21,.cls-6{stroke-miterlimit:10;}.cls-7{stroke-width:7px;}.cls-8{fill:#005aff;}.cls-9{fill:#9d0fab;}.cls-10{fill:#ff8400;}.cls-11{fill:#b2b2b2;}.cls-12{fill:#666;}.cls-15{fill:#00f39e;}.cls-16{fill:#e6e6e6;}.cls-18{fill:#ff71f5;}.cls-19{clip-path:url(#clip-path);}.cls-20,.cls-21,.cls-22{stroke-width:4px;}.cls-23{stroke-width:3px;}</style><clipPath id="clip-path"><circle class="cls-1" cx="4011.75" cy="594.65" r="49"/></clipPath></defs><rect class="cls-2" x="199.38" y="410.48" width="1028.47" height="595.71"/><rect class="cls-3" x="199.14" y="405.69" width="1028.72" height="103"/><ellipse class="cls-4" cx="325.01" cy="455.39" rx="22.71" ry="23.23"/><ellipse class="cls-5" cx="388.18" cy="455.39" rx="22.71" ry="23.23"/><ellipse class="cls-6" cx="258.02" cy="455.39" rx="22.71" ry="23.23"/><rect class="cls-4" x="285.95" y="539.16" width="697.67" height="101.66"/><rect class="cls-3" x="617.49" y="671.44" width="470.83" height="101.66"/><rect class="cls-3" x="617.49" y="816.24" width="515.89" height="139.37"/><path d="M199.5,1491.65h15.15V1540h10.27v4.13H199.58V1540h10.34v-44.24H199.5Z"/><path d="M239,1536a4.54,4.54,0,1,1-4.5,4.58A4.55,4.55,0,0,1,239,1536Z"/><path d="M274.27,1525.62l-6.15,18.53h-4.8l18.08-52.5h5.77l18.15,52.5h-5l-6.3-18.53Zm1.28-4h17.1l-8.4-25.35H284Z"/><path d="M318.08,1497.13v13.95h8.17v3.82h-8.17v22.42c0,3.08,2.17,3.23,4.72,3.23a22.68,22.68,0,0,0,3.45-.23v3.83a46.32,46.32,0,0,1-5.1.3c-3.45,0-7.65-.9-7.65-7v-22.5h-5.7v-3.82h5.7v-13.95Z"/><path d="M339.67,1497.13v13.95h8.18v3.82h-8.18v22.42c0,3.08,2.18,3.23,4.73,3.23a22.68,22.68,0,0,0,3.45-.23v3.83a46.32,46.32,0,0,1-5.1.3c-3.45,0-7.65-.9-7.65-7v-22.5h-5.7v-3.82h5.7v-13.95Z"/><path d="M374.4,1521.27c0-5-3.9-7-8.33-7a18,18,0,0,0-10.2,3.6l-2.17-3.46a21.68,21.68,0,0,1,12.67-4.19c7.88,0,12.6,4.42,12.6,11.24v22.73H374.4V1540c-1.88,3.3-6.38,5-10.35,5-7.2,0-12-4.2-12-10.13s4.35-9.67,11.17-9.67h7.95c2.33,0,3.23-1.2,3.23-3Zm0,11.1v-4.57c-.83,1-2.55,1.27-4.28,1.27H364c-4.87,0-7.12,2.4-7.12,5.85,0,2.85,2.17,6.23,7.72,6.23C369.6,1541.15,374.4,1538.37,374.4,1532.37Z"/><path d="M404,1541.07a11.81,11.81,0,0,0,10.87-6.67l3.9,2.25a16.73,16.73,0,0,1-14.77,8.4c-9.53,0-17.1-7.28-17.1-17.4s7.57-17.47,17.1-17.47a16.73,16.73,0,0,1,14.77,8.4l-3.9,2.25a11.87,11.87,0,0,0-10.87-6.6c-7.35,0-12.45,5.85-12.45,13.42S396.6,1541.07,404,1541.07Z"/><path d="M431.17,1523.9h4.28l12.75-12.82h6.15l-15.23,14.77,16.05,18.3H449.1l-13.88-16.28h-4.05v16.28H426.6v-52.5h4.57Z"/><path d="M461.92,1529c.6,6.82,5.18,12,12.08,12a11.38,11.38,0,0,0,10.27-5.7h5.33a17,17,0,0,1-15.6,9.75c-9.53,0-16.8-7.28-16.8-17.4s7.27-17.47,16.72-17.47c8.63,0,16.65,6.07,16.65,18.67v.15Zm.15-3.75h23.4c-.52-6-5-11-11.55-11S462.9,1519,462.07,1525.25Z"/><path d="M515.17,1515.12h-2.25c-5.85,0-10,2.71-10,10.5v18.53h-4.5v-33.07h4.35v5.62c1.88-4.42,6-6.22,10-6.22.75,0,1.57.07,2.47.14Z"/><path d="M550.27,1541.07a11.83,11.83,0,0,0,10.88-6.67l3.9,2.25a16.76,16.76,0,0,1-14.78,8.4c-9.52,0-17.1-7.28-17.1-17.4s7.58-17.47,17.1-17.47a16.76,16.76,0,0,1,14.78,8.4l-3.9,2.25a11.89,11.89,0,0,0-10.88-6.6c-7.35,0-12.45,5.85-12.45,13.42S542.92,1541.07,550.27,1541.07Z"/><path d="M589.72,1515.12h-2.25c-5.85,0-10.05,2.71-10.05,10.5v18.53h-4.5v-33.07h4.35v5.62c1.88-4.42,6-6.22,10-6.22.75,0,1.57.07,2.47.14Z"/><path d="M598.12,1529c.6,6.82,5.18,12,12.08,12a11.38,11.38,0,0,0,10.27-5.7h5.33a17,17,0,0,1-15.6,9.75c-9.53,0-16.8-7.28-16.8-17.4s7.27-17.47,16.72-17.47c8.63,0,16.65,6.07,16.65,18.67v.15Zm.15-3.75h23.4c-.52-6-5-11-11.55-11S599.1,1519,598.27,1525.25Z"/><path d="M654.14,1521.27c0-5-3.89-7-8.32-7a18,18,0,0,0-10.2,3.6l-2.17-3.46a21.68,21.68,0,0,1,12.67-4.19c7.87,0,12.6,4.42,12.6,11.24v22.73h-4.58V1540c-1.87,3.3-6.37,5-10.34,5-7.2,0-12-4.2-12-10.13s4.35-9.67,11.17-9.67h7.95c2.32,0,3.22-1.2,3.22-3Zm0,11.1v-4.57c-.82,1-2.54,1.27-4.27,1.27h-6.15c-4.87,0-7.12,2.4-7.12,5.85,0,2.85,2.17,6.23,7.72,6.23C649.35,1541.15,654.14,1538.37,654.14,1532.37Z"/><path d="M675.45,1497.13v13.95h8.17v3.82h-8.17v22.42c0,3.08,2.17,3.23,4.72,3.23a22.68,22.68,0,0,0,3.45-.23v3.83a46.32,46.32,0,0,1-5.1.3c-3.45,0-7.65-.9-7.65-7v-22.5h-5.7v-3.82h5.7v-13.95Z"/><path d="M692.7,1529c.6,6.82,5.17,12,12.07,12a11.38,11.38,0,0,0,10.27-5.7h5.33a17,17,0,0,1-15.6,9.75c-9.52,0-16.8-7.28-16.8-17.4s7.28-17.47,16.72-17.47c8.63,0,16.65,6.07,16.65,18.67v.15Zm.15-3.75h23.39c-.52-6-5-11-11.55-11S693.67,1519,692.85,1525.25Z"/><path d="M745.19,1535.37c0-3.3-2.7-4.72-7.42-6.45l-1.88-.67c-5-1.8-8.4-4.35-8.4-9.15,0-5.48,4.88-8.92,11.33-8.92a16.84,16.84,0,0,1,10.72,3.82l-2.47,3.45a15,15,0,0,0-8.4-3.3c-3.68,0-6.45,1.88-6.45,4.72,0,2.1,1.5,3.75,4.87,5l3.83,1.42c6.37,2.48,9,5.25,9,10.13,0,4.27-3.68,9.6-12.15,9.6a19.74,19.74,0,0,1-11.63-4.13l2.4-3.45a15.79,15.79,0,0,0,9.38,3.53C742.42,1541,745.19,1538.45,745.19,1535.37Z"/><path d="M787.79,1541.07a11.83,11.83,0,0,0,10.88-6.67l3.9,2.25a16.76,16.76,0,0,1-14.78,8.4c-9.52,0-17.1-7.28-17.1-17.4s7.58-17.47,17.1-17.47a16.76,16.76,0,0,1,14.78,8.4l-3.9,2.25a11.89,11.89,0,0,0-10.88-6.6c-7.35,0-12.45,5.85-12.45,13.42S780.44,1541.07,787.79,1541.07Z"/><path d="M824.77,1510.18a17.44,17.44,0,1,1-17.1,17.47C807.67,1517.52,815.32,1510.18,824.77,1510.18Zm0,4c-7.35,0-12.45,5.85-12.45,13.42s5.1,13.42,12.45,13.42,12.52-5.85,12.52-13.42S832.19,1514.23,824.77,1514.23Z"/><path d="M877.79,1523.45v20.7h-4.57v-22c0-5.09-3.15-7.94-7.88-7.94-3.9,0-7.42,2.17-10.57,5.85v24.07h-4.58v-33.07h4.5v4.72c2.85-3.45,6.45-5.62,11.25-5.62,5.55,0,9.23,2.47,10.8,6.37,3.6-4.35,7.5-6.37,12.3-6.37,7.8,0,11.77,4.72,11.77,12v22h-4.57v-22c0-5.09-3.15-7.94-7.8-7.94-4,0-7.57,2.25-10.8,6C877.72,1521.27,877.79,1522.4,877.79,1523.45Z"/><path d="M938.69,1523.45v20.7h-4.57v-22c0-5.09-3.15-7.94-7.88-7.94-3.9,0-7.42,2.17-10.57,5.85v24.07h-4.58v-33.07h4.5v4.72c2.85-3.45,6.45-5.62,11.25-5.62,5.55,0,9.23,2.47,10.8,6.37,3.6-4.35,7.5-6.37,12.3-6.37,7.8,0,11.77,4.72,11.77,12v22h-4.57v-22c0-5.09-3.15-7.94-7.8-7.94-4,0-7.57,2.25-10.8,6C938.62,1521.27,938.69,1522.4,938.69,1523.45Z"/><path d="M974.39,1529c.6,6.82,5.18,12,12.08,12a11.38,11.38,0,0,0,10.27-5.7h5.32a16.93,16.93,0,0,1-15.59,9.75c-9.53,0-16.8-7.28-16.8-17.4s7.27-17.47,16.72-17.47c8.63,0,16.65,6.07,16.65,18.67v.15Zm.15-3.75h23.4c-.52-6-5-11-11.55-11S975.37,1519,974.54,1525.25Z"/><path d="M1034.61,1522.4c0-5.32-3.45-8.17-8.17-8.17-4,0-7.87,2.17-11,5.85v24.07h-4.58v-33.07h4.5v4.72a15,15,0,0,1,11.85-5.62c7.72,0,12,4.72,12,12v22h-4.58Z"/><path d="M1055.92,1497.13v13.95h8.17v3.82h-8.17v22.42c0,3.08,2.17,3.23,4.72,3.23a22.68,22.68,0,0,0,3.45-.23v3.83a46.32,46.32,0,0,1-5.1.3c-3.45,0-7.65-.9-7.65-7v-22.5h-5.7v-3.82h5.7v-13.95Z"/><path d="M1125.14,1511.08h4.95l-9.6,33.07h-6.23l-8.4-28.42-8.47,28.42h-6.23l-9.29-33.07h5.1l7.34,29.32,8.93-29.32h5.4l8.85,29.32Z"/><path d="M1143.66,1544.15h-4.57V1514.9h-5.25v-3.82h9.82ZM1141,1495.1a4,4,0,1,1-4,4A4,4,0,0,1,1141,1495.1Z"/><path d="M1160.76,1497.13v13.95h8.18v3.82h-8.18v22.42c0,3.08,2.18,3.23,4.73,3.23a22.68,22.68,0,0,0,3.45-.23v3.83a46.32,46.32,0,0,1-5.1.3c-3.45,0-7.65-.9-7.65-7v-22.5h-5.7v-3.82h5.7v-13.95Z"/><path d="M1199.69,1522.4c0-5.32-3.45-8.17-8.18-8.17-4,0-7.87,2.17-11,5.85v24.07h-4.58v-52.5h4.5v24.15a15,15,0,0,1,11.85-5.62c7.73,0,12,4.72,12,12v22h-4.57Z"/><path d="M1244.24,1541.07a11.81,11.81,0,0,0,10.87-6.67l3.9,2.25a16.73,16.73,0,0,1-14.77,8.4c-9.53,0-17.1-7.28-17.1-17.4s7.57-17.47,17.1-17.47a16.73,16.73,0,0,1,14.77,8.4l-3.9,2.25a11.87,11.87,0,0,0-10.87-6.6c-7.35,0-12.45,5.85-12.45,13.42S1236.89,1541.07,1244.24,1541.07Z"/><path d="M1281.21,1510.18a17.44,17.44,0,1,1-17.1,17.47C1264.11,1517.52,1271.76,1510.18,1281.21,1510.18Zm0,4c-7.35,0-12.45,5.85-12.45,13.42s5.1,13.42,12.45,13.42,12.53-5.85,12.53-13.42S1288.64,1514.23,1281.21,1514.23Z"/><path d="M1333.71,1517.52v-25.87h4.58v52.5h-4.58v-6.3c-2,4.12-7,7.2-12.6,7.2-9.52,0-16.8-7.28-16.8-17.4s7.2-17.47,16.65-17.47C1326.66,1510.18,1331.76,1513.4,1333.71,1517.52Zm-12.3,23.55c7.35,0,12.53-5.85,12.53-13.42s-5.18-13.42-12.53-13.42-12.45,5.85-12.45,13.42S1314.06,1541.07,1321.41,1541.07Z"/><path d="M1351.34,1529c.6,6.82,5.17,12,12.07,12a11.41,11.41,0,0,0,10.28-5.7H1379a16.94,16.94,0,0,1-15.6,9.75c-9.52,0-16.8-7.28-16.8-17.4s7.28-17.47,16.73-17.47c8.62,0,16.65,6.07,16.65,18.67v.15Zm.15-3.75h23.4c-.53-6-5-11-11.55-11S1352.31,1519,1351.49,1525.25Z"/><path d="M1611.73,1540.17s6.9-7.12,15.9-17.32c6.82-7.73,9.15-12.68,9.15-17.92,0-6-4.13-10.2-10.58-10.2-5.55,0-10.2,3.3-10.2,9.14a13,13,0,0,0,1.58,6l-4.35,1.05a16.61,16.61,0,0,1-1.73-7.12c0-8,6.75-13,14.85-13,8.7,0,15,5.48,15,14.1,0,5.25-2,11.25-11.62,21.75l-12.3,13.42h25.2v4.13h-30.9Z"/><path d="M1654.55,1536a4.54,4.54,0,1,1-4.5,4.58A4.55,4.55,0,0,1,1654.55,1536Z"/><path d="M1710.13,1499.45c-2.63-2.25-7.28-4.65-11.63-4.65-5.47,0-10.8,2.93-10.8,8.78,0,3.45,2.25,6.59,7.65,9.37l5.48,2.85c8.17,4.27,12.15,8.77,12.15,15.15,0,7-5.78,14.1-16.35,14.1A22.9,22.9,0,0,1,1681,1539l2.63-3.52a18.79,18.79,0,0,0,13.35,5.55c7,0,11.32-4.88,11.32-9.75,0-5.4-3.37-8.18-10.27-11.78l-4.43-2.32c-6.82-3.6-10.5-7.42-10.5-13.42,0-8.18,7.13-13,15.38-13a23.51,23.51,0,0,1,14.25,5.1Z"/><path d="M1723.93,1529c.6,6.82,5.17,12,12.07,12a11.41,11.41,0,0,0,10.28-5.7h5.32a16.94,16.94,0,0,1-15.6,9.75c-9.52,0-16.8-7.28-16.8-17.4s7.28-17.48,16.73-17.48c8.62,0,16.65,6.08,16.65,18.68v.15Zm.15-3.75h23.4c-.53-6-5-11-11.55-11S1724.9,1519,1724.08,1525.25Z"/><path d="M1777.18,1515.12h-2.25c-5.85,0-10,2.7-10,10.5v18.53h-4.5v-33.07h4.35v5.62c1.87-4.43,6-6.22,10-6.22.75,0,1.58.07,2.48.14Z"/><path d="M1807,1511.08h5l-12.52,33.07h-6.15l-12.3-33.07h5.17l10.28,29.32Z"/><path d="M1820.45,1529c.6,6.82,5.18,12,12.08,12a11.38,11.38,0,0,0,10.27-5.7h5.33a17,17,0,0,1-15.6,9.75c-9.53,0-16.8-7.28-16.8-17.4s7.27-17.48,16.72-17.48c8.63,0,16.65,6.08,16.65,18.68v.15Zm.15-3.75H1844c-.52-6-5-11-11.55-11S1821.43,1519,1820.6,1525.25Z"/><path d="M1873.7,1515.12h-2.25c-5.85,0-10,2.7-10,10.5v18.53h-4.5v-33.07h4.35v5.62c1.88-4.43,6-6.22,10-6.22.75,0,1.57.07,2.47.14Z"/><path d="M1910.15,1535.37c0-3.3-2.7-4.72-7.42-6.45l-1.88-.67c-5-1.8-8.4-4.35-8.4-9.15,0-5.48,4.88-8.93,11.33-8.93a16.85,16.85,0,0,1,10.72,3.83l-2.47,3.45a15,15,0,0,0-8.4-3.3c-3.68,0-6.45,1.87-6.45,4.72,0,2.1,1.5,3.75,4.87,5l3.83,1.42c6.37,2.48,9,5.25,9,10.13,0,4.27-3.68,9.6-12.15,9.6a19.74,19.74,0,0,1-11.63-4.13l2.4-3.45a15.79,15.79,0,0,0,9.38,3.53C1907.38,1541,1910.15,1538.45,1910.15,1535.37Z"/><path d="M1942.63,1521.27c0-5-3.9-7-8.33-7-4.12,0-7.42,1.73-10.2,3.6l-2.17-3.45a21.68,21.68,0,0,1,12.67-4.2c7.87,0,12.6,4.43,12.6,11.25v22.73h-4.57V1540c-1.88,3.3-6.38,5-10.35,5-7.2,0-12-4.2-12-10.13s4.35-9.67,11.17-9.67h8c2.32,0,3.23-1.2,3.23-3Zm0,11.1v-4.57c-.83,1-2.56,1.27-4.28,1.27h-6.15c-4.87,0-7.12,2.4-7.12,5.85,0,2.85,2.17,6.23,7.72,6.23C1937.83,1541.15,1942.63,1538.37,1942.63,1532.37Z"/><path d="M1979.68,1511.08h5l-12.53,33.07H1966l-12.3-33.07h5.18l10.27,29.32Z"/><path d="M1993.18,1529c.6,6.82,5.17,12,12.07,12a11.41,11.41,0,0,0,10.28-5.7h5.32a16.94,16.94,0,0,1-15.6,9.75c-9.52,0-16.8-7.28-16.8-17.4s7.28-17.48,16.73-17.48c8.62,0,16.65,6.08,16.65,18.68v.15Zm.15-3.75h23.4c-.53-6-5-11-11.55-11S1994.15,1519,1993.33,1525.25Z"/><path d="M2045.68,1535.37c0-3.3-2.7-4.72-7.43-6.45l-1.87-.67c-5-1.8-8.4-4.35-8.4-9.15,0-5.48,4.87-8.93,11.32-8.93A16.9,16.9,0,0,1,2050,1514l-2.48,3.45a15,15,0,0,0-8.4-3.3c-3.67,0-6.45,1.87-6.45,4.72,0,2.1,1.5,3.75,4.88,5l3.82,1.42c6.38,2.48,9,5.25,9,10.13,0,4.27-3.67,9.6-12.15,9.6a19.71,19.71,0,0,1-11.62-4.13l2.4-3.45a15.79,15.79,0,0,0,9.37,3.53C2042.9,1541,2045.68,1538.45,2045.68,1535.37Z"/><path d="M2078.9,1497.13v13.95h8.17v3.82h-8.17v22.42c0,3.08,2.17,3.23,4.72,3.23a22.68,22.68,0,0,0,3.45-.23v3.83a46.32,46.32,0,0,1-5.1.3c-3.45,0-7.65-.9-7.65-7v-22.5h-5.69v-3.82h5.69v-13.95Z"/><path d="M2117.82,1522.4c0-5.33-3.45-8.18-8.17-8.18-4,0-7.88,2.18-11,5.85v24.08h-4.57v-52.5h4.5v24.15a15,15,0,0,1,11.85-5.63c7.72,0,12,4.73,12,12v22h-4.58Z"/><path d="M2135.07,1529c.6,6.82,5.18,12,12.08,12a11.38,11.38,0,0,0,10.27-5.7h5.33a17,17,0,0,1-15.6,9.75c-9.53,0-16.8-7.28-16.8-17.4s7.27-17.48,16.72-17.48c8.63,0,16.65,6.08,16.65,18.68v.15Zm.15-3.75h23.4c-.52-6-5-11-11.55-11S2136.05,1519,2135.22,1525.25Z"/><path d="M2201.22,1541.07a11.83,11.83,0,0,0,10.88-6.67l3.9,2.25a16.76,16.76,0,0,1-14.78,8.4c-9.52,0-17.1-7.28-17.1-17.4s7.58-17.48,17.1-17.48a16.76,16.76,0,0,1,14.78,8.4l-3.9,2.25a11.91,11.91,0,0,0-10.88-6.6c-7.35,0-12.45,5.85-12.45,13.43S2193.87,1541.07,2201.22,1541.07Z"/><path d="M2238.2,1510.17a17.44,17.44,0,1,1-17.1,17.48C2221.1,1517.52,2228.75,1510.17,2238.2,1510.17Zm0,4c-7.35,0-12.45,5.85-12.45,13.43s5.1,13.42,12.45,13.42,12.52-5.85,12.52-13.42S2245.62,1514.22,2238.2,1514.22Z"/><path d="M2291.22,1523.45v20.7h-4.57v-22c0-5.1-3.15-8-7.88-8-3.9,0-7.42,2.18-10.57,5.85v24.08h-4.58v-33.07h4.5v4.72c2.85-3.45,6.45-5.63,11.25-5.63,5.55,0,9.23,2.48,10.8,6.38,3.6-4.35,7.5-6.38,12.3-6.38,7.8,0,11.78,4.73,11.78,12v22h-4.58v-22c0-5.1-3.15-8-7.8-8-4,0-7.57,2.25-10.8,6C2291.15,1521.27,2291.22,1522.4,2291.22,1523.45Z"/><path d="M2352.12,1523.45v20.7h-4.57v-22c0-5.1-3.15-8-7.88-8-3.9,0-7.42,2.18-10.57,5.85v24.08h-4.58v-33.07h4.5v4.72c2.85-3.45,6.45-5.63,11.25-5.63,5.55,0,9.23,2.48,10.8,6.38,3.6-4.35,7.5-6.38,12.3-6.38,7.8,0,11.77,4.73,11.77,12v22h-4.57v-22c0-5.1-3.15-8-7.8-8-4,0-7.57,2.25-10.8,6C2352.05,1521.27,2352.12,1522.4,2352.12,1523.45Z"/><path d="M2387.82,1529c.6,6.82,5.18,12,12.08,12a11.38,11.38,0,0,0,10.27-5.7h5.33a17,17,0,0,1-15.6,9.75c-9.53,0-16.8-7.28-16.8-17.4s7.27-17.48,16.72-17.48c8.63,0,16.65,6.08,16.65,18.68v.15Zm.15-3.75h23.4c-.52-6-5-11-11.55-11S2388.8,1519,2388,1525.25Z"/><path d="M2448,1522.4c0-5.33-3.45-8.18-8.17-8.18-4,0-7.87,2.18-11,5.85v24.08h-4.58v-33.07h4.5v4.72a15,15,0,0,1,11.85-5.63c7.72,0,12,4.73,12,12v22H2448Z"/><path d="M2469.35,1497.13v13.95h8.17v3.82h-8.17v22.42c0,3.08,2.17,3.23,4.72,3.23a22.68,22.68,0,0,0,3.45-.23v3.83a46.32,46.32,0,0,1-5.1.3c-3.45,0-7.65-.9-7.65-7v-22.5h-5.7v-3.82h5.7v-13.95Z"/><path d="M3745.5,1685.45c-4,0-6.38,1.27-8.1,2.92h-4.13v-26h26.18v4.12h-22v17.18h.22a15.14,15.14,0,0,1,8.33-2.4c9.9,0,15.07,7,15.07,16.87-.07,11.4-7.2,17.63-15.22,17.63-7.65,0-14.4-4.88-14.4-14.1v-3.3h4.5l.07,2.85c.15,7.12,4.35,10.57,9.75,10.57,6.23,0,10.5-5,10.58-13.5C3756.3,1690.62,3752.85,1685.45,3745.5,1685.45Z"/><path d="M3773.62,1706.67a4.54,4.54,0,1,1-4.5,4.58A4.55,4.55,0,0,1,3773.62,1706.67Z"/><path d="M3797.17,1662.35h5.18l15.9,47.77h.15l16-47.77h4.72l-18.07,52.5h-5.78Z"/><path d="M3851.62,1714.85h-4.57V1685.6h-5.25v-3.83h9.82Zm-2.62-49a4,4,0,1,1-4,4A4,4,0,0,1,3849,1665.8Z"/><path d="M3877,1711.77a11.83,11.83,0,0,0,10.88-6.67l3.9,2.25a16.76,16.76,0,0,1-14.78,8.4c-9.52,0-17.1-7.28-17.1-17.4s7.58-17.48,17.1-17.48a16.76,16.76,0,0,1,14.78,8.4l-3.9,2.25a11.91,11.91,0,0,0-10.88-6.6c-7.35,0-12.45,5.85-12.45,13.43S3869.62,1711.77,3877,1711.77Z"/><path d="M3906.07,1667.82v14h8.18v3.83h-8.18V1708c0,3.08,2.18,3.23,4.73,3.23a22.68,22.68,0,0,0,3.45-.23v3.83a46.32,46.32,0,0,1-5.1.3c-3.45,0-7.65-.9-7.65-7.05v-22.5h-5.7v-3.83h5.7v-14Z"/><path d="M3927,1714.85h-4.57V1685.6h-5.25v-3.83H3927Zm-2.62-49a4,4,0,1,1-4,4A4,4,0,0,1,3924.37,1665.8Z"/><path d="M3965.24,1694.15v20.7h-4.57v-22c0-5.1-3.15-7.95-7.88-7.95-3.9,0-7.42,2.18-10.57,5.85v24.08h-4.57v-33.08h4.49v4.73c2.85-3.45,6.45-5.63,11.25-5.63,5.55,0,9.23,2.48,10.8,6.38,3.6-4.35,7.5-6.38,12.3-6.38,7.8,0,11.78,4.73,11.78,12v22h-4.58v-22c0-5.1-3.15-7.95-7.8-7.95-4,0-7.57,2.25-10.8,6C3965.17,1692,3965.24,1693.1,3965.24,1694.15Z"/><path d="M4002.3,1661.45a4.61,4.61,0,0,1,4.57,4.65,7.21,7.21,0,0,1-.75,2.85l-4.95,9.07h-4.05l3.45-7.65a4.47,4.47,0,0,1-2.85-4.27A4.61,4.61,0,0,1,4002.3,1661.45Z"/><path d="M4030.79,1706.07c0-3.3-2.7-4.72-7.42-6.45l-1.88-.67c-5-1.8-8.39-4.35-8.39-9.15,0-5.48,4.87-8.93,11.32-8.93a16.85,16.85,0,0,1,10.72,3.83l-2.47,3.45a15,15,0,0,0-8.4-3.3c-3.68,0-6.45,1.87-6.45,4.72,0,2.1,1.5,3.75,4.87,5l3.83,1.42c6.37,2.48,9,5.25,9,10.13,0,4.27-3.68,9.6-12.15,9.6a19.74,19.74,0,0,1-11.63-4.13l2.41-3.45a15.77,15.77,0,0,0,9.37,3.53C4028,1711.7,4030.79,1709.15,4030.79,1706.07Z"/><path d="M4063.27,1708.62v6.23h-4.58v-52.5h4.58v25.87c1.95-4.12,7.05-7.35,12.75-7.35,9.45,0,16.65,7.35,16.65,17.48s-7.28,17.4-16.8,17.4C4070.24,1715.75,4065.29,1712.67,4063.27,1708.62Zm12.3-23.7c-7.35,0-12.53,5.85-12.53,13.43s5.18,13.42,12.53,13.42,12.45-5.85,12.45-13.42S4082.92,1684.92,4075.57,1684.92Z"/><path d="M4117.79,1685.82h-2.25c-5.85,0-10.05,2.7-10.05,10.5v18.53H4101v-33.08h4.35v5.63c1.88-4.43,6-6.23,10-6.23.75,0,1.57.08,2.47.15Z"/><path d="M4138.49,1680.87a17.44,17.44,0,1,1-17.1,17.48C4121.39,1688.22,4129,1680.87,4138.49,1680.87Zm0,4.05c-7.35,0-12.45,5.85-12.45,13.43s5.1,13.42,12.45,13.42,12.53-5.85,12.53-13.42S4145.92,1684.92,4138.49,1684.92Z"/><path d="M4203.74,1681.77h4.95l-9.6,33.08h-6.22l-8.4-28.43-8.48,28.43h-6.22l-9.3-33.08h5.1l7.35,29.33,8.92-29.33h5.4l8.85,29.33Z"/><path d="M4232,1706.07c0-3.3-2.7-4.72-7.43-6.45l-1.87-.67c-5-1.8-8.4-4.35-8.4-9.15,0-5.48,4.87-8.93,11.32-8.93a16.9,16.9,0,0,1,10.73,3.83l-2.48,3.45a14.91,14.91,0,0,0-8.4-3.3c-3.67,0-6.45,1.87-6.45,4.72,0,2.1,1.5,3.75,4.88,5l3.82,1.42c6.38,2.48,9,5.25,9,10.13,0,4.27-3.67,9.6-12.15,9.6a19.71,19.71,0,0,1-11.62-4.13l2.4-3.45a15.79,15.79,0,0,0,9.37,3.53C4229.24,1711.7,4232,1709.15,4232,1706.07Z"/><path d="M4247.32,1699.7c.6,6.82,5.17,12,12.07,12a11.41,11.41,0,0,0,10.28-5.7H4275a16.94,16.94,0,0,1-15.6,9.75c-9.52,0-16.8-7.28-16.8-17.4s7.28-17.48,16.73-17.48c8.62,0,16.65,6.08,16.65,18.68v.15Zm.15-3.75h23.4c-.53-6-5-11-11.55-11S4248.29,1689.65,4247.47,1696Z"/><path d="M4300.57,1685.82h-2.25c-5.85,0-10,2.7-10,10.5v18.53h-4.5v-33.08h4.35v5.63c1.87-4.43,6-6.23,10-6.23.75,0,1.58.08,2.48.15Z"/><path d="M4323.37,1699.7c.6,6.82,5.17,12,12.07,12a11.41,11.41,0,0,0,10.28-5.7H4351a16.94,16.94,0,0,1-15.6,9.75c-9.52,0-16.8-7.28-16.8-17.4s7.28-17.48,16.73-17.48c8.62,0,16.65,6.08,16.65,18.68v.15Zm.15-3.75h23.4c-.53-6-5-11-11.55-11S4324.34,1689.65,4323.52,1696Z"/><path d="M4367.77,1698.5l-12.6-16.73h5.47l9.75,13.43,10-13.43h5.17l-12.6,16.58,12.6,16.5H4380l-9.67-13.2-9.68,13.2h-5.47Z"/><path d="M4393.49,1699.7c.6,6.82,5.18,12,12.08,12a11.38,11.38,0,0,0,10.27-5.7h5.33a17,17,0,0,1-15.6,9.75c-9.53,0-16.8-7.28-16.8-17.4s7.27-17.48,16.72-17.48c8.63,0,16.65,6.08,16.65,18.68v.15Zm.15-3.75H4417c-.52-6-5-11-11.55-11S4394.47,1689.65,4393.64,1696Z"/><path d="M4444.64,1711.77a11.83,11.83,0,0,0,10.88-6.67l3.9,2.25a16.76,16.76,0,0,1-14.78,8.4c-9.52,0-17.1-7.28-17.1-17.4s7.58-17.48,17.1-17.48a16.76,16.76,0,0,1,14.78,8.4l-3.9,2.25a11.91,11.91,0,0,0-10.88-6.6c-7.35,0-12.45,5.85-12.45,13.43S4437.29,1711.77,4444.64,1711.77Z"/><path d="M4466.84,1703.07v-21.3h4.58v20.85c0,6,4.12,9.08,9.59,9.08s9.6-3.08,9.6-9.08v-20.85h4.58v21.3c0,7-4.95,12.68-14.18,12.68S4466.84,1710.05,4466.84,1703.07Z"/><path d="M4511.84,1667.82v14H4520v3.83h-8.17V1708c0,3.08,2.17,3.23,4.72,3.23a22.68,22.68,0,0,0,3.45-.23v3.83a46.32,46.32,0,0,1-5.1.3c-3.45,0-7.65-.9-7.65-7.05v-22.5h-5.69v-3.83h5.69v-14Z"/><path d="M4529.09,1699.7c.6,6.82,5.17,12,12.07,12a11.41,11.41,0,0,0,10.28-5.7h5.32a16.94,16.94,0,0,1-15.6,9.75c-9.52,0-16.79-7.28-16.79-17.4s7.27-17.48,16.72-17.48c8.62,0,16.65,6.08,16.65,18.68v.15Zm.15-3.75h23.4c-.53-6-5-11-11.55-11S4530.06,1689.65,4529.24,1696Z"/><path d="M4581.59,1706.07c0-3.3-2.7-4.72-7.43-6.45l-1.87-.67c-5-1.8-8.4-4.35-8.4-9.15,0-5.48,4.87-8.93,11.32-8.93a16.9,16.9,0,0,1,10.73,3.83l-2.48,3.45a14.91,14.91,0,0,0-8.4-3.3c-3.67,0-6.45,1.87-6.45,4.72,0,2.1,1.5,3.75,4.88,5l3.82,1.42c6.38,2.48,9,5.25,9,10.13,0,4.27-3.67,9.6-12.15,9.6a19.71,19.71,0,0,1-11.62-4.13l2.4-3.45a15.79,15.79,0,0,0,9.37,3.53C4578.81,1711.7,4581.59,1709.15,4581.59,1706.07Z"/><path d="M4624.19,1711.77a11.81,11.81,0,0,0,10.87-6.67l3.9,2.25a16.73,16.73,0,0,1-14.77,8.4c-9.53,0-17.1-7.28-17.1-17.4s7.57-17.48,17.1-17.48a16.73,16.73,0,0,1,14.77,8.4l-3.9,2.25a11.88,11.88,0,0,0-10.87-6.6c-7.35,0-12.45,5.85-12.45,13.43S4616.84,1711.77,4624.19,1711.77Z"/><path d="M4661.16,1680.87a17.44,17.44,0,1,1-17.1,17.48C4644.06,1688.22,4651.71,1680.87,4661.16,1680.87Zm0,4.05c-7.35,0-12.45,5.85-12.45,13.43s5.1,13.42,12.45,13.42,12.53-5.85,12.53-13.42S4668.59,1684.92,4661.16,1684.92Z"/><path d="M4713.66,1688.22v-25.87h4.58v52.5h-4.58v-6.3c-2,4.12-7,7.2-12.6,7.2-9.52,0-16.8-7.28-16.8-17.4s7.2-17.48,16.65-17.48C4706.61,1680.87,4711.71,1684.1,4713.66,1688.22Zm-12.3,23.55c7.35,0,12.53-5.85,12.53-13.42s-5.18-13.43-12.53-13.43-12.45,5.85-12.45,13.43S4694,1711.77,4701.36,1711.77Z"/><path d="M4731.29,1699.7c.6,6.82,5.17,12,12.07,12a11.41,11.41,0,0,0,10.28-5.7H4759a16.94,16.94,0,0,1-15.6,9.75c-9.52,0-16.8-7.28-16.8-17.4s7.28-17.48,16.73-17.48c8.62,0,16.64,6.08,16.64,18.68v.15Zm.15-3.75h23.39c-.52-6-5-11-11.54-11S4732.26,1689.65,4731.44,1696Z"/><path d="M2139.44,74.19c-5-4.88-11.48-8.36-17.17-8.36-5.33,0-10.2,2.79-10.2,7.66,0,3.71,2.32,6.61,8.81,9.63l6.73,3.13c12.88,6,20.65,12.76,20.65,24.94s-10.33,24-28.19,24c-12.3,0-21.46-4.76-29.12-12.18l8.94-12.06c6,6.14,13.68,9.62,19.83,9.62,7,0,11.25-3.82,11.25-8.81,0-5.57-5-8.7-12.76-12.3l-5.68-2.66c-10.9-5.11-17.75-12.53-17.75-22.74,0-14.27,12.76-22.85,27.15-22.85,9.39,0,19,4.64,26.79,11.37Z"/><path d="M2176.79,60.5V80.68h11.49V93.44h-11.49v24c0,3.37,2.67,3.83,5,3.83,3.83,0,7-.35,7-.35v12.88s-7.31.69-11.71.69c-7.54,0-15.31-1.27-15.31-11.94V93.44h-8.36V80.68h8.36V60.5Z"/><path d="M2195.35,107.25c0-16.24,12.65-28,28.42-28s28.42,11.72,28.42,28-12.64,27.95-28.42,27.95S2195.35,123.48,2195.35,107.25Zm15.08,0c0,8.23,5.46,14.49,13.34,14.49s13.23-6.26,13.23-14.49-5.45-14.5-13.23-14.5S2210.43,98.89,2210.43,107.25Z"/><path d="M2294.42,95.53H2288c-7.66,0-11.14,3.59-11.14,12.88v25.4h-15.08V80.68h14.62v8.47c2.09-5.68,7.19-9.16,13.8-9.16a17,17,0,0,1,4.18.46Z"/><path d="M2354.39,111.65h-39.56A12,12,0,0,0,2327,122.32c4.41,0,8.59-1.85,10.67-5.45l15.66,1.63c-4.75,11.36-14.73,16.7-26.56,16.7-15.89,0-27.84-11.72-27.84-27.95s11.72-28,27.61-28c14.61,0,27.84,9.51,27.84,31.78Zm-39.9-10.09h23.77a11.52,11.52,0,0,0-11.71-9.74A11.84,11.84,0,0,0,2314.49,101.56Z"/><path d="M2402.41,127.08c-2.67,4.41-8.93,8.12-16.59,8.12-14.61,0-25.75-11.72-25.75-27.95s11-28,25.64-28c8.12,0,14.27,3.71,16.93,8.24,0-1.74-.23-6.15-.23-10.1V52.61h15.08v81.2h-15.08Zm-26.79-19.83c0,8.11,5.56,14.61,13.57,14.61s13.57-6.5,13.57-14.61-5.57-14.5-13.57-14.5S2375.62,99,2375.62,107.25Z"/><path d="M2493.12,93.44l26.8,40.37H2501L2483,105l-17.4,28.77h-18.56l26.45-41.06-25.29-40.14H2467L2484,81l16.93-28.42h18.33Z"/><path d="M2570.15,74.19c-5-4.88-11.49-8.36-17.17-8.36-5.34,0-10.21,2.79-10.21,7.66,0,3.71,2.32,6.61,8.82,9.63l6.72,3.13c12.88,6,20.65,12.76,20.65,24.94s-10.32,24-28.19,24c-12.29,0-21.46-4.76-29.11-12.18l8.93-12.06c6,6.14,13.69,9.62,19.84,9.62,7,0,11.25-3.82,11.25-8.81,0-5.57-5-8.7-12.76-12.3l-5.69-2.66c-10.9-5.11-17.74-12.53-17.74-22.74,0-14.27,12.76-22.85,27.14-22.85,9.4,0,19,4.64,26.8,11.37Z"/><path d="M2633.25,74.19c-5-4.88-11.48-8.36-17.17-8.36-5.33,0-10.21,2.79-10.21,7.66,0,3.71,2.32,6.61,8.82,9.63l6.73,3.13c12.87,6,20.64,12.76,20.64,24.94s-10.32,24-28.18,24c-12.3,0-21.46-4.76-29.12-12.18l8.93-12.06c6,6.14,13.69,9.62,19.84,9.62,7,0,11.25-3.82,11.25-8.81,0-5.57-5-8.7-12.76-12.3l-5.68-2.66c-10.91-5.11-17.75-12.53-17.75-22.74,0-14.27,12.76-22.85,27.14-22.85,9.4,0,19,4.64,26.8,11.37Z"/><polyline class="cls-7" points="3713.59 661.18 3751.14 698.63 3713.68 736.18"/><line class="cls-7" x1="3749.6" y1="698.64" x2="3484.63" y2="698.91"/><polyline class="cls-7" points="1729.19 661.18 1766.74 698.63 1729.28 736.18"/><line class="cls-7" x1="1765.21" y1="698.64" x2="1500.24" y2="698.91"/><polyline class="cls-7" points="2595.89 661.18 2633.44 698.63 2595.98 736.18"/><line class="cls-7" x1="2631.91" y1="698.64" x2="2366.94" y2="698.91"/><path d="M715.12,1144.72l10,37.58h.07l8.4-37.58h10.65l-12.82,52.5H719.39l-9.9-37.72-9.67,37.72H687.75l-13-52.5H686l8.1,37.58h.08l10-37.58Z"/><path d="M780.52,1182.9H755a8.15,8.15,0,0,0,14.77,3.37l10.13,1c-3.08,7.35-9.53,10.8-17.18,10.8-10.27,0-18-7.57-18-18.07s7.58-18.08,17.85-18.08c9.45,0,18,6.15,18,20.55Zm-25.8-6.53H770.1a7.46,7.46,0,0,0-7.58-6.3A7.67,7.67,0,0,0,754.72,1176.37Z"/><path d="M796.05,1197.22H786.3v-52.5h9.75v17c0,2.25-.15,4.65-.15,5.63,1.65-2.93,5.69-5.33,10.87-5.33,9.45,0,16.65,7.58,16.65,18.08s-7.28,18.07-16.73,18.07c-4.87,0-8.92-2.32-10.64-5.25Zm-.23-17.17c0,5.25,3.6,9.45,8.77,9.45s8.78-4.2,8.78-9.45-3.6-9.38-8.78-9.38S795.82,1174.72,795.82,1180.05Z"/><path d="M850,1173.37a12.52,12.52,0,0,0-8.48-3.52c-2.55,0-3.45,1.27-3.45,2.32s.75,2,2.55,2.63l5.7,1.8c7.05,2.32,9.45,6.15,9.45,10.65,0,5-4.27,10.87-13.65,10.87a22.12,22.12,0,0,1-15.14-5.4l5.17-6.75a17,17,0,0,0,10.12,4.28c2.33,0,3.75-1.2,3.75-2.55,0-1.73-1.12-2.48-3.9-3.3l-5.85-1.73c-5.55-1.8-7.94-5.55-7.94-10.05,0-5.62,5.1-10.65,13.34-10.65a20.49,20.49,0,0,1,13.88,5.1Z"/><path d="M873.74,1197.22H864v-26.1h-4.8v-8.25h14.55Zm-5.32-52.5a6.29,6.29,0,0,1,6.3,6.3,6.27,6.27,0,0,1-12.53,0A6.28,6.28,0,0,1,868.42,1144.72Z"/><path d="M894.44,1149.82v13h7.43v8.25h-7.43v15.53c0,2.17,1.73,2.47,3.23,2.47,2.47,0,4.5-.22,4.5-.22v8.32s-4.73.45-7.58.45c-4.87,0-9.9-.82-9.9-7.72v-18.83h-5.4v-8.25h5.4v-13Z"/><path d="M942.29,1182.9H916.72a8.15,8.15,0,0,0,14.77,3.37l10.13,1c-3.08,7.35-9.53,10.8-17.18,10.8-10.27,0-18-7.57-18-18.07S914,1162,924.29,1162c9.45,0,18,6.15,18,20.55Zm-25.8-6.53h15.38a7.46,7.46,0,0,0-7.58-6.3A7.67,7.67,0,0,0,916.49,1176.37Z"/><path d="M1918.06,1144.72l10,37.58h.08l8.4-37.58h10.65l-12.83,52.5h-12.07l-9.9-37.72-9.68,37.72h-12.07l-13-52.5H1889l8.1,37.58h.08l10-37.58Z"/><path d="M1983.46,1182.9h-25.57a8.15,8.15,0,0,0,14.77,3.37l10.13,1c-3.08,7.35-9.53,10.8-17.18,10.8-10.27,0-18-7.57-18-18.07s7.58-18.08,17.85-18.08c9.45,0,18,6.15,18,20.55Zm-25.8-6.53H1973a7.46,7.46,0,0,0-7.58-6.3A7.67,7.67,0,0,0,1957.66,1176.37Z"/><path d="M1999,1197.22h-9.75v-52.5H1999v17c0,2.25-.15,4.65-.15,5.63,1.65-2.93,5.7-5.33,10.87-5.33,9.45,0,16.65,7.58,16.65,18.08s-7.27,18.07-16.72,18.07c-4.88,0-8.93-2.32-10.65-5.25Zm-.23-17.17c0,5.25,3.6,9.45,8.78,9.45s8.77-4.2,8.77-9.45-3.6-9.38-8.77-9.38S1998.76,1174.72,1998.76,1180.05Z"/><path d="M2075.94,1158.67c-3.23-3.15-7.43-5.4-11.1-5.4-3.45,0-6.6,1.8-6.6,5,0,2.4,1.5,4.28,5.7,6.23l4.35,2c8.32,3.9,13.35,8.25,13.35,16.13s-6.68,15.52-18.23,15.52c-7.95,0-13.87-3.07-18.82-7.87l5.77-7.8c3.9,4,8.85,6.22,12.83,6.22,4.5,0,7.27-2.47,7.27-5.7,0-3.6-3.22-5.62-8.25-8l-3.67-1.72c-7.05-3.3-11.48-8.1-11.48-14.7,0-9.23,8.25-14.78,17.55-14.78,6.08,0,12.3,3,17.33,7.35Z"/><path d="M2121.68,1182.9h-25.57a8.16,8.16,0,0,0,14.78,3.37l10.12,1c-3.08,7.35-9.52,10.8-17.17,10.8-10.28,0-18-7.57-18-18.07s7.57-18.08,17.85-18.08c9.45,0,18,6.15,18,20.55Zm-25.79-6.53h15.37a7.45,7.45,0,0,0-7.57-6.3A7.66,7.66,0,0,0,2095.89,1176.37Z"/><path d="M2148.53,1172.47h-4.12c-4.95,0-7.2,2.33-7.2,8.33v16.42h-9.75v-34.35h9.45v5.48a9,9,0,0,1,8.92-5.93,11.29,11.29,0,0,1,2.7.3Z"/><path d="M2168.63,1186.72l7.8-23.85h10.28l-12.23,34.35h-12.07l-11.7-34.35h10.57Z"/><path d="M2224.13,1182.9h-25.57a8.15,8.15,0,0,0,14.77,3.37l10.13,1c-3.08,7.35-9.53,10.8-17.18,10.8-10.27,0-18-7.57-18-18.07s7.58-18.08,17.85-18.08c9.45,0,18,6.15,18,20.55Zm-25.8-6.53h15.38a7.46,7.46,0,0,0-7.58-6.3A7.67,7.67,0,0,0,2198.33,1176.37Z"/><path d="M2251,1172.47h-4.12c-5,0-7.2,2.33-7.2,8.33v16.42h-9.75v-34.35h9.45v5.48a9,9,0,0,1,8.92-5.93,11.29,11.29,0,0,1,2.7.3Z"/><path d="M2964,1144.72h11.55l11.93,38.93h.07l12.53-38.93H3011l-17.77,52.5h-11.33Z"/><path d="M3026.71,1197.22H3017v-26.1h-4.8v-8.25h14.55Zm-5.32-52.5a6.29,6.29,0,0,1,6.3,6.3,6.27,6.27,0,0,1-12.53,0A6.28,6.28,0,0,1,3021.39,1144.72Z"/><path d="M3042.69,1180.05c0,5.4,3.52,9.37,8.62,9.37a7.85,7.85,0,0,0,7.57-5.25L3068,1187c-2.25,6.83-9,11.1-16.79,11.1-10.2,0-18.3-7.57-18.3-18.07s8.1-18.08,18.3-18.08c7.8,0,14.54,4.35,16.79,11.18l-9.15,2.77a8,8,0,0,0-7.57-5.25C3046.21,1170.67,3042.69,1174.65,3042.69,1180.05Z"/><path d="M3086.11,1149.82v13h7.42v8.25h-7.42v15.53c0,2.17,1.73,2.47,3.22,2.47,2.48,0,4.5-.22,4.5-.22v8.32s-4.72.45-7.57.45c-4.88,0-9.9-.82-9.9-7.72v-18.83H3071v-8.25h5.4v-13Z"/><path d="M3112.06,1197.22h-9.75v-26.1h-4.8v-8.25h14.55Zm-5.32-52.5a6.28,6.28,0,0,1,6.29,6.3,6.26,6.26,0,0,1-12.52,0A6.28,6.28,0,0,1,3106.74,1144.72Z"/><path d="M3165.61,1177.05c0-4.2-2.7-6-5.7-6-2.78,0-5.25,1.57-7.13,3.9v22.27H3143v-20.17c0-4.13-2.62-6-5.7-6a9.33,9.33,0,0,0-7.12,3.9v22.27h-9.75v-34.35H3130v1.35c0,1.2-.15,2.7-.15,2.7a13.31,13.31,0,0,1,10.28-5c5.1,0,9.07,2.18,11,6.23a13.79,13.79,0,0,1,11.55-6.23c7.43,0,12.68,4.73,12.68,12.75v22.5h-9.75Z"/><path d="M4108.43,1144.72H4120l11.93,38.93h.07l12.53-38.93h10.87l-17.77,52.5h-11.33Z"/><path d="M4171.13,1197.22h-9.75v-26.1h-4.8v-8.25h14.55Zm-5.32-52.5a6.29,6.29,0,0,1,6.3,6.3,6.27,6.27,0,0,1-12.53,0A6.28,6.28,0,0,1,4165.81,1144.72Z"/><path d="M4187.11,1180.05c0,5.4,3.52,9.37,8.62,9.37a7.87,7.87,0,0,0,7.58-5.25l9.15,2.85c-2.25,6.83-9,11.1-16.8,11.1-10.2,0-18.3-7.57-18.3-18.07s8.1-18.08,18.3-18.08c7.8,0,14.55,4.35,16.8,11.18l-9.15,2.77a8,8,0,0,0-7.58-5.25C4190.63,1170.67,4187.11,1174.65,4187.11,1180.05Z"/><path d="M4230.53,1149.82v13H4238v8.25h-7.42v15.53c0,2.17,1.73,2.47,3.23,2.47,2.47,0,4.5-.22,4.5-.22v8.32s-4.73.45-7.58.45c-4.87,0-9.9-.82-9.9-7.72v-18.83h-5.4v-8.25h5.4v-13Z"/><path d="M4256.48,1197.22h-9.75v-26.1h-4.8v-8.25h14.55Zm-5.32-52.5a6.28,6.28,0,0,1,6.29,6.3,6.26,6.26,0,0,1-12.52,0A6.28,6.28,0,0,1,4251.16,1144.72Z"/><path d="M4310,1177.05c0-4.2-2.7-6-5.7-6-2.78,0-5.25,1.57-7.13,3.9v22.27h-9.75v-20.17c0-4.13-2.62-6-5.7-6-2.77,0-5.24,1.57-7.12,3.9v22.27h-9.75v-34.35h9.53v1.35c0,1.2-.15,2.7-.15,2.7a13.28,13.28,0,0,1,10.27-5c5.1,0,9.07,2.18,11,6.23a13.79,13.79,0,0,1,11.55-6.23c7.43,0,12.68,4.73,12.68,12.75v22.5H4310Z"/><line class="cls-7" x1="4816.12" y1="1326.55" x2="32.54" y2="1326.55"/><rect class="cls-8" x="286.12" y="671.09" width="290.09" height="288.87"/><line class="cls-9" x1="429.45" y1="839.96" x2="429.45" y2="692.97"/><polygon class="cls-10" points="428.99 691.79 428.99 808.48 524.64 808.48 428.99 691.79"/><polygon class="cls-4" points="429.2 691.79 429.2 808.48 333.54 808.48 429.2 691.79"/><polygon class="cls-9" points="331.04 823.27 357.76 879.19 504.95 879.19 524.64 823.27 331.04 823.27"/><path class="cls-5" d="M576.21,960H286.12V883.54h0a53.46,53.46,0,0,0,31.07-17.16l3.51-4L339.11,874a27.69,27.69,0,0,0,30.81-1.14l13.36-10,14.14,9.72a30.93,30.93,0,0,0,34.69-.15L448,861.26l14,9.5a33.2,33.2,0,0,0,38.43-1.14l10.72-8.36,14.16,10.44a30.8,30.8,0,0,0,35.19.47l15.76-10.91Z"/><path class="cls-2" d="M375.25,736.28s-2.78-12.07-12.06-13.13c0,0,3.71-21.3-15-17.22,0,0-16.86-14-19.33,5.15,0,0-14.23-4.62-13.3,12.42,0,0-10.36,3.38-10.36,14Z"/><path class="cls-2" d="M538.19,713.56s-3.92-16.86-16.93-16.86a15.4,15.4,0,0,0-10.67,4.49A12.94,12.94,0,0,0,491,712.26a12.78,12.78,0,0,0,1.15,5.29c-5.63,3.26-11.37,9-11.37,18.74H561S558.87,713.56,538.19,713.56Z"/><rect class="cls-11" x="2761.81" y="406.55" width="630" height="442"/><polygon class="cls-11" points="3465.81 967.37 2677.81 967.37 2761.81 848.55 3391.81 848.55 3465.81 967.37"/><rect class="cls-5" x="2794.81" y="436.72" width="565" height="381.66"/><rect class="cls-11" x="2677.81" y="967.37" width="788" height="34.18"/><polygon class="cls-12" points="3378.81 928.55 2773.81 928.55 2811.81 863.55 3342.81 863.55 3378.81 928.55"/><line class="cls-13" x1="3075.81" y1="863.55" x2="3075.81" y2="928.55"/><line class="cls-13" x1="3243.81" y1="863.55" x2="3258.81" y2="928.55"/><line class="cls-13" x1="3194.81" y1="863.55" x2="3202.81" y2="928.55"/><line class="cls-13" x1="3135.81" y1="863.55" x2="3139.81" y2="928.55"/><line class="cls-13" x1="3292.81" y1="863.55" x2="3317.81" y2="928.55"/><line class="cls-13" x1="2909.81" y1="863.55" x2="2894.81" y2="928.55"/><line class="cls-13" x1="2958.81" y1="863.55" x2="2950.81" y2="928.55"/><line class="cls-13" x1="3017.81" y1="863.55" x2="3013.81" y2="928.55"/><line class="cls-13" x1="2860.81" y1="863.55" x2="2835.81" y2="928.55"/><line class="cls-13" x1="2806.81" y1="875.55" x2="3346.81" y2="875.55"/><line class="cls-13" x1="2796.81" y1="890.55" x2="3356.81" y2="890.55"/><line class="cls-13" x1="2786.81" y1="907.55" x2="3365.81" y2="907.55"/><polygon class="cls-13" points="3266.81 957.61 2887.81 957.61 2892.81 937.5 3261.75 937.5 3266.81 957.61"/><path class="cls-13" d="M2981.42,690a142.1,142.1,0,0,0,201.09,0"/><circle class="cls-14" cx="2993.67" cy="556.23" r="18.36"/><circle class="cls-14" cx="3169.38" cy="556.23" r="18.36"/><rect class="cls-11" x="3887.54" y="406.55" width="630" height="442"/><polygon class="cls-11" points="4591.53 967.37 3803.53 967.37 3887.53 848.55 4517.53 848.55 4591.53 967.37"/><rect class="cls-2" x="3920.54" y="436.72" width="565" height="381.66"/><rect class="cls-11" x="3803.54" y="967.37" width="788" height="34.18"/><polygon class="cls-12" points="4504.53 928.55 3899.53 928.55 3937.53 863.55 4468.53 863.55 4504.53 928.55"/><line class="cls-13" x1="4201.54" y1="863.55" x2="4201.54" y2="928.55"/><line class="cls-13" x1="4369.54" y1="863.55" x2="4384.54" y2="928.55"/><line class="cls-13" x1="4320.54" y1="863.55" x2="4328.54" y2="928.55"/><line class="cls-13" x1="4261.54" y1="863.55" x2="4265.54" y2="928.55"/><line class="cls-13" x1="4418.54" y1="863.55" x2="4443.54" y2="928.55"/><line class="cls-13" x1="4035.54" y1="863.55" x2="4020.54" y2="928.55"/><line class="cls-13" x1="4084.54" y1="863.55" x2="4076.54" y2="928.55"/><line class="cls-13" x1="4143.54" y1="863.55" x2="4139.54" y2="928.55"/><line class="cls-13" x1="3986.54" y1="863.55" x2="3961.54" y2="928.55"/><line class="cls-13" x1="3932.54" y1="875.55" x2="4472.54" y2="875.55"/><line class="cls-13" x1="3922.54" y1="890.55" x2="4482.54" y2="890.55"/><line class="cls-13" x1="3912.54" y1="907.55" x2="4491.54" y2="907.55"/><polygon class="cls-13" points="4392.53 957.61 4013.53 957.61 4018.53 937.5 4387.47 937.5 4392.53 957.61"/><rect class="cls-11" x="1859.1" y="483.23" width="410.71" height="173.24"/><rect class="cls-11" x="1859.1" y="656.47" width="410.71" height="173.24"/><rect class="cls-11" x="1859.1" y="829.71" width="410.71" height="173.24"/><circle class="cls-15" cx="1916.98" cy="572.04" r="18.01"/><circle class="cls-15" cx="1971.27" cy="572.04" r="18.01"/><circle class="cls-15" cx="2024.03" cy="572.04" r="18.01"/><line class="cls-13" x1="2063.94" y1="573.17" x2="2244.96" y2="573.17"/><circle class="cls-15" cx="1916.98" cy="747.22" r="18.01"/><circle class="cls-15" cx="1971.27" cy="747.22" r="18.01"/><circle class="cls-15" cx="2024.03" cy="747.22" r="18.01"/><line class="cls-13" x1="2063.94" y1="748.36" x2="2244.96" y2="748.36"/><circle class="cls-15" cx="1916.98" cy="917.54" r="18.01"/><circle class="cls-15" cx="1971.27" cy="917.54" r="18.01"/><circle class="cls-15" cx="2024.03" cy="917.54" r="18.01"/><line class="cls-13" x1="2063.94" y1="918.68" x2="2244.96" y2="918.68"/><polygon class="cls-16" points="2269.82 483.23 1859.1 483.23 1906.33 403.11 2212.91 403.11 2269.82 483.23"/><path d="M339.88,599.79l-8.69-21.73v31.19h-8.51V565.14H335l9.64,25,9.83-25h11.78v44.11h-8.7V578.06l-8.44,21.73Z"/><path d="M383.1,609.25H381l-9.89-28.86h9.13l6.11,20.54,6.18-20.54h8.88L389.9,613.78c-1.45,4.22-3.71,6.49-9,6.49h-5.67V613.4h4a3,3,0,0,0,3.21-2.26Z"/><path d="M439.86,585.56v.12c5.11,2.08,8.19,5.8,8.19,10.9,0,7.06-5.23,12.67-14.55,12.67H417.81V565.14h14.24c9.07,0,13.61,5.61,13.61,11.28A9.74,9.74,0,0,1,439.86,585.56Zm-13.29-13v9.83H431c3.15,0,5.74-1.58,5.74-5s-2.71-4.85-5.74-4.85Zm0,29.29h4.54c5.29,0,7.81-2.45,7.81-6s-3.09-5.61-7.37-5.61h-5Z"/><path d="M461.28,609.25h-8.13V565.14h8.13Z"/><path d="M466.51,594.82c0-8.82,6.87-15.19,15.44-15.19s15.43,6.37,15.43,15.19S490.51,610,482,610,466.51,603.64,466.51,594.82Zm8.19,0c0,4.47,3,7.87,7.25,7.87s7.18-3.4,7.18-7.87-3-7.88-7.18-7.88S474.7,590.28,474.7,594.82Z"/><path d="M531.84,580.39v31c0,4.53-2.27,8.88-9.26,8.88H510v-6.93h10.52c1.45,0,3.09-.38,3.09-2.58v-5.55c-1.38,2.33-4.85,4.35-8.94,4.35-7.82,0-13.87-5.92-13.87-14.93s6-15,13.8-15c4.35,0,7.69,2,9.14,4.48,0-.32-.13-.89-.13-2.4v-1.32ZM516.53,602.5c4.35,0,7.31-3.21,7.31-7.87s-3-7.94-7.31-7.94-7.24,3.21-7.24,7.94S512.25,602.5,516.53,602.5Z"/><path d="M557.1,580.39a5.51,5.51,0,1,1-5.48,5.54A5.52,5.52,0,0,1,557.1,580.39Zm0,18.65a5.48,5.48,0,1,1,0,11,5.48,5.48,0,1,1,0-11Z"/><path d="M574.74,618.88h-7.37v-.94A43.4,43.4,0,0,0,577,591.48a40.19,40.19,0,0,0-9.58-25.33v-1h7.37c6.37,7.88,10.71,16.32,10.71,26.34S581.11,611.14,574.74,618.88Z"/><polygon class="cls-2" points="816.06 453.12 816.06 722.22 689.83 914.79 816.06 816.19 816.06 898.59 1369.4 898.59 1369.4 453.12 816.06 453.12"/><path d="M976.19,514.1c5.86,0,10.34-3.15,12-8.38h9.64c-2.58,10.4-11.65,16.45-21.61,16.45-13,0-23-9.52-23-22.81s10-22.81,23-22.81c10,0,19,6.05,21.61,16.45h-9.64c-1.63-5.23-6.11-8.38-12-8.38-8.31,0-13.86,6.3-13.86,14.74S967.88,514.1,976.19,514.1Z"/><path d="M1001,507c0-8.82,6.87-15.18,15.44-15.18s15.44,6.36,15.44,15.18-6.87,15.19-15.44,15.19S1001,515.8,1001,507Zm8.19,0c0,4.48,3,7.88,7.25,7.88s7.18-3.4,7.18-7.88-3-7.87-7.18-7.87S1009.2,502.45,1009.2,507Z"/><path d="M1075,504.46c0-3.53-2.27-5-4.79-5a7.86,7.86,0,0,0-6,3.28v18.71h-8.19V504.46c0-3.46-2.21-5-4.79-5a7.89,7.89,0,0,0-6,3.28v18.71h-8.19V492.55h8v1.14c0,1-.12,2.27-.12,2.27a11.15,11.15,0,0,1,8.63-4.16c4.28,0,7.62,1.83,9.26,5.23a11.58,11.58,0,0,1,9.7-5.23c6.24,0,10.65,4,10.65,10.71v18.9H1075Z"/><path d="M1127.9,504.46c0-3.53-2.27-5-4.79-5a7.89,7.89,0,0,0-6,3.28v18.71h-8.19V504.46c0-3.46-2.2-5-4.79-5a7.86,7.86,0,0,0-6,3.28v18.71H1090V492.55h8v1.14c0,1-.13,2.27-.13,2.27a11.19,11.19,0,0,1,8.64-4.16c4.28,0,7.62,1.83,9.26,5.23a11.58,11.58,0,0,1,9.7-5.23c6.24,0,10.65,4,10.65,10.71v18.9h-8.19Z"/><path d="M1171.11,509.38h-21.48a6.85,6.85,0,0,0,12.41,2.83l8.51.88c-2.59,6.18-8,9.08-14.43,9.08A14.72,14.72,0,0,1,1141,507c0-8.82,6.36-15.18,15-15.18,7.94,0,15.12,5.16,15.12,17.26Zm-21.67-5.48h12.92a6.27,6.27,0,0,0-6.37-5.3A6.44,6.44,0,0,0,1149.44,503.9Z"/><path d="M1192.66,491.8c6.24,0,10.71,4,10.71,10.71v18.9h-8.19V504.59c0-3.66-2.33-5.17-4.92-5.17a8,8,0,0,0-6.11,3.28v18.71H1176V492.55h8v1.14c0,1-.12,2.27-.12,2.27A11.34,11.34,0,0,1,1192.66,491.8Z"/><path d="M1220.44,481.59v11h6.24v6.93h-6.24v13c0,1.82,1.45,2.08,2.71,2.08,2.08,0,3.78-.19,3.78-.19v7s-4,.38-6.36.38c-4.1,0-8.32-.69-8.32-6.49V499.48h-4.54v-6.93h4.54v-11Z"/><path d="M893,635.2l18.25,8.42a5.36,5.36,0,0,1,1.57,1,1.76,1.76,0,0,1,0,2.35,1.63,1.63,0,0,1-1.21.45,2.53,2.53,0,0,1-.77-.13,8,8,0,0,1-1.2-.5l-19.8-9.23-.25-.1c-1.52-.7-2.29-1.46-2.29-2.3s.75-1.57,2.24-2.24l.3-.15,19.8-9.08a8.24,8.24,0,0,1,1.15-.47,3,3,0,0,1,.82-.13,1.7,1.7,0,0,1,1.21.42,1.52,1.52,0,0,1,.43,1.15,1.72,1.72,0,0,1-.47,1.18,5,5,0,0,1-1.57,1Z"/><path d="M920.69,649.18v-4.44a2.36,2.36,0,0,1,.41-1.57,1.69,1.69,0,0,1,1.33-.47c.68,0,1.22.47,1.62,1.4a7.8,7.8,0,0,0,.72,1.27,7.2,7.2,0,0,0,3.09,2.15,12.11,12.11,0,0,0,4.51.81,7.49,7.49,0,0,0,4.23-1.07,3.27,3.27,0,0,0,1.59-2.82,2.67,2.67,0,0,0-1.28-2.51,9.27,9.27,0,0,0-4.39-.75h-1.37q-5.08,0-7.75-1.77a6.29,6.29,0,0,1-.06-10.23q2.6-1.81,7.31-1.82a14.91,14.91,0,0,1,3.91.54c1.33.35,2,.53,2.09.53a2.76,2.76,0,0,0,1.05-.48,2.78,2.78,0,0,1,1.51-.49,1.41,1.41,0,0,1,1.26.62,3.39,3.39,0,0,1,.41,1.87v2.91a3.46,3.46,0,0,1-.4,1.91,1.41,1.41,0,0,1-1.27.58c-.49,0-1.11-.42-1.84-1.27a17.06,17.06,0,0,0-1.27-1.32,8.37,8.37,0,0,0-2.81-1.75,10.36,10.36,0,0,0-3.51-.54,6.34,6.34,0,0,0-3.78,1,3.12,3.12,0,0,0-1.43,2.62,2.31,2.31,0,0,0,1.47,2.25q1.47.66,6.33.77,5.18.12,7.57,1.8a5.92,5.92,0,0,1,2.39,5.19,6.41,6.41,0,0,1-2.64,5.38,11.42,11.42,0,0,1-7.12,2,22.23,22.23,0,0,1-3.17-.26c-1.16-.18-2.62-.47-4.38-.88a12,12,0,0,1-1.49.85,2.53,2.53,0,0,1-1,.29,1.56,1.56,0,0,1-1.33-.61A2.85,2.85,0,0,1,920.69,649.18Z"/><path d="M969.65,629.45v-.1a1.47,1.47,0,0,1,.47-1.21,2.33,2.33,0,0,1,1.47-.38,1.52,1.52,0,0,1,1.4.6,5.11,5.11,0,0,1,.39,2.46v4.63a1.88,1.88,0,0,1-.47,1.39,2,2,0,0,1-1.42.46,1.79,1.79,0,0,1-1.16-.39,5.89,5.89,0,0,1-1.18-1.61,8.71,8.71,0,0,0-2.9-3,7.53,7.53,0,0,0-3.93-1,8.81,8.81,0,0,0-6.31,2.29,7.78,7.78,0,0,0-2.43,5.93,8.26,8.26,0,0,0,2.33,6.06,8.06,8.06,0,0,0,6,2.36,10.78,10.78,0,0,0,3.18-.47,10.14,10.14,0,0,0,2.85-1.38c.31-.2.74-.5,1.27-.92a4.7,4.7,0,0,1,2.54-1.32,1.68,1.68,0,0,1,1.74,1.74q0,2-3.72,4a16.12,16.12,0,0,1-7.91,2.05,12.46,12.46,0,0,1-9-3.46,12.2,12.2,0,0,1,0-17.3,12.39,12.39,0,0,1,9-3.47,14.66,14.66,0,0,1,3.8.51A22,22,0,0,1,969.65,629.45Z"/><path d="M990.31,647.46h8.27a2.05,2.05,0,0,1,1.43.41,1.66,1.66,0,0,1,.46,1.31,1.8,1.8,0,0,1-.43,1.4,2.47,2.47,0,0,1-1.61.39H982.15a2.12,2.12,0,0,1-1.47-.45,1.69,1.69,0,0,1-.5-1.34,1.58,1.58,0,0,1,.51-1.3,2.47,2.47,0,0,1,1.58-.42h4.33v-16h-1.69a7.13,7.13,0,0,1-3-.38,1.53,1.53,0,0,1-.6-1.4,1.63,1.63,0,0,1,.49-1.3,2.15,2.15,0,0,1,1.48-.43h5.67a1.76,1.76,0,0,1,1,.26.89.89,0,0,1,.34.76v4.23a17.31,17.31,0,0,1,4.94-4.4,11,11,0,0,1,5.52-1.45,6.51,6.51,0,0,1,3.59.89,2.67,2.67,0,0,1,1.37,2.3,2.27,2.27,0,0,1-.69,1.63,2,2,0,0,1-1.5.71,4.81,4.81,0,0,1-1.93-.76,5.09,5.09,0,0,0-2.43-.76,7.66,7.66,0,0,0-4.1,1.38,24.58,24.58,0,0,0-4.77,4.38Z"/><path d="M1025.68,647.46h8a2.07,2.07,0,0,1,1.43.41,1.66,1.66,0,0,1,.46,1.31,1.8,1.8,0,0,1-.43,1.4,2.47,2.47,0,0,1-1.61.39h-19.3a2.16,2.16,0,0,1-1.49-.45,1.69,1.69,0,0,1-.5-1.34,1.56,1.56,0,0,1,.52-1.3,2.47,2.47,0,0,1,1.57-.42h7.6v-16H1017a2.32,2.32,0,0,1-1.56-.46,1.62,1.62,0,0,1-.54-1.32,1.64,1.64,0,0,1,.5-1.3,2.22,2.22,0,0,1,1.5-.43h7.29a1.83,1.83,0,0,1,1.06.27.86.86,0,0,1,.39.75Zm-4.61-26.67a7.24,7.24,0,0,1,.48-3.39,2.42,2.42,0,0,1,2.08-.7,2.69,2.69,0,0,1,2.05.59,4.9,4.9,0,0,1,.49,2.77,4.65,4.65,0,0,1-.46,2.66,2.9,2.9,0,0,1-2.08.51,3.13,3.13,0,0,1-2.08-.48A2.83,2.83,0,0,1,1021.07,620.79Z"/><path d="M1047.54,657.34h6a2,2,0,0,1,1.42.45,1.8,1.8,0,0,1,.47,1.35,1.74,1.74,0,0,1-.46,1.37,2.58,2.58,0,0,1-1.63.39h-11a2.27,2.27,0,0,1-1.51-.44,1.67,1.67,0,0,1-.51-1.32,1.53,1.53,0,0,1,.63-1.4,4.93,4.93,0,0,1,2.36-.4h.47V631.49h-.47a5,5,0,0,1-2.36-.39,1.53,1.53,0,0,1-.63-1.4,1.63,1.63,0,0,1,.51-1.31,2.27,2.27,0,0,1,1.51-.43h3.78a1.79,1.79,0,0,1,1.08.25.87.87,0,0,1,.34.77v2.41a11.46,11.46,0,0,1,3.75-2.61,11.21,11.21,0,0,1,4.42-.87,11.34,11.34,0,0,1,8.37,3.39,11.54,11.54,0,0,1,3.36,8.49,10.91,10.91,0,0,1-3.19,8.07,11.11,11.11,0,0,1-8.14,3.16,12.28,12.28,0,0,1-4.86-.94,9.82,9.82,0,0,1-3.71-2.67Zm7.72-10a7.78,7.78,0,0,0,5.68-2.18,8.22,8.22,0,0,0,0-11.23,7.74,7.74,0,0,0-5.67-2.21,7.81,7.81,0,1,0,0,15.62Z"/><path d="M1091.37,629.35a2.91,2.91,0,0,1,1.78.43,1.58,1.58,0,0,1,.56,1.34,1.64,1.64,0,0,1-.52,1.31,2.43,2.43,0,0,1-1.57.43h-10.09v8.32c0,2.72.35,4.52,1.06,5.38a4.45,4.45,0,0,0,3.62,1.3,14.56,14.56,0,0,0,5.43-1.32,16,16,0,0,1,3.91-1.32,1.57,1.57,0,0,1,1.18.49,1.67,1.67,0,0,1,.49,1.22,2,2,0,0,1-.61,1.44,6.29,6.29,0,0,1-2.08,1.18,30.56,30.56,0,0,1-4.39,1.42,16.49,16.49,0,0,1-3.68.45,11.46,11.46,0,0,1-4.89-.94,6.26,6.26,0,0,1-3-2.77,6.47,6.47,0,0,1-.71-2.07,23.46,23.46,0,0,1-.21-3.69v-9.09h-4.24a2.28,2.28,0,0,1-1.52-.41,1.68,1.68,0,0,1-.47-1.33,1.47,1.47,0,0,1,.65-1.39,6.43,6.43,0,0,1,2.76-.38h2.82v-6.42a2.28,2.28,0,0,1,.46-1.58,1.82,1.82,0,0,1,1.43-.51,1.69,1.69,0,0,1,1.52.62,6,6,0,0,1,.42,2.84v5.05Z"/><path d="M1121.82,635.2l-18.2-8.31a5.32,5.32,0,0,1-1.62-1,1.66,1.66,0,0,1-.47-1.15,1.52,1.52,0,0,1,.43-1.15,1.65,1.65,0,0,1,1.19-.42,3,3,0,0,1,.83.13,10.08,10.08,0,0,1,1.16.47l19.8,9.08a2,2,0,0,0,.3.15c1.49.67,2.24,1.41,2.24,2.24s-.73,1.57-2.19,2.25a1.85,1.85,0,0,0-.35.15l-19.8,9.23-.1,0a5.28,5.28,0,0,1-1.89.58A1.58,1.58,0,0,1,1102,647a1.76,1.76,0,0,1,0-2.35,5.32,5.32,0,0,1,1.62-1Z"/><path d="M944.44,698.45v-.1a1.47,1.47,0,0,1,.47-1.21,2.33,2.33,0,0,1,1.47-.38,1.52,1.52,0,0,1,1.4.6,5.11,5.11,0,0,1,.39,2.46v4.63a1.88,1.88,0,0,1-.47,1.39,2,2,0,0,1-1.42.46,1.79,1.79,0,0,1-1.16-.39,5.89,5.89,0,0,1-1.18-1.61,8.71,8.71,0,0,0-2.9-3,7.53,7.53,0,0,0-3.93-1,8.81,8.81,0,0,0-6.31,2.29,7.78,7.78,0,0,0-2.43,5.93,8.26,8.26,0,0,0,2.33,6.06,8.06,8.06,0,0,0,6,2.36,10.78,10.78,0,0,0,3.18-.47,10.14,10.14,0,0,0,2.85-1.38c.31-.2.74-.5,1.27-.92a4.7,4.7,0,0,1,2.54-1.32,1.68,1.68,0,0,1,1.74,1.74q0,2-3.72,4a16.12,16.12,0,0,1-7.91,2.05,12.46,12.46,0,0,1-9-3.46,12.2,12.2,0,0,1,0-17.3,12.39,12.39,0,0,1,9-3.47,14.66,14.66,0,0,1,3.8.51A22,22,0,0,1,944.44,698.45Z"/><path d="M980.62,708.49A11.34,11.34,0,0,1,977,717.2a14.8,14.8,0,0,1-18.85,0,12.26,12.26,0,0,1,0-17.42,14.82,14.82,0,0,1,18.84,0A11.33,11.33,0,0,1,980.62,708.49Zm-13.08,8.59a8.55,8.55,0,0,0,6.29-2.43,8.28,8.28,0,0,0,2.46-6.17,8.39,8.39,0,0,0-2.47-6.21,9.25,9.25,0,0,0-12.54,0,8.42,8.42,0,0,0-2.45,6.21,8.32,8.32,0,0,0,2.44,6.19A8.54,8.54,0,0,0,967.54,717.08Z"/><path d="M1005.65,720a.92.92,0,0,1-.74-.26,1.72,1.72,0,0,1-.21-1v-2a10.21,10.21,0,0,1-3.74,2.9,11.41,11.41,0,0,1-4.85,1,10.41,10.41,0,0,1-7.88-3.35,12.53,12.53,0,0,1,.21-16.91,11.4,11.4,0,0,1,8.44-3.42,11.16,11.16,0,0,1,4.61.91,9.61,9.61,0,0,1,3.51,2.67V691h-1.32a6.3,6.3,0,0,1-2.8-.39,1.51,1.51,0,0,1-.64-1.41,1.7,1.7,0,0,1,.51-1.34,2.18,2.18,0,0,1,1.48-.45h5.11a1.79,1.79,0,0,1,1.08.25.88.88,0,0,1,.34.77v28.07h1.12a3,3,0,0,1,1.77.41,1.54,1.54,0,0,1,.54,1.31,1.78,1.78,0,0,1-.47,1.32,1.73,1.73,0,0,1-1.27.47Zm-16.32-11.18a7.55,7.55,0,0,0,2.22,5.62,7.64,7.64,0,0,0,5.63,2.2,7.54,7.54,0,0,0,5.65-2.28,8,8,0,0,0,2.22-5.79,7.78,7.78,0,0,0-2.21-5.7,8.24,8.24,0,0,0-11.34,0A8.25,8.25,0,0,0,989.33,708.79Z"/><path d="M1020.34,709.56a7.59,7.59,0,0,0,2.43,5.56,8.85,8.85,0,0,0,6.08,2,15.45,15.45,0,0,0,6.35-1.56,17.58,17.58,0,0,1,4.16-1.55,1.72,1.72,0,0,1,1.25.47,1.57,1.57,0,0,1,.5,1.17,2,2,0,0,1-.53,1.32,5.41,5.41,0,0,1-1.66,1.16,25.61,25.61,0,0,1-5.15,1.86,22.19,22.19,0,0,1-5.26.64,12.57,12.57,0,0,1-9.09-3.27,11.48,11.48,0,0,1-3.42-8.68,11.72,11.72,0,0,1,3.62-8.92,13.14,13.14,0,0,1,9.41-3.41,12.33,12.33,0,0,1,8.71,3.19,10.11,10.11,0,0,1,3.47,7.72,2.35,2.35,0,0,1-.59,1.87c-.39.31-1.45.47-3.17.47h-17.11Zm.12-3.26h16.21a7.23,7.23,0,0,0-2.47-4.77,7.66,7.66,0,0,0-5.17-1.81,8.83,8.83,0,0,0-5.58,1.75A8.22,8.22,0,0,0,1020.46,706.3Z"/><path d="M1064.42,690.68a7.33,7.33,0,0,1-.84,2.26c-.56,1.15-1,2.07-1.26,2.75a39.93,39.93,0,0,0-2.4,7.24,33.34,33.34,0,0,0-.11,13.14,33.53,33.53,0,0,0,1.82,6.09c.41,1.1,1,2.39,1.7,3.87a10.44,10.44,0,0,1,1.09,2.75,1.37,1.37,0,0,1-.24.86.76.76,0,0,1-.64.31,2.77,2.77,0,0,1-1.71-.81,13.54,13.54,0,0,1-2.2-2.6,29.41,29.41,0,0,1-4-8,29,29,0,0,1-1.32-8.79,28.51,28.51,0,0,1,4.38-15.44,18.44,18.44,0,0,1,2.67-3.56,3.36,3.36,0,0,1,2.16-1.2.78.78,0,0,1,.64.31A1.3,1.3,0,0,1,1064.42,690.68Z"/><path d="M1084.88,728.78a7.35,7.35,0,0,1,.85-2.2c.57-1.14,1-2.05,1.3-2.73a42.64,42.64,0,0,0,2.39-7.28,32.5,32.5,0,0,0,.11-13.07,34.74,34.74,0,0,0-1.86-6.17q-.64-1.64-1.71-3.87a10,10,0,0,1-1.08-2.78,1.3,1.3,0,0,1,.25-.81.83.83,0,0,1,.65-.31,2.79,2.79,0,0,1,1.76.81,14.81,14.81,0,0,1,2.18,2.58,29,29,0,0,1,4,8,29.34,29.34,0,0,1,1.32,8.82,28.76,28.76,0,0,1-1.11,8,30.07,30.07,0,0,1-3.32,7.42,21.39,21.39,0,0,1-2.7,3.59,3.25,3.25,0,0,1-2.11,1.14.78.78,0,0,1-.65-.32A1.41,1.41,0,0,1,1084.88,728.78Z"/><path d="M1117.46,713.89a2,2,0,0,1,.52-1,1.74,1.74,0,0,1,1-.23h5.16a.9.9,0,0,1,.53.15.45.45,0,0,1,.21.37,1,1,0,0,1-.05.28,1.2,1.2,0,0,1-.15.37l-6.42,13.37a1.55,1.55,0,0,1-.44.58,1,1,0,0,1-.58.17H1117l-.19,0-1.64-.6a1.34,1.34,0,0,1-.56-.37.73.73,0,0,1-.19-.5,1.77,1.77,0,0,1,0-.22,3.16,3.16,0,0,1,.09-.4Zm-1.92-11.78a4.11,4.11,0,0,1,1.36-3.18,5,5,0,0,1,3.52-1.25,5.18,5.18,0,0,1,3.59,1.23,4.42,4.42,0,0,1,0,6.4,5.19,5.19,0,0,1-3.59,1.24,5.09,5.09,0,0,1-3.54-1.22A4.17,4.17,0,0,1,1115.54,702.11Z"/><path d="M893,773.2l18.25,8.42a5.36,5.36,0,0,1,1.57,1,1.76,1.76,0,0,1,0,2.35,1.63,1.63,0,0,1-1.21.45,2.53,2.53,0,0,1-.77-.13,8,8,0,0,1-1.2-.5l-19.8-9.23-.25-.1c-1.52-.7-2.29-1.46-2.29-2.3s.75-1.57,2.24-2.24l.3-.15,19.8-9.08a8.24,8.24,0,0,1,1.15-.47,3,3,0,0,1,.82-.13,1.7,1.7,0,0,1,1.21.42,1.52,1.52,0,0,1,.43,1.15,1.72,1.72,0,0,1-.47,1.18,5,5,0,0,1-1.57,1Z"/><path d="M925.94,789.64a5.16,5.16,0,0,1-1,1.69,1.66,1.66,0,0,1-1.16.45,1.7,1.7,0,0,1-1.22-.51,1.67,1.67,0,0,1-.45-1.69,5.47,5.47,0,0,1,.2-.56l15.54-33.5a6.65,6.65,0,0,1,1.1-1.75,1.55,1.55,0,0,1,1.14-.46,1.74,1.74,0,0,1,1.27.5,1.58,1.58,0,0,1,.52,1.19,2,2,0,0,1-.06.45,1.91,1.91,0,0,1-.18.47Z"/><path d="M951.29,787.18v-4.44a2.42,2.42,0,0,1,.41-1.57,1.72,1.72,0,0,1,1.34-.47c.68,0,1.22.47,1.61,1.4a7.72,7.72,0,0,0,.73,1.27,7.11,7.11,0,0,0,3.08,2.15,12.18,12.18,0,0,0,4.51.81,7.49,7.49,0,0,0,4.23-1.07,3.25,3.25,0,0,0,1.6-2.82,2.68,2.68,0,0,0-1.28-2.51,9.32,9.32,0,0,0-4.4-.75h-1.37q-5.09,0-7.74-1.77a5.78,5.78,0,0,1-2.67-5.13,5.87,5.87,0,0,1,2.6-5.1,12.68,12.68,0,0,1,7.31-1.82,14.91,14.91,0,0,1,3.91.54c1.33.35,2,.53,2.09.53a2.63,2.63,0,0,0,1-.48,2.81,2.81,0,0,1,1.52-.49,1.43,1.43,0,0,1,1.26.62,3.48,3.48,0,0,1,.41,1.87v2.91a3.46,3.46,0,0,1-.4,1.91,1.43,1.43,0,0,1-1.27.58c-.5,0-1.11-.42-1.84-1.27-.52-.58-.94-1-1.27-1.32a8.32,8.32,0,0,0-2.82-1.75,10.28,10.28,0,0,0-3.51-.54,6.28,6.28,0,0,0-3.77,1,3.1,3.1,0,0,0-1.43,2.62,2.31,2.31,0,0,0,1.47,2.25c1,.44,3.08.7,6.32.77,3.45.08,6,.68,7.57,1.8a5.89,5.89,0,0,1,2.39,5.19,6.41,6.41,0,0,1-2.64,5.38,11.41,11.41,0,0,1-7.12,2,22,22,0,0,1-3.16-.26c-1.16-.18-2.62-.47-4.38-.88a12,12,0,0,1-1.5.85,2.46,2.46,0,0,1-1,.29,1.57,1.57,0,0,1-1.34-.61A2.92,2.92,0,0,1,951.29,787.18Z"/><path d="M1000.25,767.45v-.1a1.5,1.5,0,0,1,.47-1.21,2.37,2.37,0,0,1,1.47-.38,1.55,1.55,0,0,1,1.41.6,5.11,5.11,0,0,1,.39,2.46v4.63a1.85,1.85,0,0,1-.48,1.39,2,2,0,0,1-1.42.46,1.78,1.78,0,0,1-1.15-.39,5.87,5.87,0,0,1-1.19-1.61,8.53,8.53,0,0,0-2.9-3,7.49,7.49,0,0,0-3.92-1,8.81,8.81,0,0,0-6.31,2.29,7.78,7.78,0,0,0-2.43,5.93,8.22,8.22,0,0,0,2.33,6.06,8.06,8.06,0,0,0,6,2.36,10.66,10.66,0,0,0,3.17-.47,9.88,9.88,0,0,0,2.85-1.38,14.62,14.62,0,0,0,1.27-.92,4.73,4.73,0,0,1,2.54-1.32,1.67,1.67,0,0,1,1.26.49,1.7,1.7,0,0,1,.49,1.25c0,1.32-1.25,2.66-3.73,4a16.08,16.08,0,0,1-7.9,2.05,12.47,12.47,0,0,1-9-3.46,12.23,12.23,0,0,1,0-17.3,12.4,12.4,0,0,1,9-3.47,14.59,14.59,0,0,1,3.79.51A22,22,0,0,1,1000.25,767.45Z"/><path d="M1020.92,785.46h8.27a2.09,2.09,0,0,1,1.43.41,1.66,1.66,0,0,1,.46,1.31,1.8,1.8,0,0,1-.44,1.4,2.44,2.44,0,0,1-1.6.39h-16.29a2.12,2.12,0,0,1-1.47-.45,1.73,1.73,0,0,1-.5-1.34,1.58,1.58,0,0,1,.51-1.3,2.48,2.48,0,0,1,1.59-.42h4.33v-16h-1.69a7.18,7.18,0,0,1-3-.38,1.53,1.53,0,0,1-.6-1.4,1.67,1.67,0,0,1,.49-1.3,2.16,2.16,0,0,1,1.48-.43h5.68a1.7,1.7,0,0,1,1,.26.9.9,0,0,1,.35.76v4.23a17.41,17.41,0,0,1,4.93-4.4,11,11,0,0,1,5.53-1.45,6.48,6.48,0,0,1,3.58.89,2.65,2.65,0,0,1,1.37,2.3,2.26,2.26,0,0,1-.68,1.63,2.08,2.08,0,0,1-1.51.71,4.87,4.87,0,0,1-1.93-.76,5,5,0,0,0-2.43-.76,7.63,7.63,0,0,0-4.09,1.38,24,24,0,0,0-4.77,4.38Z"/><path d="M1056.28,785.46h8a2.1,2.1,0,0,1,1.44.41,1.69,1.69,0,0,1,.46,1.31,1.8,1.8,0,0,1-.44,1.4,2.44,2.44,0,0,1-1.6.39h-19.3a2.17,2.17,0,0,1-1.5-.45,1.73,1.73,0,0,1-.5-1.34,1.56,1.56,0,0,1,.53-1.3,2.47,2.47,0,0,1,1.57-.42h7.59v-16h-4.87a2.29,2.29,0,0,1-1.56-.46,1.91,1.91,0,0,1,0-2.62,2.21,2.21,0,0,1,1.49-.43h7.3a1.79,1.79,0,0,1,1.05.27.86.86,0,0,1,.39.75Zm-4.61-26.67a7.2,7.2,0,0,1,.49-3.39c.32-.47,1-.7,2.08-.7a2.65,2.65,0,0,1,2,.59,4.88,4.88,0,0,1,.5,2.77,4.65,4.65,0,0,1-.46,2.66,2.92,2.92,0,0,1-2.08.51,3.11,3.11,0,0,1-2.08-.48A2.83,2.83,0,0,1,1051.67,758.79Z"/><path d="M1078.15,795.34h6a2,2,0,0,1,1.42.45,1.76,1.76,0,0,1,.47,1.35,1.74,1.74,0,0,1-.46,1.37,2.56,2.56,0,0,1-1.63.39h-11a2.29,2.29,0,0,1-1.51-.44,1.67,1.67,0,0,1-.51-1.32,1.53,1.53,0,0,1,.64-1.4,4.88,4.88,0,0,1,2.35-.4h.47V769.49h-.47a4.91,4.91,0,0,1-2.35-.39,1.53,1.53,0,0,1-.64-1.4,1.63,1.63,0,0,1,.51-1.31,2.29,2.29,0,0,1,1.51-.43h3.79a1.83,1.83,0,0,1,1.08.25.9.9,0,0,1,.34.77v2.41a11.66,11.66,0,0,1,16.53-.09,11.54,11.54,0,0,1,3.36,8.49,10.87,10.87,0,0,1-3.19,8.07,11.1,11.1,0,0,1-8.14,3.16,12.2,12.2,0,0,1-4.85-.94,9.75,9.75,0,0,1-3.71-2.67Zm7.71-10a7.78,7.78,0,0,0,5.68-2.18,8.2,8.2,0,0,0,0-11.23,7.73,7.73,0,0,0-5.67-2.21,7.81,7.81,0,1,0,0,15.62Z"/><path d="M1122,767.35a2.89,2.89,0,0,1,1.78.43,1.55,1.55,0,0,1,.56,1.34,1.61,1.61,0,0,1-.52,1.31,2.41,2.41,0,0,1-1.57.43h-10.08v8.32c0,2.72.35,4.52,1.06,5.38a4.44,4.44,0,0,0,3.62,1.3,14.56,14.56,0,0,0,5.43-1.32,16,16,0,0,1,3.91-1.32,1.59,1.59,0,0,1,1.18.49,1.72,1.72,0,0,1,.49,1.22,2,2,0,0,1-.61,1.44,6.4,6.4,0,0,1-2.08,1.18,30.65,30.65,0,0,1-4.4,1.42,16.4,16.4,0,0,1-3.67.45,11.51,11.51,0,0,1-4.9-.94,6.26,6.26,0,0,1-3-2.77,6.47,6.47,0,0,1-.71-2.07,23.46,23.46,0,0,1-.21-3.69v-9.09h-4.23a2.25,2.25,0,0,1-1.52-.41,1.64,1.64,0,0,1-.47-1.33,1.46,1.46,0,0,1,.64-1.39,6.52,6.52,0,0,1,2.77-.38h2.81v-6.42a2.33,2.33,0,0,1,.46-1.58,1.85,1.85,0,0,1,1.43-.51,1.69,1.69,0,0,1,1.52.62,5.82,5.82,0,0,1,.43,2.84v5.05Z"/><path d="M1152.43,773.2l-18.2-8.31a5.07,5.07,0,0,1-1.62-1,1.63,1.63,0,0,1-.48-1.15,1.52,1.52,0,0,1,.44-1.15,1.62,1.62,0,0,1,1.18-.42,3,3,0,0,1,.84.13,10,10,0,0,1,1.15.47l19.8,9.08.3.15c1.49.67,2.24,1.41,2.24,2.24s-.73,1.57-2.19,2.25a2.22,2.22,0,0,0-.35.15l-19.8,9.23-.1,0a5.28,5.28,0,0,1-1.89.58,1.56,1.56,0,0,1-1.18-.45,1.66,1.66,0,0,1-.44-1.2,1.63,1.63,0,0,1,.48-1.15,5.07,5.07,0,0,1,1.62-1Z"/><line class="cls-2" x1="817.63" y1="558.91" x2="1366.84" y2="558.91"/><path class="cls-17" d="M1292.68,769.7v-31a4.67,4.67,0,1,0-9.33,0v33.34"/><path class="cls-17" d="M1284.3,767.38h-31a4.67,4.67,0,1,0,0,9.33h33.35"/><ellipse class="cls-17" cx="1295.89" cy="785.84" rx="28.05" ry="27.41" transform="translate(-176.11 1146.5) rotate(-45)"/><path class="cls-17" d="M1369.28,793.91a6,6,0,0,1-1.69-5.21l7.11-44.4-28.19-28.19a6,6,0,0,1,8.5-8.5L1385.36,738a6,6,0,0,1,1.69,5.2l-7.59,47.43a6,6,0,0,1-10.18,3.31Z"/><path class="cls-17" d="M1384.93,816.2l-.06-.06a6,6,0,0,1,.12-8.5L1419.62,774a6,6,0,0,1,8.44.06l54.07,54.08a6,6,0,1,1-8.49,8.5l-49.89-49.89-30.38,29.55A6,6,0,0,1,1384.93,816.2Z"/><path class="cls-17" d="M1473.16,914.87a6,6,0,0,1-1.5-6c3.74-12.27,3.29-25.77-1.34-40.12a88.66,88.66,0,0,0-7.08-16.24l-41.86-7.12a6,6,0,1,1,2-11.85l44.59,7.59a6,6,0,0,1,4,2.61,94.7,94.7,0,0,1,9.65,21c5.43,16.62,5.95,33.11,1.52,47.68a6,6,0,0,1-10,2.5Z"/><path class="cls-17" d="M1302.35,860.83a6,6,0,0,0-5.2-1.69l-44.41,7.11-28.19-28.19a6,6,0,1,0-8.49,8.5l30.35,30.36a6,6,0,0,0,5.2,1.68l47.44-7.59a6,6,0,0,0,5-6.88A5.92,5.92,0,0,0,1302.35,860.83Z"/><path class="cls-17" d="M1324.65,876.48l-.06-.05a6,6,0,0,0-8.5.11l-33.68,34.63a6,6,0,0,0,.06,8.44l54.07,54.08a6,6,0,0,0,8.5-8.5l-49.88-49.89,29.54-30.38A6,6,0,0,0,1324.65,876.48Z"/><path class="cls-17" d="M1423.32,964.72a6,6,0,0,0-6-1.5c-12.27,3.73-25.76,3.28-40.11-1.34A89.76,89.76,0,0,1,1361,954.8l-7.13-41.87a6,6,0,1,0-11.85,2l7.59,44.59a6,6,0,0,0,2.61,4,94.15,94.15,0,0,0,21,9.66c16.62,5.42,33.1,5.95,47.67,1.51a6,6,0,0,0,4-7.49A5.91,5.91,0,0,0,1423.32,964.72Z"/><path class="cls-17" d="M1353.5,930.28A61.68,61.68,0,1,0,1440.73,843l-62.55-62.56c-24.09-24.09-67.08-28-91.17-3.93s-20.16,67.08,3.93,91.17Z"/><line class="cls-17" x1="1373.53" y1="776.37" x2="1285.77" y2="864.13"/><line class="cls-17" x1="1440.88" y1="929.12" x2="1330.77" y2="819.01"/><path d="M3729.21,1520.15l18.6-32h7.35v32h8v4h-8v16.57h-4.57v-16.57h-21.38Zm4.5,0h16.88v-28.8h-.3Z"/><path d="M3773.84,1532.53a4.54,4.54,0,1,1-4.5,4.57A4.54,4.54,0,0,1,3773.84,1532.53Z"/><path d="M2646.88,1525.49c0-8.18-4.87-11.7-12-11.7a32.17,32.17,0,0,0-4.05.22v-3.37l15.45-17.85h-22.5v-4.13h27.07v4.65L2636.31,1510c8.7,0,15.29,5.92,15.29,15.45,0,11.4-7,16.57-15,16.57-7.65,0-14.4-4.87-14.4-14.1v-3.3h4.5l.07,2.85c.15,7.13,4.28,10.58,9.75,10.58C2642.76,1538.09,2646.88,1534,2646.88,1525.49Z"/><path d="M2664.66,1533a4.54,4.54,0,1,1-4.5,4.57A4.54,4.54,0,0,1,2664.66,1533Z"/><path d="M2695.11,1524.74v-36.08h4.64v36c0,7.5,3.75,13.43,12.75,13.43,8.85,0,12.75-5.93,12.75-13.43v-36h4.5v36c0,9.9-5.32,17.4-17.32,17.4S2695.11,1534.64,2695.11,1524.74Z"/><path d="M2756.15,1532.39c0-3.3-2.7-4.73-7.42-6.45l-1.87-.68c-5-1.8-8.4-4.35-8.4-9.15,0-5.47,4.87-8.92,11.32-8.92a16.84,16.84,0,0,1,10.72,3.82l-2.47,3.45a15,15,0,0,0-8.4-3.3c-3.67,0-6.45,1.88-6.45,4.73,0,2.1,1.5,3.75,4.88,5l3.82,1.43c6.37,2.47,9,5.25,9,10.12,0,4.28-3.68,9.6-12.15,9.6a19.77,19.77,0,0,1-11.62-4.12l2.4-3.45a15.84,15.84,0,0,0,9.37,3.52C2753.38,1538,2756.15,1535.46,2756.15,1532.39Z"/><path d="M2771.45,1526c.6,6.83,5.18,12,12.08,12a11.38,11.38,0,0,0,10.27-5.7h5.33a17,17,0,0,1-15.6,9.75c-9.53,0-16.8-7.27-16.8-17.4s7.27-17.47,16.72-17.47c8.63,0,16.65,6.07,16.65,18.67v.15Zm.15-3.75H2795c-.52-6-5-11-11.55-11S2772.43,1516,2771.6,1522.26Z"/><path d="M2824.7,1512.14h-2.25c-5.85,0-10,2.7-10,10.5v18.52h-4.5v-33.07h4.35v5.62c1.88-4.42,6-6.22,10-6.22.75,0,1.57.07,2.47.15Z"/><path d="M2861.9,1512.14h-2.25c-5.85,0-10.05,2.7-10.05,10.5v18.52h-4.5v-33.07h4.35v5.62c1.88-4.42,6-6.22,10-6.22.75,0,1.57.07,2.47.15Z"/><path d="M2870.3,1526c.6,6.83,5.18,12,12.08,12a11.38,11.38,0,0,0,10.27-5.7H2898a17,17,0,0,1-15.6,9.75c-9.53,0-16.8-7.27-16.8-17.4s7.27-17.47,16.72-17.47c8.63,0,16.65,6.07,16.65,18.67v.15Zm.15-3.75h23.4c-.52-6-5-11-11.55-11S2871.28,1516,2870.45,1522.26Z"/><path d="M2904.43,1524.66c0-10.12,7.2-17.47,16.65-17.47,5.7,0,10.8,3.22,12.75,7.35v-6.45h4.57v46.2h-4.57v-19.35c-2,4-7,7.12-12.6,7.12C2911.7,1542.06,2904.43,1534.79,2904.43,1524.66Zm17.1,13.43c7.35,0,12.52-5.85,12.52-13.43s-5.17-13.42-12.52-13.42-12.45,5.85-12.45,13.42S2914.18,1538.09,2921.53,1538.09Z"/><path d="M2948.6,1529.39v-21.3h4.58v20.85c0,6,4.12,9.07,9.6,9.07s9.6-3.07,9.6-9.07v-20.85H2977v21.3c0,7-4.95,12.67-14.17,12.67S2948.6,1536.36,2948.6,1529.39Z"/><path d="M2989.55,1526c.6,6.83,5.18,12,12.08,12a11.38,11.38,0,0,0,10.27-5.7h5.33a17,17,0,0,1-15.6,9.75c-9.53,0-16.8-7.27-16.8-17.4s7.27-17.47,16.72-17.47c8.63,0,16.65,6.07,16.65,18.67v.15Zm.15-3.75h23.4c-.52-6-5-11-11.55-11S2990.53,1516,2989.7,1522.26Z"/><path d="M3042.05,1532.39c0-3.3-2.7-4.73-7.42-6.45l-1.88-.68c-5-1.8-8.4-4.35-8.4-9.15,0-5.47,4.88-8.92,11.33-8.92a16.84,16.84,0,0,1,10.72,3.82l-2.47,3.45a15,15,0,0,0-8.4-3.3c-3.68,0-6.45,1.88-6.45,4.73,0,2.1,1.5,3.75,4.87,5l3.83,1.43c6.37,2.47,9,5.25,9,10.12,0,4.28-3.68,9.6-12.15,9.6a19.8,19.8,0,0,1-11.63-4.12l2.4-3.45a15.85,15.85,0,0,0,9.38,3.52C3039.28,1538,3042.05,1535.46,3042.05,1532.39Z"/><path d="M3061.4,1494.14v13.95h8.18v3.82h-8.18v22.43c0,3.07,2.18,3.22,4.73,3.22a23.86,23.86,0,0,0,3.45-.22v3.82a46.32,46.32,0,0,1-5.1.3c-3.45,0-7.65-.9-7.65-7v-22.5h-5.7v-3.82h5.7v-13.95Z"/><path d="M3092.6,1532.39c0-3.3-2.7-4.73-7.43-6.45l-1.87-.68c-5-1.8-8.4-4.35-8.4-9.15,0-5.47,4.88-8.92,11.32-8.92A16.89,16.89,0,0,1,3097,1511l-2.48,3.45a15,15,0,0,0-8.4-3.3c-3.67,0-6.44,1.88-6.44,4.73,0,2.1,1.5,3.75,4.87,5l3.82,1.43c6.38,2.47,9,5.25,9,10.12,0,4.28-3.67,9.6-12.15,9.6a19.79,19.79,0,0,1-11.62-4.12l2.4-3.45a15.84,15.84,0,0,0,9.37,3.52C3089.82,1538,3092.6,1535.46,3092.6,1532.39Z"/><path d="M3125.82,1494.14v13.95H3134v3.82h-8.18v22.43c0,3.07,2.18,3.22,4.73,3.22a23.68,23.68,0,0,0,3.45-.22v3.82a46.32,46.32,0,0,1-5.1.3c-3.45,0-7.65-.9-7.65-7v-22.5h-5.7v-3.82h5.7v-13.95Z"/><path d="M3155.37,1507.19a17.44,17.44,0,1,1-17.1,17.47C3138.27,1514.54,3145.92,1507.19,3155.37,1507.19Zm0,4c-7.35,0-12.45,5.85-12.45,13.42s5.1,13.43,12.45,13.43,12.53-5.85,12.53-13.43S3162.8,1511.24,3155.37,1511.24Z"/><path d="M3211.85,1532.39c0-3.3-2.7-4.73-7.43-6.45l-1.87-.68c-5-1.8-8.4-4.35-8.4-9.15,0-5.47,4.87-8.92,11.32-8.92a16.89,16.89,0,0,1,10.73,3.82l-2.48,3.45a15,15,0,0,0-8.4-3.3c-3.67,0-6.45,1.88-6.45,4.73,0,2.1,1.5,3.75,4.88,5l3.82,1.43c6.38,2.47,9,5.25,9,10.12,0,4.28-3.67,9.6-12.15,9.6a19.77,19.77,0,0,1-11.62-4.12l2.4-3.45a15.84,15.84,0,0,0,9.37,3.52C3209.07,1538,3211.85,1535.46,3211.85,1532.39Z"/><path d="M3227.15,1526c.6,6.83,5.17,12,12.07,12a11.41,11.41,0,0,0,10.28-5.7h5.32a16.94,16.94,0,0,1-15.6,9.75c-9.52,0-16.8-7.27-16.8-17.4s7.28-17.47,16.73-17.47c8.62,0,16.65,6.07,16.65,18.67v.15Zm.15-3.75h23.4c-.53-6-5-11-11.55-11S3228.12,1516,3227.3,1522.26Z"/><path d="M3266,1526c.6,6.83,5.17,12,12.07,12a11.38,11.38,0,0,0,10.27-5.7h5.33a17,17,0,0,1-15.6,9.75c-9.52,0-16.8-7.27-16.8-17.4s7.28-17.47,16.72-17.47c8.63,0,16.65,6.07,16.65,18.67v.15Zm.15-3.75h23.39c-.52-6-5-11-11.55-11S3267,1516,3266.15,1522.26Z"/><path d="M3332.14,1538.09a11.84,11.84,0,0,0,10.88-6.68l3.9,2.25a16.76,16.76,0,0,1-14.78,8.4c-9.52,0-17.1-7.27-17.1-17.4s7.58-17.47,17.1-17.47a16.76,16.76,0,0,1,14.78,8.4l-3.9,2.25a11.89,11.89,0,0,0-10.88-6.6c-7.35,0-12.45,5.85-12.45,13.42S3324.79,1538.09,3332.14,1538.09Z"/><path d="M3369.12,1507.19a17.44,17.44,0,1,1-17.1,17.47C3352,1514.54,3359.67,1507.19,3369.12,1507.19Zm0,4c-7.35,0-12.45,5.85-12.45,13.42s5.1,13.43,12.45,13.43,12.52-5.85,12.52-13.43S3376.54,1511.24,3369.12,1511.24Z"/><path d="M3422.14,1520.46v20.7h-4.57v-22c0-5.1-3.15-8-7.88-8-3.9,0-7.42,2.17-10.57,5.85v24.07h-4.58v-33.07h4.5v4.72c2.85-3.45,6.45-5.62,11.25-5.62,5.55,0,9.23,2.47,10.8,6.37,3.6-4.35,7.5-6.37,12.3-6.37,7.8,0,11.78,4.72,11.78,12v22h-4.58v-22c0-5.1-3.15-8-7.8-8-4,0-7.57,2.25-10.8,6C3422.07,1518.29,3422.14,1519.41,3422.14,1520.46Z"/><path d="M3483,1520.46v20.7h-4.57v-22c0-5.1-3.15-8-7.88-8-3.9,0-7.42,2.17-10.57,5.85v24.07h-4.58v-33.07h4.5v4.72c2.85-3.45,6.45-5.62,11.25-5.62,5.55,0,9.23,2.47,10.8,6.37,3.6-4.35,7.5-6.37,12.3-6.37,7.8,0,11.78,4.72,11.78,12v22h-4.58v-22c0-5.1-3.15-8-7.8-8-4,0-7.57,2.25-10.8,6C3483,1518.29,3483,1519.41,3483,1520.46Z"/><path d="M3518.74,1526c.6,6.83,5.18,12,12.08,12a11.38,11.38,0,0,0,10.27-5.7h5.33a17,17,0,0,1-15.6,9.75c-9.53,0-16.8-7.27-16.8-17.4s7.27-17.47,16.72-17.47c8.63,0,16.65,6.07,16.65,18.67v.15Zm.15-3.75h23.4c-.52-6-5-11-11.55-11S3519.72,1516,3518.89,1522.26Z"/><path d="M3579,1519.41c0-5.32-3.45-8.17-8.18-8.17-4,0-7.87,2.17-11,5.85v24.07h-4.58v-33.07h4.5v4.72a15,15,0,0,1,11.85-5.62c7.73,0,12,4.72,12,12v22H3579Z"/><path d="M3600.27,1494.14v13.95h8.17v3.82h-8.17v22.43c0,3.07,2.17,3.22,4.72,3.22a23.68,23.68,0,0,0,3.45-.22v3.82a46.32,46.32,0,0,1-5.1.3c-3.45,0-7.65-.9-7.65-7v-22.5H3590v-3.82h5.7v-13.95Z"/><path d="M3822.21,1496.46c-2.62-2.25-7.27-4.65-11.62-4.65-5.48,0-10.8,2.93-10.8,8.78,0,3.45,2.25,6.6,7.65,9.37l5.47,2.85c8.18,4.28,12.15,8.78,12.15,15.15,0,7-5.77,14.1-16.35,14.1A22.94,22.94,0,0,1,3793,1536l2.62-3.53A18.76,18.76,0,0,0,3809,1538c7,0,11.33-4.87,11.33-9.75,0-5.4-3.38-8.17-10.28-11.77l-4.42-2.33c-6.83-3.6-10.5-7.42-10.5-13.42,0-8.18,7.12-13,15.37-13a23.49,23.49,0,0,1,14.25,5.1Z"/><path d="M3836,1526c.6,6.83,5.18,12,12.08,12a11.38,11.38,0,0,0,10.27-5.7h5.33a17,17,0,0,1-15.6,9.75c-9.53,0-16.8-7.27-16.8-17.4s7.27-17.47,16.72-17.47c8.63,0,16.65,6.07,16.65,18.67v.15Zm.15-3.75h23.4c-.52-6-5-11-11.55-11S3837,1516,3836.16,1522.26Z"/><path d="M3889.26,1512.14H3887c-5.85,0-10.05,2.7-10.05,10.5v18.52h-4.5v-33.07h4.35v5.62c1.88-4.42,6-6.22,10-6.22.75,0,1.57.07,2.47.15Z"/><path d="M3919,1508.09H3924l-12.53,33.07h-6.15l-12.3-33.07h5.18l10.27,29.32Z"/><path d="M3932.54,1526c.6,6.83,5.17,12,12.07,12a11.41,11.41,0,0,0,10.28-5.7h5.32a16.94,16.94,0,0,1-15.6,9.75c-9.52,0-16.8-7.27-16.8-17.4s7.28-17.47,16.73-17.47c8.62,0,16.65,6.07,16.65,18.67v.15Zm.15-3.75h23.4c-.53-6-5-11-11.55-11S3933.51,1516,3932.69,1522.26Z"/><path d="M3985.79,1512.14h-2.25c-5.85,0-10.05,2.7-10.05,10.5v18.52H3969v-33.07h4.35v5.62c1.87-4.42,6-6.22,10-6.22.75,0,1.58.07,2.48.15Z"/><path d="M4022.24,1532.39c0-3.3-2.7-4.73-7.43-6.45l-1.87-.68c-5-1.8-8.4-4.35-8.4-9.15,0-5.47,4.87-8.92,11.32-8.92a16.89,16.89,0,0,1,10.73,3.82l-2.48,3.45a15,15,0,0,0-8.4-3.3c-3.67,0-6.45,1.88-6.45,4.73,0,2.1,1.5,3.75,4.88,5l3.82,1.43c6.38,2.47,9,5.25,9,10.12,0,4.28-3.67,9.6-12.15,9.6a19.77,19.77,0,0,1-11.62-4.12l2.4-3.45A15.84,15.84,0,0,0,4015,1538C4019.46,1538,4022.24,1535.46,4022.24,1532.39Z"/><path d="M4037.54,1526c.6,6.83,5.17,12,12.07,12a11.38,11.38,0,0,0,10.27-5.7h5.33a17,17,0,0,1-15.6,9.75c-9.52,0-16.8-7.27-16.8-17.4s7.28-17.47,16.73-17.47c8.62,0,16.64,6.07,16.64,18.67v.15Zm.15-3.75h23.39c-.52-6-5-11-11.54-11S4038.51,1516,4037.69,1522.26Z"/><path d="M4097.76,1519.41c0-5.32-3.45-8.17-8.18-8.17-4,0-7.87,2.17-11,5.85v24.07H4074v-33.07h4.5v4.72a15,15,0,0,1,11.84-5.62c7.73,0,12,4.72,12,12v22h-4.57Z"/><path d="M4139.68,1514.54v-25.88h4.58v52.5h-4.58v-6.3c-2,4.13-7,7.2-12.6,7.2-9.52,0-16.79-7.27-16.79-17.4s7.19-17.47,16.64-17.47C4132.63,1507.19,4137.73,1510.41,4139.68,1514.54Zm-12.3,23.55c7.35,0,12.53-5.85,12.53-13.43s-5.18-13.42-12.53-13.42-12.45,5.85-12.45,13.42S4120,1538.09,4127.38,1538.09Z"/><path d="M4171,1532.39c0-3.3-2.7-4.73-7.43-6.45l-1.87-.68c-5-1.8-8.4-4.35-8.4-9.15,0-5.47,4.87-8.92,11.32-8.92a16.89,16.89,0,0,1,10.73,3.82l-2.48,3.45a15,15,0,0,0-8.4-3.3c-3.67,0-6.45,1.88-6.45,4.73,0,2.1,1.5,3.75,4.88,5l3.82,1.43c6.38,2.47,9,5.25,9,10.12,0,4.28-3.67,9.6-12.15,9.6a19.77,19.77,0,0,1-11.62-4.12l2.4-3.45a15.84,15.84,0,0,0,9.37,3.52C4168.18,1538,4171,1535.46,4171,1532.39Z"/><path d="M4213.56,1538.09a11.82,11.82,0,0,0,10.87-6.68l3.9,2.25a16.73,16.73,0,0,1-14.77,8.4c-9.53,0-17.1-7.27-17.1-17.4s7.57-17.47,17.1-17.47a16.73,16.73,0,0,1,14.77,8.4l-3.9,2.25a11.87,11.87,0,0,0-10.87-6.6c-7.35,0-12.45,5.85-12.45,13.42S4206.21,1538.09,4213.56,1538.09Z"/><path d="M4250.53,1507.19a17.44,17.44,0,1,1-17.1,17.47C4233.43,1514.54,4241.08,1507.19,4250.53,1507.19Zm0,4c-7.35,0-12.45,5.85-12.45,13.42s5.1,13.43,12.45,13.43,12.53-5.85,12.53-13.43S4258,1511.24,4250.53,1511.24Z"/><path d="M4303.56,1520.46v20.7H4299v-22c0-5.1-3.15-8-7.87-8-3.9,0-7.43,2.17-10.58,5.85v24.07H4276v-33.07h4.5v4.72c2.85-3.45,6.45-5.62,11.25-5.62,5.55,0,9.22,2.47,10.8,6.37,3.6-4.35,7.5-6.37,12.3-6.37,7.8,0,11.77,4.72,11.77,12v22H4322v-22c0-5.1-3.15-8-7.8-8-4,0-7.58,2.25-10.8,6C4303.48,1518.29,4303.56,1519.41,4303.56,1520.46Z"/><path d="M4364.46,1520.46v20.7h-4.58v-22c0-5.1-3.15-8-7.87-8-3.9,0-7.43,2.17-10.58,5.85v24.07h-4.57v-33.07h4.5v4.72c2.85-3.45,6.45-5.62,11.25-5.62,5.55,0,9.22,2.47,10.8,6.37,3.6-4.35,7.5-6.37,12.29-6.37,7.8,0,11.78,4.72,11.78,12v22h-4.58v-22c0-5.1-3.14-8-7.79-8-4,0-7.58,2.25-10.8,6C4364.38,1518.29,4364.46,1519.41,4364.46,1520.46Z"/><path d="M4400.16,1526c.6,6.83,5.17,12,12.07,12a11.41,11.41,0,0,0,10.28-5.7h5.32a16.94,16.94,0,0,1-15.6,9.75c-9.52,0-16.8-7.27-16.8-17.4s7.28-17.47,16.73-17.47c8.62,0,16.65,6.07,16.65,18.67v.15Zm.15-3.75h23.4c-.53-6-5-11-11.55-11S4401.13,1516,4400.31,1522.26Z"/><path d="M4460.38,1519.41c0-5.32-3.45-8.17-8.18-8.17-4,0-7.87,2.17-11,5.85v24.07h-4.57v-33.07h4.5v4.72a15,15,0,0,1,11.84-5.62c7.73,0,12,4.72,12,12v22h-4.57Z"/><path d="M4481.68,1494.14v13.95h8.18v3.82h-8.18v22.43c0,3.07,2.18,3.22,4.73,3.22a23.68,23.68,0,0,0,3.45-.22v3.82a46.32,46.32,0,0,1-5.1.3c-3.45,0-7.65-.9-7.65-7v-22.5h-5.7v-3.82h5.7v-13.95Z"/><path d="M4517.15,1494.14v13.95h8.18v3.82h-8.18v22.43c0,3.07,2.18,3.22,4.73,3.22a23.68,23.68,0,0,0,3.45-.22v3.82a46.32,46.32,0,0,1-5.1.3c-3.45,0-7.65-.9-7.65-7v-22.5h-5.7v-3.82h5.7v-13.95Z"/><path d="M4546.7,1507.19a17.44,17.44,0,1,1-17.1,17.47C4529.6,1514.54,4537.25,1507.19,4546.7,1507.19Zm0,4c-7.35,0-12.45,5.85-12.45,13.42s5.1,13.43,12.45,13.43,12.53-5.85,12.53-13.43S4554.13,1511.24,4546.7,1511.24Z"/><path d="M4608.2,1508.09h4.95l-12.52,33.07h-6.15l-12.3-33.07h5.17l10.28,29.32Z"/><path d="M4626.28,1541.16h-4.58v-29.25h-5.25v-3.82h9.83Zm-2.63-49.05a4,4,0,1,1-4,4A4,4,0,0,1,4623.65,1492.11Z"/><path d="M4651.63,1538.09a11.82,11.82,0,0,0,10.87-6.68l3.9,2.25a16.73,16.73,0,0,1-14.77,8.4c-9.53,0-17.1-7.27-17.1-17.4s7.57-17.47,17.1-17.47a16.73,16.73,0,0,1,14.77,8.4l-3.9,2.25a11.87,11.87,0,0,0-10.87-6.6c-7.35,0-12.45,5.85-12.45,13.42S4644.28,1538.09,4651.63,1538.09Z"/><path d="M4680.73,1494.14v13.95h8.17v3.82h-8.17v22.43c0,3.07,2.17,3.22,4.72,3.22a23.68,23.68,0,0,0,3.45-.22v3.82a46.32,46.32,0,0,1-5.1.3c-3.45,0-7.65-.9-7.65-7v-22.5h-5.7v-3.82h5.7v-13.95Z"/><path d="M4701.65,1541.16h-4.57v-29.25h-5.25v-3.82h9.82Zm-2.62-49.05a4,4,0,1,1-4,4A4,4,0,0,1,4699,1492.11Z"/><path d="M4739.9,1520.46v20.7h-4.57v-22c0-5.1-3.15-8-7.88-8-3.9,0-7.42,2.17-10.57,5.85v24.07h-4.58v-33.07h4.5v4.72c2.85-3.45,6.45-5.62,11.25-5.62,5.55,0,9.23,2.47,10.8,6.37,3.6-4.35,7.5-6.37,12.3-6.37,7.8,0,11.77,4.72,11.77,12v22h-4.57v-22c0-5.1-3.15-8-7.8-8-4,0-7.57,2.25-10.8,6C4739.83,1518.29,4739.9,1519.41,4739.9,1520.46Z"/><rect class="cls-11" x="3920.54" y="436.72" width="565" height="57.47"/><ellipse class="cls-4" cx="3995.56" cy="465.39" rx="12.99" ry="13.29"/><ellipse class="cls-5" cx="4031.71" cy="465.39" rx="12.99" ry="13.29"/><ellipse class="cls-6" cx="3957.23" cy="465.39" rx="12.99" ry="13.29"/><rect class="cls-2" x="4093.57" y="542.62" width="349.94" height="228.04"/><circle class="cls-18" cx="4011.75" cy="594.65" r="49"/><g class="cls-19"><polygon class="cls-20" points="4023.98 627.8 4000.78 627.4 4001.61 618.36 4002.46 610.89 4021.91 610.63 4023.09 618.43 4023.98 627.8"/><path class="cls-21" d="M4028.94,668.68h-30.69V621.9a51.54,51.54,0,0,0,14.61,2.55,59.82,59.82,0,0,0,16.08-2.55Z"/><path class="cls-21" d="M4028.94,670.24h-30.69v-44.5a48,48,0,0,0,14.61,2.77,55.56,55.56,0,0,0,16.08-2.77Z"/><path class="cls-20" d="M4029.76,582.78a5.38,5.38,0,0,1,5.57-.6c2.2,1.07,2.46,3.45,1.4,6.12,0,0,2.44,7.63-3.62,7.63-5.8,0-4.65-3.54-4.65-3.54"/><path class="cls-22" d="M4030.87,593.32s-.22-1.55,1.05-1.71a1.55,1.55,0,0,1,1.65,1.29s2-.19,1.49-3.16"/><path class="cls-22" d="M4031.2,584.4s4.51-1.42,3.75,3"/><line class="cls-22" x1="4033.17" y1="586.68" x2="4031.54" y2="590.24"/><path class="cls-20" d="M3995.32,582.08a5.38,5.38,0,0,0-5.55-.8c-2.24,1-2.58,3.35-1.63,6.06,0,0-2.71,7.53,3.33,7.75,5.8.22,4.79-3.35,4.79-3.35"/><path class="cls-22" d="M3993.81,592.57s.28-1.54-1-1.75a1.56,1.56,0,0,0-1.7,1.23s-2-.27-1.37-3.21"/><path class="cls-22" d="M3993.82,583.65s-4.46-1.6-3.87,2.9"/><line class="cls-22" x1="3991.76" y1="585.85" x2="3993.26" y2="589.47"/><path class="cls-20" d="M4032.27,582.14c-.79-1.1-.32-2.55.43-6.14a12.86,12.86,0,0,0-.29-7.76c-1.49-4.59-7.9-10.63-19.1-10.77-13.21-.17-19.71,8.51-20.43,12.53-.48,2.69-.15,3.48,0,5.85.15,2,.88,4.84.12,5.71a10,10,0,0,0-2,6.55,17.84,17.84,0,0,0,3.34,10.25l.59,6.79s0,8.07,7.43,9.74c.63,1.18,2.37,2.71,7.17,2.8l5,.1c4.91.09,6.68-1.45,7.32-2.62,7-1.48,7.54-9.58,7.54-9.58l.71-6.56a18.14,18.14,0,0,0,3.69-9.3C4034,587.42,4034.05,584.61,4032.27,582.14Z"/><path class="cls-22" d="M4011,588.92s-6.89,6.75-4.38,10.49c1.07,1.6,3.72,0,3.72,0a3.09,3.09,0,0,0,4,.07,2.76,2.76,0,0,0,3.17-.23"/><path class="cls-22" d="M4005.53,605.67a9.61,9.61,0,0,0,13.6.26"/><path class="cls-20" d="M3993,581.56c.76-.87,0-3.71-.12-5.71-.18-2.37-.51-3.16,0-5.85.72-4,7.22-12.7,20.43-12.53,11.2.14,17.61,6.18,19.1,10.77a12.86,12.86,0,0,1,.29,7.76l-.79,4.38s-7.47-4.38-7.4-11.42l-22.94.14s-.36,4.91-1.94,7.54C3998.17,579.07,3993,581.56,3993,581.56Z"/><path class="cls-22" d="M4027.22,588.32a5.86,5.86,0,1,0-11.72,0"/><circle class="cls-23" cx="4021.19" cy="587.71" r="1.57"/><path class="cls-22" d="M4009,588.32a5.87,5.87,0,0,0-11.73,0"/><circle class="cls-23" cx="4002.99" cy="587.71" r="1.57"/><path class="cls-22" d="M3998,578.73a15.47,15.47,0,0,1,5.1-.72,19.68,19.68,0,0,1,5.1.72"/><path class="cls-22" d="M4016,578.73a15.36,15.36,0,0,1,5.09-.72,19.68,19.68,0,0,1,5.1.72"/><path class="cls-20" d="M3995.79,618.51c-15.8,0-21.68,4.42-23.79,10.53-2.71,7.81-5,15.56-5,15.56l-6.4,24.47,106.2-.59L4060,643.32s-3.21-9.7-4.67-13c-2.43-5.48-5-11.82-20.81-11.82h-11.39l-1.7,50h-15l-4.76-50Z"/><polyline class="cls-20" points="4027.77 618.36 4034.98 631.34 4029.34 640.9 4035.11 649.68 4026.2 668.42"/><polyline class="cls-20" points="3997.5 618.36 3990.3 631.34 3995.93 640.9 3990.16 649.68 3999.07 668.42"/></g><circle class="cls-14" cx="4011.75" cy="594.65" r="49"/><line class="cls-13" x1="4133.49" y1="583.94" x2="4399.58" y2="583.94"/><line class="cls-13" x1="4133.49" y1="623.99" x2="4399.58" y2="623.99"/><line class="cls-13" x1="4133.49" y1="661.41" x2="4399.58" y2="661.41"/><line class="cls-13" x1="4133.49" y1="698.23" x2="4399.58" y2="698.23"/><line class="cls-13" x1="4133.49" y1="735.65" x2="4399.58" y2="735.65"/><polygon class="cls-2" points="4311.66 281.46 4311.66 432.96 4233.43 565.12 4311.66 492.28 4311.66 523.66 4596.2 523.66 4596.2 281.46 4311.66 281.46"/><path class="cls-17" d="M4387.25,362l-8-22.93a3.66,3.66,0,1,0-6.92,2.4l8.61,24.7"/><path class="cls-17" d="M4380.44,362.48l-22.93,8a3.66,3.66,0,0,0,2.41,6.91l24.7-8.6"/><ellipse class="cls-17" cx="4393.79" cy="373.17" rx="22" ry="21.5" transform="translate(2145.97 4166.84) rotate(-64.21)"/><path class="cls-17" d="M4450.23,360.2a4.69,4.69,0,0,1-2.59-3.41l-6.2-34.73-28.15-13.61a4.71,4.71,0,1,1,4.1-8.48l30.32,14.65a4.73,4.73,0,0,1,2.59,3.42l6.62,37.09a4.71,4.71,0,0,1-6.69,5.07Z"/><path class="cls-17" d="M4467.58,372.68l-.06,0a4.72,4.72,0,0,1-2.11-6.33l17-33.88a4.72,4.72,0,0,1,6.27-2.13l54,26.1a4.72,4.72,0,0,1-4.11,8.49l-49.82-24.08-14.88,29.72A4.71,4.71,0,0,1,4467.58,372.68Z"/><path class="cls-17" d="M4558.39,423a4.71,4.71,0,0,1-2.66-4.06c-.4-10.06-4.22-19.94-11.34-29.37a69.88,69.88,0,0,0-9.44-10.2l-32.85,5.52a4.71,4.71,0,1,1-1.56-9.29l35-5.89a4.68,4.68,0,0,1,3.63.9,73.65,73.65,0,0,1,12.56,13c8.31,10.91,12.95,23,13.43,34.92a4.72,4.72,0,0,1-4.52,4.9A4.82,4.82,0,0,1,4558.39,423Z"/><path class="cls-17" d="M4417.93,427.05a4.68,4.68,0,0,0-4.29.09l-31.06,16.72-28.15-13.61a4.72,4.72,0,0,0-4.11,8.49l30.32,14.66a4.74,4.74,0,0,0,4.29-.1l33.18-17.86a4.71,4.71,0,0,0-.18-8.39Z"/><path class="cls-17" d="M4438.48,432.89l-.06,0a4.72,4.72,0,0,0-6.27,2.28l-16,34.34a4.72,4.72,0,0,0,2.22,6.24l54,26.1a4.72,4.72,0,0,0,4.11-8.49l-49.83-24.08,14.05-30.13A4.7,4.7,0,0,0,4438.48,432.89Z"/><path class="cls-17" d="M4534.33,472.78a4.7,4.7,0,0,0-4.83.44c-8.13,5.93-18.24,9.08-30.06,9.36a70.06,70.06,0,0,1-13.86-1.06l-16.08-29.17a4.71,4.71,0,1,0-8.25,4.55L4478.37,488a4.73,4.73,0,0,0,3,2.29,73.62,73.62,0,0,0,18,1.75c13.71-.27,26.06-4.14,35.71-11.18a4.72,4.72,0,0,0-.73-8.05Z"/><path class="cls-17" d="M4473.73,465.29a48.39,48.39,0,0,0,42.11-87.13L4453.36,348c-24.06-11.62-56.92-3.44-68.54,20.62s2.37,54.89,26.43,66.51Z"/><line class="cls-17" x1="4448.85" y1="346.12" x2="4406.49" y2="433.77"/><line class="cls-17" x1="4538.16" y1="441.88" x2="4428.18" y2="388.73"/></svg>